<svg class="product-instruction-bg-bottom" id="bd3aed43-6ebb-42ed-b924-4ad8ec72c5e0" data-name="Layer 1" xmlns="http://www.w3.org/2000/svg" viewBox="0 0 1920 125">
        <path id="a3bb693f-4101-49bb-af8c-924c5d5649ac" data-name="Path 14" d="M1910.55-359.59c-2.77-19.78-6.67-40.79-23.62-55.85-21.88-19.44-58.77-23.29-92.22-24.46-107.44-3.76-214.47,10.08-321.93,13.29-393,11.73-778-36.38-1318.51-1.42-53,3.42-112.56,2.79-148.8,32.6-33.85,27.85-35.72,69.9-35.65,108,.15,83.78.3,121.93.44,205.72.11,58.08,4.3,123.55,60.7,162.29,53.45,36.71,146.56,35.24,218.26,33.64,342.88-7.65,662.35.44,1004.62,8.15,100.38,2.27,287.9,5.71,432.78-9.91,77.62-8.36,150,30.65,200.24.46s43.82-100.32,38.76-164C1916.07-171.17,1927.29-239.81,1910.55-359.59Z" fill="#416BA9"></path>
    </svg>