<svg id="b3ddd92f-c2b8-4124-a6ea-eca4ffa17d52" data-name="a3dffc6e-7f0d-47a8-a780-f4b98353f0b2" xmlns="http://www.w3.org/2000/svg" xmlns:xlink="http://www.w3.org/1999/xlink" viewBox="0 0 1920 113.96">
    <defs>
        <clipPath id="b46a6311-5193-4f1b-9ac4-1d19ee747d38">
            <rect y="-0.08" width="1920" height="113.19" fill="none"></rect></clipPath><clipPath id="a0b53e85-4a25-4c38-8b72-e26ca3493786">
            <rect y="-792.7" width="1939.25" height="963.95" fill="none"></rect>
        </clipPath>
    </defs>
    <g clip-path="url(#b46a6311-5193-4f1b-9ac4-1d19ee747d38)">
        <g id="f8671791-0ad8-473f-a973-735f92dd18b5" data-name="f965f1ab-6a2f-4f29-b80b-817d662c5cf5">
            <g clip-path="url(#a0b53e85-4a25-4c38-8b72-e26ca3493786)">
                <g id="eab5b9cd-68aa-48db-a8bf-d3d0184b757a" data-name="b48f73ea-3fb0-4106-a4dd-8a1b0fd1f513">
                    <path class="color-secondaire" id="a107b43a-5caa-44f4-8e9d-e2aec5bf8987" data-name="af513e56-54cf-4670-a1ff-3f1d87d75acb" d="M2011.41-674.15c-3-32.19-7.19-66.39-25.4-90.9-23.5-31.65-63.15-37.91-99.07-39.82-115.49-6.12-230.52,16.41-346,21.63-422.48,19.09-836.2-59.21-1417.16-2.32-56.91,5.58-121,4.56-159.95,53-36.41,45.33-38.43,113.77-38.32,175.73.16,136.37.33,198.47.48,334.83.11,94.52,4.61,201.14,65.23,264.19C48.64,102,148.71,99.63,225.82,97c368.53-12.46,711.91.71,1079.79,13.27,107.9,3.68,309.5,9.28,465.17-16.12C1854.21,80.52,1932,144,1986,94.88S2033.1-68.41,2027.66-172C2017.36-367.48,2029.41-479.2,2011.41-674.15Z" fill="#172538"></path>
                </g>
            </g>
        </g>
        <path id="line" d="M1909.55,95.28c-18.93,0-39.18-3.21-60-6.5-31.29-5-63.66-10.08-97.41-6.35C1594.82,99.75,1389.13,95,1301.29,93l-55-1.29C911,83.94,594.26,76.59,256,84.32,183.53,86,84.34,88.23,27,48c-27-19-45-45.2-54.73-80.2-8.45-30.31-9.67-63.48-9.72-94.81h6c.11,64.19,5,130.21,61.88,170.13C86.17,82.18,184.22,80,255.79,78.31c338.44-7.72,655.2-.38,990.57,7.4l55,1.27c87.72,2,293.13,6.76,450-10.52,34.55-3.81,67.32,1.37,99,6.39,42.33,6.69,78.89,12.48,108.15-5.48,22.19-13.62,35.33-36.57,40.15-70.19,4.31-30.14,1.62-64.67-1-98.07l-.26-3.33,6-.46.26,3.33c2.63,33.73,5.35,68.6.94,99.39-5.08,35.49-19.13,59.85-43,74.46C1946.19,92.05,1928.53,95.28,1909.55,95.28Z" fill="#416BA9"></path>
    </g>
</svg>