<svg id="fecead01-188f-4b04-9c67-5ec86a9585c9" data-name="Layer 1" xmlns="http://www.w3.org/2000/svg" viewBox="0 0 190 125"><g style="isolation:isolate"><path d="M23.36,10.38c.14,3.46-.31,7-.07,10.47,0,.57.17,1.32-.37,1.73s-1.56-.07-2.21,0c-.88,0-1.36.4-1.74-.55a8,8,0,0,1,0-2.68c.07-1.7.14-3.47.07-5.17,0-1,0-1.94,0-2.86a9.74,9.74,0,0,1,0-1.53c-.14.34-2.38,7.79-2.58,8.54a17,17,0,0,1-1.16,3.84,2.71,2.71,0,0,1-3.09.34c-.85-.75-3.2-13-3.68-12.92a30.52,30.52,0,0,0,0,4.66c0,1.7,0,3.36,0,5.06,0,1.09.58,3.16-.85,3.33-.61.11-1.36-.06-2,0-.37,0-1.15.31-1.46,0s-.07-1.05-.07-1.36l.07-2.78c0-3.13,0-6.19-.07-9.32,0-1.63-.07-3.3,0-4.93,0-.78.1-1.53.1-2.28,0-.27-.27-1.42,0-1.66s1.5,0,1.87,0,1-.18,1.5-.21C9,0,9.49.42,9.83,1.71c.37,1.56,1,3.09,1.5,4.65s.81,3.2,1.32,4.76c.24.62.61,2,.75,2.45.27.82.34.58.44.17.34-1.29.51-1.63.61-2,1-3.2,2-6.4,3-9.63C18,.42,18.36,0,20.23.18c.34,0,3-.14,3,.3C23.19,3.78,23.22,7.08,23.36,10.38Z" fill="#fff"/><path d="M36.42.11a5,5,0,0,1,1.73,0c1,.38.85,1.67,1,2.48a68.54,68.54,0,0,0,2.08,7.45c.85,2.58,1.59,5.34,2.17,8,.27,1.18.75,2.41,1,3.56.27,1.36-.95,1-1.87,1a10.46,10.46,0,0,1-2,0c-.68-.24-.54-.41-.71-1.09s-.44-3.4-1.23-3.77A6.06,6.06,0,0,0,37,17.65c-.65,0-1.33,0-2-.07-1.53,0-1.49.89-1.83,2.14-.21.75-.21,2.49-1,2.89a3.77,3.77,0,0,1-1.53.07,12.88,12.88,0,0,1-2,0c-1.16-.27-.48-1.4-.2-2.28.4-1.53.85-3.06,1.29-4.59.85-2.89,1.63-5.85,2.31-8.8.34-1.36.82-2.69,1.12-4.05.1-.34.48-2.82.92-2.82ZM36.21,8.3c-.2,0-.37,1.6-.4,1.74A22.63,22.63,0,0,1,35,12.59c-.27.81-.17.78.65.81.41,0,1.67.41,2,0C37.85,13.13,36.32,8.3,36.21,8.3Z" fill="#fff"/><path d="M64.71,15.2c-.24,2.31-.28,4.52-2.25,6.16-1.6,1.36-4.21,1.29-6.19,1.25-1.12,0-2.21,0-3.33,0-.85,0-2.89.48-3.53-.1s-.14-2.41-.11-3.16c0-1.43,0-2.82-.1-4.25-.07-2.65.14-5.3,0-7.95,0-1.19,0-2.42.07-3.61,0-.58,0-1.15,0-1.73S49,.65,49.41.31c.47-.51,2.31-.13,2.92-.13,1.5,0,3,0,4.49,0a11.48,11.48,0,0,1,4,.37c3.54,1.6,3.61,4.35,3.81,7.65A44.19,44.19,0,0,1,64.71,15.2ZM60.39,7.93A3.43,3.43,0,0,0,58.21,4.6a6.53,6.53,0,0,0-2.45-.21c-.51,0-1.66,0-2,.1a15.63,15.63,0,0,0,0,1.81,21,21,0,0,1,0,2.51,59.66,59.66,0,0,0,0,6A24,24,0,0,0,54,18.4c.31.31,1.63,0,2.08,0A5,5,0,0,0,58.45,18a4.05,4.05,0,0,0,1.94-3.85Z" fill="#fff"/><path d="M70.76,12c-.1-1.9-.1-3.84-.07-5.71,0-1.09.07-2.14,0-3.23,0-.75-.37-2.31.24-2.89.85-.71,3.19,0,4.15,0,2,0,3.94,0,5.88,0,.51,0,1.22-.31,1.66.17s.24,1.25.24,1.76c0,1.63.2,2.59-1.8,2.35-1.63-.17-3.23,0-4.86-.1-.78-.07-.92-.21-1.06.64a19.24,19.24,0,0,0,0,3.13c0,.82-.07.75.68.85A15.59,15.59,0,0,0,78,9.12,7.66,7.66,0,0,1,80.48,9c.89.31.75,1,.72,1.84,0,1.15.47,2.58-1.09,2.62-1.12,0-4.42-.85-5,.23a7.43,7.43,0,0,0-.17,2.52,4.48,4.48,0,0,0,.3,2c.14.17.89.1,1.36.13a27.05,27.05,0,0,0,3.37,0,6.92,6.92,0,0,1,2.31-.07c.85.34.68,1.26.68,2.08,0,.58.17,2-.41,2.34a8.35,8.35,0,0,1-2.28-.07c-.64,0-9.55.41-9.55-.3C70.69,18.91,70.89,15.44,70.76,12Z" fill="#fff"/><path d="M120.39,20.4c-.34,1.3-.23,2.42-1.86,2.42-.89,0-2.69.37-3.1-.51-.68-1.39-.71-3.2-1.12-4.69-.14-.38-.82-3.61-1-3.61s-.89,2.11-1,2.35c-.68,1.63-1.22,3.36-1.73,5s-1.5,1.29-3,1.33c-.88,0-1.46.06-1.8-.89A26,26,0,0,1,105,19c-.81-3.13-1.53-6.29-2.37-9.45-.41-1.43-.79-2.86-1.16-4.29-.24-.92-1.8-4.08-1.16-4.86.28-.34,3.88-.41,4.29,0a4,4,0,0,1,.4,1.7c.24.95.55,1.87.82,2.82.51,1.84,1.06,3.67,1.46,5.51.21,1,.41,1.9.68,2.86a16.31,16.31,0,0,0,.44,1.59c.24,0,2.15-6.46,2.28-6.86a3.66,3.66,0,0,0,.38-2.15,18.05,18.05,0,0,0-.55-2.31c-.2-.78-.51-1.49-.75-2.24s0-.92.79-1c1-.14,3.23-.51,3.87.41a4.5,4.5,0,0,1,.34,1.53c.14.78.41,1.56.61,2.34.45,1.77.79,3.54,1.23,5.27.2.85.27,1.7.47,2.52a9.16,9.16,0,0,0,.41,2c.24.17.65-2.07.65-2.11.2-.88.47-1.73.71-2.58.55-2,1-4.12,1.6-6.09a13.45,13.45,0,0,1,.85-2.65c.44-.78,1.26-.64,2.07-.64.31,0,2.45-.14,2.45.44C123.93,7.21,122.16,13.81,120.39,20.4Z" fill="#fff"/><path d="M131.11,14c.1-2.59-.17-5.17-.11-7.79,0-1.22,0-2.41,0-3.64a7.48,7.48,0,0,1,0-1.7c.24-.64.21-.54.86-.68a24.5,24.5,0,0,1,2.71,0c1.09,0,1.13.68,1.06,1.57-.21,4.28-.17,8.53-.07,12.81,0,1.36.07,2.72,0,4.12a19.61,19.61,0,0,1,0,3.16c-.27,1.22-1.33.88-2.35.85-.2,0-2.17.17-2.17-.31C131,19.55,131,16.77,131.11,14Z" fill="#fff"/><path d="M140.15,2a3.89,3.89,0,0,1-.07-1.36c.44-1,2.65-.47,3.57-.51,1.46,0,2.93.11,4.39.14S151.1,0,152.66.11c1,.07,2.18-.41,2.35.88.1.68.24,3-.38,3.37-.3.17-.95,0-1.29,0a10.23,10.23,0,0,1-2.07,0c-1.67-.1-1.43.38-1.4,1.77,0,2.65-.17,5.37-.06,8.06.06,1.32-.11,2.61-.11,3.94l.14,2.11a6.21,6.21,0,0,1,0,2c-.4.78-1.8.41-2.58.37-1.5-.1-2,.07-2-1.63,0-3-.13-6.12,0-9.14a34.77,34.77,0,0,0,0-5c0-.61.1-1.22,0-1.84s-.17-.68-.85-.68-4.35.62-4.35-.23A20.65,20.65,0,0,0,140.15,2Z" fill="#fff"/><path d="M172.28.28c.44,0,1.26-.24,1.67.1.57.51.13,2,.1,2.69-.1,2.34,0,4.65,0,7s0,4.69,0,7c0,.95,0,1.87,0,2.82a8.45,8.45,0,0,1,.07,2.45c-.34.58-3.23.58-3.94.34s-.62-.68-.55-1.4c.07-1.25,0-2.48,0-3.74,0-1,0-1.9,0-2.85s.14-1.29-.81-1.43c-.62-.07-1.36.1-2,.07a8.9,8.9,0,0,0-2.48,0c-.44.31-.27,1.7-.27,2.28,0,1,0,1.94,0,2.93s.06,1.9.06,2.85-.06,1.16-.85,1.26a9.59,9.59,0,0,1-2.78,0c-1-.13-.85-.64-.82-1.53.17-4.52-.27-9.07-.14-13.59.07-2,.07-4,.11-6,0-.51-.11-.95.4-1.22s2.38-.11,3.06,0c1.16.14,1.06.71,1.06,1.73s0,1.87,0,2.83,0,2.24-.06,3.33.68,1.05,1.73,1.05h2.89c1.26,0,.88-.88.82-1.87-.14-2.24.13-4.52.13-6.73C169.66-.3,171.77.28,172.28.28Z" fill="#fff"/></g><g style="isolation:isolate"><path d="M2.28,105.06c0-1.76.12-3.48,0-5.28,0-.52-.16-1,.28-1.44.6-.56,2.4-.28,3.16-.24,1.52.08,3,.2,4.56.16l2.84-.12c.76,0,2.56-.2,3.28.16.56.28.24,1.76.24,2.8,0,.6.16,1.48-.4,2s-2,.12-2.64.12c-1.68,0-3.36-.12-5-.12-1.92,0-1.36,1.88-1.44,3.2a4.73,4.73,0,0,0,.48,2.32c.36.36,1.28,0,2.76.12,1.72.08,3.72-.24,4,.12a3,3,0,0,1,.24,1.56c0,.76,0,2-.12,2.72s-2.24.36-3.36.36-3.36,0-3.64.4a13.83,13.83,0,0,0,0,2.88c0,.92,0,1.84,0,2.76s-.12,1.84-.12,2.84c0,.48.36,1.6,0,2-.4.56-1.36.28-1.92.28-1,0-2,.08-3,.08C2,124.66,2.32,107,2.28,105.06Z" fill="#fff"/><path d="M27.24,115.1c.08,1.48.24,2.72.24,4.16,0,.4,2.24.2,3,.16,1.28,0,2.56.12,3.88,0,1.52-.08,2.08.08,2,1.72,0,.88.4,3-.4,3.24a16.51,16.51,0,0,1-4,.08h-4.4c-.84,0-1.68,0-2.56,0a11.25,11.25,0,0,1-2.32,0c-1.12-.32-.64-1.52-.68-2.52,0-1.4.12-2.8.16-4.24,0-2.84,0-5.68,0-8.52,0-1.88-.08-3.68,0-5.56,0-1.32-.6-3.84,0-5.08.44-.84,2.12-.56,3.08-.56.32,0,2.12-.12,2.12.4C27.4,103.94,26.8,109.66,27.24,115.1Z" fill="#fff"/><path d="M50,97.94a5.79,5.79,0,0,1,2,0c1.12.44,1,2,1.2,2.92a83.66,83.66,0,0,0,2.44,8.76c1,3,1.88,6.28,2.56,9.36.32,1.4.88,2.84,1.16,4.2.32,1.6-1.12,1.2-2.2,1.12a11.73,11.73,0,0,1-2.36,0c-.8-.28-.64-.48-.84-1.28s-.52-4-1.44-4.44a7.41,7.41,0,0,0-1.88-.08c-.76,0-1.56,0-2.32-.08-1.8,0-1.76,1-2.16,2.52-.24.88-.24,2.92-1.16,3.4a4.56,4.56,0,0,1-1.8.08,14.89,14.89,0,0,1-2.32,0c-1.36-.32-.56-1.64-.24-2.68.48-1.8,1-3.6,1.52-5.4,1-3.4,1.92-6.88,2.72-10.36.4-1.6,1-3.16,1.32-4.76.12-.4.56-3.32,1.08-3.32Zm-.24,9.64c-.24,0-.44,1.88-.48,2a28.63,28.63,0,0,1-.92,3c-.32,1-.2.92.76,1,.48,0,2,.48,2.32,0C51.64,113.26,49.84,107.58,49.72,107.58Z" fill="#fff"/><path d="M79.52,98.06c.68,0,1-.24,1.2.4a5.24,5.24,0,0,1-.4,2.48c-1.16,3.64-2.12,7.36-3.16,11s-1.8,7.48-3,11.16c-.24.84-.12,1-.92,1.28a10.57,10.57,0,0,1-3,.16c-2.16,0-2.24-1.28-2.64-3.12-.72-3.56-1.92-7-2.92-10.56s-1.64-7.08-2.76-10.52C61.44,98.78,61.2,98,63.08,98c1.6,0,3.36-.28,4,1.4s.76,3.48,1.28,5.16l1.28,4.88c.16.64,1.12,5.44,1.6,5.32.24,0,1-4,1.12-4.28.56-2.08,1.16-4.16,1.68-6.24.24-1.12.48-2.2.76-3.32.08-.32.8-2.56.84-2.6C76.2,97.46,78.72,98.06,79.52,98.06Z" fill="#fff"/><path d="M104.72,114.86c.08,2.28,0,5-1.4,7s-4.08,2.88-6.36,3-5.24-.08-7.28-1.24c-2.32-1.36-3.08-3.64-3.28-6.16-.24-2.84-.12-5.72-.16-8.52s-.16-5.8,1.36-8.2,4.48-3,7.08-3.12A17.25,17.25,0,0,1,99,98c4.52,1.2,5.76,4.28,5.68,8.56C104.64,109.34,104.64,112.14,104.72,114.86Zm-7.28-11.44c-1.72-.76-4-.68-5.12,1s-.48,3.44-.56,5.32a50.74,50.74,0,0,0-.12,6A3.83,3.83,0,0,0,98,118.66c1.36-1,1.48-2.68,1.44-4.28-.08-2.36-.08-4.76-.08-7.12C99.32,105.7,98.92,104.1,97.44,103.42Z" fill="#fff"/><path d="M126.8,98c.6,0,1.64-.36,2.16.08s.32,2.08.36,2.8c.12,2.2-.08,4.44,0,6.64s-.08,4.36,0,6.52c.08,4.24-.48,9-5.24,10.32-3.12.88-8.12.8-10.6-1.48-3.16-3-2.52-7.08-2.64-11,0-2,.12-4,.16-6,0-1.16-.08-2.28-.12-3.44a17.27,17.27,0,0,1-.08-3.52c.2-.72.4-.8,1.12-.88,1-.08,2.2,0,3.2,0s1.28.28,1.2,1.48-.12,2.6,0,4c.08,1.92,0,3.88,0,5.8,0,1,0,2,0,3,0,1.36-.36,2.76-.08,4.12a3.93,3.93,0,0,0,4.64,3c2.8-.56,3.16-2.6,3.08-5.12-.2-5.28,0-10.64,0-15.92C123.92,97.46,126.32,97.94,126.8,98Z" fill="#fff"/><path d="M150.84,120.86c.36.72,1.72,2.8,1,3.44-.36.32-1.84,0-2.32.08a7.63,7.63,0,0,1-2.12.2c-1.12-.32-1.6-2.48-2-3.44s-1-3.24-2-3.76c-1.84-.88-1.68,1.52-1.72,2.48s.44,3.88-.44,4.48c-.4.24-1.32.08-1.76.08a9.32,9.32,0,0,1-2.36,0c-1.24-.32-.88-2.32-.84-3.44l.08-5.92c.12-3.44,0-7,.12-10.56,0-1.48,0-2.92-.08-4.36,0-.44-.2-1.4,0-1.76.4-.52,1.28-.32,1.88-.32,1.72-.08,3.48-.2,5.2-.12s3.84-.08,5.44.92c2.84,1.76,3.28,5.36,3.24,8.4-.08,3.44.36,7.52-3.36,9.24a7.55,7.55,0,0,0,1,2C150.16,119.3,150.4,120.1,150.84,120.86Zm-8.44-17.64c-1.24.2-1.28.76-1.2,1.84a32.89,32.89,0,0,1,0,4.44c0,.44,0,2.2.36,2.56s2.12.12,2.68.08c3-.24,2.6-3.48,2.6-5.72C146.84,103.74,144.84,102.86,142.4,103.22Z" fill="#fff"/><path d="M168.6,124.66c-3.68.8-8.28-.72-10.16-4.08-1-1.72.8-2.44,1.92-3.4.4-.32,1-1.32,1.6-1.24s1,1.4,1.44,1.88A3.78,3.78,0,0,0,168,118.9c1.8-1.08,1.44-3.16,0-4.32s-3.72-1.64-5.36-2.52a10.2,10.2,0,0,1-4.48-4.24,7.12,7.12,0,0,1,2.8-8.68c3.24-1.88,7.84-2.4,10.84.28,1,.92,3,3,1.88,4.32a8.62,8.62,0,0,1-2.12,1.44c-1,.6-1.12.72-1.92-.08-1.4-1.4-2.88-2.8-5.08-2-2.56.88-.72,3.28.92,4,3.84,1.64,9.76,3.88,9.76,9C175.24,120.14,172.76,123.78,168.6,124.66Z" fill="#fff"/></g><g style="isolation:isolate"><path d="M34.64,80.73a4.58,4.58,0,0,1-.25.56c0,.09-.16.17-.16.25s.08.48.08.65l-.16.4a5.45,5.45,0,0,0-.4.49c0,.08.08.16.08.32s-.25.4-.33.65c0,.4-.16.65-.32.65s.08.24.16.24a2.05,2.05,0,0,0-.16.4c-.49.25-.81,2.51-1.3,2.92,0,.08-.08.08-.4.41-1,2-2,3.23-4.37,3.23-.73,0-2.35-1.29-3.41-1.29a2.24,2.24,0,0,1-2-1.38,12.48,12.48,0,0,1-.89-3.56,37.47,37.47,0,0,1-.25-4.29V80.16c-.16-1.38-.16-2.67-.32-4,0-9.39-.57-18.87-1-29-.24-1.54-.41-3.16-.57-4.78l-.4-.57c-.16.08-.33.24-.33.4a9.55,9.55,0,0,1-.89,2.43L12.45,57.89c-3.33,9.72-6,19.19-6,23.4a1.9,1.9,0,0,0-.24.9v.32c-.16,0-.16-.32-.16-.32S5.8,82.1,5.8,82a.32.32,0,0,0,.08.17v.48c-.16,0-.16-.08-.24-.08,0,.32,0,.57-.24.57-.08,0-.16-.08-.24-.08-.25,0-.41.16-.65.32L4,83.64a3.46,3.46,0,0,1-.4-.08l.24.16c0,.17-.32.17-.4.25s-.08.24-.17.24l-1.94-.73A1.48,1.48,0,0,1-.11,81.86V80.08c1-10,4.13-19.36,7.53-28.67A18.62,18.62,0,0,1,8.88,47.6c.49-1.78,1.22-3.56,1.78-5.18l1.79-4.21a7.44,7.44,0,0,0,.64-1.71,8.24,8.24,0,0,0,.57-1.94A2.66,2.66,0,0,1,16,32.46l3.89,1a5.77,5.77,0,0,1,2.83,1.94A49,49,0,0,1,24,41.53c.32,1.45.89,10.12,1.45,20.73L25.32,64l.25,3.32c.24,3.4.4,6.32.4,14.82V86l.16.89c.65-.32.65-1.46,1-2,5.1-16.69,9-32.32,16.76-49.41l.65-1.29c1-1.7,1.29-1.38,2.92-1.62,0,0,1-.41,1.13-.49a1.75,1.75,0,0,0,1-.32c.08.08.16.32.24.32.25,0,.89-.16,1.06-.16a1.45,1.45,0,0,0-.17.4c-.16,0-.16.08-.16.17a.29.29,0,0,1-.08.24l-.81,2.1c-.89,2.35-1.62,4.78-2.51,6.89l-.4.65-.09.81L44.92,48c-.48,1.29-.64,1.78-4.86,14.74a20.16,20.16,0,0,1-.72,2.35c0,.4-.33.81-.33,1.13l-.08.73c0,.16-.16.24-.16.32,0,.57-.49.81-.49,1.3l-.08.4c0,.08-.16.25-.16.33-.32.08-.57,1-.81,2.18,0,.09.08.17.08.25a3,3,0,0,0-.4.48l-.25.25c0,.08.08.16.08.24.17.08.17.16.17.24l-.49,1.14-.16.89a9.79,9.79,0,0,1-.33,1.21C35.53,77.89,35,78.78,34.64,80.73ZM21.27,45.5a.27.27,0,0,0,.25-.25c0-.08-.16-.32-.16-.4A2.74,2.74,0,0,0,21.27,45.5Zm.33,3a.43.43,0,0,0-.24-.32l-.09.73C21.52,48.65,21.52,48.49,21.6,48.49Zm-.08-1.78-.08-.41-.08.9A1.8,1.8,0,0,0,21.52,46.71Zm0,12a2.79,2.79,0,0,1,.32,1.46l.16-1S21.6,58.62,21.52,58.7Zm.24-4.54c.08.08.08-.08.08-.32s-.16-.25-.24-.33A1.6,1.6,0,0,1,21.76,54.16ZM22.25,68l.08-.57c0-.24,0-.48-.16-.48-.09-.16-.49-.16-.49-.16s.16.48.24.64v.49c0,.32,0,.49.49.49A1.05,1.05,0,0,1,22.25,68ZM22,44.85v-.73l-.16-.49-.08,1.46a.5.5,0,0,1,.32.16A.72.72,0,0,1,22,44.85Zm-.16,12.07c.24,0,.24-.17.24-.25l-.32-.89C21.76,55.94,21.84,56.51,21.84,56.92Zm.24,7a14.3,14.3,0,0,0-.32,1.46c0,.24.24.24.24.4.08-.16.25-.24.25-.4A8.07,8.07,0,0,0,22.08,63.88Zm0-17.9c0-.4,0-.48-.16-.65V47.2a2.76,2.76,0,0,0,.25-.49v-.49A.27.27,0,0,0,22.08,46ZM22,60.8c-.08,0-.08.33-.08.33S22,61.13,22,60.8Zm.49-8,.08-1.45c0-.16-.16-.16-.16-.33s0-.56-.16-.56a1,1,0,0,0-.25.4c.17.08.33.49.41,1v.41c0,.08-.08.16-.08.24A.61.61,0,0,0,22.49,52.78Zm.08-5.1c-.08-.16-.32-.16-.4-.16l-.09.65C22.33,48,22.33,47.76,22.57,47.68Zm-.16,1.46.08-.65s0-.24-.41-.24C22.25,48.49,22,49,22.41,49.14Zm-.24.73.4-.41a.78.78,0,0,0-.4.17l-.09.72.41-.4C22.33,50,22.41,49.87,22.17,49.87Zm1,20V68.74l.16-1.54a.63.63,0,0,1-.24-.57c0-.24.08-.56.08-.81a.35.35,0,0,0-.08-.24,1.1,1.1,0,0,0-.49-.73.17.17,0,0,0-.16.16,3.13,3.13,0,0,0,.16.49c0,.49.16.49.24.49l.08,1.29c0,.16.08.41.08.49-.16,1.46-.16,1.54-.16,1.7l-.32.65C22.49,70.2,23,69.87,23.14,69.87Zm0-9.31c0-.16-.08-.32-.08-.65a.52.52,0,0,0-.33-.08c0,.08-.24.33-.24.33l.32.4a1.81,1.81,0,0,0,.08.32A.36.36,0,0,1,23.14,60.56ZM22.65,41c0,.08,0,.4.24.4v-.48c-.16-.08-.32-.08-.32-.24C22.57,40.8,22.57,41,22.65,41Zm0,12.31v.49a4.72,4.72,0,0,0-.08.81c.16,0,.24-1,.24-1A1.17,1.17,0,0,0,22.65,53.27Zm.41,30v1.21A.88.88,0,0,0,23.3,84C23.14,83.89,23.06,83,23.06,83.24Zm.64-32.48c0,.08-.08.08-.08,0V52a20,20,0,0,1,.08,2.19v.41L24,55.78l-.16-4.21A3.18,3.18,0,0,0,23.7,50.76Zm.89,4.29-.08-1.62a.6.6,0,0,1-.08-.4,1.8,1.8,0,0,1,.08-.73l-.72-8.83v.24c0,1.22.4,6.56.4,7.7l.08.73v1.94c.08.08.08.49.08.57l.41,7.69v.33c0,1.13.24,4.69.48,7.85l-.4-9.88c0-.16-.08-.65-.08-1,0-.16,0-.41.08-.49-.08-1.13-.08-1.21-.08-1.21s-.08-.17-.08-.33,0-.24.08-.24l-.08-1S24.59,55.21,24.59,55.05Zm-.16,8.75c-.08-2.51-.08-4.46-.16-4.94l-.16-2.11L24,57.81v.89C24.11,59,24.35,62.91,24.43,63.8Zm.33,12.39a5.8,5.8,0,0,0-.25,1c0,.08.25.25.33.33v-.73C24.84,76.52,24.84,76.27,24.76,76.19Zm.32-2.91-.24-2A13.59,13.59,0,0,0,25.08,73.28Zm19-26L46.14,41a116.61,116.61,0,0,0-5,15c.89-2.59,2.26-6.8,2.75-8,.08-.09.16.4.24.48-1.29,4-2.59,7-3.32,10.21-.16.48,2-5.67,5.19-15.07.16-.65,1.86-4.86,2.59-7.13-1.22,2.68-2.59,6.65-3.89,10.21C44.44,47,44.28,47.28,44,47.28Z" fill="#fff"/><path d="M73.28,68l-1.71,2.51a2.55,2.55,0,0,0,.17-.81l2.75-4.13a.48.48,0,0,1,.32-.08l1.06-1.94.16.65-.08.64L73.68,68.5c-1.3,2.1-5.83,9.23-8.75,11.82a7.52,7.52,0,0,1-2.59,1.54,2,2,0,0,1-.65.08c-.24,0-1.21-.08-1.54-.08s-.89-.4-1.45-.65c-1.79-.64-2.84-2.75-2.84-4.78v-.72a31.35,31.35,0,0,1,.89-7c-2,3.16-5.75,10.2-9.23,10.61a15.78,15.78,0,0,1-1.94-1c-1.22-.65-1.79-.33-2.52-2.6a3.77,3.77,0,0,0-.16-.4v-.65c-.08-.16-.16-.24-.16-.4,0-.33.24-.73.24-1.22v-.73c0-.4,0-.56.25-.73v-1c1-5.43,8.18-16,13.77-16,.8,0,2.51,1,3.64,1.22.4-.49,1-2.27,2.35-2.35l.65.32H64c1.22,0,2.75,1.22,2.75,1.79a10.76,10.76,0,0,1-.81,3.4c-1.37,2.18-4.45,16-4.45,19.92.16.65.24.65.24.65.81,0,3.16-2.83,5.92-6.8l-.09.56c-.16.25-.16.33-.32.41l-.08.4-1.86,2.76,1.86-2.19L67,74.9c.24,0,.4-.25.48-.49,0-.08-.08-.24-.08-.32l2.68-4s.24-.33.32-.33.32-.24.32-.16-.4.65-1,1.7a.29.29,0,0,1-.24.08c-.24.08-.33.57-.49.65v.32l-2.27,3.33c.08-.09.65-.73,1.06-1.3v.81l.56-.65c.09,0,.17,0,.17-.16l.24-.32,2.11-3c.08.08.16.16.16.24L69.79,73.2l1.14-1.38a1.76,1.76,0,0,0,.4-.49Zm-28.76-.08c.33-.08.57-.81.65-1.13A2.63,2.63,0,0,0,44.52,67.93Zm.73-1.78c-.16,0-.08.32-.32.48.16,0,.24.09.24.17Zm12.8-6.64c-1.3.16-4,3.16-6.08,6.4a37.12,37.12,0,0,0-3.8,7.93A2.49,2.49,0,0,0,48,74.9l-.24.72a1.27,1.27,0,0,0,.41-.24c.24-.32.08,0,3.64-5.51,2.27-3.48,5.27-8.26,7-10.44C58.62,59.43,58.21,59.51,58.05,59.51Zm-5.83,15a3.66,3.66,0,0,0,.48-.32c-1,1.29-1.78,2.43-2.59,3.32-.08.08-.89.65-.89.89C52.3,76,55.05,71,56.91,67.69c.09-.16-.64.89-.64.89l-3,4.78-.4.16L55,70.2a16.66,16.66,0,0,0,.81-1.54l-4,6-.24-.08-.24.65c-.25.32-.33.32-.33.4l-1,1.46.81-.65a.66.66,0,0,0,.4-.64l.41-.41Zm1-2.75c-.08.08-.41.4-.49.32a1.39,1.39,0,0,0-.16.41,5.77,5.77,0,0,1-.65.81.32.32,0,0,0,.25-.08,1.19,1.19,0,0,0-.17.4,3.71,3.71,0,0,0-.48.57h.32c.08-.25.57-.81.65-1.06l.24-.24L53,72.3a17.62,17.62,0,0,0,1.37-2.1C54.32,70.28,53.11,71.58,53.19,71.74Zm7.37.24c.16,0,.24,0,.32-.24l.33-.49v-.49c0-.24-.08-.4-.08-.56s.16-.81.32-.81v1a10.86,10.86,0,0,0,.49-1.13c0,.16.16.08.24.16v.65a6.74,6.74,0,0,0-.49,2,2,2,0,0,1-.08.73,16.83,16.83,0,0,0-.4,3.08c0,.16-.08.32-.08.48a1.59,1.59,0,0,0,.08.65A86.46,86.46,0,0,1,64.69,61c-.49.49-1.3,3.33-2,6.4-.09.41-.09.17-.25.73-.08.16-.32.81-.4.81v-.32c0-.25,0-.89.16-.89s.24-.33.24-1l-.24.4.65-2.35c.08-.24-.81,2-.81,2a16.76,16.76,0,0,1-.49,2.1v-.65a.83.83,0,0,0,.08-.32c-.08.08-.24.16-.32.32l-.16.73c-.33,0-.41.08-.41.17s.08.24.08.24.08.16.08.57c0-.09.16-.17.25-.17a1.83,1.83,0,0,0-.17.89l-.16.65a1.15,1.15,0,0,1-.24-.16Zm.4,2.19c0-.08,0-.33.08-.41L61,73c-.08.41-.08.65-.32.89C60.8,74.09,60.88,74.17,61,74.17Zm.57-2.59-.16-.49c-.08,0,0,.08,0,.32a.86.86,0,0,1-.16.49c-.08.08-.08.32-.08.4a.51.51,0,0,0,.08.33A2.27,2.27,0,0,1,61.53,71.58Zm-.24-3.89.24-.25a1.08,1.08,0,0,0,.16-.64c0-.08.17-.17.17-.25s-.09-.16-.09-.24A8.92,8.92,0,0,0,61.29,67.69ZM61.61,71s-.16.32-.08.32.24-.32.33-.4C61.69,70.93,61.69,71,61.61,71ZM62.1,64v-.73l-.41,1.54c.08,0-.08-.08.33-.08C62,64.53,62.1,64.12,62.1,64Zm5.83,8.75v-.57l.4-.56c2.19-3.08,5.84-8.67,7.13-10.53l-.57,1.45ZM68.5,74c-.08,0-.17.09-.25.09s-.08,0-.08-.25c3.08-4.45,3.57-5.18,3.65-5.18l-.16.32a.31.31,0,0,0,.08.25Zm3.64-6.31-1,1.46a4.75,4.75,0,0,0,.16-.82,3.45,3.45,0,0,0,.33-.56l1.13-1.62a.87.87,0,0,0-.08.4c0,.08-.25.41-.25.65a.6.6,0,0,0-.24.24A.3.3,0,0,1,72.14,67.69Zm.24.73c0-.17.25-.49.25-.73,0,.08-.08-.16-.08-.25l3.24-4.69-.08.56-1.87,2.92-.73.89a4.38,4.38,0,0,0-.56,1S72.38,68.33,72.38,68.42ZM73,66.55v-.32s.08-.32.16-.57L74.25,64l.81-.73Z" fill="#fff"/><path d="M75.3,49.46c-1,0-3.56-.89-3.56-3.32.08-.56.32-.89.73-.89.08,0,.16.08.32.16a2.47,2.47,0,0,0,1,.17h.57c.32,0,.57-.08,1-.08,1.46-.25,3.16-.41,4.94-.65,1.14-2.68,2.19-5.35,3.08-7.86L84,35.78a.67.67,0,0,1,.48-.25c.25,0,1.14.49,1.46.49,1.3,0,1.46,1,1.54,2.19.08.32.49.72.49.81v.4a12.76,12.76,0,0,1-.81,3.4l-.41,1.54a13.33,13.33,0,0,1,1.78-.08,32.59,32.59,0,0,1,5.59.49c.73.16,1.86.56,2.19,1.29l.16.33c0,.24-.08.64-.08,1,.08,0,.32.4.49.48-.17,0-.73-.16-.9-.16a14.52,14.52,0,0,1-2.67-.16H92c-.57,0-1.3.08-1.95.08-1.37.16-3,.24-4.53.49-1,3-2.11,6.07-3.16,8.74l-.08-.32,2.1-5.83a85.7,85.7,0,0,0-4,10,2.19,2.19,0,0,0-.24,1l-.24.73c0,.08-.08.16-.08.33l-.25.32a1.14,1.14,0,0,0-.24.73v.32l-.81,2.68a.6.6,0,0,0-.08.32.29.29,0,0,1-.08-.24c0-.08,0-.33.08-.41l2-7.45-.4,1a29.74,29.74,0,0,0-1.3,3.73.34.34,0,0,0-.16-.33l.49-1.21a3.58,3.58,0,0,0-.65,1.3v.32l-.08.49-.24.32c0,.08-.09.08-.09.24a4.3,4.3,0,0,0-.48,1.54.52.52,0,0,0,.08.33,5.75,5.75,0,0,1,.16-.65.21.21,0,0,1,.24.24,3,3,0,0,1-.16.73c-.32.16-.32.81-.48,1.13a2.83,2.83,0,0,1-.25.49l.08.4a7,7,0,0,0-.4,2.11.64.64,0,0,0,.08.41,20.84,20.84,0,0,1,.73-3.08L78,67.44v.33a.17.17,0,0,0,.17.16l.24-.32a37.46,37.46,0,0,0-1.62,8.82v1.71l.32-2.76c.33-2.18.89-4.86,1.54-7.45a.29.29,0,0,0,.08-.24.3.3,0,0,0,.08-.25L79,67a44.69,44.69,0,0,1,1.94-6.4,5.45,5.45,0,0,1,.65-1.86l.24-.33v-.73c.16,0,.41-.24.49-.24-2.6,7.21-4.94,14.66-5.11,21.46,0,.41.08.73.41.73a.87.87,0,0,0,.4-.08c3.57-1.94,11.1-11.74,14.91-16.68l.89-1.14c.24-.24.32-.56.48-.73a.52.52,0,0,1,.41-.24A6,6,0,0,1,94,61.77l-1.62,2.11C91.58,64.93,90.85,66,90,67l-4.21,5.34a13.8,13.8,0,0,0,1.94-1.86c-.16.41-.4.57-.48.81l-1.06,1.3c.65-.73,1.71-1.95,1.79-1.95.4-.4,1.13-1.21,1.13-1.21a.29.29,0,0,0,.08.24l-.81,1c-.4.41-1.21,1.14-1.21,1.14a.7.7,0,0,0-.25.56l-2.51,2.84a2.77,2.77,0,0,0,.73-.57l1.7-1.94c.08-.08.16.16.24.24a3.56,3.56,0,0,1,.41-1c.16-.16.24-.4.41-.4a3.2,3.2,0,0,1,.48-.17l.33-.16H88.1L89.31,70a.3.3,0,0,0,.25.08c.08,0,.16-.08.24-.57a.29.29,0,0,0-.24.08c.73-1,1.78-2.19,3.23-4.13L95.31,62v.81c-.08.16-.08.4-.41.48l-.81,1.62a4.67,4.67,0,0,0-.32,1,13.18,13.18,0,0,1-1.06,1,2.46,2.46,0,0,0-.64.89,1.61,1.61,0,0,0-.73.4c.24,0,.24-.16.32-.16v.41l-.24.24c-.24,0-.57.08-.57.32.33,0,.33.09.33.09,0,.16-.25.32-.41.32s-.24.08-.24.16.08.16.08.24c-.16,0-.49.65-.65.81s-.4.9-.73.9c-.08-.09-.08.16-.08.24a.37.37,0,0,0-.4.4,5,5,0,0,1-.65.65c-.08.24-.41.41-.49.73s-.4.24-.4.32-.08.25-.17.25c-.08.24.09.56-.32.56-.08.08-.49.17-.49.41-.08,0-.16.08-.32.32a1.79,1.79,0,0,0-.57.73L85,76.6c-.4.4-.65.89-1.13,1.37.4-.24.56-.81,1-.81.08,0,.32-.48.48-.56a3.9,3.9,0,0,0,.73-.89c0-.17.81-.73.81-.65a1.44,1.44,0,0,0,.33-.73c.16-.08.48-.24.48-.33a.35.35,0,0,1,.08-.24,4.4,4.4,0,0,0,.49-.73.65.65,0,0,1,.08.33c.16-.57.08-.57.57-.89l2.51-3.41c.08.09.32-.81.73-.81a2.84,2.84,0,0,1,.32-.72c.24-.09.16-.33.32-.49a3,3,0,0,1,.82-.57l-4.14,5.59c-.8,1-4.94,6.32-6.15,6.89a4.8,4.8,0,0,1-1.38,1.45.24.24,0,0,1-.24.25c-.57.48-1.22.81-1.78,1.21-.57.24-.65.49-1.3.65a4.1,4.1,0,0,1-1.29.4,3.36,3.36,0,0,1-1.54-.4,3.52,3.52,0,0,1-1-.24c-.16,0-1.7-.73-1.7-1.14,0,0-.4-.56-.64-1-.09-.08-.09-.16-.09-.49s-.32-.56-.32-.72a4.18,4.18,0,0,1-.16-1l-.08-1.45a.17.17,0,0,0,.16.16c0-.41.32-.65.32-.89H72c.08-.08-.16-.25-.16-.33l.16-.65a.29.29,0,0,0,.08-.24C72,74.49,72,74.33,72,74s.16-.32.16-.4a.55.55,0,0,0-.24-.4v-.33c0-.16,0-.24.24-.24a2.48,2.48,0,0,0,.24-.81v-.33c0-.16-.16-.24-.16-.56.08,0,.25,0,.25.16a6.93,6.93,0,0,0,.16-1c-.08,0-.25.48-.41.56l.25-.64c.32-.17.32-.25.32-.41L72.63,69c0-.16.08-.16.08-.24s-.16-.32-.24-.32A13.21,13.21,0,0,1,72,71.09v1a7.26,7.26,0,0,0-.24,1.62v1.78a.88.88,0,0,1-.16.65A10.15,10.15,0,0,0,71.82,79l.48,1.37a4.41,4.41,0,0,1,.57.73.73.73,0,0,1-.49-.24c-.32-.16-.32-.49-.48-.57l-.32-.73a.44.44,0,0,1-.09-.32A5.63,5.63,0,0,1,71.33,78v-.48c0-.25-.16-.49-.16-.73a.29.29,0,0,1,.08-.24,2,2,0,0,1-.08-.33,1.66,1.66,0,0,1,.16-.48V75.3a1.08,1.08,0,0,1,.08-.49c-.16-.16-.24-.24-.24-.32a7.8,7.8,0,0,0,.24-.89l.08-1c0-.08-.08-.17-.08-.25a1.26,1.26,0,0,1,.08-.32c0-.57.17-1.94.73-2.27l-.16-.32a2.49,2.49,0,0,1,.16-.89,2.4,2.4,0,0,0,.25-1.14V67c.08-.41.4-.89.48-1.3a121.4,121.4,0,0,1,5.67-16.52h-.57A15.22,15.22,0,0,1,75.3,49.46ZM72.22,78.05l.08-.81a1,1,0,0,0-.16.65c-.08.08-.08.16-.08.33s0,.24.08.24A.62.62,0,0,0,72.22,78.05Zm.33-3L73,70.6a30.89,30.89,0,0,0-.57,4.21c0,.17.17.65.25.57S72.55,75.22,72.55,75.06Zm.56-8.26a.62.62,0,0,0-.24.56,1.39,1.39,0,0,0,.16.41v-.33A1.76,1.76,0,0,1,73.11,66.8Zm1.06-3.08c0-.16,0-.24-.08-.33v-.32c0,.08-.17.16-.17.24l.17.41v.4a.65.65,0,0,0-.33-.08l-.4,1.14.08.32c-.08.41-.24.41-.24.57a.29.29,0,0,0,.08.24,1.35,1.35,0,0,0,.16-.4l.16-.41c.16,0,.24,0,.24-.4s-.08-.33-.08-.49a.6.6,0,0,1,.33-.49A.87.87,0,0,0,74.17,63.72ZM75,59.91c-.08,0-.25.57-.25.73-.16.49-.24,1-.48,1.54-.08.08-.08.32-.08.57a.62.62,0,0,1,.24-.08c0-.33.24-.57.24-.81l-.08-.25.73-2.1c.16-.17.16-1,.24-1.14C75.3,58.62,75.3,59.1,75,59.91Zm6.07,20.66c0-.09-2.27,1.7-3.24,1.94A7.11,7.11,0,0,0,81.05,80.57ZM78.62,64.21c-.24,1.13-.4,1.13-.4,1.05,0-.57.08-.49.08-.49C78.46,64.61,78.62,64,78.62,64.21Zm10.29,6.88.24-.08c.08-.08-.4.48-.4.65a.72.72,0,0,1-.73.56c-.08,0-.16.08-.25.16l-.32.65c-.08.08-.16.33-.24.33s0,.24-.17.24l-.32.24a.92.92,0,0,1-.4.57l-.33.4a3.67,3.67,0,0,0-.65.81,2.94,2.94,0,0,0,.73-.72l.65-.65c.08-.33.49-.49.65-.73a.81.81,0,0,0,.08-.24,1.27,1.27,0,0,1,.32-.57.71.71,0,0,0,.65-.41c.16-.16.25-.4.49-.56l.65-.81.64-1.06a.36.36,0,0,0-.32.25c-.08.24,0,.32-.41.48C89.47,70.68,89.15,70.85,88.91,71.09Zm-.41-1.38c-.08.08-.16.16-.24.16s0-.08-.24-.08a5.87,5.87,0,0,1,.65-.81c.16.17,1.13-1.37,1.13-1.29a.45.45,0,0,0,.4-.49l.25-.4c.08-.17.16-.08.24-.17l.32-.32c0-.08.17-.32.17-.4.72-1.14,1.78-2.27,2.51-3.41.16-.16.32-.24.32-.4.08.08.65-.73,1-1.22a.63.63,0,0,1-.08.33C93.69,63.07,90.77,67,88.5,69.71Zm2.76-2.59a30.41,30.41,0,0,1-2,2.35l.49-.81c0-.08-.16.08-.41.16l1.3-1.46,4.45-5.91c.09-.08,0,.24,0,.32a31.35,31.35,0,0,1-3.56,4.78c0,.08-.08.17-.16.25S91.18,67.12,91.26,67.12Zm1-.49L91.18,68a2.49,2.49,0,0,0,1-1C92.31,66.88,92.39,66.55,92.31,66.63Zm.24-.32a6.69,6.69,0,0,0,1.54-1.78v-.41A23.83,23.83,0,0,1,92.55,66.31Z" fill="#fff"/><path d="M121.55,64.21,123,62.1c0,.24.08.16.16.4l-.16.25c-.73,1.13-1.54,2.26-2.19,3.16a.32.32,0,0,0-.16.32l-.24.32c-.09.17-.17.17-.17.25l-.4.48a.38.38,0,0,0-.24.41c-.82,1.13-1.3,1.86-1.3,1.86l-2.67,3.56c-.08,0,.08-.08.08-.32a2.28,2.28,0,0,0-.49.49,2.56,2.56,0,0,0-.08.56,4.79,4.79,0,0,1-.4.89c.24,0,1.13-1.7,2.1-2.91l.65-1c.08,0,.16-.17.24-.25a5.48,5.48,0,0,0-.24,1.06c0,.08.16-.33.16-.41,0-.32.65-1.29.89-1.21,0,.16-.08.32-.08.56-.32.49-.57,1-.48,1a4.57,4.57,0,0,0,.56-.73,1.25,1.25,0,0,0,.16-.25l.81-1.29v.16c0,.16-.24.4-.24.81a1.52,1.52,0,0,0-.32.65c.08-.17.32-.33.32-.41a3.47,3.47,0,0,0,.49-1.46c1.13-1.78,2.75-4.21,3.88-5.83l.17.41-.17.32c.09.08.09.33.17.33a.28.28,0,0,1,.08-.17v.65c0,.16-.41,1-.41,1.14s-.81,2-6.07,9.15c-2.19,3-6.4,7.61-8.83,7.61-2.11,0-5.51-1.78-5.51-5.34v-.49a30,30,0,0,1,1-5.91c-1.86,3.56-5.75,9.31-8.58,9.31h-.41c-2.75-.57-5-2.67-5.34-4.37V75a2.31,2.31,0,0,1-.08-.73,25.45,25.45,0,0,1,2.59-10.77c1.38-3.16,4.78-7.78,6.15-7.78.9,0,4.38.73,4.38,1.62a1,1,0,0,1-.16.4c-2.76,5-6.4,12.56-7,18.55l.16.49c1.38-.24,11.42-19.68,13.85-19.68.73,0,2.76.24,3.4,1.05a2.86,2.86,0,0,1-.08.57c0,.32.65.64.65.73a101.4,101.4,0,0,0-5.1,19.6v.32c0,.32.08.49.24.49C110.62,79.84,119.93,66.55,121.55,64.21ZM95.06,75.3l.17-.49c-.17.17-.25.49-.49.49a.87.87,0,0,1,.4.41c0-.09.25-.25.33-.49a3.87,3.87,0,0,1,.16-.65c-.16.08-.24.41-.32.57S95.06,75.38,95.06,75.3Zm.57-1.13a.31.31,0,0,1,.08-.25A3.41,3.41,0,0,1,96,73a2.66,2.66,0,0,0-.41,1c0,.09-.24.17-.32.17v.32A.8.8,0,0,1,95.63,74.17Zm-.24,1.94.08-.4c-.16,0-.08.24-.24.24,0,.16.08.81.16.81Zm9-6.48.24-.57a48.18,48.18,0,0,1-3,5s-.08.56-.4.64a6.82,6.82,0,0,0-.89,1.22A18.74,18.74,0,0,1,98,78.54a3.36,3.36,0,0,1-.89.57l.57-.16,2-2c.08,0,.16-.24.24-.4a4.67,4.67,0,0,0,.65-.73A35.55,35.55,0,0,0,104.38,69.63Zm-3.32,4.94c.16-.4.4-.48.4-.65a23.34,23.34,0,0,0,2-3.32c-1.3,2.11-2.76,4.38-4.3,6.4A22.35,22.35,0,0,0,101.06,74.57Zm5.59.16-.49.08c.08.25.32.17.32.41C106.65,75.06,106.65,75,106.65,74.73Zm.32.89a2.34,2.34,0,0,0,.24-.81c-.08.17-.16.57-.48.57Q106.85,75.62,107,75.62Zm.24,2.68-.16-.73a1.15,1.15,0,0,0,.16-.24c-.24,0-.32.4-.32.64S107.13,78.22,107.21,78.3Zm.25-8.83a.68.68,0,0,0,.24-.65s-.24.24-.24.33l-.25.16C107.46,69.31,107.46,69.39,107.46,69.47Zm.56,7c-.24.09-.24.25-.4.25l.24.56A4.89,4.89,0,0,1,108,76.43Zm-.08,2.76c0-.08-.16-.16-.16-.24-.08.08-.08.56-.08.56C107.86,79.35,107.94,79.27,107.94,79.19Zm.16-3.57.17-.24a1.84,1.84,0,0,1,.08-.65L109.8,68l-.24.57c-.24.57-1.21,5.18-1.54,6.88v.73c.08-.16.17-.24.17-.32S108.1,75.71,108.1,75.62Zm.25-4.37a7.09,7.09,0,0,1-.33,2,9.29,9.29,0,0,0,.49-1.71,4.76,4.76,0,0,0,.16-1,7.16,7.16,0,0,0,.33-1.21A4.5,4.5,0,0,0,108.35,71.25Zm-.16,6.64a6.25,6.25,0,0,0,.24-1.54,2.8,2.8,0,0,0-.41,1.79l.08.4A6.33,6.33,0,0,1,108.19,77.89Zm2.1,1.62.49-.48a.63.63,0,0,1,.08-.33l-.24.25c-.57.64-1.3,1.45-2,1.45-.08.08.16.08.24.08A3,3,0,0,0,110.29,79.51Zm-1.7-3.64a1.24,1.24,0,0,0,.32-.65c0-.16-.08-.32-.24-.32A3.66,3.66,0,0,1,108.59,75.87Zm.57-2.67c-.25.16-.16.32-.33.56l.25.41C109.08,74,109.16,73.28,109.16,73.2Zm.32-9.32-.16.24c-.08,0-.16.09-.16.25C109.4,64.37,109.48,64.29,109.48,63.88Zm-.16,7.94L109.24,73l1.05-4.29,1.38-4.86A66.11,66.11,0,0,0,109.32,71.82Zm4.13,4.29c.32,0,.4-.08.4-.08.25-.32.33-.49.65-.65,0-.08-.08-.32-.16-.32-.24,0-.24.24-.32.32A1.21,1.21,0,0,1,113.45,76.11Zm.16,1.38a.6.6,0,0,0,.49-.49v-.57C113.77,76.76,113.77,77.08,113.61,77.49Zm3.48-3.32c0,.32-1.13,1.37-1.21,1.37s0-.24-.08-.24c0,.16-.08.16-.08.41a.17.17,0,0,1,.16.16c0,.24-.49.56-.41.56.9-.32,1.46-1.94,2.19-2.26,0,0-.24-.17-.24-.33,0-.48.4-.81,1.13-1.7.16,0,.16.08.16.16l.25-.24c0,.24-.49.57-.65,1a.8.8,0,0,0,.4-.32c0-.24,1.3-1.62,1.3-2.11l.89-1A10.42,10.42,0,0,1,122,67.77c-.57.16-1,1.21-1.38,1.62a.17.17,0,0,1-.16-.16c-.17.73-.25.73-.25.73-.4.4-.81.4-.81,1.21a4.73,4.73,0,0,1-.65.65c0-.08,0-.16.17-.41A8.72,8.72,0,0,0,117.09,74a.83.83,0,0,1-.32-.08c0,.08-.08.25-.08.33a.17.17,0,0,1,.16-.16A.81.81,0,0,1,117.09,74.17Zm-1.21-.08c0-.09-.08-.17-.08-.25-.33.73-.33.81-.33.89C115.72,74.49,115.72,74.25,115.88,74.09Zm1-1.22.16-.4s.25-.33.33-.41a.37.37,0,0,0-.41.32l-.16.41c-.32,0-.32.57-.32.81l.16-.32C116.77,73.11,116.69,73,116.85,72.87Zm2.67-4.29c.25-.33.17-.33.17-.33a.48.48,0,0,1,.08-.32l.65-.89.32-.08c0-.16-.08-.16-.16-.24l1-1.54v.48c-.08.08-.16.25-.08.25l-2.43,3.56a2.41,2.41,0,0,0-.33.65,1.12,1.12,0,0,1-.16-.25c0-.32.08-.32.33-.48a.29.29,0,0,0-.08-.24l.48-.41A.17.17,0,0,1,119.52,68.58Zm0,.73.09-.08A.08.08,0,0,1,119.52,69.31Zm2.6-3.08-.41.49a.81.81,0,0,1,.24.08,12.57,12.57,0,0,1-1,1.13l-.4.65c0,.08.08.08.24.08.08-.16,1.62-1.54,1.62-1.62s0-.32-.08-.32l.32-.41v-.49A3.24,3.24,0,0,1,122.12,66.23ZM121.71,65l1.62-2.34c0,.16.08.16.16.24L122.12,65c-.08.09-.25.33-.25.25S121.79,65,121.71,65Z" fill="#fff"/><path d="M118.47,82.27c-.24,0-.24-.73-.24-.89s0-.25.08-.33a2.31,2.31,0,0,1,.16-.89V78.7a.55.55,0,0,1,.33-.4l.08-1.14c1.37-7.12,3.32-12.23,5.1-19.6a7.93,7.93,0,0,0,.32-1.7c0-.24.41-.57.41-.65a1.51,1.51,0,0,1,1.05-.56c.16,0,1.62.56,2.35.64a1.41,1.41,0,0,1,1.22.9,2,2,0,0,1,.56,1.62v1a14.08,14.08,0,0,1-.24,2.51c2-2.67,6.56-5.83,9.07-5.83a1.66,1.66,0,0,1,1.46.89c0,.08.08.24.08.32s-.08.16-.24.16a16.8,16.8,0,0,0-2.84,1.3c-.32,0-.48.16-.48.32l-.65.57c-.24,0-.57.24-.57.49l-1.86,2c-.24.33-.65.57-.73.73a12.66,12.66,0,0,0-1,1.22s0,.16-.25.16c-.08.24-.32.48-.32.73a1.1,1.1,0,0,0-.4.73c-.17.16-.33.16-.33.32a1.26,1.26,0,0,1-.08.32l-.24.17c0,.16-.17.24-.17.4s-.4.16-.4.24-.08.33-.08.49a1.5,1.5,0,0,0-.41.89A7.69,7.69,0,0,0,128,69.47c0-.08-.16-.24-.16-.16s0,.24.08.24c0,.24-.08.24-.24.24a3,3,0,0,1-.09.41v.32c-.08.41-.16.08-.16.49-.24,0-.24.16-.4.4,0-.24,0-.32.08-.32a.91.91,0,0,1,.08-.33c0,.09-.16-.16-.24-.16s-.08.08.08-.24a3.46,3.46,0,0,1,.08-.4.47.47,0,0,0,.16-.41c-.24,0-.57.89-.65,1a3.79,3.79,0,0,0-.16.65c-.16,0-.16.24-.16.41a10,10,0,0,0-.41,1.13c0,.08.25-.73.57-.89.08-.41.16-.65.24-.65,0-.16,0-.41.17-.41a9.91,9.91,0,0,1-.17,1.06l.33-.24a.62.62,0,0,1-.41.48v.41a.24.24,0,0,1-.24.24c-.08.4-.16.57-.24.57s-.08-.33-.08-.33a.87.87,0,0,0-.57.89l-.08.49a1.79,1.79,0,0,0,.24-.89c.24,0,.24.08.24.16a.78.78,0,0,1-.24.49c0,.08-.08.16-.08.24a.17.17,0,0,0,.16.16s-.08.24-.16.16l-.57,1a.88.88,0,0,1-.16.65v.57a1.47,1.47,0,0,0-.32.73s-.08,1.21-.33,1.21l-.16.81c0,.17-.24.89-.24,1.14a1.23,1.23,0,0,1,.24-.57c.16,0,.33-1,.33-1a8.55,8.55,0,0,0,.24-1l.32-1c0-.24.17-.48.17-.64s.24-.41.24-.57.24-.49.32-.65a2,2,0,0,1,.16-.65c0-.16.25-.4.33-.48l-.08.56a2.34,2.34,0,0,1-.25.73,2.14,2.14,0,0,0-.24.65.29.29,0,0,1,.08.24c0,.17-.08.25-.08.33l-.24-.16a.5.5,0,0,1-.24.4.45.45,0,0,1,.16.41c0,.08.32-.57.56-.81a.81.81,0,0,1-.24.64,1.49,1.49,0,0,0-.08.41c-.24.16-.24.24-.24.32a.51.51,0,0,1-.08.33l-.49,1V80c.16-.08.16-.16.16-.24a.32.32,0,0,1-.08-.25,3.46,3.46,0,0,1,.08-.4.32.32,0,0,0,.25-.08c0,.08.08.32.08.48a.39.39,0,0,1-.08.25.24.24,0,0,0,.24.24c0-.24,0-.49.24-.49,0,.25-.24.49-.24.65l-.08.65a3.37,3.37,0,0,0-.57,1.21c-.08-.16-.16-.24-.16-.32l-.25.32v-.56c-.08,0-.16.16-.24.16s0-.33.08-.41a.16.16,0,0,1,.16-.16,3.67,3.67,0,0,1,.17-.48c.16-.09.24-.09.24-.17,0-.24-.81.73-.81.81,0,.25,0,.41-.24.57a.88.88,0,0,1-.25.73c.08-.08-.24.49-.48.57a.71.71,0,0,1-.41.24H122c-.16-.24-.41-.24-.57-.41,0,0-.49,0-.65-.16C120.5,82.75,118.47,82.59,118.47,82.27Zm3.16-2c-.08,0-.24.08-.24.33-.16,0-.24.24-.24.32s.08.16.16.24c0,.25,0,.41-.16.41a1.35,1.35,0,0,1,.16.4c.08,0,.24-.4.24-.56v-.41h-.16c0-.32.08-.32.32-.48C121.71,80.4,121.71,80.32,121.63,80.32Zm.89-.81c-.24,0-.4,0-.4.41a.17.17,0,0,1,.16-.16C122.52,79.76,122.52,79.59,122.52,79.51Zm.08-1.05q-.24.12-.24.24c0,.08.16.16.16.33A4.76,4.76,0,0,0,122.6,78.46Zm.17-1.54a2.09,2.09,0,0,0-.33.73c0-.16.33-.41.33-.49a3.82,3.82,0,0,0,.48-1.21v-.41c-.08.25-.24.49-.24.57S122.77,76.52,122.77,76.92Zm.72,1.22c0-.25-.24-.25-.24-.49-.24.24-.24.32-.24.49Zm.09-1.06c-.25.16-.17.41-.25.41a.67.67,0,0,0,.41-.25A.16.16,0,0,1,123.58,77.08Zm.81-.24a1,1,0,0,0-.17.24c.17,0,.41-.4.41-.65s-.16-.24-.24-.32Zm.56,4a.16.16,0,0,0-.16.16c-.08,0-.08.24-.08.24s.16-.24.24-.24c0-.16.25-.16.25-.16-.08-.16-.08-.24-.17-.24ZM127.06,72v.49a.81.81,0,0,0-.16.4,1,1,0,0,0-.33.73c-.24,0-.16.32-.24.4h-.24a3,3,0,0,1,.56-1.29A2.66,2.66,0,0,0,127.06,72Zm1.29-6c-.32.48-.48.73-.48.89a1.69,1.69,0,0,0-.33.4,1.41,1.41,0,0,0,.73-.81,1.88,1.88,0,0,1,.57-.81C128.6,65.66,128.35,65.82,128.35,66Zm.41,1.94s-.24.24-.24.32l-.25.17c.25,0,.25.08.25.16A.68.68,0,0,0,128.76,67.93Zm4-6.32c-.49.25-.49.65-.65.81s-.24.33-.24.33c.16,0,.32-.33.48-.33A18,18,0,0,1,134.51,60,4.36,4.36,0,0,0,132.73,61.61Z" fill="#fff"/><path d="M166.67,68,165,70.52a2.55,2.55,0,0,0,.17-.81l2.75-4.13a.49.49,0,0,1,.33-.08l1-1.94.16.65-.08.64-2.27,3.65c-1.29,2.1-5.83,9.23-8.75,11.82a7.52,7.52,0,0,1-2.59,1.54,2,2,0,0,1-.65.08c-.24,0-1.21-.08-1.54-.08s-.89-.4-1.45-.65c-1.79-.64-2.84-2.75-2.84-4.78v-.72a31.35,31.35,0,0,1,.89-7c-2,3.16-5.75,10.2-9.23,10.61a15.78,15.78,0,0,1-1.94-1c-1.22-.65-1.79-.33-2.51-2.6,0,0-.09-.24-.17-.4v-.65c-.08-.16-.16-.24-.16-.4,0-.33.24-.73.24-1.22v-.73c0-.4,0-.56.25-.73v-1c1-5.43,8.18-16,13.77-16,.81,0,2.51,1,3.64,1.22.41-.49,1.05-2.27,2.35-2.35l.65.32h.32c1.22,0,2.76,1.22,2.76,1.79a11.07,11.07,0,0,1-.82,3.4c-1.37,2.18-4.45,16-4.45,19.92.16.65.24.65.24.65.81,0,3.16-2.83,5.92-6.8l-.08.56c-.17.25-.17.33-.33.41l-.08.4-1.86,2.76,1.86-2.19-.16.41c.24,0,.4-.25.48-.49,0-.08-.08-.24-.08-.32l2.68-4s.24-.33.32-.33.32-.24.32-.16-.4.65-1,1.7a.29.29,0,0,1-.24.08c-.24.08-.32.57-.49.65v.32l-2.26,3.33c.08-.09.64-.73,1-1.3v.81l.56-.65c.09,0,.17,0,.17-.16l.24-.32,2.11-3c.08.08.16.16.16.24l-1.22,1.87,1.14-1.38a1.76,1.76,0,0,0,.4-.49Zm-28.76-.08c.33-.08.57-.81.65-1.13A2.63,2.63,0,0,0,137.91,67.93Zm.73-1.78c-.16,0-.08.32-.32.48.16,0,.24.09.24.17Zm12.8-6.64c-1.3.16-4,3.16-6.08,6.4a37.61,37.61,0,0,0-3.8,7.93,2.63,2.63,0,0,0-.16,1.06l-.25.72a1.17,1.17,0,0,0,.41-.24c.24-.32.08,0,3.64-5.51,2.27-3.48,5.27-8.26,7.05-10.44C152,59.43,151.6,59.51,151.44,59.51Zm-5.83,15a3.66,3.66,0,0,0,.48-.32c-1,1.29-1.78,2.43-2.59,3.32-.08.08-.89.65-.89.89,3.08-2.35,5.83-7.37,7.69-10.69.09-.16-.64.89-.64.89l-3,4.78-.4.16,2.1-3.32a16.66,16.66,0,0,0,.81-1.54l-4,6-.24-.08-.24.65c-.25.32-.33.32-.33.4l-1,1.46.81-.65a.66.66,0,0,0,.4-.64l.41-.41Zm1-2.75c-.08.08-.41.4-.49.32a1.39,1.39,0,0,0-.16.41,5.77,5.77,0,0,1-.65.81.31.31,0,0,0,.25-.08,1.45,1.45,0,0,0-.17.4,3.71,3.71,0,0,0-.48.57h.32c.08-.25.57-.81.65-1.06l.24-.24.33-.57a17.62,17.62,0,0,0,1.37-2.1C147.71,70.28,146.5,71.58,146.58,71.74ZM154,72c.16,0,.24,0,.32-.24l.33-.49v-.49c0-.24-.08-.4-.08-.56s.16-.81.32-.81v1a10.86,10.86,0,0,0,.49-1.13c0,.16.16.08.24.16v.65a6.74,6.74,0,0,0-.49,2,2,2,0,0,1-.08.73,16.83,16.83,0,0,0-.4,3.08c0,.16-.08.32-.08.48a1.59,1.59,0,0,0,.08.65A86.46,86.46,0,0,1,158.08,61c-.49.49-1.3,3.33-2,6.4-.09.41-.09.17-.25.73-.08.16-.32.81-.4.81v-.32c0-.25,0-.89.16-.89s.24-.33.24-1l-.24.4.65-2.35c.08-.24-.81,2-.81,2a16.76,16.76,0,0,1-.49,2.1v-.65a.83.83,0,0,0,.08-.32c-.08.08-.24.16-.32.32l-.16.73c-.33,0-.41.08-.41.17s.08.24.08.24.08.16.08.57c0-.09.17-.17.25-.17a1.83,1.83,0,0,0-.17.89l-.16.65a1.15,1.15,0,0,1-.24-.16Zm.4,2.19c0-.08,0-.33.09-.41l-.09-.73c-.08.41-.08.65-.32.89C154.19,74.09,154.27,74.17,154.35,74.17Zm.57-2.59-.16-.49c-.08,0,0,.08,0,.32a.86.86,0,0,1-.16.49c-.08.08-.08.32-.08.4a.51.51,0,0,0,.08.33A2.27,2.27,0,0,1,154.92,71.58Zm-.24-3.89.24-.25a1.08,1.08,0,0,0,.16-.64c0-.08.17-.17.17-.25s-.09-.16-.09-.24A8.92,8.92,0,0,0,154.68,67.69ZM155,71s-.16.32-.08.32.24-.32.33-.4C155.08,70.93,155.08,71,155,71Zm.49-7.05v-.73l-.41,1.54c.08,0-.08-.08.33-.08C155.41,64.53,155.49,64.12,155.49,64Zm5.83,8.75v-.57l.4-.56c2.19-3.08,5.84-8.67,7.13-10.53l-.56,1.45Zm.57,1.29c-.08,0-.17.09-.25.09s-.08,0-.08-.25c3.08-4.45,3.57-5.18,3.65-5.18l-.16.32a.31.31,0,0,0,.08.25Zm3.64-6.31-1,1.46a4.75,4.75,0,0,0,.16-.82,3.45,3.45,0,0,0,.33-.56l1.13-1.62a.87.87,0,0,0-.08.4c0,.08-.24.41-.24.65a.59.59,0,0,0-.25.24A.3.3,0,0,1,165.53,67.69Zm.25.73c0-.17.24-.49.24-.73,0,.08-.08-.16-.08-.25l3.24-4.69-.08.56-1.87,2.92-.73.89a4.38,4.38,0,0,0-.56,1S165.78,68.33,165.78,68.42Zm.56-1.87v-.32s.08-.32.16-.57L167.64,64l.81-.73Z" fill="#fff"/><path d="M177.12,75.79l1.13-1.14,4.29-6.15.41-.17A20.75,20.75,0,0,1,181.73,70c.16-.17.24-.17.33-.33a4,4,0,0,1,1-1l-1.46,2c0,.08-.08.17-.24.17s-.33.48-.33.73-.4.32-.32.32c-.08,0-.08.08-.16.32-.25.08-.17.33-.49.49-.08.08-.32.16-.32.24s0,.57-.25.65c0,0-.24.49-.24.4a3.62,3.62,0,0,0-.32.57l-.49.57c-.08.08-.24.16-.24.24s.08.08.24.08l4.37-6.07c0,.08.09-.08.09-.24l.56-.82c1.06-1.45,2-2.83,3.24-4.69,0,.08-.08.48-.08.48s-2.35,3.57-2.35,3.65,2.27-3.16,2.35-3v.73c.16,0,.41-.4.41-.24a7.91,7.91,0,0,1-.73,1.37c-.57.81-1.54,2.6-2.51,2.84.16.08.24.16.4.16.08-.16.16-.32.33-.32-2.52,4-9.08,14.09-13.21,15.55-.73.16-.32.4-1.37.4a1.09,1.09,0,0,1-.65-.16c-.49-.4-1.86-.81-2.35-1.3-1.62-1.53-1.54-4.21-1.7-4.85a1.79,1.79,0,0,1,.24-.81,1,1,0,0,0,.08.48,1.54,1.54,0,0,0,.17-.89.49.49,0,0,0-.33.08c-.08-.24-.16-.24-.16-.48s.08-.41.08-1v-.48a13.75,13.75,0,0,1,.24-2.19,1.23,1.23,0,0,1-.24-.57.65.65,0,0,0-.08.33,21.5,21.5,0,0,0-.24,3.32V78.3c.08,1.78.4,3.89,1.21,5-1,0-1.54-3.16-1.62-5.51v-1c0-3.56,1.22-7.45,2.11-10.37,2.18-7.21,6.8-18.87,10-28.67a1.18,1.18,0,0,1,1.05-.65.52.52,0,0,1,.49.41,3.56,3.56,0,0,1,2.59,3.32,1.2,1.2,0,0,1,.16.73,2.56,2.56,0,0,1-.08.81A132.35,132.35,0,0,1,176,58.7c-1.94,5.34-5.75,16-5.75,22V81c.16.57,0,1,.32,1a1.39,1.39,0,0,0,.41-.16c4.45-3.4,12.47-16,14.42-18.39.32-.48.48-.81,1-.89Zm-11-4.62c0-.08,0-.24-.08-.24,0-.25.08-.49.16-.41,0-.24.08-.24.08-.24,0-.16.16-.32.16-.49s-.08-.16-.24-.4c-.08.48-.57,2.1-.4,1.86,0,.24,0,.89-.25,1v.33a.36.36,0,0,0,.25.08A12,12,0,0,0,166.1,71.17Zm-.4,9.15a.32.32,0,0,0,.08.25l.16-.41c0-.24-.08-.49-.08-.73Zm.8-11.82a.62.62,0,0,0,.17.4c0-.24.16-.57.16-.89A.55.55,0,0,0,166.5,68.5Zm.33-1.22c0,.08,0,.25.08.25a.62.62,0,0,0,.16-.49A.21.21,0,0,0,166.83,67.28Zm.81-2.43a5.16,5.16,0,0,0-.57,1.7l.33-.16c.08,0,.08-.32.08-.32Zm1.7,14.34a5.59,5.59,0,0,0,.16-1.7l-.32,1.37v1.3l.16.24Zm.57-3.16a9.74,9.74,0,0,1,.81-2.19,25.3,25.3,0,0,0-1,5.83v.49a17.22,17.22,0,0,0,.33-1.7c-.08-.16-.16-.24-.16-.41s.24-.4.32-.64V77a1.23,1.23,0,0,1,.16-.57c0-.08-.08-.24-.08-.32a1.56,1.56,0,0,1,.24-.73c.17-1.13.49-2.59.9-4.21,0,.08-.17.16-.17.16l-.16.57a7.78,7.78,0,0,0-.4,1.3c-.09.08-.09.32-.17.48l-.4,1.13a127.52,127.52,0,0,1,3.48-12.31A70.26,70.26,0,0,0,171,70.93,23.5,23.5,0,0,0,169.91,76Zm.24-3.65c.08-.08.16-.16.16-.24v-.32a3.59,3.59,0,0,1,.16-.81c-.16.16-.24.24-.4.24C170.07,71.49,170.15,71.82,170.15,72.38Zm.4-3.32a.38.38,0,0,0-.24.33l.08.32Zm.08-.24h.57l-.16-.24.16-.49a.68.68,0,0,0,.16-.48c-.24.08-.24.32-.32.56C171,68.17,170.88,68.74,170.63,68.82Zm.9,2.19A139.68,139.68,0,0,1,176,57.72,87.48,87.48,0,0,0,171.69,70a.87.87,0,0,0-.08.48.55.55,0,0,1-.16.41A.28.28,0,0,0,171.53,71Zm1.86,11.5-.65.65c.16,0,.57-.49.73-.57,0-.16.32-.49.49-.65a3.59,3.59,0,0,0-.41.16A.66.66,0,0,0,173.39,82.51Zm3.89-5.83L177,77c-1,1.14-1,1.22-1,1.3l-.48.56c-.41.49-1.14,1.46-2.19,2.6l1.21-1.14c0-.08,1.79-2.1,1.79-2.1s.48-.65.81-1.14a2.33,2.33,0,0,0,.89-1.54A11.43,11.43,0,0,0,177.28,76.68Zm-1.78,1.37a.61.61,0,0,1,.32-.16c0-.16.16-.24.16-.4s-.16.08-.16.24C175.66,77.81,175.58,78,175.5,78.05Zm7.28-7.69c-.24,0-.4.32-.56.49l-5.35,7.77c.41-.48,2.19-2.83,2.43-3.24Zm-2.26,3.81-1.06,1.62c-.08,0-.4.64-.73,1-.08-.08-.16.24-.16.32a8.3,8.3,0,0,1-.81,1.06.51.51,0,0,0-.4.56c.24,0,.16-.4.32-.32a6.28,6.28,0,0,0,.73-.73,1.87,1.87,0,0,1,.49-.89c.16-.24.32-.33.4-.49s.57-.81.73-1.13Zm1.54-1.54a3.36,3.36,0,0,0-.09-.41c-.08,0-.24.89-.48,1.06C181.81,73.11,182.06,72.87,182.06,72.63Zm1.21-4.7a.68.68,0,0,1-.4.24,2.65,2.65,0,0,0,.48-.73c.16-.24.16-.48.24-.56l2.6-3.65v.41Zm-.08,2.27c0,.08,0,.16.16.24s.33,0,.33-.08-.09-.16-.17-.24.08-.25.08-.33C183.43,69.87,183.19,70,183.19,70.2Zm.89-1.87c-.16,0-.4.33-.49.41.17,0,.25,0,.33-.16a.6.6,0,0,1,.32.08Zm.81-.8c-.08.08-.24.24-.24.32a1.41,1.41,0,0,0,.08.48l.48-.48a1.17,1.17,0,0,0,.25-.81,2,2,0,0,1-.65.73A.29.29,0,0,0,184.89,67.53Zm1.3-1.71c-.08.17-.33.41-.33.49l-.32.41.4-.17Z" fill="#fff"/></g></svg>