<svg id="a0b9aa52-9b09-46c1-8343-2b55ac3bfa75" data-name="ab1a3f21-7c59-4569-a16d-60afc88801d6" xmlns="http://www.w3.org/2000/svg" viewBox="0 0 188.14 93.5"><g style="isolation:isolate"><path d="M17.45.92c.89.1.76.43.83,1.32.1,2.11-.1,4.19-.07,6.3.07,3.86.17,7.75,0,11.58,0,.59.23,1.87-.07,2.27s-1.72.33-2.21.33c-1,.07-1.65.23-2.18-.66-.39-.66-.69-1.42-1-2.11-.82-1.75-1.65-3.59-2.37-5.37-.1-.24-.86-3-1.26-2.91-.09,0,0,3.4,0,3.53,0,1.88.1,3.76.07,5.64,0,.73.23,1.68-.66,1.91a11.77,11.77,0,0,1-2.44-.06c-.79,0-1.19,0-1.29-.76-.09-1,.1-2.11.07-3.1-.1-4.12.13-8.28,0-12.43,0-1,.06-1.88,0-2.84,0-.62-.33-1.68,0-2.27s1.25-.37,2-.37,1.88-.39,2.57.27.53,1.48.76,2.21c.36,1.05,1,2,1.45,3.06.16.4,2,5.21,2.21,5.15s0-5.34,0-5.9c0-.4-.27-4.88.33-4.88A27.81,27.81,0,0,1,17.45.92Z" fill="#fff"/><path d="M37.7,8.94c0,1.18-.1,2.4-.07,3.59,0,1.42,0,2.87,0,4.29-.07,2.27-.92,4.35-3,5.37a10.51,10.51,0,0,1-4.68.76c-2.11,0-4.61-.36-6.06-2.08-1.22-1.45-1.29-3.56-1.29-5.37,0-2.41-.17-4.88-.07-7.26.1-2.07.14-4.41,1.78-6S28.6.59,30.81.63c1.81,0,4.28.66,5.44,1.88C37.76,4.12,37.6,6.86,37.7,8.94ZM31.3,5.18A3.39,3.39,0,0,0,27.67,6c-1.05,1.06-.79,2.94-.79,4.32,0,1.55,0,3.1,0,4.65,0,1.22.36,2.77,1.55,3.36a4,4,0,0,0,3.79-.26c1.22-.92,1-3,1.06-4.32,0-1.78-.14-3.49-.14-5.24C33.11,7,32.85,5.8,31.3,5.18Z" fill="#fff"/><path d="M59.13.76c1.45.16,1.35,1.71,1.65,2.87C61.5,6.37,62.26,9.1,63,11.84s1.49,5.54,2.15,8.31c.19.76,1.12,2,.19,2.44-.43.23-1.45-.17-2-.13s-1.22.33-1.61.06-.76-1.91-.86-2.47-.13-2-.89-2.34a7.07,7.07,0,0,0-1.45,0c-.66,0-1.32,0-2-.06-1.52-.07-1.32.79-1.65,2-.16.62-.33,2.21-.76,2.67s-.72.19-1.25.16-1.35,0-2,0c-1.52-.06-.83-1.08-.53-2.17.43-1.55.73-3.17,1.19-4.72C52.2,13.13,53,10.52,53.55,8a14.26,14.26,0,0,0,.5-1.52A14.15,14.15,0,0,1,54.71,4c.13-.43.36-3.13,1-3.13A29.73,29.73,0,0,1,59.13.76Zm-.56,10.12c-.07-.33-.33-2.21-.83-2.21A43.08,43.08,0,0,0,56.55,13c-.16.75-.13.66.66.66a8.7,8.7,0,0,0,2,0C59.49,13.39,58.63,11.25,58.57,10.88Z" fill="#fff"/><path d="M79.86,18.47c.43,1.05.89,2.07,1.36,3.1s0,1.12-1,1.12a11.86,11.86,0,0,1-1.58.06c-.26,0-1-.1-1.22-.16-.72-.27-1-1.62-1.32-2.28-.49-.92-.79-2-1.35-2.87-.36-.62-1.55-1-2-.13a8.2,8.2,0,0,0,0,2c0,.76,0,1.52,0,2.28,0,1.15-.4,1-1.52,1-.5,0-2.31.36-2.71,0s-.09-.63-.06-1.05-.07-1.16-.07-1.72c0-1.42,0-2.83,0-4.25,0-2.57,0-5.15,0-7.72,0-1.15.07-2.24.13-3.39a21.24,21.24,0,0,1-.1-2.87c.23-1,1.62-.76,2.51-.79,1.25,0,2.7,0,3.89,0,3.79.1,6.17,1.75,6.53,5.67.06,1.32.06,2.68,0,4-.06,2.25-.56,4.69-2.67,5.68,0,.19.07,0,0,0C78.78,16.88,79.57,17.77,79.86,18.47ZM76,5.61a4.54,4.54,0,0,0-2.74-.43c-1.12.23-.49,1.75-.46,2.7,0,1.19-.1,2.38-.1,3.53,0,.89-.13,1.25.86,1.22A7.21,7.21,0,0,0,76,12.27,1.66,1.66,0,0,0,77,10.65a20.92,20.92,0,0,0,.13-2.87A2.05,2.05,0,0,0,76,5.61Z" fill="#fff"/><path d="M83.72,1.78c0-1.32,1.32-1,2.34-1,2.71.17,5.38.07,8.08.13,1,0,2.37-.42,3.33-.13s.69,1.59.66,2.34c0,1.19.1,1.78-1.15,1.82-.73,0-1.46,0-2.18,0-.3,0-1.45-.13-1.68.1s0,.72.06,1c0,.56-.16,1.15-.16,1.71,0,1.55,0,3.14.06,4.65,0,2.74-.16,5.54,0,8.28,0,.63.27,1.48-.29,1.84-.3.24-.89.07-1.25.07-.7,0-1.42.13-2.08.07-1-.14-.83-.89-.79-1.75,0-1.22,0-2.47,0-3.73.1-3.13.07-6.29,0-9.43a10.14,10.14,0,0,0,0-2.27c-.16-.69-.39-.56-1.12-.53-.53,0-3.79.36-3.79-.3C83.82,3.79,83.72,2.74,83.72,1.78Z" fill="#fff"/><path d="M100.67,17.41c0-1.78.19-3.63.1-5.41s-.14-3.46-.07-5.21c0-1,.07-1.88.07-2.83,0-.69-.33-2.31,0-2.9s1.31-.23,1.88-.23,1.64-.37,2.14.06.33,1.35.26,1.91a13.47,13.47,0,0,0,0,2.54c.27,3.93-.1,7.88,0,11.81,0,1.18-.13,2.37-.06,3.56,0,.39.26,1.58-.1,1.88s-1.88,0-2.38,0c-.33,0-1.84.3-1.84-.33Z" fill="#fff"/><path d="M109.07,6.83c.1-1.59-.06-3.24,0-4.82,0-.76-.3-1,.43-1.12a12.47,12.47,0,0,1,2.44,0c1.32,0,2.64,0,4,.07s2.87-.43,4-.16.76,1.61.73,2.57c0,.59.2,1.18-.3,1.55s-1.32.13-1.81.1c-1.42-.1-2.84.16-4.26.09a2.25,2.25,0,0,0-1,.07,7.87,7.87,0,0,0,0,1.75c0,.89-.06,2.7.14,2.7,2.34.1,3.16-.1,4.41-.1,1.42,0,1.32.37,1.32,1.62,0,1.48.27,2.7-1.51,2.54-.79-.07-1.52.06-2.28,0-.49,0-1.88,0-1.94.07s-.1,1.25-.1,1.84c0,.86-.07,1.69,0,2.58,0,.69,0,1.38,0,2.11,0,.56.37,1.64-.06,2.14s-1,.13-1.45.13c-.86-.07-1.72.1-2.57.1C108.61,22.72,109,8.24,109.07,6.83Z" fill="#fff"/><path d="M123.48,17.41c0-1.78.2-3.63.1-5.41s-.13-3.46-.07-5.21c0-1,.07-1.88.07-2.83,0-.69-.33-2.31,0-2.9s1.32-.23,1.88-.23,1.65-.37,2.14.06.33,1.35.27,1.91a12.68,12.68,0,0,0,0,2.54c.26,3.93-.1,7.88,0,11.81,0,1.18-.14,2.37-.07,3.56,0,.39.26,1.58-.1,1.88s-1.88,0-2.37,0c-.33,0-1.85.3-1.85-.33Z" fill="#fff"/><path d="M145.34,13.65c1,.07,1.19.1,1.19,1.12,0,.66,0,1.36-.07,2.05a6,6,0,0,1-6,5.87c-3.39.1-6.92,0-8.57-3.56-.66-1.49-.46-3.3-.5-4.88,0-1.78,0-3.57.1-5.31a18.94,18.94,0,0,1,.2-4.06A5.61,5.61,0,0,1,135.22,1,10.33,10.33,0,0,1,139.6.4c1.79,0,4,.43,5.28,1.84a7.65,7.65,0,0,1,1.58,4.52c.07.53.2,1.22-.26,1.52a4.35,4.35,0,0,1-1.09-.07c-.66,0-1.32,0-2,.07s-.76.2-1-.36,0-1.39-.49-2.08c-.89-1.19-3.37-1.35-4.62-.63s-1.25,3.3-1.22,4.58c0,1.09.07,2.18.1,3.27a20.41,20.41,0,0,0,.1,3.23A3.32,3.32,0,0,0,140,18.4c1.68-.46,2.34-2.54,2.18-4.55C142.21,13.19,144.81,13.62,145.34,13.65Z" fill="#fff"/><path d="M150.15,17.41c0-1.78.2-3.63.1-5.41s-.13-3.46-.06-5.21c0-1,.06-1.88.06-2.83,0-.69-.33-2.31,0-2.9s1.32-.23,1.88-.23,1.65-.37,2.14.06.33,1.35.27,1.91a12.68,12.68,0,0,0,0,2.54c.26,3.93-.1,7.88,0,11.81,0,1.18-.13,2.37-.07,3.56,0,.39.27,1.58-.1,1.88s-1.88,0-2.37,0c-.33,0-1.85.3-1.85-.33Z" fill="#fff"/><path d="M166.24.76c1.45.16,1.36,1.71,1.65,2.87.73,2.74,1.49,5.47,2.18,8.21s1.48,5.54,2.14,8.31c.2.76,1.12,2,.2,2.44-.43.23-1.45-.17-2-.13s-1.22.33-1.62.06-.75-1.91-.85-2.47-.13-2-.89-2.34a7.07,7.07,0,0,0-1.45,0c-.66,0-1.32,0-2-.06-1.52-.07-1.32.79-1.65,2-.17.62-.33,2.21-.76,2.67s-.72.19-1.25.16-1.35,0-2,0c-1.51-.06-.82-1.08-.52-2.17.42-1.55.72-3.17,1.18-4.72.73-2.53,1.55-5.14,2.08-7.68.13-.49.4-1,.5-1.52A15.09,15.09,0,0,1,161.82,4c.14-.43.37-3.13,1-3.13A29.56,29.56,0,0,1,166.24.76Zm-.56,10.12c-.06-.33-.33-2.21-.82-2.21A40.6,40.6,0,0,0,163.67,13c-.16.75-.13.66.66.66a8.71,8.71,0,0,0,2,0C166.61,13.39,165.75,11.25,165.68,10.88Z" fill="#fff"/><path d="M180,15.07c0,1-.1,1.85-.07,2.77,0,.33,0,.73.2.86s.92,0,1.22-.07c1.15-.1,2.28-.06,3.4-.06.75,0,2.37-.27,2.63.59a8.67,8.67,0,0,1,0,1.68c0,.5.2,1.22-.16,1.65-.6.66-2.48.16-3.3.23a63.87,63.87,0,0,1-7.19,0c-1.12,0-1.25-.46-1.15-1.58.09-1.35,0-2.64,0-4-.06-2.51,0-5.15.13-7.65.1-1.45-.06-2.9,0-4.32,0-.73,0-1.45.07-2.18,0-.43-.2-1.35,0-1.75C176,.59,177.22,1,177.88,1c.3,0,2.05-.17,2.05.33C179.93,5.9,180,10.49,180,15.07Z" fill="#fff"/></g><path d="M17.45.93c.89.1.76.43.83,1.32.09,2.11-.1,4.18-.07,6.29.07,3.86.16,7.75,0,11.58,0,.59.23,1.88-.06,2.27s-1.72.33-2.21.33c-1,.07-1.65.24-2.18-.66a20.34,20.34,0,0,1-1-2.11c-.83-1.74-1.65-3.59-2.38-5.37-.09-.23-.85-3-1.25-2.9-.1,0,0,3.39,0,3.53,0,1.87.1,3.75.07,5.63,0,.73.23,1.69-.66,1.92a12.45,12.45,0,0,1-2.44-.07c-.79,0-1.19,0-1.29-.76-.1-1,.1-2.11.07-3.1-.1-4.12.13-8.27,0-12.43,0-1,.07-1.88,0-2.83,0-.63-.32-1.69,0-2.28s1.26-.36,2-.36,1.88-.4,2.58.26.52,1.49.75,2.21c.37,1.06,1,2.05,1.45,3.07.17.39,2,5.21,2.21,5.14s0-5.34,0-5.9c0-.4-.26-4.88.33-4.88A27.92,27.92,0,0,1,17.45.93Z" fill="none" stroke="#fff" stroke-linecap="round" stroke-linejoin="round" stroke-width="0.35"/><path d="M37.7,8.94c0,1.19-.1,2.41-.07,3.6v4.28c-.11,2.28-1,4.37-3.11,5.37a10.68,10.68,0,0,1-4.68.76c-2.11,0-4.62-.37-6.07-2.08-1.18-1.44-1.25-3.55-1.25-5.37,0-2.4-.17-4.88-.07-7.25.1-2.08.13-4.42,1.78-6S28.59.6,30.8.63c1.82,0,4.29.66,5.44,1.88C37.76,4.13,37.6,6.86,37.7,8.94ZM31.3,5.19A3.41,3.41,0,0,0,27.67,6c-1,1-.79,2.93-.79,4.32V15c0,1.23.36,2.78,1.55,3.37a4,4,0,0,0,3.79-.27c1.22-.92,1-3,1-4.32,0-1.78-.13-3.49-.13-5.24C33.11,7,32.85,5.81,31.3,5.19Z" fill="none" stroke="#fff" stroke-linecap="round" stroke-linejoin="round" stroke-width="0.35"/><path d="M59.12.76c1.46.17,1.4,1.72,1.65,2.87.73,2.74,1.49,5.48,2.18,8.21s1.48,5.54,2.14,8.31c.2.76,1.12,2,.2,2.44-.43.23-1.45-.16-2-.13s-1.22.33-1.61.07-.76-1.92-.86-2.48-.13-2-.89-2.34a7,7,0,0,0-1.45,0,19.19,19.19,0,0,1-2-.07c-1.52-.07-1.32.79-1.65,2-.16.63-.33,2.21-.76,2.67s-.72.2-1.25.17-1.35,0-2,0c-1.51-.07-.82-1.09-.52-2.18.43-1.55.72-3.16,1.18-4.71.73-2.54,1.55-5.15,2.08-7.69.13-.49.4-1,.5-1.51A14.66,14.66,0,0,1,54.72,4c.13-.43.36-3.14,1-3.14A29.68,29.68,0,0,1,59.12.76Zm-.6,10.13c-.06-.33-.33-2.21-.82-2.21A43.65,43.65,0,0,0,56.52,13c-.16.76-.13.66.66.66a8.79,8.79,0,0,0,2,0C59.52,13.39,58.63,11.25,58.52,10.89Z" fill="none" stroke="#fff" stroke-linecap="round" stroke-linejoin="round" stroke-width="0.35"/><path d="M79.86,18.47c.43,1.06.89,2.08,1.35,3.1s0,1.12-1,1.12a13.82,13.82,0,0,1-1.58.07,6.29,6.29,0,0,1-1.22-.17c-.73-.26-1-1.61-1.32-2.27-.49-.93-.79-2-1.35-2.87-.36-.63-1.55-1-2-.13a7.44,7.44,0,0,0,0,2V21.6c0,1.15-.39,1-1.51,1-.5,0-2.31.37-2.71,0s-.1-.62-.06-1.05-.07-1.15-.07-1.71v-12c0-1.16.06-2.25.13-3.4a21.13,21.13,0,0,1-.1-2.87c.23-1,1.62-.76,2.51-.79h3.89C78.61.87,81,2.52,81.35,6.45c.06,1.32.06,2.67,0,4-.07,2.24-.56,4.68-2.67,5.67,0,.2.06,0,0,0C78.77,16.89,79.57,17.78,79.86,18.47ZM76,5.61a4.62,4.62,0,0,0-2.74-.42c-1.12.23-.49,1.75-.46,2.71,0,1.18-.1,2.37-.1,3.52,0,.89-.13,1.26.86,1.22A6.79,6.79,0,0,0,76,12.28,1.65,1.65,0,0,0,77,10.67a21.14,21.14,0,0,0,.13-2.87A2,2,0,0,0,76,5.61Z" fill="none" stroke="#fff" stroke-linecap="round" stroke-linejoin="round" stroke-width="0.35"/><path d="M83.72,1.79c0-1.32,1.32-1.06,2.34-1,2.7.16,5.37.06,8.08.13,1,0,2.38-.43,3.38-.13s.69,1.58.66,2.34c0,1.18.1,1.78-1.16,1.81H94.8c-.3,0-1.45-.13-1.68.1s0,.73.06,1c0,.56-.16,1.16-.16,1.72,0,1.55,0,3.13.06,4.65,0,2.73-.16,5.54,0,8.27,0,.63.27,1.49-.29,1.85-.3.23-.89.06-1.26.06-.69,0-1.42.14-2.07.07-1-.13-.83-.89-.8-1.75V17.19c.1-3.14.06-6.3,0-9.43a10.86,10.86,0,0,0,0-2.28c-.17-.69-.4-.56-1.12-.53-.53,0-3.79.37-3.79-.29C83.82,3.8,83.72,2.74,83.72,1.79Z" fill="none" stroke="#fff" stroke-linecap="round" stroke-linejoin="round" stroke-width="0.35"/><path d="M100.66,17.42c0-1.79.2-3.63.1-5.41s-.13-3.47-.06-5.21c0-1,.06-1.88.06-2.84,0-.69-.33-2.31,0-2.9s1.32-.23,1.88-.23,1.65-.36,2.15.06.33,1.36.26,1.92a12,12,0,0,0,0,2.54c.26,3.92-.1,7.88,0,11.8,0,1.19-.13,2.38-.07,3.56,0,.4.27,1.58-.09,1.88s-1.88,0-2.38,0c-.33,0-1.85.3-1.85-.33Z" fill="none" stroke="#fff" stroke-linecap="round" stroke-linejoin="round" stroke-width="0.35"/><path d="M109.07,6.83c.1-1.58-.06-3.23,0-4.81,0-.76-.3-1,.43-1.13a12.43,12.43,0,0,1,2.44,0c1.32,0,2.64,0,4,.06S118.81.53,120,.79s.76,1.61.72,2.57c0,.59.2,1.19-.29,1.55s-1.32.13-1.82.1c-1.41-.1-2.83.16-4.25.1a2.42,2.42,0,0,0-1,.06,7.32,7.32,0,0,0,0,1.75c0,.89-.06,2.71.13,2.71,2.34.09,3.17-.1,4.42-.1,1.42,0,1.32.36,1.32,1.61,0,1.49.27,2.71-1.52,2.54-.79-.06-1.51.07-2.27,0a14.92,14.92,0,0,0-2,.07,6,6,0,0,0-.1,1.85c0,.85-.06,1.68,0,2.57v2.11c0,.56.36,1.65-.06,2.14s-1,.13-1.46.13c-.85-.06-1.71.1-2.57.1C108.61,22.72,109,8.25,109.07,6.83Z" fill="none" stroke="#fff" stroke-linecap="round" stroke-linejoin="round" stroke-width="0.35"/><path d="M123.52,17.42c0-1.79.2-3.63.1-5.41s-.1-3.47-.1-5.21c0-1,.07-1.88.07-2.84,0-.69-.33-2.31,0-2.9s1.35-.23,1.93-.23,1.65-.36,2.14.06.33,1.36.26,1.92a13.47,13.47,0,0,0,0,2.54c.27,3.92-.09,7.88,0,11.8,0,1.19-.13,2.38-.06,3.56,0,.4.26,1.58-.1,1.88s-1.88,0-2.37,0c-.33,0-1.85.3-1.85-.33Z" fill="none" stroke="#fff" stroke-linecap="round" stroke-linejoin="round" stroke-width="0.35"/><path d="M145.34,13.66c1,.06,1.19.09,1.19,1.12a19,19,0,0,1-.07,2,6,6,0,0,1-6,5.87c-3.4.1-6.93,0-8.57-3.56-.66-1.48-.47-3.3-.5-4.88,0-1.78,0-3.56.1-5.31a19,19,0,0,1,.2-4.06A5.59,5.59,0,0,1,135.22,1,10.37,10.37,0,0,1,139.6.4c1.78,0,4,.43,5.28,1.85a7.62,7.62,0,0,1,1.58,4.51c.07.53.2,1.22-.26,1.52a3.36,3.36,0,0,1-1.09-.09,19.19,19.19,0,0,0-2,.07c-.68.07-.76.2-1-.36s0-1.39-.5-2.08c-.89-1.19-3.36-1.35-4.61-.63s-1.26,3.3-1.22,4.59c0,1.09.06,2.17.1,3.26a19.35,19.35,0,0,0,.09,3.23A3.32,3.32,0,0,0,140,18.38c1.68-.46,2.34-2.53,2.18-4.55C142.21,13.19,144.81,13.62,145.34,13.66Z" fill="none" stroke="#fff" stroke-linecap="round" stroke-linejoin="round" stroke-width="0.35"/><path d="M150.15,17.42c0-1.79.2-3.63.1-5.41s-.13-3.47-.07-5.21c0-1,.07-1.88.07-2.84,0-.69-.33-2.31,0-2.9s1.32-.23,1.88-.23,1.65-.36,2.14.06.33,1.36.27,1.92a13.47,13.47,0,0,0,0,2.54c.26,3.92-.1,7.88,0,11.8,0,1.19-.14,2.38-.07,3.56,0,.4.26,1.58-.1,1.88s-1.88,0-2.37,0c-.33,0-1.85.3-1.85-.33Z" fill="none" stroke="#fff" stroke-linecap="round" stroke-linejoin="round" stroke-width="0.35"/><path d="M166.24.76c1.45.17,1.35,1.72,1.65,2.87.73,2.74,1.48,5.48,2.18,8.21s1.45,5.54,2.14,8.35c.2.76,1.12,2,.2,2.44-.43.23-1.45-.16-2-.13s-1.22.33-1.62.07-.76-1.92-.85-2.48-.14-2-.89-2.34a7.12,7.12,0,0,0-1.46,0,19.19,19.19,0,0,1-2-.07c-1.52-.07-1.32.79-1.65,2-.17.63-.33,2.21-.76,2.67s-.73.2-1.25.17-1.36,0-2,0c-1.52-.07-.82-1.09-.53-2.18.43-1.55.73-3.16,1.19-4.71.73-2.54,1.55-5.15,2.08-7.69.13-.49.39-1,.49-1.51A17.24,17.24,0,0,1,161.82,4c.13-.43.36-3.14,1-3.14A27.9,27.9,0,0,1,166.24.76Zm-.56,10.13c-.07-.33-.33-2.21-.82-2.21A38.88,38.88,0,0,0,163.67,13c-.17.76-.13.66.66.66a8.36,8.36,0,0,0,2,0C166.6,13.39,165.75,11.25,165.68,10.89Z" fill="none" stroke="#fff" stroke-linecap="round" stroke-linejoin="round" stroke-width="0.35"/><path d="M180,15.07c0,1-.1,1.85-.07,2.77,0,.33,0,.73.2.86a2.52,2.52,0,0,0,1.22-.07c1.15-.09,2.27-.06,3.39-.06.76,0,2.38-.26,2.64.59a9.43,9.43,0,0,1,0,1.68c0,.5.2,1.22-.17,1.65-.59.66-2.47.17-3.29.23a61.6,61.6,0,0,1-7.19,0c-1.12,0-1.25-.46-1.16-1.58.1-1.35,0-2.64,0-4-.06-2.5,0-5.14.13-7.65.1-1.45-.06-2.9,0-4.32,0-.72,0-1.45.07-2.18a5.08,5.08,0,0,1,0-1.74c.36-.66,1.55-.3,2.21-.3.3,0,2-.16,2,.33C179.92,5.91,180,10.49,180,15.07Z" fill="none" stroke="#fff" stroke-linecap="round" stroke-linejoin="round" stroke-width="0.35"/><path d="M16.39,51.39c1.11.07,1.33.11,1.33,1.25,0,.74,0,1.52-.07,2.29a6.68,6.68,0,0,1-6.72,6.57c-3.8.11-7.75,0-9.59-4C.6,55.84.82,53.81.78,52c0-2,0-4,.12-5.94a20.83,20.83,0,0,1,.22-4.53,6.25,6.25,0,0,1,4-4.38,11.68,11.68,0,0,1,4.9-.66c2,0,4.5.48,5.91,2.06a8.67,8.67,0,0,1,1.77,5.06c.07.59.22,1.36-.3,1.69a4.16,4.16,0,0,1-1.22-.07c-.73,0-1.47,0-2.21.07s-.85.23-1.14-.4,0-1.55-.56-2.33c-1-1.32-3.76-1.51-5.16-.7S5.71,45.6,5.74,47c0,1.22.08,2.44.11,3.65A25.72,25.72,0,0,0,6,54.31c.4,1.88,2.72,2.88,4.49,2.39s2.62-2.84,2.44-5.09C12.89,50.87,15.8,51.35,16.39,51.39Z" fill="#fff"/><path d="M38.68,46.11c0,1.33-.11,2.7-.07,4v4.8c-.08,2.55-1,4.87-3.4,6a11.68,11.68,0,0,1-5.23.85c-2.37,0-5.17-.4-6.79-2.32-1.37-1.62-1.44-4-1.44-6,0-2.69-.19-5.45-.08-8.11.11-2.33.15-5,2-6.68s4.87-1.88,7.34-1.84c2,0,4.79.73,6.09,2.1C38.75,40.73,38.57,43.79,38.68,46.11Zm-7.16-4.2a3.79,3.79,0,0,0-4.06.92c-1.18,1.18-.88,3.28-.88,4.83v5.2c0,1.37.41,3.1,1.73,3.77a4.55,4.55,0,0,0,4.25-.3c1.36-1,1.1-3.32,1.18-4.83,0-2-.15-3.91-.15-5.87C33.52,43.9,33.26,42.61,31.52,41.91Z" fill="#fff"/><path d="M47.43,53c0,1.07-.11,2.06-.08,3.1,0,.36,0,.81.22,1s1,0,1.37-.07c1.29-.11,2.54-.07,3.8-.07.85,0,2.66-.3,3,.66a9.84,9.84,0,0,1,0,1.88c0,.56.23,1.37-.18,1.85-.67.74-2.77.18-3.69.25a71.17,71.17,0,0,1-8,0c-1.26,0-1.41-.51-1.29-1.76.11-1.52,0-3,0-4.47-.08-2.8,0-5.76.15-8.56.11-1.62-.08-3.25,0-4.83,0-.81,0-1.63.07-2.44a6.1,6.1,0,0,1,0-2c.41-.74,1.73-.34,2.47-.34.33,0,2.29-.18,2.29.37C47.39,42.72,47.52,47.85,47.43,53Z" fill="#fff"/><path d="M75.52,46.11c0,1.33-.12,2.7-.08,4v4.8c-.07,2.55-1,4.87-3.39,6a11.74,11.74,0,0,1-5.24.85c-2.36,0-5.16-.4-6.79-2.32-1.36-1.62-1.44-4-1.44-6,0-2.69-.18-5.45-.07-8.11.11-2.33.15-5,2-6.68s4.87-1.88,7.34-1.84c2,0,4.8.73,6.09,2.1C75.58,40.73,75.39,43.79,75.52,46.11Zm-7.16-4.2a3.79,3.79,0,0,0-4.06.92c-1.18,1.18-.89,3.28-.89,4.83v5.2c0,1.37.4,3.1,1.73,3.77a4.52,4.52,0,0,0,4.24-.3c1.37-1,1.11-3.32,1.18-4.83,0-2-.14-3.91-.14-5.87,0-1.73-.34-3-2.07-3.72Z" fill="#fff"/><path d="M94.52,36.89c.89,0,1.44-.18,1.59.74a24.06,24.06,0,0,1-.19,3.06c.11,2.55.22,5.57.11,8.19-.22,3.51,1.07,8.74-2.39,11.22-3.12,2.21-9.12,2.4-12.12-.08-3.21-2.73-2.51-8.08-2.4-11.84.07-1.88.15-3.8.11-5.68,0-.81-.07-1.59,0-2.4s-.33-2.21.19-2.84c.37-.41,1-.26,1.47-.3a13.74,13.74,0,0,1,2.48-.07c1.36.26.81,4.06.81,5.13v6c.11,2.21-.66,4.76.34,6.9a3.71,3.71,0,0,0,5.07,1.22,3.75,3.75,0,0,0,.51-.38c1.48-1.48,1.15-4.17,1-6.05-.33-4.21.11-8.38.11-12.51C91.15,36.71,94,36.93,94.52,36.89Z" fill="#fff"/><path d="M113.18,56.78c.48,1.18,1,2.32,1.51,3.46s0,1.26-1.14,1.26a13.1,13.1,0,0,1-1.77.07,7.91,7.91,0,0,1-1.37-.18c-.81-.3-1.1-1.81-1.47-2.55-.56-1-.89-2.21-1.52-3.21-.4-.7-1.73-1.11-2.21-.15a9.16,9.16,0,0,0,0,2.22v2.54c0,1.29-.45,1.15-1.7,1.15-.55,0-2.58.4-3,0s-.11-.71-.07-1.19-.07-1.29-.07-1.91V44.89c0-1.29.07-2.51.15-3.8a22.91,22.91,0,0,1-.11-3.21c.26-1.14,1.8-.85,2.8-.88h4.31c4.25.11,6.9,2,7.31,6.35.07,1.47.07,3,0,4.46-.08,2.51-.63,5.24-3,6.35,0,.22.07,0,0,0C112,55,112.85,56,113.18,56.78ZM108.9,42.39a5,5,0,0,0-3.06-.48c-1.26.26-.56,2-.52,3,0,1.33-.11,2.66-.11,4,0,1-.15,1.4,1,1.37a8.26,8.26,0,0,0,2.66-.41,1.84,1.84,0,0,0,1.18-1.81,22.92,22.92,0,0,0,.14-3.21A2.29,2.29,0,0,0,108.9,42.39Z" fill="#fff"/><path d="M132.7,58.73a8.87,8.87,0,0,1-4,2.73c-2.63,1-6.76,0-8.79-2-.92-.89-2.1-2.36-1.14-3.54.48-.63,2.77-2.4,3.43-2.11.48.23.67,1.07,1,1.48a4.88,4.88,0,0,0,2,1.48c1.51.44,3.62-.67,3.54-2.36-.07-1.52-2.14-2.55-3.39-3.14a23.23,23.23,0,0,1-4.58-2.33,7.56,7.56,0,0,1-2.62-3.69,5.82,5.82,0,0,1,1-5.23,8.64,8.64,0,0,1,9.52-3,7.84,7.84,0,0,1,3.58,2.85c.25.4.85.92.92,1.4.11.88-1,1.51-1.59,2-.37.26-1.18,1.11-1.66,1.15-.7,0-1.29-1.37-1.77-1.81-1.18-1.11-3.87-1.66-4.94.07-1.26,2.11,3.54,3.29,4.68,3.84a15.92,15.92,0,0,1,4.47,3.1,7.59,7.59,0,0,1,1.25,2.1,7.13,7.13,0,0,1,.15,4.65A5.44,5.44,0,0,1,132.7,58.73Z" fill="#fff"/><path d="M165.87,46.11c0,1.33-.11,2.7-.07,4v4.8c-.07,2.55-1,4.87-3.39,6a11.74,11.74,0,0,1-5.24.85c-2.36,0-5.17-.4-6.79-2.32-1.37-1.62-1.44-4-1.44-6,0-2.69-.18-5.45-.07-8.11.11-2.33.14-5,2-6.68s4.87-1.88,7.34-1.84c2,0,4.8.73,6.09,2.1C166,40.73,165.76,43.79,165.87,46.11Zm-7.16-4.2a3.75,3.75,0,0,0-4.05.92c-1.19,1.18-.89,3.28-.89,4.83v5.2c0,1.37.41,3.1,1.74,3.77a4.52,4.52,0,0,0,4.24-.3c1.37-1,1.11-3.32,1.18-4.83,0-2-.15-3.91-.15-5.87C160.74,43.9,160.45,42.61,158.71,41.91Z" fill="#fff"/><path d="M182.52,56.78c.48,1.18,1,2.32,1.51,3.46s0,1.26-1.14,1.26a13.18,13.18,0,0,1-1.78.07,7.92,7.92,0,0,1-1.36-.18c-.81-.3-1.11-1.81-1.48-2.55-.55-1-.88-2.21-1.51-3.21-.4-.7-1.73-1.11-2.21-.15a8.25,8.25,0,0,0,0,2.22v2.54c0,1.29-.44,1.15-1.69,1.15-.56,0-2.59.4-3,0s-.11-.71-.07-1.19-.08-1.29-.08-1.91V44.89c0-1.29.07-2.51.14-3.8a26.49,26.49,0,0,1-.11-3.21c.26-1.14,1.81-.85,2.81-.88h4.35c4.24.11,6.9,2,7.31,6.35.07,1.47.07,3,0,4.46-.07,2.51-.62,5.24-3,6.35,0,.22.07,0,0,0C181.26,55,182.14,56,182.52,56.78ZM178.2,42.39a5,5,0,0,0-3.06-.48c-1.26.26-.56,2-.52,3,0,1.33-.11,2.66-.11,4,0,1-.15,1.4,1,1.37a8.2,8.2,0,0,0,2.65-.41,1.82,1.82,0,0,0,1.18-1.81,21.5,21.5,0,0,0,.15-3.21A2.29,2.29,0,0,0,178.2,42.39Z" fill="#fff"/><path d="M14.4,83.88a5.3,5.3,0,0,1-4.15,3.39c-.94.09-2,0-2.92,0s-.81.28-.81,1.16.1,2,.1,3c0,1.28-.41,1.28-1.57,1.25-.66,0-2.2.35-2.61-.34-.19-.35.06-.73.06-1.1a8.05,8.05,0,0,0,0-1.7c-.19-2.07.19-4.18,0-6.25a24.4,24.4,0,0,1,0-3.42c.06-1.23-.12-2.39,0-3.61s0-2.17.1-3.24.12-1.16,1.19-1.16,2.42.1,3.64.1a12.55,12.55,0,0,1,3.77.18c2.57.79,3.61,3,3.61,5.47C14.74,79.76,15.09,81.87,14.4,83.88ZM8.9,76.19c-.53-.09-2.32-.28-2.36.26a7.81,7.81,0,0,1,0,2.16c-.06.69.07,1.35.07,2v1.86c0,.57-.07.5.53.66a4.35,4.35,0,0,0,2.67-.51c1.1-.81.94-2.89.94-4.08A2.23,2.23,0,0,0,8.9,76.19Z" fill="#fff"/><path d="M27.61,88.84c.41,1,.85,2,1.29,3s0,1.07-1,1.07a12.62,12.62,0,0,1-1.51.06,11.54,11.54,0,0,1-1.16-.16c-.69-.25-.94-1.54-1.26-2.16-.47-.88-.75-1.89-1.28-2.74-.35-.59-1.48-.94-1.89-.12a7.39,7.39,0,0,0,0,1.88v2.17c0,1.1-.37,1-1.44,1-.47,0-2.2.35-2.58,0s-.09-.59-.06-1,0-1.1,0-1.6V78.84c0-1.1.06-2.14.12-3.24a17.8,17.8,0,0,1-.09-2.73c.22-1,1.54-.72,2.38-.75h3.71c3.61.09,5.87,1.66,6.22,5.4.06,1.25.06,2.54,0,3.8-.06,2.13-.53,4.46-2.54,5.4,0,.19.06,0,0,0C26.58,87.33,27.33,88.19,27.61,88.84ZM24,76.59a4.4,4.4,0,0,0-2.6-.41c-1.07.22-.48,1.67-.44,2.58,0,1.13-.1,2.26-.1,3.36,0,.85-.12,1.19.82,1.16a6.4,6.4,0,0,0,2.26-.35,1.56,1.56,0,0,0,1-1.53A19.27,19.27,0,0,0,25,78.66,2,2,0,0,0,24,76.59Z" fill="#fff"/><path d="M32.1,86.7c-.06-1.51,0-3,0-4.52S32,79.32,32,77.81c0-1.25,0-2.44.06-3.7,0-.41-.25-1.63,0-2S33.14,72,33.55,72A50.28,50.28,0,0,0,38.76,72c.91,0,1.79,0,2.67.06.41,0,1.32-.25,1.63,0s.19,1.79.22,2.29c0,.72.28,1.48-.56,1.63a12.23,12.23,0,0,1-2.42,0c-.82,0-1.63.07-2.42,0-.44,0-1.16-.31-1.54,0s-.22,1.81-.22,2.25a4.52,4.52,0,0,0,.19,2c.16.22,1.63,0,2.23,0a16.25,16.25,0,0,1,2.61,0c.85.16.59.63.59,1.41,0,.6.32,1.73,0,2.23s-1,.44-1.54.41a14.89,14.89,0,0,0-2,.1,8.05,8.05,0,0,0-1.7,0c-.69.18-.28,2.54-.34,3.29a1.76,1.76,0,0,0,.25,1.23,12.87,12.87,0,0,0,2.48.09c1.07,0,1.82,0,2.89-.06s1.44-.06,1.47,1a12.84,12.84,0,0,1,0,2.32c-.19.85-.85.53-1.54.5-1,0-9.67.72-9.67.06C32,90.88,32.2,88.62,32.1,86.7Z" fill="#fff"/><path d="M57.63,90.5a7.62,7.62,0,0,1-3.39,2.33,8,8,0,0,1-7.47-1.7c-.79-.75-1.79-2-1-3,.41-.54,2.36-2,2.92-1.79s.57.91.82,1.25a4,4,0,0,0,1.73,1.26c1.28.37,3.07-.57,3-2s-1.79-2.19-2.86-2.66a19.63,19.63,0,0,1-3.86-2,6.36,6.36,0,0,1-2.23-3.14,5,5,0,0,1,.85-4.46,7.33,7.33,0,0,1,8.1-2.51,6.6,6.6,0,0,1,3,2.42c.22.34.72.78.78,1.19.09.75-.82,1.29-1.35,1.66-.31.22-1,1-1.41,1-.6,0-1.1-1.16-1.51-1.54-1-.94-3.3-1.41-4.21.06-1.07,1.79,3,2.8,4,3.27a13.71,13.71,0,0,1,3.8,2.64,6.64,6.64,0,0,1,1.07,1.79,6.1,6.1,0,0,1,.12,4A4.54,4.54,0,0,1,57.63,90.5Z" fill="#fff"/><path d="M60.93,86.7c-.07-1.51,0-3,0-4.52s-.07-2.86-.1-4.37c0-1.25,0-2.44.07-3.7,0-.41-.25-1.63,0-2S62,72,62.38,72A50.28,50.28,0,0,0,67.59,72c.91,0,1.79,0,2.67.06.41,0,1.32-.25,1.64,0s.18,1.79.22,2.29c0,.72.28,1.48-.57,1.63a12.23,12.23,0,0,1-2.42,0c-.81,0-1.63.07-2.42,0-.43,0-1.16-.31-1.53,0S65,77.66,65,78.13s-.13,1.57.19,2c.15.22,1.63,0,2.23,0a14.11,14.11,0,0,1,2.6,0c.85.16.6.63.6,1.41,0,.6.31,1.73,0,2.23s-.94.44-1.54.41a14.89,14.89,0,0,0-2,.1,8,8,0,0,0-1.69,0c-.7.18-.29,2.54-.35,3.29a1.89,1.89,0,0,0,.25,1.23,14.74,14.74,0,0,0,2.48.09c1.07,0,1.82,0,2.89-.06s1.45-.06,1.48,1a15,15,0,0,1,0,2.32c-.19.85-.85.53-1.54.5-1,0-9.68.72-9.68.06C60.86,90.88,61,88.62,60.93,86.7Z" fill="#fff"/><path d="M85.89,88.84c.41,1,.85,2,1.29,3s0,1.07-1,1.07a12.62,12.62,0,0,1-1.51.06,11.35,11.35,0,0,1-1.15-.16c-.7-.25-1-1.54-1.26-2.16-.47-.88-.75-1.89-1.29-2.74-.34-.59-1.47-.94-1.88-.12a7.39,7.39,0,0,0,0,1.88v2.17c0,1.1-.38,1-1.44,1-.48,0-2.2.35-2.58,0s-.09-.59-.06-1-.07-1.1-.07-1.63V78.81c0-1.1.07-2.14.13-3.24a22.65,22.65,0,0,1-.1-2.73c.22-1,1.54-.72,2.39-.75h3.71c3.61.09,5.87,1.66,6.21,5.4a34.41,34.41,0,0,1,0,3.8c-.07,2.13-.54,4.46-2.55,5.4,0,.19.06,0,0,0A15.32,15.32,0,0,0,85.89,88.84ZM82.25,76.59a4.36,4.36,0,0,0-2.61-.4c-1.07.22-.47,1.67-.44,2.58,0,1.13-.09,2.26-.09,3.36,0,.85-.13,1.19.81,1.16a6.49,6.49,0,0,0,2.27-.35,1.56,1.56,0,0,0,1-1.53,19.27,19.27,0,0,0,.13-2.74A2,2,0,0,0,82.25,76.59Z" fill="#fff"/><path d="M104.24,72.7a16.69,16.69,0,0,1-.72,2.6c-.73,2.8-1.57,5.56-2.3,8.39-.34,1.44-.75,2.89-1.19,4.36-.22.82-.41,1.64-.66,2.48-.16.57-.31,1.76-.82,2.14s-1.13.12-1.6.12a7.64,7.64,0,0,1-1.91.1c-.69-.19-.76-.57-.88-1.26a17.17,17.17,0,0,0-.64-2.54c-.47-1.35-.54-2.8-1-4.15s-1-2.85-1.35-4.33S90.39,77.53,90,76c-.19-.7-.22-1.42-.44-2.11-.16-.5-.73-1.44-.22-1.82.31-.22,1.32,0,1.63,0a7.16,7.16,0,0,1,1.85,0c1.1.44,1,2.57,1.26,3.52.66,2.63,1.51,5.21,2.1,7.88.16.66.35,2.76.79,1.16.34-1.32.6-2.64,1-3.93.25-.65,1.89-8.13,2.33-8.41-.13-.47,3-.28,3.26-.25C104.05,72.07,104.27,72.1,104.24,72.7Z" fill="#fff"/><path d="M112,72c1.38.16,1.29,1.64,1.57,2.74.69,2.6,1.41,5.21,2.07,7.82s1.41,5.27,2,7.91c.19.72,1.07,1.91.19,2.32-.41.22-1.38-.15-1.88-.12s-1.17.31-1.54.06a6.17,6.17,0,0,1-.82-2.35c-.1-.53-.12-1.92-.85-2.23-.31-.13-1,.06-1.38,0a17,17,0,0,1-1.88-.07c-1.45-.06-1.26.76-1.57,1.92a8.3,8.3,0,0,1-.72,2.54c-.38.41-.7.19-1.2.16s-1.29,0-1.94,0c-1.45-.06-.79-1-.51-2.07.41-1.48.69-3,1.13-4.49.69-2.42,1.48-4.9,2-7.32a14.24,14.24,0,0,0,.47-1.44A15.73,15.73,0,0,1,107.8,75c.13-.4.35-3,1-3A29.05,29.05,0,0,1,112,72Zm-.51,9.64c-.07-.31-.32-2.1-.79-2.1a39.75,39.75,0,0,0-1.13,4.15c-.16.72-.13.62.63.62a7.87,7.87,0,0,0,1.94,0C112.37,84,111.52,82,111.52,81.61Z" fill="#fff"/><path d="M117.28,73c0-1.26,1.25-1,2.23-.94,2.57.15,5.11.06,7.69.12.94,0,2.26-.41,3.17-.12s.66,1.5.63,2.23c0,1.13.09,1.69-1.1,1.72h-2.07c-.28,0-1.38-.12-1.6.1s0,.69.06.94c0,.53-.16,1.1-.16,1.63,0,1.48,0,3,.06,4.43,0,2.61-.15,5.28,0,7.88,0,.6.26,1.42-.28,1.76-.28.22-.85.06-1.19.06-.66,0-1.35.13-2,.07-.91-.13-.78-.85-.75-1.67V87.61c.09-3,.06-6,0-9a9.75,9.75,0,0,0,0-2.16c-.16-.66-.38-.54-1.07-.51-.5,0-3.61.35-3.61-.28C117.37,74.86,117.28,73.86,117.28,73Z" fill="#fff"/><path d="M132.82,87.83c0-1.69.19-3.45.09-5.15s-.12-3.29-.06-5c0-.91.06-1.79.06-2.7,0-.66-.31-2.2,0-2.76s1.26-.22,1.79-.22,1.57-.35,2,.06.32,1.29.26,1.82a10.88,10.88,0,0,0,0,2.42c.25,3.74-.1,7.5,0,11.24,0,1.13-.13,2.26-.07,3.39,0,.38.25,1.51-.09,1.79s-1.79,0-2.26,0-1.76.29-1.76-.31Z" fill="#fff"/><path d="M154,72.7a16.39,16.39,0,0,1-.72,2.6c-.72,2.8-1.57,5.56-2.29,8.39-.35,1.44-.75,2.89-1.19,4.36-.22.82-.41,1.64-.66,2.48-.16.57-.32,1.76-.82,2.14s-1.13.12-1.6.12a7.72,7.72,0,0,1-1.92.1c-.69-.19-.75-.57-.88-1.26a16.18,16.18,0,0,0-.69-2.54c-.47-1.35-.53-2.8-1-4.15s-1-2.86-1.35-4.33-.79-3.08-1.23-4.58c-.18-.7-.22-1.42-.44-2.11-.15-.5-.72-1.44-.22-1.82.32-.22,1.32,0,1.64,0a7.16,7.16,0,0,1,1.85,0c1.1.44,1,2.57,1.26,3.52.66,2.63,1.5,5.21,2.1,7.88.16.66.35,2.76.79,1.16.34-1.32.59-2.64,1-3.93.25-.65,1.88-8.13,2.32-8.41-.12-.47,3-.28,3.27-.25C153.83,72.07,154.05,72.1,154,72.7Z" fill="#fff"/><path d="M155.8,86.7c-.06-1.51,0-3,0-4.52s-.06-2.86-.09-4.37c0-1.25,0-2.44.06-3.7,0-.41-.25-1.63,0-2s1.07-.09,1.48-.09a50.28,50.28,0,0,0,5.21-.06c.91,0,1.79,0,2.67.06.41,0,1.32-.25,1.63,0s.19,1.79.22,2.29c0,.72.28,1.48-.56,1.63a12.23,12.23,0,0,1-2.42,0c-.82,0-1.63.07-2.42,0-.44,0-1.16-.31-1.54,0s-.19,1.72-.19,2.19a4.52,4.52,0,0,0,.19,2c.16.22,1.63,0,2.23,0a16.25,16.25,0,0,1,2.61,0c.85.16.59.63.59,1.41,0,.6.32,1.73,0,2.23s-1,.44-1.54.41a14.89,14.89,0,0,0-2,.1,8.05,8.05,0,0,0-1.7,0c-.69.18-.28,2.54-.34,3.29a1.76,1.76,0,0,0,.25,1.23,12.87,12.87,0,0,0,2.48.09c1.07,0,1.82,0,2.89-.06s1.44-.06,1.47,1a12.84,12.84,0,0,1,0,2.32c-.19.85-.85.53-1.54.5-1,0-9.67.72-9.67.06C155.74,90.88,155.9,88.62,155.8,86.7Z" fill="#fff"/><path d="M181.33,90.5a7.62,7.62,0,0,1-3.39,2.33,8,8,0,0,1-7.47-1.7c-.79-.75-1.79-2-1-3,.41-.54,2.36-2,2.92-1.79s.57.91.82,1.25a4,4,0,0,0,1.73,1.26c1.28.37,3.07-.57,3-2s-1.82-2.17-2.89-2.67a19.87,19.87,0,0,1-3.89-2A6.36,6.36,0,0,1,168.93,79a5,5,0,0,1,.85-4.46,7.33,7.33,0,0,1,8.1-2.51,6.54,6.54,0,0,1,3,2.42c.22.34.72.78.78,1.19.09.75-.82,1.29-1.35,1.66-.31.22-1,1-1.41,1-.6,0-1.1-1.16-1.51-1.54-1-.94-3.3-1.41-4.21.06-1.07,1.79,3,2.8,4,3.27a13.71,13.71,0,0,1,3.8,2.64,6.64,6.64,0,0,1,1.07,1.79,6.1,6.1,0,0,1,.12,4A4.5,4.5,0,0,1,181.33,90.5Z" fill="#fff"/></svg>