<svg xmlns="http://www.w3.org/2000/svg" viewBox="0 0 228 227"><g style="isolation:isolate"><g id="aafda9c1-191b-4939-949a-75798d3ff6d1" data-name="a3140580-8abf-4599-bbee-0d51db8915ee"><circle cx="113.96" cy="115.63" r="111.63" fill="#fff"/><path d="M53.49,67.92c.87.14,3.61.24,3.7,1.33.06.52-1.14,1.68-1.4,2.13-.38.6-.62,1.56-1.17,2-1,.81-3.25-.14-4.39-.35s-3.52-1.2-4.65-.6c-2,1.1.29,2.48,1.13,3.13s3.77,2.07,3.75,3.24c0,.51-.77,1.24-1.05,1.63a10.23,10.23,0,0,1-1.5,2.12c-1.08.91-2.65-.68-3.63-1.43L39,77.31c-3-2.3-6.32-4.48-9.41-6.83-1.3-1-2.65-1.82-4-2.7-.43-.24-1.39-.71-1.56-1.15-.21-.69.53-1.36.91-1.9,1-1.59,2-3.25,3.2-4.74s2.37-3.51,4.29-4.31c3.39-1.43,6.9.47,9.61,2.44,3,2.26,7,4.46,6.16,8.9a8.16,8.16,0,0,0,2.49.36C51.65,67.54,52.53,67.83,53.49,67.92ZM32.27,64.28c-.61,1.24-.13,1.63.89,2.25a37,37,0,0,1,4,2.82c.39.28,2,1.4,2.53,1.31s1.45-1.83,1.78-2.36c1.66-2.81-1.48-4.55-3.49-6C35.56,60.62,33.5,61.86,32.27,64.28Z" fill="#126c3b"/><path d="M57.46,57.39c-1.34-1.65-2.56-3.37-3.78-5.1s-2.46-3.16-3.76-4.83c-1.05-1.42-2.05-2.76-3-4.23-.31-.49-1.65-1.63-1.67-2.17,0-.69,1.13-1,1.59-1.34,2-1.3,3.9-2.94,5.82-4.42,1-.8,2-1.46,3-2.16.46-.34,1.28-1.39,1.84-1.37.81.06,1.71,1.86,2.17,2.4.6.81,1.55,1.43.72,2.31a17.32,17.32,0,0,1-2.74,2c-.9.72-1.79,1.43-2.7,2.05-.5.37-1.57.62-1.71,1.33S54.5,44,54.9,44.48s1.17,1.87,1.89,2.1c.36.12,1.86-1.32,2.51-1.86a20.09,20.09,0,0,1,2.91-2.21c1.08-.53,1.2.21,1.85,1.09.54.65,1.8,1.68,1.9,2.49.17,1-.69,1.28-1.39,1.74a19.17,19.17,0,0,0-2.19,1.79A10.94,10.94,0,0,0,60.45,51c-.62.79,1.8,3.1,2.36,4a2.52,2.52,0,0,0,1.31,1.17,18.24,18.24,0,0,0,2.87-2c1.18-.92,2.08-1.48,3.21-2.48s1.57-1.28,2.52-.07a19.92,19.92,0,0,1,1.91,2.65c.5,1.11-.51,1.31-1.31,1.85C72.16,57,63,65,62.48,64.3,60.88,62.14,59.16,59.47,57.46,57.39Z" fill="#126c3b"/><path d="M80.24,21.27a6.34,6.34,0,0,1,2.15-.66c1.32.07,1.72,1.7,2.26,2.64a92,92,0,0,0,5.58,8.31c2.09,2.84,4.13,5.92,5.9,8.91.82,1.35,1.9,2.66,2.66,4,.89,1.56-.76,1.64-1.91,1.93a13.38,13.38,0,0,1-2.46.86c-.93,0-.83-.29-1.32-1s-1.92-4-3-4.15a8.17,8.17,0,0,0-2,.57c-.79.26-1.64.49-2.45.71-1.9.58-1.48,1.7-1.39,3.38,0,1,.76,3.14,0,4a5,5,0,0,1-1.85.7,16.68,16.68,0,0,1-2.44.76c-1.54.13-1.16-1.52-1.18-2.72-.12-2-.2-4.11-.27-6.17-.13-3.9-.37-7.86-.73-11.77-.13-1.81-.09-3.64-.26-5.43,0-.46-.56-3.67,0-3.85Zm3.08,10.16c-.24.13.19,2.12.2,2.3a30.37,30.37,0,0,1,.07,3.45c0,1.12.11,1,1.13.75.51-.13,2.21-.18,2.41-.85C87.28,36.71,83.44,31.39,83.32,31.43Z" fill="#126c3b"/><path d="M125,28.88c0,1.28-.29,2.55-.19,3.83,0,1,0,2.42,0,3.57-.06,3.43-1.11,6.36-4.11,8.21-2.51,1.61-6.32.93-9.18.76-1.67-.13-3.4.08-5.11,0-2.16-.11-1.84-.45-1.74-2.47.13-3.26-.08-6.53,0-9.78.17-3,.25-5.9.38-8.89,0-1.59.13-3.17.17-4.71,0-1.24-.62-3,1-3.19s3.26.18,4.85.13,3.38.19,5.06.14c2.69,0,5.62.69,7.2,2.54C125.62,21.68,124.93,25.62,125,28.88Zm-9.58-7a20.36,20.36,0,0,0-3.65-.24c-1,0-1.06.11-1.09,1.12s.21,1.9.18,2.87c-.07,1.14-.23,2.28-.22,3.47,0,2.6-.15,5.24-.31,7.88a8.4,8.4,0,0,0,.06,2.56c.3.49.92.15,1.54.17,2.11.1,4.08.47,5.84-1.07,1.4-1.19,1.24-3.27,1.29-4.94.06-2.38,0-4.8.11-7.22C119.21,23.88,118,22.26,115.39,21.88Z" fill="#126c3b"/><path d="M154.53,25.32c.37.14,1.55.25,1.82.54.6.65-.28,1.26-.76,1.78-2.42,2.44-4.81,4.93-7.16,7.44a19.31,19.31,0,0,0-3,3.36,31.86,31.86,0,0,0-1.79,4.27c-.58,1.56-1.13,3.15-1.72,4.71-.38,1-.63,3.2-1.86,3.35-.63,0-1.53-.57-2.11-.79a6.17,6.17,0,0,1-2.23-.93c-.9-1,.11-2.31.55-3.36.59-1.57,1.34-3.08,1.8-4.69s1.72-3.21,1.84-4.91c.27-3.47-.72-7-.65-10.45.05-1.63-.52-3.39-.35-5s1.1-.91,2.11-.48c1.29.58,3,.55,3.43,2,.51,1.65.38,3.63.58,5.35,0,.39,0,2.06.42,2.27.17.06,1-1,1.26-1.22,1.55-1.39,3.26-2.82,4.73-4.34C152.16,23.73,153.85,25.11,154.53,25.32Z" fill="#126c3b"/><path d="M163,56.54c1.57-1.78,3.39-3.46,4.87-5.33s2.92-3.59,4.53-5.29c.88-.93,1.72-1.82,2.57-2.78.57-.73,1.7-2.61,2.56-2.91s1.52.93,2.09,1.43,2,1.09,2.09,2-.87,1.65-1.43,2.15A17.87,17.87,0,0,0,178,48.31c-3.19,4.17-7,7.81-10.41,11.84-1,1.22-2.23,2.26-3.21,3.51-.35.4-1.13,1.82-1.76,1.8s-1.88-1.66-2.41-2.06c-.36-.26-2.11-1.34-1.56-2Z" fill="#126c3b"/><path d="M201.71,68.75c.54,1.07.08,1.16-.87,1.89-2.27,1.66-4.74,3-7.06,4.56-4.26,2.91-8.52,5.89-12.88,8.55-.66.44-1.93,1.64-2.59,1.6s-1.63-1.66-2-2.22c-.78-1-1.47-1.66-.87-2.91.45-.92,1.07-1.81,1.6-2.69,1.35-2.2,2.8-4.48,4.25-6.6.18-.28,2.71-3.16,2.31-3.53-.11-.09-3.78,2.5-3.93,2.59-2.07,1.42-4.12,2.88-6.24,4.23-.83.49-1.7,1.49-2.62.67a17.19,17.19,0,0,1-1.72-2.77c-.54-.91-.87-1.32-.1-2,1-.84,2.43-1.44,3.51-2.21,4.52-3.14,9.32-5.94,13.83-9.18,1-.74,2.14-1.31,3.16-2.09.67-.5,1.63-1.6,2.56-1.64,1.09,0,1.33,1.13,1.84,1.91s1.82,1.8,1.6,3.06c-.18,1-1.27,1.68-1.91,2.47-.91,1.18-1.55,2.61-2.35,3.87-.32.48-4.35,6-4.11,6.25s6-3.93,6.58-4.34c.44-.29,5.25-3.89,5.68-3.23A37.09,37.09,0,0,1,201.71,68.75Z" fill="#126c3b"/><path d="M54.44,175.1c-3.52,2.8-7.52,5-11,8-.58.48-1.26,1.19-2.1.94s-1.13-1.69-1.66-2.33c-.71-.9-1.47-1.11-.76-2.23.54-.83,2-1.55,2.81-2.06,1.82-1.23,3.72-2.52,5.45-3.89,1-.77,2.05-1.45,3-2.23a15.14,15.14,0,0,1,1.6-1.17c-.46.12-10,3.48-10.89,3.84a21.51,21.51,0,0,1-4.9,1.74c-1.09.09-2.81-1.82-2.73-3,.13-1.46,11.12-13.29,10.68-13.74-.22-.16-4.36,3.21-4.84,3.61-1.77,1.3-3.54,2.54-5.31,3.85-1.14.83-2.86,3-4.14,1.66-.57-.56-1-1.47-1.51-2.06-.32-.36-1.2-1-1.12-1.52s1.05-.88,1.37-1.12l3-2.06c3.29-2.37,6.48-4.71,9.67-7.22,1.68-1.28,3.4-2.59,5.15-3.77.84-.57,1.68-1.07,2.46-1.64.28-.21,1.28-1.38,1.71-1.32.59.06,1.19,1.54,1.47,1.93s.94.9,1.36,1.41c1.11,1.43,1.07,2.27,0,3.62-1.35,1.59-2.47,3.4-3.72,5.13s-2.71,3.3-3.95,5c-.46.72-1.63,2.18-2,2.66-.65.91-.35.8.16.59,1.61-.63,2.09-.71,2.56-.89,4.07-1.46,8.21-2.81,12.37-4.22,2.17-.77,2.84-.67,4.13,1.39.23.38,2.41,3,2,3.32C61.2,169.86,57.78,172.43,54.44,175.1Z" fill="#126c3b"/><path d="M58.12,189c1.39-1.93,3-3.78,4.32-5.78s2.56-3.86,4-5.71c.78-1,1.54-2,2.29-3,.5-.78,1.44-2.76,2.26-3.15s1.61.78,2.22,1.22,2.07.89,2.27,1.74-.7,1.72-1.21,2.28a17.85,17.85,0,0,0-2,2.75c-2.77,4.46-6.25,8.47-9.2,12.81-.89,1.31-2,2.47-2.85,3.81-.31.43-.94,1.92-1.57,2s-2-1.47-2.6-1.82c-.38-.22-2.23-1.12-1.74-1.8Z" fill="#126c3b"/><path d="M97.11,184.27c1.08.53.76.88.43,2-.84,2.69-2,5.21-3,7.87C92.88,199,91.22,204,89.3,208.7c-.27.75-.57,2.47-1.13,2.83s-2.3-.38-2.92-.6c-1.23-.36-2.17-.47-2.43-1.83-.19-1-.22-2.1-.31-3.12-.23-2.57-.42-5.26-.51-7.83,0-.33.3-4.15-.24-4.21-.14,0-1.56,4.26-1.62,4.42-.82,2.38-1.6,4.77-2.51,7.11-.37.89-.48,2.21-1.7,2.09a16.46,16.46,0,0,1-3-1.2c-1-.4-1.49-.54-1.27-1.54.33-1.29,1.1-2.6,1.51-3.86,1.77-5.21,4-10.32,5.66-15.61.4-1.21,1-2.32,1.3-3.55.25-.8.36-2.26,1.09-2.84s1.74.12,2.61.44c1,.38,2.53.36,3.1,1.51.46.92,0,2.1-.06,3.12,0,1.49.3,3,.41,4.51,0,.57.09,7.44.41,7.47s2.45-6.71,2.71-7.41c.18-.49,1.91-6.24,2.65-6A37.11,37.11,0,0,1,97.11,184.27Z" fill="#126c3b"/><path d="M122.88,185.42c1.06-.06,1.71-.25,1.91.85s-.23,2.47-.16,3.66c.18,3,.37,6.64.29,9.77-.2,4.19,1.44,10.42-2.65,13.44-3.66,2.7-10.88,3-14.49.14-3.89-3.19-3.15-9.59-3.09-14.09,0-2.25.1-4.54,0-6.78,0-1-.12-1.9-.09-2.87s-.44-2.63.17-3.39c.43-.49,1.18-.33,1.75-.38a17.15,17.15,0,0,1,2.95-.14c1.64.29,1.05,4.83,1.07,6.11,0,2.42,0,4.8.16,7.22.17,2.64-.7,5.7.53,8.23,1.14,2.27,4.93,2.79,6.71.91s1.28-5,1.07-7.24c-.48-5,0-10-.11-14.94C118.91,185.26,122.31,185.47,122.88,185.42Z" fill="#126c3b"/><path d="M130,187a5,5,0,0,1-.7-1.62c.07-1.48,3-1.77,4.11-2.22,1.76-.7,3.6-1.2,5.39-1.81s3.59-1.71,5.54-2.29c1.23-.36,2.46-1.47,3.24,0,.44.78,1.64,3.53,1.06,4.26-.29.34-1.15.43-1.57.58a13.81,13.81,0,0,1-2.5,1c-2.07.62-1.57,1.09-.9,2.77,1.23,3.2,2.21,6.6,3.54,9.82.68,1.58,1.05,3.22,1.65,4.83l1.11,2.5c.22.58,1,1.75.93,2.38-.15,1.14-2,1.31-3,1.62-1.87.55-2.45,1-3.17-1.08-1.32-3.69-2.92-7.38-4.11-11.11a45.16,45.16,0,0,0-2.29-6.06c-.31-.73-.43-1.53-.78-2.24s-.52-.75-1.34-.45-5,2.7-5.39,1.67C130.49,188.66,130.36,187.82,130,187Z" fill="#126c3b"/><path d="M163.81,191.63c-1.38-1.6-2.65-3.29-3.93-5s-2.55-3.09-3.89-4.72c-1.09-1.38-2.13-2.7-3.15-4.14-.32-.47-1.69-1.58-1.73-2.11,0-.7,1.1-1,1.55-1.39,2-1.36,3.81-3.06,5.68-4.59,1-.83,2-1.52,3-2.25.45-.36,1.23-1.42,1.79-1.42.81,0,1.76,1.81,2.24,2.33.62.8,1.59,1.38.79,2.29a17.44,17.44,0,0,1-2.69,2.07c-.87.74-1.74,1.48-2.63,2.13-.49.38-1.56.66-1.67,1.37s1.29,2.07,1.7,2.59,1.23,1.83,1.95,2c.37.11,1.83-1.38,2.46-1.93a20.85,20.85,0,0,1,2.84-2.3c1.07-.56,1.2.17,1.88,1,.56.63,1.85,1.63,2,2.43.2,1-.66,1.3-1.34,1.78a21.38,21.38,0,0,0-2.14,1.85,11,11,0,0,0-1.89,1.44c-.6.8,1.9,3,2.48,3.93a2.57,2.57,0,0,0,1.34,1.13,18.47,18.47,0,0,0,2.82-2.05c1.15-1,2-1.55,3.12-2.58s1.54-1.32,2.53-.14a19.24,19.24,0,0,1,2,2.58c.53,1.1-.47,1.33-1.26,1.9-1.13.83-10,9.19-10.59,8.46C167.37,196.28,165.58,193.66,163.81,191.63Z" fill="#126c3b"/><path d="M197.78,168.71c-1.51,3.87-5.7,7.16-9.93,6.85-2.16-.17-1.75-2.22-1.95-3.84-.05-.56-.61-1.72-.17-2.22s1.92-.1,2.6-.18a4.17,4.17,0,0,0,3.82-3.6c.1-2.31-2-3.24-4-2.59s-3.77,2.42-5.58,3.39a11.19,11.19,0,0,1-6.61,1.53,7.86,7.86,0,0,1-6.27-7.85c.25-4.12,2.57-8.66,6.85-9.78,1.46-.36,4.61-1,5.11.9a9.86,9.86,0,0,1,0,2.82c0,1.25,0,1.47-1.25,1.72-2.13.43-4.32.94-5,3.42-.75,2.88,2.57,2.66,4.2,1.56,3.84-2.52,9.49-6.59,14.16-3.5C197.67,159.87,199.5,164.36,197.78,168.71Z" fill="#126c3b"/><path d="M122.41,139.3a17.64,17.64,0,0,1-19.17.65c-2.87-1.72-5.74-4.67-6.72-7.86-.65-2.21.08-3.2,1.88-4.26s3.36-2.62,5-3.44c2-1,2-.17,2.62,1.47a7.57,7.57,0,0,0,3.2,4.26c3.44,2.3,7.29.41,8.68-3.19,1.15-2.87,1.31-6.72-.82-9.18-2.29-2.54-6.06-2.62-9.17-2.29-2,.16-8.36,2.87-9.83.9-.58-.74,0-3.12,0-4,0-2.21.08-4.42.08-6.63-.17-3.93-.41-7.7-.25-11.63.08-1.48-.41-4,0-5.25.66-2.13,2-1.31,3.94-1.39,4.34-.17,8.68.08,13,0h5.9c1.23,0,4.26-.82,5,.16.65.74.33,3.77.33,4.75,0,1.56.49,4-1,5.16s-3.85.09-5.4,0c-2.22-.24-4.35.25-6.56.17-1.55,0-3.6-1.15-4.42.57-.41.9-.17,6.15-.25,7.21,1.23-.82,10.16-1.55,13.68,1.15a16.4,16.4,0,0,1,4.92,3.93c2.7,2.87,3.11,8.36,3,11.47C130.11,129,128.31,135,122.41,139.3Z" fill="#126c3b"/><path d="M202.45,110.61h-22a59,59,0,0,0-18.39-30h0a27.42,27.42,0,0,1-4.77-.6c-.6-.12-1.18-.27-1.77-.44a33.52,33.52,0,0,1,3.63,9.22,41.3,41.3,0,0,1,1,9.85c10.67,14.87,2.29,32.27-8.39,48.45-13.83,21-32.62,29.84-53.59,16A45.27,45.27,0,0,1,85,149.81a34.34,34.34,0,0,1-11.22-5.73,40.88,40.88,0,0,1-8.91-9.37,59.11,59.11,0,0,0,117.39-6.89h20.22a3.58,3.58,0,0,0,3.58-3.59v-10A3.58,3.58,0,0,0,202.45,110.61Z" fill="#c80a26" opacity="0.2" style="mix-blend-mode:multiply"/><path d="M174.56,91.81h15.68a.76.76,0,0,1,.76.76v34.2a0,0,0,0,1,0,0H173.79a0,0,0,0,1,0,0V92.57A.76.76,0,0,1,174.56,91.81Z" transform="translate(291.68 -73.11) rotate(90)" fill="#e1251b" stroke="#e1251b" stroke-miterlimit="10" stroke-width="3.44"/><circle cx="111.76" cy="113.53" r="53.95" fill="none" stroke="#e1251b" stroke-miterlimit="10" stroke-width="10.31"/></g></g></svg>