<?xml version="1.0" encoding="utf-8"?>
<!-- Generator: Adobe Illustrator 24.0.1, SVG Export Plug-In . SVG Version: 6.00 Build 0)  -->
<svg version="1.1" id="Layer_1" xmlns="http://www.w3.org/2000/svg" xmlns:xlink="http://www.w3.org/1999/xlink" x="0px" y="0px"
	 viewBox="0 0 188 206" style="enable-background:new 0 0 188 206;" xml:space="preserve">
<style type="text/css">
	.st0{fill:#E42528;}
	.st1{fill:#2F348A;}
	.st2{fill:#FFFFFF;}
</style>
<title>Asset 130</title>
<g id="Layer_2_1_">
	<g id="icons_and_logos">
		<path class="st0" d="M152.1,132.1c0.4-0.9,0.7-1.7,1.1-2.6H63.5c-5.3-15.4-4.9-32.2,1.3-47.3h88.1c-0.3-0.9-0.7-1.8-1.1-2.6H66
			c0.4-0.9,0.9-1.8,1.3-2.6h83.4c-0.4-0.9-0.9-1.8-1.4-2.6H68.7c0.5-0.9,1.1-1.8,1.6-2.6h77.3c-0.6-0.9-1.1-1.8-1.7-2.6H72.1
			c0.6-0.9,1.3-1.8,2-2.6h70c-0.7-0.9-1.4-1.8-2.1-2.6H76.3c0.8-0.9,1.6-1.8,2.4-2.6h60.9c-0.9-0.9-1.7-1.8-2.7-2.6H81.4
			c1-0.9,2-1.8,3.1-2.6h49.5c-1.1-0.9-2.3-1.8-3.4-2.6H87.9c1.3-0.9,2.7-1.8,4-2.6h34.6c-1.5-1-3.1-1.8-4.8-2.6h-25
			c4-2,8.2-3.5,12.6-4.6c-5.1-1.3-10.3-2-15.5-2c-35.6,0.9-63.7,30.4-62.8,66c0.9,34.3,28.5,61.9,62.8,62.8c3.2,0,6.4-0.2,9.5-0.7
			c-4.5-1.6-8.9-3.7-12.9-6.3h32.2c1.6-0.8,3.1-1.7,4.6-2.6H86.7c-1.1-0.8-2.2-1.7-3.3-2.6h47.8c1.1-0.8,2.2-1.7,3.3-2.6H80.4
			c-0.9-0.8-1.8-1.7-2.6-2.6h59.6c0.9-0.8,1.8-1.7,2.6-2.6H75.4c-0.7-0.9-1.4-1.7-2.1-2.6h68.9c0.7-0.9,1.4-1.7,2.1-2.6H71.5
			c-0.6-0.9-1.1-1.7-1.7-2.6h76.5c0.6-0.9,1.1-1.7,1.7-2.6H68.2c-0.5-0.9-0.9-1.7-1.4-2.6h82.7c0.5-0.9,0.9-1.7,1.4-2.6H65.7
			c-0.4-0.9-0.8-1.7-1.1-2.6L152.1,132.1z"/>
		<path class="st1" d="M154.3,86.1h-121c-4.2,13-4.2,27,0,39.9h121C158.5,113.1,158.5,99.1,154.3,86.1z"/>
		<circle class="st0" cx="22.5" cy="105.9" r="4.2"/>
		<circle class="st0" cx="165.5" cy="105.9" r="4.2"/>
		<path class="st2" d="M33.6,91.9H41v8.1h8.1v-8.1h7.5V115h-7.5v-9.3H41v9.3h-7.4V91.9z"/>
		<path class="st2" d="M75,111.3h-8.4l-1.2,3.8h-7.6L66.9,92H75l9,23.1h-7.8L75,111.3z M73.4,106.2l-2.7-8.3l-2.6,8.3H73.4z"/>
		<path class="st2" d="M100.5,105.6l6.5,2c-0.3,1.6-1,3.1-2,4.4c-0.9,1.2-2.1,2.1-3.5,2.7c-1.7,0.6-3.5,1-5.3,0.9
			c-2.2,0.1-4.4-0.3-6.4-1.1c-1.8-0.8-3.4-2.2-4.4-3.9c-1.3-2.1-1.9-4.6-1.8-7.1c-0.2-3.2,0.9-6.4,3.2-8.8c2.5-2.2,5.7-3.3,9-3.1
			c2.5-0.1,5,0.5,7.2,1.8c1.9,1.3,3.3,3.2,4,5.4l-6.6,1.4c-0.2-0.6-0.4-1.1-0.7-1.5c-0.4-0.5-0.9-1-1.5-1.3c-0.6-0.3-1.3-0.4-2-0.4
			c-1.6-0.1-3.1,0.7-4,2c-0.8,1.4-1.1,3-1,4.6c-0.2,1.8,0.2,3.7,1.2,5.3c1.8,1.8,4.7,1.9,6.6,0.3
			C99.7,107.9,100.3,106.8,100.5,105.6z"/>
		<path class="st2" d="M125.3,105.6l6.5,2c-0.3,1.6-1,3.1-2,4.4c-0.9,1.2-2.1,2.1-3.5,2.7c-1.7,0.6-3.5,1-5.3,0.9
			c-2.2,0.1-4.4-0.3-6.4-1.1c-1.8-0.8-3.3-2.2-4.3-3.8c-1.3-2.2-2-4.7-1.9-7.2c-0.2-3.2,0.9-6.4,3.2-8.8c2.5-2.2,5.7-3.3,9-3.1
			c2.5-0.1,5,0.5,7.2,1.8c1.9,1.3,3.3,3.2,4,5.4l-6.7,1.5c-0.2-0.6-0.4-1.1-0.7-1.5c-0.4-0.5-0.9-1-1.5-1.3c-2.1-1-4.6-0.3-5.9,1.5
			c-0.7,1.4-1.1,3-0.9,4.5c-0.2,1.8,0.2,3.7,1.2,5.3c1.8,1.8,4.7,1.9,6.6,0.3C124.5,108,125.1,106.8,125.3,105.6z"/>
		<path class="st2" d="M134,91.9h12.4c2.2-0.2,4.3,0.5,6.1,1.8c1.4,1.4,2.1,3.3,2,5.3c0.1,2.1-0.7,4.1-2.2,5.5
			c-1.9,1.5-4.3,2.2-6.7,2h-4.1v8.6H134V91.9z M141.5,101.8h1.8c1.1,0.1,2.1-0.1,3-0.7c0.6-0.4,0.9-1.1,0.9-1.8
			c0-0.7-0.3-1.4-0.8-1.8c-0.8-0.6-1.8-0.9-2.9-0.8h-2.1V101.8z"/>
		<path class="st2" d="M63.3,121.6l2,0.5c-0.1,0.4-0.3,0.9-0.6,1.2c-0.3,0.3-0.7,0.6-1.1,0.8c-0.5,0.2-1.1,0.3-1.6,0.2
			c-0.7,0-1.3-0.1-2-0.3c-0.5-0.2-1-0.6-1.3-1.1c-0.4-0.6-0.6-1.3-0.6-2c-0.1-0.9,0.3-1.8,1-2.5c0.8-0.6,1.8-0.9,2.8-0.9
			c0.8,0,1.5,0.1,2.2,0.5c0.6,0.4,1,0.9,1.2,1.5l-2,0.4c0-0.2-0.1-0.3-0.2-0.4c-0.1-0.2-0.3-0.3-0.5-0.4c-0.2-0.1-0.4-0.1-0.6-0.1
			c-0.5,0-0.9,0.2-1.2,0.6c-0.2,0.4-0.3,0.8-0.3,1.2c-0.1,0.5,0.1,1,0.4,1.5c0.6,0.4,1.4,0.4,2,0C63,122.2,63.2,121.9,63.3,121.6z"
			/>
		<path class="st2" d="M66.8,117.8h6.1v1.4h-3.8v1h3.5v1.3h-3.5v1.2h4v1.5h-6.3V117.8z"/>
		<path class="st2" d="M74.7,124.2v-6.4h3.8c0.5,0,1.1,0,1.6,0.2c0.4,0.1,0.7,0.3,0.9,0.6c0.2,0.3,0.4,0.7,0.4,1.1
			c0,0.3-0.1,0.6-0.3,0.9c-0.2,0.3-0.4,0.5-0.7,0.6c-0.3,0.1-0.5,0.2-0.8,0.3c0.2,0.1,0.4,0.1,0.6,0.2c0.1,0.1,0.3,0.2,0.4,0.3
			c0.1,0.1,0.2,0.3,0.3,0.4l1.1,1.9h-2.6l-1.2-2c-0.1-0.2-0.2-0.4-0.4-0.5c-0.2-0.1-0.4-0.2-0.6-0.2H77v2.6L74.7,124.2z M77,120.4h1
			c0.2,0,0.4,0,0.6,0c0.1,0,0.3-0.1,0.4-0.2c0.1-0.1,0.1-0.2,0.1-0.4c0-0.2-0.1-0.4-0.2-0.5c-0.3-0.1-0.6-0.2-0.9-0.2h-1V120.4z"/>
		<path class="st2" d="M82.5,117.8h6.9v1.6h-2.3v4.8h-2.3v-4.8h-2.3V117.8z"/>
		<path class="st2" d="M91,117.8h2.3v6.4H91V117.8z"/>
		<path class="st2" d="M95.3,117.8h5.6v1.4h-3.3v1.1h2.9v1.3h-2.9v2.6h-2.3V117.8z"/>
		<path class="st2" d="M102.7,117.8h2.3v6.4h-2.3V117.8z"/>
		<path class="st2" d="M107.1,117.8h6.1v1.4h-3.9v1h3.6v1.3h-3.6v1.2h4v1.5h-6.2V117.8z"/>
		<path class="st2" d="M115,117.8h3.4c0.6,0,1.1,0.1,1.6,0.2c0.4,0.1,0.7,0.4,1,0.7c0.3,0.3,0.5,0.6,0.6,1c0.1,0.4,0.2,0.8,0.2,1.2
			c0,0.5-0.1,1.1-0.3,1.6c-0.3,0.7-1,1.3-1.8,1.5c-0.4,0.1-0.9,0.2-1.4,0.2H115V117.8z M117.2,119.2v3.6h0.6c0.3,0,0.7,0,1-0.1
			c0.2-0.1,0.4-0.3,0.5-0.5c0.1-0.4,0.2-0.7,0.2-1.1c0.1-0.5-0.1-1-0.4-1.4c-0.4-0.3-0.8-0.4-1.3-0.4L117.2,119.2z"/>
		<path class="st1" d="M37.4,163.6c-15.1-15.4-23.5-36.2-23.4-57.8l0,0c-0.1-21.6,8.3-42.3,23.4-57.8l0,0
			C52.3,32.8,72.7,24.1,94,24.1l0,0c21.3,0,41.7,8.6,56.6,23.9l0,0c15.1,15.4,23.5,36.2,23.4,57.8l0,0c0.1,21.6-8.3,42.3-23.4,57.8
			l0,0c-14.9,15.3-35.3,23.9-56.6,23.9l0,0C72.7,187.5,52.3,178.9,37.4,163.6z M38.7,49.3c-14.8,15.1-23,35.4-22.9,56.6l0,0
			c-0.1,21.1,8.2,41.4,22.9,56.5l0,0c14.5,15,34.5,23.4,55.3,23.4l0,0c20.9,0,40.8-8.5,55.3-23.4l0,0c14.8-15.1,23-35.4,22.9-56.5
			l0,0c0.1-21.1-8.2-41.4-22.9-56.6l0,0c-14.5-15-34.5-23.4-55.3-23.4l0,0C73.1,25.9,53.2,34.3,38.7,49.3z"/>
		<polygon class="st1" points="36.1,65.2 35.3,64.7 33.4,67.7 31.6,66.5 33.7,63.1 32.8,62.6 30.1,67 36.6,70.9 36.6,70.9 37.2,70 
			34.3,68.2 		"/>
		<path class="st1" d="M41.2,64.1c0.3-0.4,0.5-0.8,0.5-1.3c0-0.1,0-0.2,0-0.3c0-0.3-0.1-0.7-0.2-1c-0.3-0.5-0.7-0.9-1.2-1.2
			c-0.5-0.4-1.1-0.7-1.8-0.7h-0.3c-0.7,0.1-1.3,0.5-1.7,1.1c-0.3,0.5-0.5,1-0.5,1.6v0.2c0.1,0.8,0.6,1.5,1.3,2
			c0.5,0.4,1.2,0.7,1.9,0.7h0.3C40.2,65,40.8,64.7,41.2,64.1z M37,62.4c0-0.1,0-0.2,0-0.3c0-0.3,0.1-0.6,0.3-0.9
			c0.2-0.3,0.6-0.6,1.1-0.6h0.1c0.5,0,1,0.2,1.3,0.6c0.5,0.3,0.8,0.7,1,1.3c0,0.1,0,0.2,0,0.3c0,0.3-0.1,0.6-0.3,0.9
			c-0.2,0.3-0.6,0.6-1.1,0.6h-0.1c-0.5,0-1-0.2-1.4-0.6C37.5,63.3,37.2,62.9,37,62.4z"/>
		<path class="st1" d="M40.9,59.8c0.5,0.5,1.2,0.8,2,0.9l0,0c0.7,0,1.4-0.4,1.8-0.9c0.3-0.3,0.5-0.8,0.6-1.2
			c0.1-0.4,0.1-0.9-0.1-1.3c-0.2-0.5-0.6-1-1-1.3c-0.5-0.5-1.2-0.8-2-0.8h-0.1c-0.7,0-1.3,0.4-1.8,0.9c-0.4,0.5-0.7,1.1-0.7,1.7l0,0
			C39.7,58.5,40.1,59.3,40.9,59.8z M40.7,57.6v-0.2c0-0.4,0.1-0.7,0.4-1c0.3-0.3,0.7-0.5,1.1-0.5l0,0c0.5,0,1,0.3,1.4,0.7
			c0.4,0.3,0.8,0.8,0.9,1.4c0,0.1,0,0.1,0,0.2c0,0.3-0.1,0.7-0.4,0.9c-0.3,0.3-0.7,0.5-1.1,0.5l0,0c-0.5,0-1.1-0.3-1.4-0.7
			C41.1,58.7,40.8,58.2,40.7,57.6L40.7,57.6z"/>
		<path class="st1" d="M44.8,55.4c0.3,0.4,0.8,0.7,1.2,0.9c0.3,0.1,0.6,0.2,0.9,0.2h0.4c0.4-0.1,0.8-0.3,1.1-0.6
			c0.4-0.3,0.6-0.8,0.6-1.3c0,0,0-0.1,0-0.2l0.4,0.4l0,0l0.7-0.6l-5.2-5.6l-0.7,0.7l1.8,1.9h-0.3c-0.2,0-0.3,0-0.5,0
			c-0.3,0.1-0.6,0.2-0.8,0.5c-0.3,0.3-0.6,0.7-0.7,1.1c0,0.2,0,0.3,0,0.5c0,0.3,0.1,0.6,0.2,0.9C44.1,54.6,44.4,55,44.8,55.4z
			 M44.8,53.2c0-0.3,0.1-0.7,0.4-0.9c0.2-0.2,0.6-0.4,0.9-0.4h0.2c0.5,0.1,1,0.4,1.4,0.9c0.4,0.4,0.6,0.8,0.7,1.3v0.1
			c0,0.3-0.1,0.7-0.4,0.9c-0.2,0.2-0.6,0.3-0.9,0.3h-0.2c-0.5-0.1-1-0.4-1.4-0.8c-0.4-0.4-0.7-0.9-0.8-1.4L44.8,53.2z"/>
		<path class="st1" d="M49.8,47c0.2,0.3,0.5,0.5,0.8,0.6c0.2,0.1,0.5,0.1,0.7,0.1h0.4c0.5-0.1,1-0.3,1.5-0.5
			c0.4-0.2,0.8-0.3,1.3-0.5c0.2,0,0.3,0,0.5,0h0.3c0.2,0.1,0.4,0.2,0.5,0.4c0.1,0.2,0.2,0.4,0.2,0.6l0,0c0,0.3-0.1,0.5-0.2,0.7
			c-0.2,0.3-0.4,0.5-0.7,0.7c-0.3,0.2-0.7,0.4-1,0.5h-0.5c-0.2,0-0.3,0-0.5,0c-0.3-0.1-0.6-0.3-0.8-0.5l0,0l-0.8,0.7l0,0
			c0.3,0.4,0.7,0.7,1.1,0.9c0.3,0.1,0.6,0.2,0.9,0.2c0.2,0,0.4,0,0.6,0c0.6-0.2,1.2-0.6,1.6-1c0.4-0.3,0.8-0.7,1-1.1
			c0.2-0.4,0.3-0.8,0.3-1.2v-0.1c0-0.4-0.2-0.8-0.4-1.1c-0.2-0.3-0.5-0.6-0.9-0.7c-0.2-0.1-0.4-0.1-0.7-0.1h-0.6
			c-0.6,0.1-1.1,0.3-1.6,0.6c-0.4,0.2-0.9,0.4-1.4,0.4l0,0c-0.2,0-0.5-0.1-0.6-0.3c-0.1-0.2-0.2-0.3-0.2-0.5c0-0.1,0-0.2,0-0.3
			c0.1-0.4,0.5-0.8,0.9-1c0.3-0.3,0.7-0.4,1.1-0.5l0,0c0.4,0,0.8,0.2,1,0.6l0,0l0.8-0.7l0,0c-0.3-0.3-0.6-0.6-1-0.8
			c-0.2-0.1-0.5-0.1-0.7-0.1c-0.2,0-0.4,0-0.6,0c-0.5,0.1-1,0.3-1.4,0.7c-0.4,0.3-0.7,0.6-1,1c-0.2,0.3-0.3,0.7-0.3,1.1l0,0
			C49.4,46.2,49.5,46.7,49.8,47z"/>
		<path class="st1" d="M56.5,44.4l0.9-0.4l0,0c0-0.2,0-0.4,0-0.5c0-0.1,0-0.2,0-0.4c0.3-0.5,0.9-0.9,1.5-0.9h0.2
			c0.3,0.1,0.5,0.3,0.6,0.5c0,0.1,0.1,0.1,0.1,0.2c-0.4,0.4-0.8,0.8-1.2,1.1c-0.2,0.2-0.4,0.3-0.6,0.5c-0.2,0.2-0.3,0.4-0.4,0.6
			c-0.1,0.2-0.1,0.4-0.1,0.7l0,0c0,0.7,0.5,1.3,1.2,1.5h0.3l0,0c0.4,0,0.8-0.1,1.1-0.4c0.3-0.2,0.6-0.4,0.8-0.7
			c0.2-0.3,0.4-0.6,0.5-1c0.1,0.2,0.3,0.3,0.5,0.4l0,0l0.9-0.6l0,0c-0.2-0.1-0.4-0.3-0.5-0.4c-0.3-0.4-0.6-0.9-0.9-1.4l-0.6-1.1
			c-0.1-0.3-0.3-0.5-0.5-0.7c-0.2-0.2-0.4-0.3-0.6-0.4c-0.1,0-0.3,0-0.4,0h-0.4c-0.4,0.1-0.8,0.2-1.1,0.4c-0.4,0.2-0.7,0.5-1,0.8
			c-0.2,0.3-0.4,0.6-0.4,0.9v0.2C56.4,43.9,56.4,44.1,56.5,44.4L56.5,44.4z M59.1,44.6c0.4-0.3,0.7-0.6,1.1-1l0.1,0.2
			c0.2,0.3,0.3,0.5,0.3,0.9c0,0,0,0.1,0,0.1c0,0.2-0.1,0.5-0.2,0.7c-0.2,0.3-0.4,0.5-0.7,0.7c-0.2,0.1-0.4,0.2-0.7,0.2H59
			c-0.2,0-0.4-0.2-0.5-0.4c-0.1-0.1-0.1-0.2-0.1-0.4l0,0c0-0.2,0-0.3,0.1-0.4C58.7,45,58.9,44.8,59.1,44.6z"/>
		<path class="st1" d="M60.8,41l0.8-0.4l2.1,4.2l0,0l0.9-0.4l-2.2-4.2l0.9-0.5L63,38.9L62,39.4L61.8,39c-0.1-0.2-0.2-0.3-0.2-0.5
			c0,0,0,0,0-0.1c0.1-0.2,0.2-0.3,0.4-0.4l0.5-0.2l0,0l-0.3-0.9l0,0c-0.3,0.1-0.6,0.2-0.8,0.3c-0.3,0.1-0.6,0.4-0.8,0.6
			c-0.1,0.2-0.2,0.4-0.2,0.6v0.1c0,0.3,0.1,0.5,0.3,0.8l0.2,0.5l-0.7,0.4L60.8,41z"/>
		<path class="st1" d="M65.9,42.9c0.3,0.1,0.6,0.2,0.9,0.2c0.4,0,0.8-0.1,1.2-0.3c0.5-0.2,1-0.6,1.3-1.1c0.2-0.3,0.3-0.7,0.3-1.1
			c0-0.1,0-0.3,0-0.4l0,0l-1,0.3v0.2c0,0.3,0,0.5-0.2,0.8c-0.1,0.3-0.4,0.5-0.7,0.6c-0.2,0.1-0.4,0.1-0.6,0.1c-0.2,0-0.4,0-0.6-0.1
			c-0.4-0.2-0.8-0.6-1-1l3.7-1.6l0,0l-0.1-0.2c-0.3-0.7-0.8-1.3-1.5-1.7c-0.3-0.1-0.6-0.2-1-0.2c-0.4,0-0.7,0.1-1,0.2
			c-0.7,0.3-1.2,0.8-1.4,1.5c-0.1,0.3-0.1,0.5-0.1,0.8c0,0.5,0.1,1,0.3,1.4C64.8,42.1,65.3,42.6,65.9,42.9z M65.1,39.7
			c0-0.2,0-0.4,0.1-0.6c0.1-0.4,0.4-0.6,0.8-0.8c0.2-0.1,0.4-0.1,0.6-0.1c0.2,0,0.4,0.1,0.6,0.2c0.3,0.2,0.5,0.4,0.7,0.7l-2.7,1.1
			C65.2,40.1,65.1,39.9,65.1,39.7z"/>
		<path class="st1" d="M71.6,41.2h0.2c0.2,0,0.4-0.1,0.6-0.1c0.2-0.1,0.4-0.2,0.6-0.3l0,0L72.7,40l0,0c-0.1,0.1-0.2,0.1-0.4,0.2
			h-0.2l0,0c-0.1,0-0.1,0-0.2,0c-0.1-0.1-0.2-0.3-0.2-0.5l-1.1-2.9l0.8-0.4l-0.3-0.8L70.2,36l-0.7-2L68.8,35l0.5,1.2l-0.6,0.2
			l0.3,0.8l0.6-0.2l1,3c0.1,0.4,0.3,0.7,0.5,1C71.3,41.1,71.4,41.2,71.6,41.2z"/>
		<path class="st1" d="M75,40.3c0,0.2,0,0.5,0,0.7c0,0.1-0.1,0.2-0.2,0.3c-0.1,0.1-0.3,0.2-0.4,0.2c-0.2,0-0.3,0-0.5,0h-0.1l0.4,0.9
			h0.2c0.2,0,0.3,0,0.5,0c0.2-0.1,0.4-0.2,0.6-0.4c0.2-0.2,0.3-0.5,0.4-0.8c0.1-0.4,0.1-0.9,0.2-1.3l0.4-5.9l-1,0.3l-0.2,3.4
			c0,0.3,0,0.5,0,0.8c0,0.3,0,0.2,0,0.3c-0.2-0.3-0.4-0.6-0.6-0.9l-2-2.7l-1.1,0.3l3.5,4.7C75,40.2,75,40.3,75,40.3z"/>
		<path class="st1" d="M85.5,37.9l1.2-0.2l-4.3-7l-1.1,0.2l-1.6,7.9l0,0l1.1-0.2l0.6-2.3l3-0.5L85.5,37.9z M83.8,34.9l-2.4,0.4
			l0.4-2.2c0.1-0.4,0.1-0.8,0.2-1.3c0.2,0.4,0.4,0.8,0.7,1.2L83.8,34.9z"/>
		<path class="st1" d="M86.8,34.4c0.2,0.2,0.4,0.4,0.7,0.5c0.5,0.2,1,0.3,1.4,0.3c0.3,0,0.6,0.1,0.9,0.2c0.2,0.1,0.3,0.2,0.3,0.4V36
			c0,0.2-0.1,0.4-0.3,0.5c-0.2,0.2-0.6,0.3-0.9,0.3h-0.2c-0.3,0-0.5-0.1-0.8-0.2c-0.3-0.2-0.4-0.5-0.5-0.8l0,0l-1,0.2l0,0
			c0.1,0.5,0.4,1,0.8,1.3c0.4,0.2,0.9,0.4,1.3,0.3h0.3c0.4,0,0.8-0.1,1.1-0.3c0.3-0.2,0.6-0.4,0.8-0.7c0.1-0.2,0.2-0.5,0.2-0.8v-0.1
			c0-0.6-0.4-1.1-1-1.2c-0.5-0.1-0.9-0.2-1.4-0.3L88,34c-0.1,0-0.2-0.1-0.3-0.2c-0.1-0.1-0.1-0.2-0.1-0.3l0,0c0-0.2,0.1-0.3,0.2-0.4
			c0.3-0.2,0.5-0.3,0.9-0.3h0.2c0.2,0,0.5,0,0.7,0.2c0.2,0.1,0.3,0.4,0.4,0.6l0,0l1-0.2l0,0c-0.1-0.3-0.2-0.6-0.4-0.8
			c-0.2-0.2-0.5-0.4-0.8-0.5c-0.3-0.1-0.6-0.1-0.9-0.1h-0.3c-0.3,0-0.5,0-0.8,0.1c-0.2,0.1-0.4,0.2-0.6,0.3
			c-0.2,0.2-0.3,0.3-0.4,0.6c-0.1,0.2-0.1,0.4-0.1,0.6c0,0,0,0.1,0,0.1C86.6,33.9,86.7,34.2,86.8,34.4z"/>
		<path class="st1" d="M95,36.4c-0.3,0.2-0.6,0.3-0.9,0.3l0,0c-0.3,0-0.6-0.1-0.9-0.3c-0.2-0.2-0.4-0.5-0.4-0.8l0,0l-1,0.2l0,0
			c0.1,0.5,0.3,1,0.7,1.3c0.5,0.3,1,0.4,1.6,0.4l0,0c0.4,0,0.7-0.1,1.1-0.2c0.3-0.1,0.6-0.4,0.8-0.7c0.2-0.3,0.3-0.6,0.3-0.9l0,0
			c0-0.3-0.1-0.6-0.2-0.8c-0.2-0.2-0.4-0.4-0.6-0.5c-0.4-0.2-0.9-0.3-1.4-0.4l-0.8-0.3c-0.1,0-0.3-0.1-0.3-0.2
			c-0.1-0.1-0.1-0.2-0.1-0.3l0,0c0-0.2,0.1-0.4,0.2-0.5c0.3-0.2,0.6-0.2,0.9-0.2l0,0c0.3,0,0.5,0.1,0.8,0.2c0.2,0.2,0.3,0.4,0.3,0.6
			l0,0l1-0.2l0,0c0-0.3-0.2-0.6-0.3-0.9c-0.2-0.2-0.5-0.4-0.8-0.5c-0.3-0.1-0.7-0.2-1.1-0.2l0,0c-0.3,0-0.5,0-0.8,0.1
			c-0.2,0.1-0.4,0.2-0.6,0.3c-0.2,0.1-0.4,0.3-0.5,0.5c-0.1,0.2-0.2,0.4-0.2,0.7l0,0c0,0.2,0.1,0.5,0.2,0.7c0.1,0.2,0.4,0.4,0.6,0.5
			c0.5,0.2,0.9,0.3,1.4,0.4c0.3,0.1,0.6,0.2,0.9,0.3c0.2,0.1,0.2,0.3,0.2,0.4l0,0C95.3,36,95.2,36.2,95,36.4z"/>
		<path class="st1" d="M100.7,37v0.7l0,0h0.9l0.4-5.5h-1l-0.2,2.9c0,0.4-0.1,0.7-0.2,1c-0.1,0.2-0.3,0.4-0.5,0.5
			c-0.2,0.1-0.4,0.2-0.6,0.2h-0.2c-0.2,0-0.5-0.1-0.7-0.3c-0.1-0.1-0.2-0.3-0.2-0.5c0,0,0-0.2,0-0.3s0-0.4,0-0.7l0.3-3h-1l-0.3,3.2
			c0,0.2,0,0.4,0,0.6v0.3c0,0.3,0.1,0.5,0.2,0.7c0.2,0.2,0.4,0.4,0.6,0.5c0.3,0.2,0.6,0.2,0.9,0.3h0.2
			C99.8,37.7,100.3,37.4,100.7,37z"/>
		<path class="st1" d="M103.7,38l0.4-2.9c0-0.4,0.1-0.7,0.3-1c0.1-0.2,0.2-0.3,0.4-0.4c0.1,0,0.3,0,0.4,0h0.1c0.2,0,0.4,0.1,0.6,0.3
			l0,0l0.5-0.9l0,0c-0.3-0.2-0.6-0.4-0.9-0.4h-0.2c-0.2,0-0.3,0-0.5,0c-0.2,0.1-0.4,0.3-0.6,0.5v-0.7l-0.9-0.1l-0.7,5.6l0,0H103.7z"
			/>
		<path class="st1" d="M110.6,39.3c0-0.2,0-0.4,0-0.6l0,0c0.1-0.5,0.1-1.1,0.3-1.6l0.2-1.3c0.1-0.3,0.1-0.6,0.1-0.9
			c0-0.2,0-0.5-0.1-0.7c-0.1-0.2-0.3-0.4-0.6-0.6c-0.3-0.2-0.7-0.3-1.1-0.4c-0.3-0.1-0.6-0.1-0.9-0.1h-0.4c-0.3,0-0.7,0.2-1,0.4
			c-0.3,0.2-0.5,0.5-0.6,0.8l0,0l1,0.3l0,0c0.1-0.3,0.3-0.5,0.6-0.7c0.1,0,0.3,0,0.4,0h0.5c0.4,0.1,0.7,0.2,0.9,0.5
			c0.1,0.1,0.1,0.3,0.1,0.4c0,0.1,0,0.2,0,0.4c0,0,0,0,0,0.2h-0.5h-1.1c-0.2,0-0.5,0-0.7,0h-0.1c-0.3,0-0.5,0.1-0.7,0.2
			c-0.2,0.1-0.4,0.2-0.6,0.4c-0.2,0.2-0.3,0.4-0.3,0.7c0,0.1,0,0.2,0,0.4c0,0.3,0.1,0.6,0.3,0.9c0.3,0.4,0.8,0.7,1.3,0.7
			c0.2,0,0.4,0,0.6,0h0.4c0.4-0.1,0.7-0.2,1-0.3v0.2c0,0.2,0,0.3,0,0.5l0,0L110.6,39.3L110.6,39.3z M109.9,36.5v0.3
			c0,0.3-0.2,0.6-0.3,0.9c-0.2,0.2-0.4,0.4-0.7,0.5c-0.2,0-0.3,0-0.5,0c-0.1,0-0.3,0-0.4,0c-0.3,0-0.5-0.2-0.7-0.4
			c-0.1-0.1-0.1-0.3-0.1-0.4c0-0.1,0-0.1,0-0.2c0-0.1,0.1-0.3,0.2-0.4c0.1-0.1,0.2-0.2,0.4-0.2h1.6
			C109.5,36.5,109.7,36.5,109.9,36.5z"/>
		<path class="st1" d="M112.4,40l0.9-2.9c0.2-0.7,0.5-1.1,0.8-1.2c0.2-0.1,0.4-0.1,0.6-0.1c0.2,0,0.3,0,0.5,0
			c0.2,0.1,0.4,0.2,0.5,0.3c0.1,0.1,0.2,0.3,0.2,0.5l0,0c0,0.2-0.1,0.5-0.1,0.7l-1,3.2l1,0.3l1-3.2c0.1-0.2,0.2-0.5,0.3-0.8
			c0,0,0-0.1,0-0.2c0-0.2,0-0.4,0-0.6c-0.1-0.2-0.3-0.5-0.5-0.6c-0.2-0.2-0.5-0.4-0.8-0.5c-0.2,0-0.5,0-0.7,0
			c-0.4,0-0.8,0.1-1.1,0.4l0.2-0.6l-1-0.4l-1.6,5.3l0,0L112.4,40z"/>
		<path class="st1" d="M118.8,42.2c0.3,0.1,0.6,0.2,0.9,0.2c0.2,0,0.5,0,0.7-0.1c0.5-0.2,1-0.6,1.3-1.1l0,0l-0.9-0.5l0,0
			c-0.2,0.3-0.4,0.6-0.8,0.8c-0.1,0-0.3,0-0.4,0c-0.2,0-0.3,0-0.5,0c-0.4-0.1-0.7-0.4-0.8-0.8c0-0.1,0-0.3,0-0.4
			c0-0.4,0.1-0.8,0.3-1.1c0.2-0.5,0.5-1,1-1.3c0.2-0.1,0.4-0.2,0.6-0.2c0.2,0,0.4,0,0.6,0.1c0.3,0.1,0.5,0.3,0.6,0.5
			c0.1,0.2,0.1,0.4,0.1,0.6c0,0,0,0.2,0,0.3l0,0l1,0.2l0,0c0-0.2,0-0.3,0-0.5c0-0.3-0.1-0.7-0.3-1c-0.3-0.5-0.7-0.8-1.2-1
			c-0.3-0.1-0.7-0.2-1-0.2h-0.3c-0.5,0.1-0.9,0.3-1.2,0.6c-0.4,0.4-0.7,0.8-0.9,1.3c-0.2,0.4-0.3,0.9-0.3,1.4c0,0.3,0,0.6,0.1,0.9
			C117.7,41.5,118.2,42,118.8,42.2z"/>
		<path class="st1" d="M122,42.1c0,0.2,0,0.5,0,0.7c0.2,0.7,0.7,1.2,1.4,1.5c0.4,0.2,0.8,0.3,1.2,0.3h0.4c0.5-0.1,1-0.4,1.3-0.8l0,0
			l-0.9-0.6l0,0c-0.2,0.2-0.5,0.4-0.9,0.5h-0.2c-0.6,0-1.2-0.5-1.4-1.1c0-0.2,0-0.3,0-0.5c0-0.3,0.1-0.6,0.2-0.9l3.6,1.8l0,0
			l0.1-0.3c0.2-0.5,0.4-1,0.4-1.5c0-0.2,0-0.5,0-0.7c-0.2-0.7-0.7-1.2-1.3-1.5c-0.4-0.2-0.8-0.3-1.2-0.3c-0.3,0-0.6,0.1-0.8,0.2
			c-0.7,0.3-1.3,0.9-1.6,1.6C122.1,41.1,122,41.6,122,42.1z M123.6,40.6c0.2-0.3,0.5-0.6,0.9-0.7c0.1,0,0.3,0,0.4,0
			c0.2,0,0.4,0.1,0.7,0.2c0.4,0.2,0.7,0.5,0.8,1c0,0,0,0.2,0,0.3c0,0.3-0.1,0.5-0.2,0.7L123.6,40.6z"/>
		<path class="st1" d="M131.2,48.9c0.4,0.3,0.9,0.5,1.4,0.6h0.5c0.3,0,0.6,0,0.9-0.2c0.4-0.2,0.7-0.4,1-0.8c0.2-0.3,0.3-0.7,0.3-1.1
			l0,0c0-0.4-0.1-0.8-0.4-1.2c-0.3-0.5-0.7-0.9-1.1-1.3c-0.4-0.4-0.7-0.8-0.9-1.3c0-0.1,0-0.1,0-0.2c0-0.2,0-0.3,0.1-0.5
			c0.2-0.2,0.4-0.4,0.7-0.4l0,0c0.4,0,0.8,0.2,1.2,0.5c0.4,0.2,0.7,0.6,0.9,1c0,0.1,0,0.2,0,0.3c0,0.3-0.1,0.6-0.2,0.8l0,0l0.9,0.5
			l0,0c0.3-0.3,0.5-0.8,0.5-1.2l0,0c0-0.4-0.1-0.9-0.4-1.2c-0.3-0.4-0.6-0.8-1.1-1.1c-0.4-0.3-0.8-0.5-1.3-0.6c-0.2,0-0.3,0-0.5,0
			c-0.2,0-0.5,0-0.7,0.1c-0.4,0.1-0.7,0.4-0.9,0.7c-0.2,0.3-0.3,0.6-0.3,1l0,0c0,0.3,0.1,0.7,0.3,1c0.3,0.4,0.6,0.8,1,1.2
			c0.3,0.3,0.6,0.7,0.9,1.1c0.2,0.2,0.3,0.5,0.3,0.7l0,0c0,0.2-0.1,0.4-0.2,0.5c-0.1,0.2-0.3,0.3-0.5,0.4c-0.1,0-0.3,0-0.4,0
			c-0.1,0-0.3,0-0.4,0c-0.3-0.1-0.6-0.2-0.9-0.4c-0.3-0.2-0.6-0.5-0.8-0.8c-0.2-0.3-0.3-0.6-0.3-0.9l0,0c0-0.3,0.1-0.6,0.3-0.9l0,0
			l-0.9-0.5l0,0c-0.3,0.4-0.4,0.9-0.4,1.4l0,0c0,0.5,0.1,0.9,0.4,1.3C130.3,48,130.7,48.5,131.2,48.9z"/>
		<path class="st1" d="M135.3,52l-0.6,0.4h-0.3h-0.1c-0.2,0-0.3-0.1-0.4-0.2c-0.1-0.1-0.3-0.2-0.4-0.4l0,0l-0.5,0.8l0,0
			c0.1,0.2,0.2,0.3,0.4,0.5c0.2,0.2,0.5,0.3,0.8,0.3h0.1c0.3,0,0.5-0.1,0.8-0.2c0.4-0.2,0.8-0.4,1.2-0.6l5.2-3l-0.8-0.7l-2.9,1.7
			c-0.3,0.2-0.6,0.4-0.9,0.6c0.2-0.4,0.3-0.7,0.4-1l1.1-3.2l-0.9-0.7l-1.9,5.5L135.3,52z"/>
		<path class="st1" d="M140.4,51.9c0,0.1,0,0.2,0,0.3c0,0.2,0,0.4,0.1,0.5c0.2,0.5,0.4,0.9,0.7,1.3c0.2,0.3,0.3,0.5,0.5,0.9
			c0,0.1,0,0.1,0,0.2c0,0.1,0,0.2-0.1,0.3c-0.1,0.1-0.3,0.2-0.5,0.2l0,0c-0.3-0.1-0.6-0.2-0.8-0.5c-0.3-0.2-0.4-0.5-0.5-0.9v-0.1
			c0-0.3,0.1-0.5,0.3-0.7l0,0l-0.9-0.6l0,0c-0.3,0.4-0.4,0.8-0.4,1.2v0.3c0.1,0.6,0.4,1.1,0.9,1.4c0.3,0.3,0.6,0.5,1,0.6
			c0.2,0.1,0.4,0.1,0.7,0.1c0.1,0,0.2,0,0.4,0c0.3-0.1,0.6-0.4,0.7-0.7c0.2-0.2,0.3-0.5,0.4-0.7v-0.2c0-0.2,0-0.4-0.1-0.6
			c-0.2-0.4-0.4-0.8-0.7-1.2c-0.2-0.4-0.4-0.6-0.4-0.7c0-0.1,0-0.2,0-0.3l0,0c0-0.1,0.1-0.2,0.1-0.3c0.1-0.1,0.2-0.2,0.4-0.2l0,0
			c0.3,0.1,0.6,0.2,0.8,0.5c0.2,0.2,0.4,0.4,0.4,0.7c0,0,0,0.1,0,0.1c0,0.2-0.1,0.4-0.2,0.6l0,0l0.8,0.6l0,0
			c0.2-0.3,0.3-0.5,0.4-0.9v-0.2c0-0.3-0.1-0.5-0.2-0.7c-0.2-0.3-0.4-0.6-0.7-0.9c-0.2-0.2-0.4-0.3-0.7-0.5
			c-0.2-0.1-0.4-0.2-0.6-0.2h-0.2c-0.2,0-0.3,0-0.5,0c-0.5,0.2-0.9,0.6-1,1.1L140.4,51.9z"/>
		<path class="st1" d="M143.1,56.6c-0.3,0.2-0.5,0.5-0.7,0.9c0,0.1,0,0.2,0,0.4c0,0.1,0,0.2,0,0.2c0.1,0.3,0.2,0.5,0.4,0.7
			c0.2,0.1,0.3,0.3,0.6,0.5l0,0l0.6-0.7l0,0c-0.1-0.1-0.2-0.2-0.3-0.3c-0.1-0.1-0.1-0.1-0.2-0.2l0,0c0,0,0-0.1,0-0.1
			c0.1-0.1,0.2-0.3,0.3-0.4l2.3-2.1l0.6,0.7l0.6-0.6l-0.6-0.7l1.4-1.3l-1.1-0.3l-1,0.9l-0.5-0.5l-0.6,0.6l0.5,0.5L143.1,56.6z"/>
		<path class="st1" d="M148,62.2l-0.6-0.9l0,0c-0.2,0.1-0.5,0.1-0.7,0.1h-0.3c-0.3-0.1-0.5-0.2-0.7-0.5c-0.2-0.3-0.4-0.6-0.4-1v-0.2
			c0.1-0.5,0.3-0.9,0.7-1.2l2.5,3.2l0,0l0.2-0.2c0.6-0.4,1.1-1.1,1.2-1.9c0-0.1,0-0.2,0-0.3c0-0.6-0.2-1.1-0.6-1.5
			c-0.4-0.6-1.1-0.9-1.8-1h-0.1c-0.7,0-1.4,0.3-2,0.8c-0.6,0.5-1,1.1-1.2,1.9c0,0.1,0,0.2,0,0.3c0,0.6,0.3,1.2,0.7,1.7
			c0.3,0.5,0.8,0.8,1.4,0.9c0.2,0,0.3,0,0.5,0C147.2,62.5,147.6,62.4,148,62.2L148,62.2z M146.7,58.1c0.3-0.2,0.6-0.3,0.9-0.3h0.2
			c0.7,0.1,1.3,0.7,1.3,1.4c0,0.1,0,0.2,0,0.3c-0.1,0.3-0.3,0.6-0.5,0.9L146.7,58.1z"/>
		<path class="st1" d="M155.1,65.6c-0.4-0.6-1-0.9-1.6-0.9c0.1-0.2,0.2-0.5,0.2-0.8l0,0c0-0.4-0.1-0.7-0.3-1
			c-0.2-0.3-0.4-0.5-0.8-0.7c-0.2-0.1-0.5-0.2-0.8-0.2l0.5-0.4l-0.5-0.8l-4.6,3.1l0,0l0.5,0.8l2.4-1.6c0.3-0.2,0.7-0.4,1-0.5
			c0.1,0,0.2,0,0.3,0c0.2,0,0.3,0,0.5,0.1c0.2,0.1,0.4,0.3,0.5,0.5c0.1,0.1,0.2,0.3,0.3,0.5c0,0.1,0,0.1,0,0.2
			c-0.1,0.3-0.3,0.5-0.6,0.7l-3,2l0.6,0.9l2.6-1.7c0.3-0.2,0.6-0.4,1-0.4h0.2c0.3,0.1,0.6,0.3,0.8,0.6c0.1,0.2,0.1,0.3,0.2,0.5l0,0
			c0,0.2,0,0.3-0.1,0.4c-0.2,0.2-0.4,0.4-0.6,0.5l-2.9,2l0.6,0.9l3.2-2c0.4-0.2,0.8-0.7,0.9-1.1c0-0.1,0-0.2,0-0.3
			C155.4,66.3,155.3,65.9,155.1,65.6z"/>
		<path class="st1" d="M48.7,156.9l-5,2.4l-1,0.5l0.4-0.9l2.6-5l-1.1-1.1l-5.5,5.3l0,0l0.7,0.7l4.4-4.2l-3,5.7l0.7,0.7l5.7-2.6
			l-4.3,4.2l0.8,0.8l5.5-5.3L48.7,156.9z"/>
		<polygon class="st1" points="48.8,159.8 45.1,164 45.1,164 45.9,164.6 49.6,160.5 		"/>
		<polygon class="st1" points="49.4,159.2 49.4,159.2 50.2,159.9 50.9,159 50.2,158.3 		"/>
		<path class="st1" d="M52.9,164.8c0.1-0.2,0.2-0.5,0.2-0.7l0,0c0-0.3-0.1-0.5-0.2-0.7c-0.2-0.3-0.4-0.5-0.6-0.7
			c-0.4-0.3-0.8-0.5-1.3-0.5h-0.5l0.4-0.5l-0.7-0.6l-3.4,4.3l0,0l0.8,0.6l2-2.4c0.3-0.4,0.7-0.7,1.2-0.8l0,0c0.3,0,0.7,0.1,0.9,0.3
			c0.2,0.1,0.3,0.3,0.4,0.5c0,0.1,0,0.2,0,0.3c0,0.1,0,0.2,0,0.2c-0.1,0.3-0.3,0.5-0.4,0.7l-2.1,2.6l0.8,0.6l2.1-2.6
			C52.5,165.3,52.7,165.1,52.9,164.8z"/>
		<polygon class="st1" points="54.9,163.6 54.9,163.7 55.7,164.2 56.4,163.3 55.5,162.7 		"/>
		<polygon class="st1" points="54.3,164.3 51.1,168.8 51.1,168.9 51.9,169.4 55.2,164.9 		"/>
		<path class="st1" d="M57.3,169.4c-0.3-0.4-0.6-0.8-0.9-1.1c-0.3-0.3-0.5-0.6-0.6-0.6c-0.1-0.1-0.1-0.2-0.2-0.4l0,0
			c0-0.1,0-0.2,0-0.2c0.1-0.2,0.3-0.3,0.4-0.3l0,0c0.3,0,0.6,0.1,0.8,0.3c0.3,0.1,0.4,0.4,0.6,0.6c0,0.1,0,0.2,0,0.3
			c0,0.1,0,0.3-0.1,0.4l0,0l0.9,0.4l0,0c0.1-0.3,0.2-0.5,0.2-0.8l0,0c0-0.3-0.2-0.6-0.3-0.8c-0.2-0.3-0.5-0.6-0.9-0.8
			c-0.2-0.1-0.5-0.3-0.8-0.3c-0.2,0-0.4,0-0.6,0l0,0c-0.2,0-0.5,0.1-0.7,0.2c-0.2,0.1-0.4,0.3-0.5,0.5c-0.1,0.2-0.2,0.5-0.2,0.8l0,0
			c0,0.3,0.1,0.5,0.2,0.8c0.3,0.4,0.6,0.8,1,1.1c0.2,0.2,0.4,0.5,0.6,0.8c0,0.1,0,0.2,0,0.2c0,0.1,0,0.2,0,0.3
			c-0.1,0.2-0.3,0.3-0.5,0.3h-0.1c-0.3,0-0.6-0.1-0.8-0.3c-0.3-0.2-0.5-0.4-0.6-0.7c0-0.1,0-0.2,0-0.3c0-0.2,0-0.4,0.1-0.6l0,0
			l-1-0.4l0,0c-0.1,0.3-0.2,0.6-0.2,1c0,0.2,0,0.4,0.1,0.6c0.2,0.5,0.6,1,1.1,1.3c0.3,0.2,0.7,0.4,1.1,0.4h0.3l0,0
			c0.2,0,0.5-0.1,0.7-0.1c0.3-0.1,0.6-0.3,0.7-0.6c0.2-0.2,0.2-0.5,0.2-0.8l0,0C57.6,170.1,57.5,169.7,57.3,169.4z"/>
		<path class="st1" d="M59,172.7c-0.1,0-0.2-0.1-0.2-0.2c0-0.1,0-0.1,0-0.2l0,0c0.1-0.2,0.1-0.3,0.2-0.4l1.5-2.7l0.8,0.5l0.4-0.7
			l-0.8-0.5l1-1.7h-1.2l-0.7,1.1l-0.6-0.3l-0.4,0.7l0.5,0.4l-1.5,2.7c-0.2,0.3-0.4,0.7-0.5,1l0,0c0,0.2,0.1,0.3,0.1,0.5
			c0.2,0.2,0.4,0.4,0.6,0.6c0.2,0.1,0.4,0.2,0.7,0.3l0,0l0.3-0.9l0,0C59.2,172.8,59.1,172.8,59,172.7z"/>
		<path class="st1" d="M65.5,174.4c-0.3,0.3-0.5,0.5-0.7,0.8c0.1-0.4,0.1-0.7,0.1-1.1l0.2-3.4l-0.7-0.3c-0.1-0.2-0.3-0.3-0.5-0.4
			c-0.2-0.1-0.3-0.1-0.5-0.1h-0.1c-0.3,0.1-0.5,0.2-0.7,0.3l0.3-0.6l-0.8-0.4l-2.5,4.9l0,0l0.9,0.4l1.3-2.6c0.2-0.3,0.4-0.6,0.6-0.9
			c0.1-0.1,0.3-0.2,0.5-0.3h0.1c0.1,0,0.3,0,0.4,0c0.2,0.1,0.4,0.3,0.5,0.5l0,0l0.2-0.2l-0.3,4.9l-0.2,0.2c-0.2,0.2-0.3,0.4-0.5,0.5
			c-0.1,0.1-0.2,0.1-0.4,0.1l0,0c-0.1,0-0.3,0-0.4,0c-0.2-0.1-0.3-0.2-0.4-0.3l0,0l-0.3,1l0,0c0.1,0.1,0.3,0.3,0.5,0.4
			c0.2,0.1,0.4,0.1,0.6,0.1h0.2c0.3-0.1,0.6-0.2,0.8-0.4c0.3-0.3,0.7-0.6,1-0.9l4.2-4.3l-1-0.4L65.5,174.4z"/>
		<path class="st1" d="M74.9,175.1c-0.3-0.6-0.9-1.1-1.6-1.3c-0.3-0.1-0.6-0.1-0.9-0.1c-0.3,0-0.7,0.1-1,0.2c-0.8,0.4-1.3,1.1-1.5,2
			c-0.1,0.4-0.2,0.8-0.2,1.2c0,0.4,0.1,0.8,0.3,1.1c0.3,0.6,0.9,1.1,1.6,1.3c0.3,0.1,0.6,0.1,0.8,0.1l0,0c0.2,0,0.3,0,0.5,0
			c0.4-0.1,0.9-0.3,1.2-0.6c0.4-0.4,0.7-1,0.8-1.5c0.1-0.4,0.2-0.7,0.2-1.1C75.2,175.9,75.1,175.4,74.9,175.1z M74.1,176.1
			c0,0.3-0.1,0.6-0.2,0.9c-0.1,0.5-0.4,1-0.9,1.3c-0.2,0.1-0.5,0.2-0.8,0.2h-0.4c-0.4-0.1-0.7-0.4-0.9-0.8c-0.1-0.2-0.1-0.4-0.1-0.7
			c0-0.3,0.1-0.6,0.2-0.9c0.1-0.5,0.4-1,0.9-1.3c0.2-0.2,0.5-0.2,0.8-0.2c0.2,0,0.3,0,0.5,0c0.4,0.1,0.7,0.4,0.9,0.8
			C74.1,175.6,74.1,175.9,74.1,176.1z"/>
		<path class="st1" d="M78.5,173c-0.2,0-0.4,0-0.6,0c-0.1,0-0.3,0-0.4,0c-0.3,0.1-0.5,0.2-0.6,0.5c-0.1,0.3-0.2,0.5-0.3,0.8
			l-0.1,0.5l-0.8-0.2l-0.2,0.8l0.8,0.2l-1.1,4.6l0,0l0.9,0.2l1.1-4.6l1,0.3l0.2-0.8l-1-0.2l0.1-0.4c0-0.2,0.1-0.4,0.3-0.6
			c0.1,0,0.2,0,0.3,0c0.1,0,0.2,0,0.3,0l0.5,0.2l0,0l0.4-0.9l0,0C79,173.2,78.7,173.1,78.5,173z"/>
		<polygon class="st1" points="85.7,177.5 82,177 82.4,174 81.3,173.8 80.3,181.4 80.3,181.4 81.4,181.5 81.9,178 85.6,178.5 
			85.1,182 86.2,182.2 87.2,174.7 86.2,174.5 		"/>
		<path class="st1" d="M90,176.7h-0.2c-0.6,0-1.3,0.2-1.7,0.7c-0.5,0.6-0.8,1.3-0.8,2.1c0,0.1,0,0.2,0,0.3c0,0.7,0.2,1.3,0.6,1.8
			c0.5,0.5,1.2,0.9,1.9,0.9H90c1.1,0.1,2-0.6,2.3-1.6l0,0l-1.1-0.2l0,0c-0.1,0.3-0.3,0.6-0.6,0.8c-0.2,0.1-0.5,0.2-0.7,0.2h-0.1
			c-0.4,0-0.8-0.2-1.1-0.5c-0.3-0.4-0.4-0.8-0.4-1.3l4,0.2l0,0c0-0.1,0-0.2,0-0.3c0-0.1,0-0.2,0-0.3c0-0.7-0.2-1.3-0.6-1.9
			C91.3,177.1,90.7,176.7,90,176.7z M90,177.5c0.4,0,0.8,0.2,1.1,0.6c0.2,0.3,0.3,0.6,0.3,1l-2.9-0.2c0-0.4,0.2-0.7,0.5-1
			C89.3,177.7,89.6,177.5,90,177.5L90,177.5z"/>
		<path class="st1" d="M97.6,181.6c-0.1-0.5-0.1-1.1-0.1-1.6v-1.2c0-0.3,0-0.6,0-0.9c-0.1-0.2-0.2-0.5-0.3-0.7
			c-0.2-0.2-0.4-0.3-0.7-0.4c-0.3-0.1-0.7-0.1-1-0.1h-0.2c-0.4,0-0.8,0.1-1.2,0.2c-0.3,0.1-0.6,0.3-0.8,0.6c-0.2,0.3-0.3,0.6-0.4,1
			l0,0l1,0.1l0,0c0-0.3,0.2-0.6,0.4-0.8c0.3-0.2,0.6-0.3,0.9-0.3l0,0c0.3,0,0.7,0.1,0.9,0.3c0.2,0.2,0.3,0.5,0.3,0.7v0.2
			c-0.5,0.2-1,0.3-1.6,0.4l-0.8,0.2c-0.2,0.1-0.5,0.2-0.7,0.3c-0.2,0.1-0.4,0.3-0.5,0.6c-0.1,0.2-0.2,0.5-0.2,0.7l0,0
			c0,0.4,0.2,0.9,0.5,1.1c0.4,0.3,0.8,0.4,1.3,0.4l0,0c0.4,0,0.7-0.1,1-0.2c0.3-0.1,0.6-0.3,0.9-0.6c0,0.2,0.1,0.4,0.2,0.6h1.1l0,0
			C97.6,182.1,97.6,181.8,97.6,181.6z M96.4,180.1c0,0.3,0,0.5-0.1,0.8c-0.1,0.3-0.3,0.5-0.6,0.6c-0.3,0.2-0.6,0.2-0.9,0.3l0,0
			c-0.3,0-0.5-0.1-0.7-0.2c-0.2-0.1-0.3-0.3-0.3-0.6l0,0c0-0.1,0-0.3,0.1-0.4c0.1-0.1,0.2-0.2,0.3-0.3c0.2-0.1,0.5-0.2,0.8-0.2
			c0.5-0.1,1-0.2,1.4-0.4L96.4,180.1L96.4,180.1z"/>
		<polygon class="st1" points="98,174.7 98.6,182.2 98.7,182.2 99.6,182.1 99,174.6 		"/>
		<path class="st1" d="M102.7,180.9h-0.4H102c-0.1,0-0.1-0.1-0.1-0.1c-0.1-0.2-0.1-0.3-0.1-0.5l-0.4-3.1l0.9-0.1l-0.1-0.8h-0.9
			l-0.2-2l-0.9,0.7l0.2,1.3h-0.7v0.8h0.7l0.4,3.1c0,0.4,0.1,0.7,0.2,1.1c0.1,0.2,0.3,0.3,0.5,0.4c0.2,0,0.3,0,0.5,0h0.3
			c0.2,0,0.5-0.1,0.7-0.2l0,0l-0.3-0.9L102.7,180.9z"/>
		<path class="st1" d="M106.9,176.3c-0.2-0.3-0.5-0.5-0.8-0.6c-0.2-0.1-0.4-0.1-0.6-0.1H105c-0.6,0.1-1.1,0.4-1.4,0.9l-0.4-2.5
			l-1,0.2l1.3,7.5l0,0l1-0.2l-0.5-2.9c0-0.2,0-0.4,0-0.6c0-0.1,0-0.3,0-0.4c0.1-0.2,0.2-0.5,0.4-0.6c0.2-0.2,0.4-0.3,0.7-0.3h0.3
			c0.2,0,0.4,0.1,0.6,0.2c0.3,0.2,0.4,0.6,0.5,0.9l0.6,3.4l1-0.2l-0.6-3.4C107.2,177.2,107.1,176.7,106.9,176.3z"/>
		<path class="st1" d="M114.8,171.1v5.5c0,0.4,0,0.7,0,1l0,0l-0.6-0.8l-3.3-4.5l-1.5,0.5l2.3,7.2l0,0l1-0.3l-1.9-5.8l3.9,5.2
			l0.9-0.3l0.1-6.3l1.8,5.7l1-0.3l-2.4-7.2L114.8,171.1z"/>
		<path class="st1" d="M123.5,174.9c-0.3-0.5-0.5-1-0.7-1.5l-0.5-1.1c-0.1-0.3-0.2-0.5-0.4-0.8c-0.2-0.4-0.7-0.6-1.2-0.6h-0.1
			c-0.4,0-0.8,0.1-1.1,0.3c-0.4,0.2-0.8,0.4-1.1,0.7c-0.3,0.2-0.4,0.5-0.5,0.9c0,0.2,0,0.3,0,0.5c0,0.2,0,0.4,0,0.6l0,0l1-0.3l0,0
			c0-0.1,0-0.2,0-0.4c0-0.2,0-0.3,0.1-0.5c0.2-0.3,0.5-0.5,0.8-0.6c0.2-0.1,0.5-0.2,0.7-0.2c0.1,0,0.2,0,0.3,0
			c0.2,0.1,0.4,0.3,0.5,0.6v0.2c-0.4,0.3-0.9,0.7-1.3,0.9c-0.2,0.1-0.5,0.3-0.7,0.5c-0.2,0.2-0.4,0.3-0.5,0.6
			c-0.1,0.2-0.2,0.5-0.2,0.7v0.1c0,0.2,0,0.4,0.1,0.6c0.2,0.4,0.5,0.7,0.9,0.9c0.2,0,0.3,0,0.5,0l0,0c0.3,0,0.7-0.1,1-0.2
			c0.3-0.1,0.6-0.3,0.9-0.6c0.3-0.3,0.5-0.5,0.6-0.9c0.1,0.2,0.2,0.3,0.4,0.5l0,0l1-0.4l0,0C123.8,175.2,123.6,175,123.5,174.9z
			 M120.4,176.1h-0.2c-0.2-0.1-0.4-0.2-0.5-0.4c0-0.1,0-0.2,0-0.3c0,0,0-0.1,0-0.1c0-0.1,0.1-0.3,0.2-0.4c0.2-0.2,0.4-0.3,0.7-0.5
			c0.4-0.3,0.8-0.6,1.2-0.9l0.1,0.2c0.1,0.3,0.2,0.6,0.2,0.9l0,0c0,0.3-0.1,0.6-0.3,0.8c-0.2,0.3-0.4,0.5-0.7,0.6
			C120.9,176.1,120.7,176.1,120.4,176.1z"/>
		<polygon class="st1" points="121.3,168.3 124.7,175 124.8,175 125.6,174.6 122.2,167.8 		"/>
		<path class="st1" d="M130.2,171.2c-0.3-0.4-0.6-0.9-0.9-1.4l-0.6-1.1c-0.1-0.3-0.3-0.5-0.5-0.7c-0.2-0.2-0.4-0.3-0.6-0.4
			c-0.1,0-0.3,0-0.4,0h-0.3c-0.4,0.1-0.8,0.2-1.1,0.4c-0.3,0.2-0.6,0.4-0.9,0.7c-0.2,0.3-0.4,0.6-0.5,0.9c0,0,0,0.2,0,0.3
			c0,0.3,0.1,0.5,0.1,0.8l0,0l0.9-0.4l0,0c0-0.2,0-0.3,0-0.5c0-0.1,0-0.3,0-0.4c0.2-0.3,0.4-0.5,0.7-0.6c0.2-0.2,0.5-0.3,0.8-0.3
			h0.2c0.3,0.1,0.5,0.3,0.6,0.5v0.2c-0.4,0.4-0.8,0.7-1.2,1.1c-0.2,0.2-0.4,0.3-0.7,0.5c-0.2,0.2-0.3,0.4-0.4,0.6
			c-0.1,0.2-0.2,0.5-0.2,0.7l0,0c0,0.3,0.1,0.5,0.2,0.8c0.2,0.4,0.6,0.7,1,0.8h0.3c0.4,0,0.8-0.1,1.1-0.3c0.3-0.1,0.6-0.3,0.9-0.6
			c0.2-0.3,0.4-0.6,0.5-1c0.1,0.2,0.3,0.3,0.4,0.4l0,0l0.9-0.5l0,0C130.6,171.5,130.4,171.4,130.2,171.2z M128.7,171.2
			c0,0.3-0.1,0.5-0.2,0.7c-0.2,0.3-0.4,0.5-0.7,0.7c-0.2,0.1-0.4,0.2-0.7,0.2h-0.1c-0.2,0-0.4-0.2-0.5-0.4c-0.1-0.1-0.1-0.2-0.1-0.4
			l0,0c0-0.2,0.1-0.3,0.2-0.4c0.2-0.2,0.4-0.4,0.6-0.5c0.4-0.3,0.8-0.6,1.1-1l0.1,0.2C128.6,170.5,128.7,170.8,128.7,171.2
			C128.7,171.1,128.7,171.2,128.7,171.2L128.7,171.2z"/>
		<path class="st1" d="M133.6,169.9l-1.4-5.8l-0.9,0.6l0.8,3.3c0.1,0.4,0.2,0.7,0.3,1.1c-0.3-0.2-0.6-0.5-0.9-0.7l-2.7-2l-0.9,0.6
			l4.8,3.4c0,0,0,0.2,0,0.2c0.1,0.2,0.1,0.5,0.2,0.7l0,0c0,0.1,0,0.2,0,0.4c-0.1,0.1-0.2,0.3-0.3,0.3c-0.2,0.1-0.3,0.2-0.5,0.2l0,0
			l0.6,0.7l0,0c0.2,0,0.4-0.1,0.6-0.3c0.2-0.1,0.4-0.4,0.5-0.6c0.1-0.2,0.1-0.4,0.1-0.6v-0.3C133.8,170.9,133.7,170.5,133.6,169.9z"
			/>
		<path class="st1" d="M137.9,164.5c-0.2-0.2-0.4-0.4-0.7-0.5c-0.1,0-0.3,0-0.4,0h-0.4c-0.5,0.1-0.9,0.3-1.3,0.5l-0.8,0.3h-0.3h-0.1
			c-0.1,0-0.2-0.1-0.3-0.2c-0.1-0.1-0.1-0.2-0.1-0.3c0-0.1,0-0.1,0-0.2c0.1-0.3,0.3-0.5,0.6-0.7c0.2-0.2,0.5-0.3,0.8-0.3
			c0.2,0,0.5,0.1,0.7,0.3l0,0l0.7-0.7l0,0c-0.2-0.2-0.5-0.4-0.8-0.5h-0.3c-0.2,0-0.4,0-0.6,0c-0.4,0.1-0.7,0.3-1,0.6
			c-0.2,0.2-0.4,0.4-0.6,0.6c-0.1,0.2-0.2,0.4-0.3,0.6c0,0.1,0,0.3,0,0.4c0,0.1,0,0.2,0,0.3c0,0.2,0.1,0.5,0.3,0.7
			c0.2,0.2,0.4,0.4,0.6,0.5c0.2,0,0.3,0,0.5,0h0.4c0.5-0.1,0.9-0.3,1.4-0.5c0.3-0.1,0.6-0.3,0.9-0.3l0,0c0.2,0,0.3,0.1,0.4,0.2
			c0.1,0.1,0.2,0.3,0.2,0.4c0,0,0,0.1,0,0.2c-0.1,0.3-0.3,0.6-0.6,0.8c-0.2,0.2-0.5,0.3-0.9,0.4l0,0c-0.3,0-0.6-0.1-0.8-0.4l0,0
			l-0.7,0.8l0,0c0.4,0.4,0.9,0.6,1.4,0.6l0,0c0.6,0,1.1-0.3,1.5-0.7c0.3-0.2,0.6-0.6,0.8-0.9c0.1-0.3,0.2-0.6,0.2-0.9v-0.1
			C138.2,164.9,138.1,164.7,137.9,164.5z"/>
		<polygon class="st1" points="135.9,161 139.5,165.2 139.6,165.2 140.3,164.5 136.7,160.4 		"/>
		<polygon class="st1" points="135.3,160.4 135.3,160.3 136.1,159.7 135.3,158.8 134.5,159.5 		"/>
		<path class="st1" d="M143.9,160.1c-0.4-0.3-0.8-0.7-1.1-1.1l-0.9-0.9c-0.2-0.2-0.4-0.4-0.6-0.6c-0.2-0.1-0.4-0.2-0.7-0.3l0,0
			c-0.2,0-0.5,0.1-0.7,0.2c-0.3,0.2-0.7,0.4-0.9,0.7c-0.3,0.3-0.6,0.6-0.8,1c-0.1,0.3-0.2,0.6-0.2,0.9v0.1c0,0.3,0.2,0.7,0.4,1l0,0
			l0.8-0.6l0,0c-0.1-0.2-0.2-0.5-0.2-0.7c0,0,0-0.1,0-0.1c0.1-0.3,0.3-0.6,0.5-0.8c0.2-0.3,0.6-0.4,0.9-0.5l0,0
			c0.3,0,0.5,0.2,0.7,0.4l0.1,0.2c-0.3,0.5-0.6,0.9-0.9,1.3c-0.2,0.2-0.4,0.4-0.5,0.7c-0.1,0.2-0.2,0.4-0.3,0.7c0,0.1,0,0.2,0,0.3
			c0,0.1,0,0.3,0,0.4c0.2,0.7,0.8,1.1,1.5,1.1l0,0c0.5,0,1-0.3,1.3-0.7c0.3-0.2,0.5-0.5,0.6-0.9c0.1-0.3,0.2-0.7,0.3-1.1
			c0.2,0.1,0.3,0.2,0.5,0.3l0,0l0.8-0.8l0,0C144.3,160.4,144.1,160.3,143.9,160.1z M142.5,160.8c0,0.5-0.2,0.9-0.6,1.2
			c-0.2,0.2-0.5,0.3-0.7,0.4l0,0c-0.2,0-0.4-0.1-0.5-0.2c-0.1-0.1-0.2-0.2-0.2-0.4c0,0,0-0.1,0-0.1c0-0.1,0-0.2,0-0.3
			c0.1-0.2,0.3-0.5,0.5-0.7c0.3-0.4,0.6-0.8,0.8-1.2l0.2,0.2c0.2,0.2,0.4,0.5,0.5,0.8C142.5,160.6,142.5,160.7,142.5,160.8
			L142.5,160.8z"/>
	</g>
</g>
</svg>
