<?xml version="1.0" encoding="utf-8"?>
<!-- Generator: Adobe Illustrator 24.0.1, SVG Export Plug-In . SVG Version: 6.00 Build 0)  -->
<svg version="1.1" id="Layer_1" xmlns="http://www.w3.org/2000/svg" xmlns:xlink="http://www.w3.org/1999/xlink" x="0px" y="0px"
	 viewBox="0 0 188 206" style="enable-background:new 0 0 188 206;" xml:space="preserve">
<style type="text/css">
	.st0{fill:#DAE5B7;}
	.st1{fill:#FFFFFF;}
	.st2{fill:#9DC253;}
	.st3{fill:url(#SVGID_1_);}
</style>
<title>Asset 140</title>
<g id="Layer_2_1_">
	<g id="icons_and_logos">
		<path class="st0" d="M128.8,104v70.5c0,13.8-11.8,13.7-11.8,13.7H67.6c-7,0.5-13-4.9-13.5-11.9c0-0.1,0-0.2,0-0.3V77.6l41.5,25.5
			L128.8,104z"/>
		<path class="st1" d="M73.1,131.1v-10.4h-1.5v-1.6h1.5v-1.3c0-0.7,0.1-1.4,0.3-2.1c0.2-0.4,0.5-0.8,0.9-1.1c0.5-0.3,1-0.4,1.5-0.4
			c0.5,0,1.1,0.1,1.6,0.2l-0.3,1.8c-0.3-0.1-0.7-0.1-1-0.1c-0.4,0-0.8,0.1-1.1,0.4c-0.3,0.5-0.4,1-0.3,1.5v1.1h2v1.6h-2v10.4H73.1z"
			/>
		<path class="st1" d="M77.3,125.1c-0.1-1.7,0.3-3.3,1.3-4.7c1.4-1.8,4.1-2.1,5.9-0.7c0.2,0.2,0.5,0.4,0.7,0.7
			c1,1.3,1.4,2.9,1.3,4.6c0.1,1.7-0.3,3.4-1.3,4.8c-0.8,1-2,1.6-3.3,1.6c-1.3,0-2.5-0.6-3.3-1.6C77.6,128.4,77.2,126.8,77.3,125.1z
			 M79,125.1c-0.1,1.2,0.2,2.4,0.8,3.5c0.4,0.7,1.2,1.1,2,1.1c0.8,0,1.6-0.5,2-1.1c0.6-1,0.9-2.3,0.8-3.5c0.1-1.2-0.2-2.4-0.9-3.4
			c-0.7-1.1-2.2-1.5-3.4-0.8c-0.3,0.2-0.6,0.5-0.8,0.8C79.1,122.7,78.9,123.9,79,125.1L79,125.1z"/>
		<path class="st1" d="M87.8,125.1c-0.1-1.7,0.3-3.3,1.3-4.7c0.8-1,2-1.6,3.3-1.6c1.3,0,2.5,0.6,3.3,1.6c1,1.3,1.4,2.9,1.3,4.6
			c0.1,1.7-0.3,3.4-1.3,4.8c-0.8,1-2,1.6-3.3,1.6c-1.3,0-2.5-0.6-3.3-1.6C88.2,128.4,87.7,126.8,87.8,125.1z M89.6,125.1
			c-0.1,1.2,0.2,2.4,0.8,3.5c0.5,0.7,1.3,1.1,2.1,1.1c0.8,0,1.6-0.5,2-1.1c0.6-1,0.9-2.3,0.8-3.5c0.1-1.2-0.2-2.4-0.8-3.4
			c-0.4-0.7-1.2-1.1-2-1.1c-0.8,0-1.6,0.4-2,1.1C89.8,122.7,89.5,123.9,89.6,125.1L89.6,125.1z"/>
		<path class="st1" d="M105.4,131.1v-1.5c-0.3,0.5-0.7,1-1.1,1.3c-0.5,0.3-1,0.5-1.6,0.5c-1.2,0-2.3-0.6-3-1.7
			c-0.9-1.4-1.4-3-1.3-4.6c0-1.2,0.2-2.4,0.6-3.5c0.3-0.8,0.8-1.6,1.5-2.1c0.6-0.4,1.3-0.7,2-0.7c0.5,0,1.1,0.1,1.5,0.4
			c0.5,0.3,0.9,0.7,1.2,1.2v-6h1.7V131L105.4,131.1z M100.2,125.1c-0.1,1.2,0.2,2.4,0.8,3.5c0.4,0.7,1.1,1.1,1.9,1.1
			c0.8,0,1.4-0.4,1.8-1.1c0.6-1,0.8-2.2,0.7-3.3c0.1-1.3-0.2-2.5-0.8-3.7c-0.4-0.7-1.2-1.2-2-1.2c-0.8,0-1.4,0.5-1.8,1.1
			C100.3,122.7,100.1,123.9,100.2,125.1z"/>
		<path class="st2" d="M62.1,180.9c-0.6,0.3-1.2,0.4-1.8,0.4c-2.3,0-3.9-1.7-3.9-5c0-2.8,1.5-5.1,4.2-5.1c0.5,0,1,0.1,1.5,0.3
			l-0.3,1.3c-0.4-0.2-0.8-0.3-1.2-0.3c-1.7,0-2.5,1.9-2.5,3.8c0,2.3,0.9,3.7,2.5,3.7c0.4,0,0.9,0,1.3-0.2L62.1,180.9z"/>
		<path class="st2" d="M64,176.3c0,3,1.3,3.7,2.5,3.7c0.6,0.1,1.2,0,1.8-0.3l0.3,1.1c-0.7,0.3-1.5,0.5-2.3,0.5
			c-2.5,0-3.8-1.9-3.8-4.9c0-3,1.5-5.3,3.6-5.3s3,2,3,4.3c0,0.4,0,0.7,0,0.9H64z M67.3,175.1c0-2-0.7-2.8-1.6-2.8
			c-0.8,0-1.7,1.5-1.7,2.8H67.3z"/>
		<path class="st2" d="M70.2,173.8c0-0.8,0-1.8,0-2.5h1.5v1.6l0,0c0.3-1,1.3-1.7,2.3-1.7h0.3v1.6H74c-1.1,0.1-1.9,0.9-2,2
			c0,0.3,0,0.7,0,1v5.4h-1.7L70.2,173.8z"/>
		<path class="st2" d="M77.7,168.9v2.3h2v1.2h-2v5.9c0,1.3,0.5,1.6,1.1,1.6c0.2,0,0.5,0,0.7,0v1.2c-0.4,0.1-0.8,0.2-1.2,0.2
			c-0.6,0-1.2-0.2-1.7-0.6c-0.4-0.4-0.6-1.1-0.6-2.5v-5.8h-1.3v-1.2h1.4v-1.6L77.7,168.9z"/>
		<path class="st2" d="M82.5,168.7c0,0.6-0.5,1-1,1s-1-0.5-1-1c0-0.5,0.4-1,0.9-1c0,0,0.1,0,0.1,0c0.5,0,1,0.3,1,0.9
			C82.5,168.6,82.5,168.6,82.5,168.7z M80.7,181.1v-9.9h1.7v9.9H80.7z"/>
		<path class="st2" d="M84.5,181.1v-8.7h-1.3v-1.2h1.3v-0.6c-0.1-1.9,1.3-3.6,3.3-3.8c0.2,0,0.4,0,0.6,0c0.7,0,1.4,0.2,2,0.5
			l-0.3,1.2c-0.5-0.3-1.1-0.4-1.8-0.4c-1.7,0-2.1,1.1-2.1,2.6v0.5H91v9.9h-1.7v-8.7h-3v8.7H84.5z"/>
		<path class="st2" d="M98,180.9c-0.5,0.3-1.1,0.4-1.7,0.4c-2.3,0-3.9-1.7-3.9-5c0-2.8,1.5-5.1,4.2-5.1c0.5,0,1,0.1,1.5,0.3
			l-0.3,1.3c-0.4-0.2-0.8-0.3-1.2-0.3c-1.7,0-2.5,1.9-2.5,3.8c0,2.3,0.9,3.7,2.5,3.7c0.4,0,0.8-0.1,1.2-0.3L98,180.9z"/>
		<path class="st2" d="M104.5,178.9c0,0.7,0,1.5,0.1,2.2h-1.5l-0.1-1l0,0c-0.4,0.8-1.2,1.2-2.1,1.2c-1.4,0-2.5-1.2-2.5-2.6
			c0-0.1,0-0.2,0-0.2c0-2.5,2.1-3.6,4.5-3.6v-0.3c0-1.3-0.4-2.2-1.7-2.2c-0.6,0-1.2,0.2-1.8,0.5l-0.4-1.2c0.7-0.4,1.6-0.6,2.5-0.6
			c2.1,0,3,1.3,3,3.5L104.5,178.9z M102.9,176c-0.9,0-2.9,0.2-2.9,2.3c0,1.3,0.7,1.8,1.3,1.8c0.8,0,1.5-0.7,1.6-1.5
			c0-0.2,0-0.4,0-0.6L102.9,176z"/>
		<path class="st2" d="M108.3,168.9v2.3h2v1.2h-2v5.9c0,1.3,0.5,1.6,1.1,1.6c0.2,0,0.5,0,0.7,0v1.2c-0.4,0.1-0.8,0.2-1.2,0.2
			c-0.6,0-1.2-0.2-1.7-0.6c-0.5-0.7-0.8-1.6-0.6-2.5v-5.8h-1.3v-1.2h1.3v-1.6L108.3,168.9z"/>
		<path class="st2" d="M112.2,176.3c0,3,1.3,3.7,2.5,3.7c0.6,0,1.2-0.1,1.8-0.4l0.3,1.1c-0.7,0.3-1.5,0.5-2.4,0.5
			c-2.5,0-3.8-1.9-3.8-4.9s1.5-5.2,3.6-5.2c2.1,0,3,2,3,4.3c0,0.4,0,0.7,0,0.9H112.2z M115.5,175.1c0-2-0.7-2.8-1.6-2.8
			s-1.7,1.5-1.7,2.8H115.5z"/>
		<path class="st2" d="M124.8,167v11.7c0,0.7,0,1.8,0,2.4h-1.5l-0.1-1.2l0,0c-0.4,0.8-1.3,1.4-2.2,1.4c-1.8,0-3.1-1.8-3.1-5
			s1.6-5.1,3.2-5.1c0.8-0.1,1.7,0.4,2,1.1l0,0V167H124.8z M123.2,175c0-0.2,0-0.4,0-0.6c-0.1-1-0.8-2-1.6-2c-1.4,0-1.9,1.8-1.9,3.8
			s0.6,3.7,1.8,3.7c0.5,0,1.3-0.3,1.6-1.7c0-0.2,0-0.4,0-0.7L123.2,175z"/>
		<path class="st2" d="M57.2,133.2c2.6-0.5,5.3-0.7,7.9-0.6c3.2-0.2,6.4,0.5,9.1,2.2c1.8,1.3,2.8,3.5,2.7,5.7c0,3.2-2.1,6-5.1,7l0,0
			c3.7,0.6,6.4,3.8,6.3,7.6c0.1,2.3-0.9,4.6-2.6,6.2c-2.1,2-5.7,3.2-11.7,3.2c-2.2,0-4.3-0.1-6.5-0.4L57.2,133.2z M64.1,145.6h1.5
			c2.4,0,4.3-1.8,4.4-4.2c0-0.1,0-0.1,0-0.2c0.2-2-1.3-3.8-3.4-4c-0.2,0-0.5,0-0.7,0c-0.6,0-1.2,0-1.9,0.2V145.6z M64.1,159.6
			c0.5,0,1,0,1.5,0c2.5,0.3,4.8-1.5,5.1-4c0-0.2,0-0.5,0-0.7c0-2.6-2.1-4.8-4.7-4.8c-0.2,0-0.3,0-0.5,0h-1.5V159.6z"/>
		<path class="st2" d="M82.8,133.2c2.5-0.4,5.1-0.6,7.6-0.6c3.4-0.3,6.7,0.5,9.6,2.3c2,1.6,3.1,4,2.9,6.5c0,3.5-2.2,6.7-5.5,7.8l0,0
			c2.4,0.9,3.7,2.9,4.4,6.2c0.5,2.9,1.2,5.8,2.3,8.6h-7.3c-0.9-2.4-1.5-5-1.8-7.6c-0.6-3.9-1.8-5-4-5h-1.1v12.6h-7V133.2z
			 M89.8,146.9H91c2.5,0.1,4.6-1.8,4.7-4.4c0-0.2,0-0.4,0-0.5c0.3-2.2-1.2-4.2-3.4-4.6c-0.3,0-0.6-0.1-0.9,0c-0.6,0-1.1,0-1.7,0.2
			V146.9z"/>
		<path class="st2" d="M124.9,163.7c-1.7,0.6-3.5,0.8-5.4,0.7c-9.2,0-13.5-6.6-13.5-15.5c0-11.9,7.5-16.5,14.4-16.5
			c1.7-0.1,3.3,0.2,4.8,0.8l-1.2,5.1c-1-0.4-2.1-0.6-3.2-0.6c-4,0-7.5,3-7.5,10.8s3.2,10.5,7.5,10.5c1.1,0,2.3-0.2,3.3-0.5
			L124.9,163.7z"/>
		<path class="st2" d="M71.4,42.4C83.5,55,93.7,69.3,101.8,84.8c0,0,19.9-48.1,67-78.4c0,0-46.7,20.6-69.1,49.4
			C99.7,55.8,87.2,44.1,71.4,42.4z"/>
		<path class="st2" d="M123.6,97.3v-3.4h-1.1v-0.4h2.8v0.4H124v3.4H123.6z"/>
		<path class="st2" d="M125.7,97.3v-3.8h0.7l0.9,2.7l0.2,0.6c0-0.1,0-0.3,0.2-0.6l0.8-2.6h0.6v3.8h-0.5v-3.2l-1.1,3.2h-0.4l-1-3.2
			v3.2H125.7z"/>
		
			<radialGradient id="SVGID_1_" cx="94.0915" cy="143.5491" r="44.5023" gradientTransform="matrix(1 0 0 -1 0 207.8817)" gradientUnits="userSpaceOnUse">
			<stop  offset="0" style="stop-color:#FFFFFF"/>
			<stop  offset="1" style="stop-color:#9BC14E"/>
		</radialGradient>
		<path class="st3" d="M138.3,99.4c0,0-36.3,6.9-62-18.8s-13.9-61-13.9-61s-29.9,41,2.4,73.3S138.3,99.4,138.3,99.4z"/>
	</g>
</g>
</svg>
