<?xml version="1.0" encoding="utf-8"?>
<!-- Generator: Adobe Illustrator 24.0.1, SVG Export Plug-In . SVG Version: 6.00 Build 0)  -->
<svg version="1.1" id="Layer_1" xmlns="http://www.w3.org/2000/svg" xmlns:xlink="http://www.w3.org/1999/xlink" x="0px" y="0px"
	 viewBox="0 0 188 206" style="enable-background:new 0 0 188 206;" xml:space="preserve">
<style type="text/css">
	.st0{fill:#E5262B;}
</style>
<title>Asset 150</title>
<path d="M94,185.8c-44.2,0-80-35.8-80-80s35.8-80,80-80s80,35.8,80,80C173.9,150,138.2,185.8,94,185.8z M94,29.3
	c-42.3,0-76.5,34.2-76.6,76.5s34.2,76.5,76.5,76.6c42.3,0,76.5-34.2,76.6-76.5l0,0C170.5,63.6,136.2,29.4,94,29.3z"/>
<path d="M28.7,133.5l8.2-4l2.6,5.6l-1,0.5l-2.1-4.5l-2.6,1.2l1.8,4l-1,0.5l-1.8-4l-3.7,1.8L28.7,133.5z"/>
<path d="M36,138.5c1.1-0.8,2.4-1.1,3.6-0.9c1.2,0.2,2.2,0.9,2.8,2c0.4,0.7,0.7,1.4,0.8,2.2c0,0.8-0.2,1.5-0.6,2.2
	c-0.4,0.7-1,1.3-1.8,1.8c-0.7,0.5-1.5,0.8-2.4,0.9c-0.8,0.1-1.6,0-2.3-0.4s-1.3-0.9-1.7-1.5c-0.4-0.7-0.7-1.5-0.7-2.3
	s0.2-1.6,0.6-2.2C34.8,139.5,35.3,138.9,36,138.5z M36.6,139.5c-0.8,0.5-1.4,1.2-1.7,2.2c-0.4,1.7,0.6,3.3,2.3,3.7
	c0.1,0,0.1,0,0.2,0c1,0.1,2-0.2,2.8-0.7c0.6-0.4,1.1-0.8,1.4-1.4c0.3-0.5,0.5-1,0.5-1.6s-0.2-1.1-0.5-1.6c-0.4-0.7-1.2-1.2-2-1.4
	C38.5,138.6,37.4,138.9,36.6,139.5z"/>
<path d="M41.6,146.9c0.9-0.9,2.2-1.4,3.5-1.5c1.2,0,2.3,0.6,3.1,1.5c0.5,0.6,0.9,1.3,1.1,2.1c0.2,0.8,0.1,1.5-0.2,2.3
	s-0.8,1.4-1.5,2c-0.6,0.6-1.4,1-2.2,1.2c-0.7,0.2-1.5,0.2-2.3,0s-1.4-0.7-2-1.3s-0.9-1.3-1.1-2.1c-0.1-0.8-0.1-1.6,0.2-2.3
	C40.5,148.1,41,147.4,41.6,146.9z M42.4,147.9c-0.7,0.6-1.2,1.5-1.3,2.4s0.2,1.7,0.8,2.4c0.5,0.7,1.4,1,2.2,1c1,0,1.9-0.4,2.6-1.1
	c0.5-0.4,0.9-1,1.2-1.6c0.2-0.5,0.3-1.1,0.2-1.7c-0.1-0.6-0.4-1.1-0.8-1.5c-0.5-0.6-1.3-1-2.1-1.1C44.2,146.7,43.1,147.1,42.4,147.9
	z"/>
<path d="M45.9,158l5.8-7l2.4,2c0.4,0.3,0.8,0.7,1.2,1.1c0.3,0.4,0.5,0.9,0.6,1.4c0.1,0.7,0,1.3-0.2,2s-0.6,1.4-1.1,2
	c-0.4,0.5-0.9,0.9-1.4,1.3c-0.4,0.3-0.9,0.5-1.3,0.6c-0.4,0.1-0.8,0.1-1.2,0.1c-0.4-0.1-0.7-0.3-1-0.5c-0.4-0.2-0.8-0.5-1.2-0.8
	L45.9,158z M47.5,158l1.5,1.2c0.4,0.3,0.8,0.6,1.2,0.8c0.3,0.1,0.6,0.2,0.9,0.2c0.4-0.1,0.9-0.2,1.2-0.5c0.5-0.3,0.9-0.7,1.2-1.2
	c0.5-0.6,0.9-1.2,1.1-2c0.1-0.5,0-1-0.2-1.5c-0.3-0.4-0.6-0.8-1.1-1.1l-1.4-1.3L47.5,158z"/>
<path d="M58.1,163.6l1,0.5c-0.2,0.4-0.2,0.8-0.2,1.1c0,0.4,0.2,0.8,0.5,1.1c0.6,0.7,1.4,1.2,2.3,1.3c0.3,0.1,0.7,0,1-0.1
	s0.5-0.3,0.6-0.6c0.1-0.2,0.2-0.5,0.2-0.8c-0.1-0.3-0.2-0.6-0.5-0.9c-0.4-0.4-0.8-0.8-1.2-1.2c-0.5-0.4-0.9-0.9-1.3-1.3
	c-0.2-0.4-0.4-0.8-0.4-1.2s0.1-0.8,0.3-1.1c0.2-0.4,0.6-0.7,1-0.9s0.9-0.3,1.4-0.3c0.6,0.1,1.1,0.3,1.6,0.5c0.5,0.3,1,0.7,1.4,1.1
	c0.3,0.4,0.5,0.9,0.6,1.4c0,0.5-0.1,1-0.3,1.5l-1.1-0.5c0.2-0.5,0.2-1,0-1.4c-0.3-0.5-0.7-0.9-1.2-1.2c-0.5-0.3-1-0.4-1.6-0.4
	c-0.4,0-0.7,0.3-0.9,0.6c-0.1,0.3-0.1,0.6,0,0.9c0.3,0.6,0.8,1.1,1.3,1.4c0.5,0.5,1,1,1.5,1.5c0.3,0.4,0.5,0.9,0.6,1.4
	c0,0.5-0.1,0.9-0.3,1.3c-0.2,0.4-0.6,0.8-1,1c-0.5,0.3-1,0.4-1.5,0.3c-0.6-0.1-1.2-0.2-1.7-0.5c-0.6-0.3-1.2-0.8-1.7-1.3
	c-0.4-0.5-0.6-1-0.6-1.6C57.7,164.7,57.8,164.2,58.1,163.6z"/>
<path d="M64.3,170.5l6.6-7.3l1.2,0.5l0.2,9.9l-1.3-0.5v-3l-3.6-1.4l-2,2.2L64.3,170.5z M68.1,167.9L71,169v-2.7c0-0.8,0-1.5,0-2
	c-0.3,0.5-0.7,1-1.1,1.4L68.1,167.9z"/>
<path d="M74,173.9l2.2-8.9l5.9,1.5l-0.3,1.1l-4.8-1.1l-0.7,2.7l4.1,1l-0.3,1.1l-4.1-1l-1,4L74,173.9z"/>
<path d="M82.3,175.8l1-9.1l6.6,0.8l-0.1,1.1l-5.4-0.7l-0.3,2.8l5,0.6l-0.1,1.1l-5-0.6l-0.4,3.1l5.6,0.7l-0.1,1.1L82.3,175.8z"/>
<path d="M93.8,176.7l-0.1-8h-3v-1.1l7.2-0.1v1.1h-3l0.1,8L93.8,176.7z"/>
<path d="M102.6,176.2l-0.5-3.8l-4.2-4.8l1.4-0.2l2.1,2.5c0.4,0.5,0.8,1,1.1,1.4c0.2-0.5,0.5-1.1,0.8-1.7l1.4-2.9l1.4-0.2l-2.9,5.7
	l0.5,3.8L102.6,176.2z"/>
<path d="M112.9,174.4l-3-8.7l1.7-0.6l4.1,5.3l0.9,1.1c0-0.4,0-0.9,0-1.5v-6.7l1.5-0.5l3,8.6l-1.1,0.4l-2.5-7.2v8.1l-1,0.4l-5-6.5
	l2.5,7.4L112.9,174.4z"/>
<path d="M122.8,170.8l-1.1-9.7l1.3-0.5l7.5,6.4l-1.2,0.6l-2.2-2l-3.4,1.7l0.4,2.9L122.8,170.8z M123.4,166.2l2.8-1.4l-2-1.8
	c-0.6-0.6-1.1-1-1.4-1.4c0.2,0.6,0.3,1.2,0.4,1.8L123.4,166.2z"/>
<path d="M131.9,165.9l-5.3-7.5l1-0.7l8.1,3.1l-4.1-5.8l1-0.7l5.3,7.5l-1,0.7l-8-3.1l4.1,5.9L131.9,165.9z"/>
<path d="M139.2,160.6l-3.7-9.1l1-0.9l9,4.1l-1,0.9l-2.7-1.3L139,157l1.1,2.7L139.2,160.6z M138.6,156l2.2-2l-2.4-1.2
	c-0.6-0.3-1.2-0.6-1.8-1c0.3,0.5,0.6,1.1,0.8,1.6L138.6,156z"/>
<path d="M146.6,147.9l-0.8-0.7l2.4-3l2.6,2.1c0,0.7-0.1,1.4-0.3,2.1c-0.2,0.6-0.5,1.2-1,1.7c-0.5,0.7-1.2,1.2-2,1.5
	c-0.7,0.3-1.6,0.4-2.3,0.2c-0.8-0.2-1.6-0.6-2.2-1.1c-0.7-0.5-1.2-1.2-1.6-2c-0.4-0.7-0.5-1.5-0.3-2.3s0.6-1.6,1.1-2.2
	c0.4-0.5,0.8-0.9,1.4-1.2c0.5-0.3,1-0.4,1.5-0.4c0.6,0,1.1,0.2,1.6,0.4l-0.5,1c-0.4-0.2-0.8-0.3-1.2-0.3s-0.7,0.1-1.1,0.3
	c-0.4,0.2-0.7,0.5-1,0.8c-0.3,0.4-0.6,0.8-0.7,1.3c-0.1,0.4-0.1,0.8,0,1.2s0.2,0.7,0.3,1c0.3,0.5,0.7,1,1.2,1.4
	c0.5,0.5,1.2,0.8,1.9,1c0.6,0.1,1.2,0.1,1.7-0.2c1.4-0.7,2.3-2.2,2.3-3.7l-1.3-1.1L146.6,147.9z"/>
<path d="M153.3,144.9l-7.9-4.7l3.4-5.7l0.9,0.6l-2.8,4.6l2.4,1.4l2.7-4.4l0.9,0.6l-2.6,4.3l2.7,1.6l2.9-4.8l0.9,0.6L153.3,144.9z"/>
<path d="M157.9,136.8l-8.4-3.5l0.7-1.7l6.8,0.5l1.4,0.1c-0.3-0.2-0.7-0.6-1.2-1l-5.1-4.3l0.6-1.5l8.4,3.5l-0.4,1.1l-7.1-3.1l6.1,5.4
	l-0.4,1l-8.2-0.4l7.2,3L157.9,136.8z"/>
<path d="M162.1,126l-8.9-2.2l1.6-6.4l1,0.3l-1.3,5.2l2.7,0.7l1.2-4.9l1.1,0.3l-1.2,4.9l3,0.8l1.3-5.4l1,0.3L162.1,126z"/>
<path d="M164.1,117l-9.1-1l0.1-1.2l7.6-4l-7.1-0.8l0.1-1.1l9.1,1l-0.1,1.2l-7.6,4l7.1,0.8L164.1,117z"/>
<path d="M164.9,104.7l-8,0.2v3h-1.1l-0.2-7.2h1.1v3l8.1-0.2L164.9,104.7z"/>
<path d="M44.2,102l-20.6-2.4l0.5-4.2l20.6,2.4L44.2,102z"/>
<path d="M38.3,92.3l1.2-4c1.1,0.3,2.3,0.2,3.3-0.2c0.9-0.6,1.6-1.4,2-2.5c0.5-1,0.6-2.1,0.4-3.1c-0.2-0.8-0.7-1.4-1.5-1.7
	c-0.4-0.2-0.9-0.2-1.3,0c-0.6,0.2-1,0.6-1.4,1.1c-0.3,0.4-1.1,1.3-2.1,2.8c-0.9,1.5-2.2,2.7-3.7,3.6c-2.4,1.3-5.4,0.5-7-1.8
	c-0.6-0.9-1-2.1-1-3.2c0-1.4,0.3-2.8,0.9-4.1c0.7-2,2-3.7,3.8-4.8c1.6-0.8,3.4-0.9,5-0.2l-1.4,4c-0.9-0.3-1.8-0.2-2.6,0.2
	c-0.8,0.5-1.4,1.3-1.6,2.2c-0.4,0.9-0.6,1.9-0.4,2.9c0.1,0.5,0.5,0.9,0.9,1.1c0.5,0.2,1,0.1,1.4-0.1c1.1-0.9,2.1-1.9,2.8-3.2
	c0.9-1.3,1.9-2.5,3.1-3.6C40,77,41,76.5,42,76.4c1.1-0.2,2.3,0,3.4,0.5c1.1,0.5,2,1.2,2.7,2.2s1.1,2.2,1.1,3.5c-0.1,1.5-0.4,3-1,4.5
	c-0.7,2.1-2.1,3.8-4,4.9C42.4,92.8,40.2,92.9,38.3,92.3z"/>
<path d="M44.6,70c-1.3-1.3-2.4-2.8-3.1-4.5c-0.4-1.1-0.6-2.2-0.6-3.4c0-1.1,0.2-2.2,0.6-3.2c0.6-1.4,1.5-2.7,2.6-3.7
	c1.9-2,4.5-3.1,7.2-3.1c2.9,0.2,5.6,1.5,7.5,3.7c2.1,1.9,3.4,4.6,3.6,7.5c0,2.7-1.2,5.3-3.2,7.2c-1.9,2-4.5,3.1-7.2,3.2
	C49.2,73.5,46.5,72.2,44.6,70z M47.7,66.9c1.3,1.5,3,2.4,4.9,2.7c1.6,0.1,3.1-0.5,4.2-1.6c1.1-1.1,1.8-2.6,1.7-4.2
	c-0.2-1.9-1.2-3.7-2.7-5c-1.2-1.5-3-2.4-4.9-2.7C47.7,56,45,58.5,45,61.7c0,0.1,0,0.2,0,0.3C45.3,63.9,46.2,65.6,47.7,66.9z"/>
<path d="M87.9,52.2l0.9,3.6L75.2,59c-0.2-1.4,0-2.8,0.4-4.2c0.8-2.1,1.9-4.1,3.2-5.9c0.9-1.3,1.7-2.7,2.4-4.1
	c0.3-0.8,0.4-1.7,0.2-2.6c-0.1-0.7-0.5-1.4-1.2-1.8c-0.6-0.4-1.4-0.4-2.1-0.2c-0.7,0.1-1.4,0.6-1.8,1.2c-0.4,0.8-0.5,1.8-0.2,2.7
	l-4,0.6c-0.4-1.8,0-3.6,1.1-5.1c1.1-1.3,2.6-2.1,4.2-2.5c1.7-0.5,3.5-0.3,5.1,0.5c1.4,0.7,2.4,2.1,2.7,3.6c0.2,0.9,0.2,1.8,0,2.7
	c-0.2,1-0.5,2-0.9,3c-0.6,1.1-1.2,2.2-2,3.2c-1,1.4-1.6,2.3-1.8,2.8c-0.2,0.4-0.4,0.8-0.5,1.3L87.9,52.2z"/>
<path d="M104.9,52.9l-0.3,3.7l-13.9-1.1c0.2-1.4,0.8-2.8,1.7-4c1.4-1.7,3-3.2,4.8-4.5c1.3-0.9,2.5-2,3.5-3.1c0.6-0.7,0.9-1.5,1-2.4
	c0.1-0.8-0.1-1.5-0.6-2.1s-1.2-0.9-2-0.9c-0.7-0.1-1.4,0.1-2,0.6c-0.6,0.7-0.9,1.6-1,2.5l-4-0.7c0.2-1.8,1.1-3.4,2.6-4.5
	c1.4-0.9,3.1-1.3,4.8-1.1c1.8,0,3.4,0.7,4.7,2c1.1,1.2,1.6,2.7,1.4,4.3c0,0.9-0.3,1.7-0.6,2.5c-0.5,0.9-1.1,1.8-1.8,2.5
	c-0.9,0.9-1.8,1.7-2.8,2.4c-1.3,1.1-2.2,1.7-2.6,2.1c-0.3,0.3-0.6,0.7-0.9,1L104.9,52.9z"/>
<path d="M121.1,40.5c1.7,0.6,3,2,3.5,3.8c0.5,2.9,0,5.9-1.4,8.6c-0.9,2.8-2.7,5.3-5.2,7c-1.6,0.9-3.5,0.9-5.2,0.1
	c-1.8-0.7-3.1-2.1-3.6-4s0-4.7,1.5-8.4c0.9-2.8,2.7-5.3,5.1-7C117.6,39.8,119.5,39.7,121.1,40.5z M119.9,43.5
	c-0.4-0.2-0.9-0.2-1.4,0c-0.6,0.2-1.1,0.7-1.4,1.2c-1,1.5-1.8,3-2.4,4.6c-0.7,1.5-1.2,3.1-1.6,4.8c-0.1,0.7-0.1,1.4,0.2,2
	c0.2,0.4,0.6,0.7,1,0.9s0.9,0.2,1.4,0c0.6-0.2,1.1-0.7,1.4-1.2c1-1.4,1.8-3,2.4-4.6c0.7-1.5,1.2-3.1,1.5-4.7c0.1-0.7,0.1-1.3-0.2-2
	C120.6,44.1,120.3,43.7,119.9,43.5z"/>
<path d="M140.1,52.2c1.4,1.1,2.2,2.9,2.2,4.7c-0.4,2.9-1.8,5.7-4,7.7c-1.7,2.4-4.2,4.2-7.1,5.1c-1.8,0.3-3.6-0.2-4.9-1.4
	c-1.5-1.2-2.3-3-2.2-5c0-2,1.4-4.5,4-7.5c1.7-2.4,4.2-4.2,7.1-5.1C136.9,50.4,138.8,50.9,140.1,52.2z M138,54.7
	c-0.4-0.3-0.8-0.5-1.3-0.5c-0.6,0-1.2,0.3-1.7,0.7c-1.4,1.1-2.6,2.3-3.7,3.7c-1.1,1.2-2.1,2.5-3,4c-0.4,0.6-0.5,1.3-0.5,2
	c0.1,0.5,0.3,0.9,0.7,1.2c0.4,0.3,0.8,0.5,1.3,0.5c0.6,0,1.2-0.3,1.7-0.7c1.4-1.1,2.6-2.3,3.7-3.6c1.1-1.2,2.2-2.5,3-4
	c0.3-0.6,0.5-1.3,0.5-2C138.5,55.4,138.3,55,138,54.7z"/>
<path d="M154.5,69.1c1,1.5,1.3,3.4,0.6,5.1c-1.3,2.7-3.5,4.8-6.2,6.1c-2.4,1.8-5.3,2.7-8.3,2.6c-1.8-0.2-3.4-1.3-4.2-2.9
	c-1-1.6-1.2-3.6-0.6-5.4c0.7-1.9,2.7-3.8,6.1-5.9c2.4-1.7,5.3-2.7,8.3-2.6C152,66.4,153.6,67.5,154.5,69.1z M151.7,70.8
	c-0.2-0.4-0.6-0.7-1.1-0.9c-0.6-0.2-1.3-0.1-1.9,0.1c-1.6,0.6-3.2,1.4-4.7,2.3c-1.5,0.8-2.8,1.8-4.1,3c-0.5,0.5-0.9,1.1-1.1,1.7
	c-0.1,0.5,0,0.9,0.3,1.3c0.2,0.4,0.6,0.7,1.1,0.9c0.6,0.2,1.3,0.1,1.9-0.1c1.6-0.6,3.2-1.4,4.6-2.4c1.5-0.8,2.8-1.8,4.1-2.9
	c0.5-0.5,0.9-1.1,1.1-1.7C152,71.7,151.9,71.2,151.7,70.8z"/>
<path d="M49.7,105.9c-0.3-12.3,4.8-24.2,13.9-32.5c16.3-14.7,42.3-14.3,60.7,1l-1.5,1.8c-17.4-14.6-42.2-15.1-57.6-1.1
	c-8.6,7.9-13.3,19.1-13,30.7L49.7,105.9z"/>
<path d="M100.4,156.6c-4.1,0-8.3-0.6-12.3-1.6l0.6-2.2c13.6,3.9,28.3,0.6,38.9-8.7c9.4-8.7,14.1-21.3,12.9-34l2.3-0.2
	c1.3,13.4-3.7,26.7-13.7,35.9C121.2,152.8,111,156.7,100.4,156.6z"/>
<path d="M56.9,108.8C56,97.6,60.2,86.6,68.5,78.9c13.3-12.1,34.2-12.3,49.7-0.5l-1.4,1.9c-14.7-11.1-34.3-11-46.8,0.4
	c-7.7,7.2-11.7,17.5-10.9,28.1H56.9z"/>
<path d="M99.9,149.4c-1.6,0-3.3-0.1-4.9-0.3l0.3-2.3c18.2,2.7,35.2-9.8,37.9-28c0.1-0.7,0.2-1.3,0.2-2l2.3,0.2
	c-0.8,8.9-4.9,17.1-11.5,23.1C117.5,146.2,108.8,149.5,99.9,149.4z"/>
<g>
	<path class="st0" d="M51.6,119.7c0-2.4,0-4.8,0-7.2c0-0.4-0.2-0.9,0.2-1.1c0.4-0.2,0.7,0.3,1,0.5c6.9,5.1,13.8,10.3,20.7,15.5
		c1.2,0.9,1.8,0.8,2.8-0.2c8.6-8.2,17.2-16.3,25.8-24.4c5.5-5.2,11-10.3,16.6-15.5c3.2-3,6.4-5.9,9.5-9c0.2-0.2,0.5-0.7,0.9-0.5
		c0.5,0.2,0.4,0.7,0.4,1.1c0.3,4.1,0.6,8.2,0.9,12.3c0.1,1.2,0.5,1.8,1.7,1.9c6,0.6,12.1,1.3,18.1,2c0.7,0.1,1.8-0.1,2.1,0.6
		c0.2,0.7-0.8,1.1-1.3,1.5c-7.9,6.5-15.8,13-23.6,19.5c-11.6,9.6-23.2,19.2-34.8,28.8c-4.5,3.7-9.1,7.4-13.6,11.1
		c-0.7,0.6-1.2,0.6-1.8-0.2c-5.6-7.1-12-13.5-18.2-20.2c-2.3-2.5-4.6-4.9-6.9-7.4c-0.5-0.5-0.7-1.1-0.7-1.8
		C51.6,124.6,51.6,122.1,51.6,119.7C51.6,119.7,51.6,119.7,51.6,119.7z"/>
</g>
</svg>
