<svg enable-background="new 0 0 188 230.6" viewBox="0 0 188 230.6" xmlns="http://www.w3.org/2000/svg" xmlns:xlink="http://www.w3.org/1999/xlink"><clipPath id="a"><path d="m14 25.6h160v205h-160z"/></clipPath><path clip-path="url(#a)" d="m94 25.6c-44.1 0-80 35.9-80 80s35.9 80 80 80 80-35.9 80-80-35.9-80-80-80" fill="#fff"/><g fill="#1d1d1b"><path clip-path="url(#a)" d="m23 106.8-1-2.1-1.1 2.1-2.4.4 1.7 1.7-.4 2.4 2.1-1.2 2.1 1.2-.4-2.4 1.7-1.7zm64.9 67.3c0-.3-.3-.5-.5-.6-.6-.8-1.2.3-1.4.7.3.4.7.6 1 .9.2-.4.9-.6.9-1m18.7-1c-.5-.2-1-.5-1.2-1-.4.3-.5.8-.5 1.2.5 1.7.9 3.5 1.4 5.3-.3.2-.6.4-.9.4-3.7.7-6.9 1.2-10.8.7-2.7.1-1.6-2.9-2.4-4.4-.7.4-.4 1.8-1.5 1.9-.7.3-1.2-.2-1.8-.5-1.1 1.1 1 1.8.1 3-1.3 1-2.6 1.7-4.4 1.6-.6.2-1.3-.7-1.7-.1l1.8.9c1.1.4 2.2.2 3.1-.3 1.3-.7 1.3-2 1.9-3 .9 0 1.7-.6 2.1-1.4.4.5.2 1.4.4 2 .4.2.1.4.2.6.2.2.3.5.7.4.6.6 1.5.6 2.3.9 3.6.2 7.2-.1 10.6-1.1 1.7-1.2.6-3.9.2-5.6.1-.5.6-1 .4-1.5m-15.5 8.9-1.2-.8c-.4.4-.6.7-.8 1.2l1.2.8c.3-.2.3-.3.6-.5.6-.3 1.1.3 1.7.5.4-.3.7-.7.9-1.2-.5-.4-.9-.6-1.4-.8zm-35.7-141.2c.2-.1.3-.1.4-.1.2 0 .2 0 .3.1s.2.3.4.6l2.2 4.1c.2.3.3.5.3.6s0 .3-.1.3c-.1.1-.2.2-.4.3l-.2.1.1.2 5.6-3-1-2.3-.2.1c.2.6.2 1 .2 1.4 0 .3-.1.6-.3.9s-.4.4-.7.6l-.5.3c-.3.2-.5.2-.6.2s-.2 0-.3-.1c-.1 0-.2-.3-.4-.6l-2.2-4c-.1-.3-.2-.5-.2-.6s0-.3.1-.3c.1-.1.2-.2.4-.3l.3-.1-.1-.2-3.3 1.8.1.2zm-15.9 22.4c0 .3 0 .5-.2.7l.1.1 1.5-1.8-.1-.1c-.3.3-.4.4-.6.4-.2.1-.3 0-.5-.1-.1-.1-.2-.3-.3-.5l-.3-.7 1.6-1.9.9.3c.2.1.4.1.4.1s.1.1.2.1.1.1.1.2-.1.3-.3.5v.3l.2.1 2.2-2.6-.1-.1c-.2.1-.3.2-.5.2s-.6-.1-1.2-.2l-6.1-1.8-.1.1 2.7 5.6c.2.5.4.9.4 1.1m-1.7-4.7 2.5.8-1.3 1.6zm-9.3 23.1c.3.1.5.2.6.3s.2.2.2.2c0 .2 0 .4-.1.5l-.1.2.2.1 1.2-3.5-.2-.1-.1.2c-.1.2-.1.4-.2.4-.1.1-.2.2-.3.2s-.3 0-.7-.2l-4.5-1.5c-.3-.1-.6-.2-.6-.2-.1-.1-.2-.2-.2-.3s0-.3 0-.5l.1-.2-.2-.1-.9 2.8 3.9 3.3-5.1.4-.9 2.7.2.1.1-.2c0-.2.1-.3.3-.4.1-.1.2-.1.3-.2.1 0 .4 0 .7.2l4.3 1.4c.3.1.5.2.5.2.1.1.3.2.3.3.1.1.1.2.1.4s0 .3-.1.5l.2.1.8-2.3-.3-.1c-.1.3-.2.5-.4.6-.1.1-.3.2-.5.1-.1 0-.3-.1-.6-.2l-4.7-1.6 7-.6v-.1l-5.3-4.5zm54.1 93.8c-.3-.3-.2.2-.4.3-1 .7.8 1.4-.3 2.1-1.3 0-2.7-.4-4-.5-3.7-.9-7.6-2-10.8-4.9-.2-2.4 1.6-4.3 2.1-6.5-.5.2-.8.4-1 .8-.5 2.3-2.4 4.3-2.1 6.7 1.2 1.5 3.2 2.4 5 3.2 3.3 1.4 6.6 2.2 10.4 2.5.9-.3 1.2-1.1 1.4-1.8.4-.7.1-1.4-.3-1.9m1.3-137.6v-.2c-.4 0-.6 0-.7 0-.2-.1-.2-.2-.3-.4 0-.2 0-.4.1-.6l.2-.7 2.5-.3.5.8c.1.2.2.3.2.3v.2c0 .1 0 .2-.1.3s-.3.1-.5.2h-.1v.2l3.4-.4v-.2c-.2 0-.4-.1-.5-.1-.2-.2-.4-.4-.8-1l-3.3-5.5h-.1l-1.8 6c-.2.6-.3.9-.5 1.1-.1.2-.3.3-.6.4v.2zm.2-4.9 1.3 2.3-2.1.3zm-9.7 145.5c-.3-.1-.5.1-.8.2-.5.2-.9-.4-1.2-.8-.5 0-.6.5-1 .6-.1.5.4 1 .8 1.3.3-.1.6-.4 1-.4.3.4.8.6.9 1 .5-.1.9-.4 1.3-.7-.2-.4-.5-1-1-1.2m19.6-137.8c-35.9 0-65 29.1-65 64.9 0 35.9 29.1 64.9 65 64.9 35.8 0 65-29 65-64.9 0-35.8-29.1-64.9-65-64.9m43.2 83.5v24.8h-24.9l-17.5 17.6-17.5-17.6h-25.7v-25.6l-18.1-18.2 18.1-18.1v-24.8h24.8l17.6-17.5 17.5 17.5h25.7v25.6l18.1 18.1zm29.4-40.5-6.2-.8c-.6-.1-1-.1-1.2-.3-.2-.1-.4-.3-.5-.5l-.2.1.7 2.3.2-.1c-.1-.4-.1-.6-.1-.7 0-.2.2-.3.3-.4h.6l.7.1.7 2.4-.7.6c-.2.2-.3.2-.3.3-.1 0-.1 0-.2 0-.1.1-.2.1-.3 0s-.2-.3-.3-.5l-.1-.1h-.2l1 3.3.2-.1c0-.2 0-.4 0-.5.1-.2.4-.5.8-.9zm-4.5 1.8-.6-2.1 2.7.4zm-41.3 16.5c-1.9-.2-3.9-.1-5.5 1.1-3.5 1.6-5.1 5.4-7.2 8.5-1-.4-1.2-1.7-1.8-2.4 0-.5-.1-.9-.5-1.3-1.3-7.9-.2-15.4-1.9-23.5-.4-.9-.5-2.2-1.3-2.9-.6.1-.6.7-.9 1.1-.2.4-.4.9-.4 1.3-.8 1.6-.6 2.7-1 4.2-.4.6-.1 1.3-.4 2 .1 1.2-.7 1.7-.6 2.8.2.3-.2 1 0 1.1-.2.6-.3 1.1-.3 1.6-.4 1.2-.5 2.5-1 3.6-.3 1.6-.7 3-1.5 4.5-.6 2-2.2 3.8-3.2 5.5-1.1 1.2-2.4 2.6-3.6 3.4l.1.1c-.5.5-1.1.8-1.7 1.4-1.2.6-2.3 1.6-3.7 2.2-3.9 1.9-7.9 4-12.1 5.1l-.1.3c.8.4 1.3.6 2.2.1 3.3-.7 6.8-.7 10-1.7 3.4-.7 7.1-1.9 9.4-4.6 5.9-6 6.7-14.9 7.9-22.9 0-.2.2-.4.4-.4.3 3.2.2 6.3.5 9.3h-.2c.2.7.1 1.3.2 2.1.2.1 0 .3 0 .3.3 1.3-.1 3.2.2 4.7.5 2.9.6 5.2 2.5 7.6 3.4 3.9 9.9 3.1 14.3 1.6 5.8-1.5 11.6-4.8 17.6-3.4 1.5.5 1.7-1.6 2.4-2.4.4-.9 1.3-1.7 1.4-2.7-.7-.2-1.2-.1-1.8-.4-3.6-.6-6.7-1.7-9.7-3.4-3.1-1.4-5.6-2.9-8.7-3.5m4.4 9.6c-4.1.8-8.7 2.7-12.9 1.8-.8-.1-1.6-.5-2.4-.8l-.2-.3c1.7-2.7 4.6-5.5 8.2-4.9 1.9.2 3.3.7 4.8 1.6 1.3.5 2.7 1.2 3.8 1.9-.2.4-.8.3-1.3.7m-31.2-85.9c-44.1 0-80 35.9-80 80s35.9 80 80 80 80-35.9 80-80-35.9-80-80-80m0 158.8c-43.4 0-78.8-35.3-78.8-78.8s35.4-78.8 78.8-78.8 78.8 35.3 78.8 78.8c.1 43.5-35.3 78.8-78.8 78.8m75-77.3-2.4-.4-1.1-2.1-1.1 2.1-2.4.4 1.7 1.7-.3 2.4 2.1-1.2 2.1 1.2-.4-2.4zm-91.8 3c.9-8.9-.4-16.9-1-25.4.6-1.5 1.3-3 2.1-4.4-1.5-1.7-3.2-4.1-3.5-6.4h-.3c-.1 1-.9 1.6-1.2 2.5-.5.8-1.1 1.5-1.3 2.5.5 1 .6 1.7.4 2.7l.3.1-.2.5c-.1.3 0 .8.2.9-.1 1.6.1 3.6.1 5 .1 1.4.1 2.5.3 3.8.2 1.9.1 4.1.4 6 .2.6-.1 1.3.3 1.6-.3.3-.1.9.1 1.4v1.6c-.1.6.2 1 .1 1.6.2.4.1.8.2 1.2-.2.1.3.4-.1.4 0 1.8.5 3 .2 4.8 0 .6-.1 1.5.1 1.7-.3-.1-.3.4-.6.5-.7.5-1.5 1-2.3 1.2-1.8 1-4 1.7-6 1.9-3.9.4-7.4-.1-10.4-2.9-2-2.9-.5-6.5.5-9.3.4-1 1-1.7.6-2.9-1-.4-1.1 1.1-1.6 1.7-.6 2-1.8 3.7-2.1 5.6-.5.4-.3 1.2-.4 1.7-.2.5-.3 1.4-.5 1.9.3 1.1.1 2.4.4 3.6 1 3 3.7 5.5 6.8 6.3 4.6 1.2 9.1-.6 12.7-2.6.5-.4 1-.9 1.5-1 2.6-2 3.3-5 4.2-7.8m46.9 61.6c-1.3-.4-1.3 1.4-2 1.9.2 2.4-2.5 2.5-3.9 3.3-2 .4-4.4 1.6-6.5.5-.8-1.8-1.1-3.8-1.6-5.6l-.3-.4c-.2.5 0 .8-.2 1.3 1 1.8 1 3.9 1.7 5.8 1 1.5 2.9.7 4.3.6 2.4-.9 5.9-.9 6.6-3.9 1.2.3 2.1.3 3.2-.2.2-.5.3-1.2.3-1.7-.3-.8-1-1.3-1.6-1.6m-1.1 1.9c-.3-.2 0-.4.1-.6.4.2 1 .3 1.2.6-.4.2-1 0-1.3 0m27.1-107.8-.2-.2c-.1-.2-.2-.3-.2-.4s0-.3 0-.3c.1-.1.3-.2.5-.5l3.8-2.8c.3-.2.5-.3.5-.4.1 0 .2 0 .3.1.2 0 .3.1.4.3l.1.2.2-.1-2.2-3-.2.1.2.2c.1.1.1.3.2.5v.3c-.1.1-.2.2-.5.5l-3.8 2.8c-.3.2-.5.3-.6.4-.1 0-.2 0-.3 0-.2 0-.3-.2-.4-.3l-.1-.2-.2.1 2.2 3zm-71.1 23.3c.4.5-.2.9.2 1.3-.1 2.7 2.4 4.1 4.2 5.3 1.1.7 2.5-.6 3.3.8 2.2 2.9 4.1 5.9 4.8 9.3.2.7-.1 2.1.9 2.5.2-.2.3-.5.4-.8.2-4.7-.4-9.3-2.9-13.3-2.4-4.1-5.8-8.1-10.6-9-.1.4-.4 1-.2 1.3h-.1c.2.2-.3.6.2.7-.2.5-.3 1.5-.2 1.9m29.6-56.3.9 3.4-.3 1.4c-.1.4-.1.6-.2.7s-.1.2-.2.2-.3 0-.5 0l-.4-.1v.2l3.9.9v-.2l-.4-.1c-.1 0-.3-.1-.4-.2s-.1-.2-.1-.3 0-.3.1-.6l.4-1.7 2.1-2.2c.5-.6.9-.8 1.1-1 .1-.1.3-.1.5-.1l.1-.1-2.1-.5v.2c.3.1.5.2.6.3.1 0 .1.1.1.2-.1.2-.3.5-.7 1l-1.8 1.8-.7-2.6c-.2-.6-.2-.9-.2-1s.1-.1.2-.2h.4l.1.1.1-.2-3.3-.8-.1.1c.2.1.4.2.5.3-.1 0 .1.4.3 1.1m22 14.6c.1 0 .2 0 .3.1.1 0 .2.2.3.3.2.3.3.5.5.6s.3.3.5.4c.6.4 1.2.6 1.8.5s1.1-.4 1.4-.9c.3-.4.4-.8.4-1.3 0-.4-.3-1.1-.8-1.9-.3-.6-.5-1-.6-1.2s-.1-.5-.1-.7c0-.1 0-.3.1-.4.2-.2.4-.3.6-.4.3 0 .6 0 .9.2.4.3.7.7.8 1.2s.1 1.1-.2 1.6l.2.2 1.3-2-.1-.1c-.2.2-.3.2-.3.2-.1 0-.2 0-.2 0-.1 0-.2-.2-.3-.4-.2-.2-.3-.4-.4-.5-.2-.2-.3-.3-.5-.5-.5-.3-1.1-.5-1.7-.4-.5.1-.9.4-1.3.9-.2.2-.3.5-.3.9 0 .3 0 .6.1 1 .1.3.4.8.7 1.5.3.4.4.8.5 1s.1.4.1.6-.1.4-.2.5c-.1.2-.4.4-.7.4-.3.1-.6 0-1-.3s-.7-.7-.9-1.3c-.1-.6-.1-1.2.2-1.9l-.1-.1-1.5 2.2.2.1c.1 0 .2-.1.3-.1m-13.3 83c-.2.3-.3.4-.6.5-.2.1-.4.2-.7.2h-.5c-.2 0-.5 0-.5 0-.1 0-.2-.1-.2-.2s0-.3 0-.5v-3.6c0-.3 0-.5 0-.5 0-.2.1-.2.1-.3.1 0 .3-.1.4-.1h.2v-.2h-3v.2h.2c.1 0 .3 0 .3.1.1.1.2.1.2.2v.5 3.7.5c0 .1-.1.1-.2.2s-.2.1-.4.1h-.2v.1h5l.2-2h-.2c.1.6 0 .9-.1 1.1m-18.6 0c-.1.3-.3.4-.5.5s-.4.2-.7.2h-.5c-.3 0-.4 0-.5 0s-.2-.1-.2-.2 0-.3 0-.5v-3.6c0-.3 0-.5 0-.5 0-.2.1-.2.2-.3.1 0 .2-.1.4-.1h.3v-.2h-3v.2h.2c.2 0 .3 0 .4.1l.2.2v.5 3.7.5c-.1.1-.1.1-.2.2s-.2.1-.4.1h-.2v.1h5l.2-2h-.2c-.2.6-.3.9-.5 1.1m9.5-.1-2-4.6h-.2l-2 4.5c-.2.4-.3.7-.5.9-.1.1-.3.2-.5.2v.1h1.8v-.1c-.3 0-.5-.1-.5-.1-.2-.1-.2-.2-.2-.3s0-.3.1-.5l.2-.5h2l.3.7c.1.2.1.3.1.3v.2c0 .1 0 .1-.1.2s-.3.1-.5.1h-.1v.1h2.7v-.1c-.2 0-.3-.1-.4-.1.1-.3-.1-.6-.2-1m-3.5-.8.9-1.9.8 1.9zm-26.7-3.5h.2c.2 0 .3 0 .4.1l.2.2v.5 1.6h-1.9v-1.6c0-.3 0-.5 0-.5 0-.2.1-.2.2-.3.1 0 .2-.1.4-.1h.2v-.2h-2.9v.2h.2c.1 0 .3 0 .3.1.1.1.2.1.2.2.1.1.1.3.1.5v3.7c0 .3 0 .5-.1.5 0 .1-.1.1-.2.2s-.2.1-.4.1h-.2v.1h2.9v-.1h-.2c-.2 0-.3 0-.4-.1s-.1-.1-.2-.2c0-.1 0-.3 0-.5v-1.7h1.9v1.7.5c0 .1-.1.1-.2.2s-.3.1-.4.1h-.1v.1h3v-.1h-.2c-.2 0-.3 0-.4-.1s-.2-.1-.2-.2 0-.3 0-.5v-3.7c0-.3 0-.5 0-.5 0-.2.1-.2.2-.3.1 0 .2-.1.4-.1h.2v-.2h-3zm11.6 4.3-2-4.6h-.1l-2 4.5c-.2.4-.4.7-.5.9-.1.1-.3.2-.5.2v.1h1.9v-.1c-.3 0-.5-.1-.6-.1-.1-.1-.2-.2-.2-.3s0-.3.1-.5l.2-.5h2l.3.7c.1.2.1.3.1.3v.2c0 .1 0 .1-.1.2s-.2.1-.5.1h-.1v.1h2.8v-.1c-.2 0-.3-.1-.4-.1 0-.3-.2-.6-.4-1m-3.4-.8.9-1.9.8 1.9z"/><path clip-path="url(#a)" d="m56.2 210.8v-13.9h4.2l2.5 9.5 2.5-9.5h4.3v13.9h-2.7v-10.9l-2.7 10.9h-2.7l-2.8-10.9v10.9z"/><path clip-path="url(#a)" d="m71.7 206.3 2.8-.3c.2.9.5 1.6 1 2s1.2.7 2 .7c.9 0 1.6-.2 2.1-.6.4-.4.7-.8.7-1.4 0-.3-.1-.6-.3-.8s-.5-.4-1-.6c-.3-.1-1.1-.3-2.2-.6-1.5-.4-2.6-.8-3.2-1.4-.9-.8-1.3-1.7-1.3-2.8 0-.7.2-1.4.6-2s1-1.1 1.7-1.4c.8-.3 1.7-.5 2.7-.5 1.7 0 3.1.4 3.9 1.2.9.8 1.3 1.8 1.4 3.1l-2.8.1c-.1-.7-.4-1.2-.8-1.6-.4-.3-1-.5-1.8-.5s-1.4.2-1.9.5c-.3.2-.4.5-.4.9 0 .3.1.6.4.8.4.3 1.2.6 2.6.9s2.4.7 3 1 1.2.8 1.5 1.4c.4.6.6 1.4.6 2.2s-.2 1.5-.7 2.2c-.4.7-1.1 1.2-1.9 1.5-.8.4-1.8.5-3 .5-1.8 0-3.1-.4-4.1-1.2-.8-.5-1.4-1.7-1.6-3.3"/><path clip-path="url(#a)" d="m97.1 210.8h-2.7v-10.1c-1 .9-2.1 1.6-3.5 2v-2.4c.7-.2 1.5-.7 2.3-1.3s1.4-1.4 1.7-2.2h2.2z"/><path clip-path="url(#a)" d="m101.1 207.3 2.7-.3c.1.6.3 1.1.7 1.4.4.4.8.5 1.3.5s1-.2 1.4-.7.6-1.1.6-2-.2-1.5-.6-1.9-.9-.6-1.5-.6c-.8 0-1.5.3-2.1 1l-2.2-.3 1.4-7.3h7.1v2.5h-5l-.4 2.4c.6-.3 1.2-.4 1.8-.4 1.2 0 2.2.4 3 1.3s1.2 2 1.2 3.3c0 1.2-.3 2.2-1 3.1-.9 1.2-2.2 1.8-3.8 1.8-1.3 0-2.3-.3-3.1-1-.8-.8-1.3-1.7-1.5-2.8"/><path clip-path="url(#a)" d="m116.4 196.8c1.4 0 2.4.5 3.2 1.5.9 1.1 1.4 3 1.4 5.7 0 2.6-.5 4.5-1.4 5.7-.7 1-1.8 1.4-3.1 1.4-1.4 0-2.4-.5-3.3-1.6-.8-1-1.2-2.9-1.2-5.6 0-2.6.5-4.5 1.4-5.6.6-1 1.7-1.5 3-1.5m0 2.3c-.3 0-.6.1-.9.3s-.5.6-.6 1.1c-.2.7-.3 1.9-.3 3.5s.1 2.8.2 3.3c.2.6.4 1 .6 1.2.3.2.5.3.9.3.3 0 .6-.1.9-.3.2-.2.4-.6.6-1.1.2-.7.3-1.8.3-3.5 0-1.6-.1-2.8-.2-3.4-.2-.6-.4-1-.6-1.2-.3-.1-.5-.2-.9-.2"/><path clip-path="url(#a)" d="m127.3 196.8c1.4 0 2.4.5 3.2 1.5.9 1.1 1.4 3 1.4 5.7 0 2.6-.5 4.5-1.4 5.7-.7 1-1.8 1.4-3.1 1.4-1.4 0-2.4-.5-3.3-1.6-.8-1-1.2-2.9-1.2-5.6 0-2.6.5-4.5 1.4-5.6.6-1 1.6-1.5 3-1.5m0 2.3c-.3 0-.6.1-.9.3s-.4.6-.6 1.1c-.2.7-.3 1.9-.3 3.5s.1 2.8.2 3.3c.2.6.4 1 .6 1.2.3.2.5.3.9.3.3 0 .6-.1.9-.3s.5-.6.6-1.1c.2-.7.3-1.8.3-3.5 0-1.6-.1-2.8-.3-3.4s-.4-1-.6-1.2c-.2-.1-.5-.2-.8-.2"/><path clip-path="url(#a)" d="m38.4 230.3h-2.7v-10.1c-1 .9-2.1 1.6-3.5 2v-2.4c.7-.2 1.5-.7 2.3-1.3s1.4-1.4 1.7-2.2h2.2z"/><path clip-path="url(#a)" d="m52.5 216.3c1.3 0 2.4.5 3.2 1.5.9 1.1 1.4 3 1.4 5.7s-.5 4.6-1.4 5.7c-.7.9-1.8 1.4-3.2 1.4s-2.4-.5-3.3-1.6c-.8-1-1.2-2.9-1.2-5.6 0-2.6.5-4.5 1.4-5.7.7-.9 1.8-1.4 3.1-1.4m0 2.3c-.3 0-.6.1-.9.3s-.5.6-.6 1.1c-.2.7-.3 1.9-.3 3.5 0 1.7.1 2.8.3 3.4s.4 1 .6 1.2c.3.2.5.3.9.3.3 0 .6-.1.9-.3s.5-.6.6-1.1c.2-.7.3-1.8.3-3.5 0-1.6-.1-2.7-.2-3.4-.2-.6-.4-1-.6-1.2-.4-.3-.6-.3-1-.3"/><path clip-path="url(#a)" d="m58.8 226.6 2.6-.3c.1.6.3 1.2.7 1.5s.8.5 1.3.5c.6 0 1-.2 1.4-.6s.6-1 .6-1.7-.2-1.2-.5-1.6c-.4-.4-.8-.6-1.3-.6-.4 0-.8.1-1.2.2l.3-2.2c.7 0 1.3-.1 1.7-.5.4-.3.6-.8.6-1.3s-.1-.8-.4-1.1-.7-.4-1.1-.4-.8.2-1.2.5c-.3.3-.5.8-.6 1.4l-2.7-.4c.2-.8.4-1.5.8-2 .3-.5.8-.9 1.4-1.2s1.3-.4 2.1-.4c1.3 0 2.4.4 3.2 1.3.7.7 1 1.5 1 2.3 0 1.2-.7 2.2-2 2.9.8.2 1.5.6 1.9 1.2.5.6.7 1.3.7 2.2 0 1.2-.4 2.3-1.3 3.1-.9.9-2 1.3-3.3 1.3s-2.3-.4-3.1-1.1c-1-.9-1.5-1.8-1.6-3"/><path clip-path="url(#a)" d="m69.6 226.6 2.6-.3c.1.6.3 1.2.7 1.5s.8.5 1.3.5c.6 0 1-.2 1.4-.6s.6-1 .6-1.7-.2-1.2-.5-1.6c-.4-.4-.8-.6-1.3-.6-.4 0-.8.1-1.2.2l.3-2.2c.7 0 1.3-.1 1.7-.5.4-.3.6-.8.6-1.3s-.1-.8-.4-1.1-.6-.4-1.1-.4-.8.2-1.2.5c-.3.3-.5.8-.6 1.4l-2.5-.4c.2-.8.4-1.5.8-2s.8-.9 1.5-1.2c.6-.3 1.3-.4 2.1-.4 1.3 0 2.4.4 3.2 1.3.7.7 1 1.5 1 2.3 0 1.2-.7 2.2-2 2.9.8.2 1.4.6 1.9 1.2s.7 1.3.7 2.2c0 1.2-.4 2.3-1.3 3.1-.9.9-2 1.3-3.3 1.3s-2.3-.4-3.1-1.1c-1.3-.9-1.8-1.8-1.9-3"/><path clip-path="url(#a)" d="m80.8 223.9h5.2v2.7h-5.2z"/><path clip-path="url(#a)" d="m93.8 230.3h-2.7v-10.1c-1 .9-2.1 1.6-3.4 2v-2.4c.7-.2 1.4-.7 2.3-1.3.8-.6 1.4-1.4 1.7-2.2h2.2v14z"/><path clip-path="url(#a)" d="m106.8 227.8v2.5h-9.4c.1-.9.4-1.8.9-2.7.5-.8 1.5-2 3-3.3 1.2-1.1 1.9-1.9 2.2-2.3.4-.5.5-1.1.5-1.6 0-.6-.2-1.1-.5-1.4s-.8-.5-1.3-.5c-.6 0-1 .2-1.3.5s-.5.9-.6 1.7l-2.7-.3c.2-1.5.7-2.5 1.5-3.2.8-.6 1.9-1 3.1-1 1.4 0 2.5.4 3.3 1.1s1.2 1.7 1.2 2.8c0 .6-.1 1.2-.3 1.8s-.6 1.2-1.1 1.8c-.3.4-.9 1-1.8 1.8-.8.8-1.4 1.3-1.6 1.5s-.4.5-.6.7h5.5z"/><path clip-path="url(#a)" d="m107.8 230.6 3.5-14.5h2l-3.5 14.5z"/><path clip-path="url(#a)" d="m123.1 227.8v2.5h-9.4c.1-.9.4-1.8.9-2.7.5-.8 1.5-2 3-3.3 1.2-1.1 1.9-1.9 2.2-2.3.4-.5.5-1.1.5-1.6 0-.6-.2-1.1-.5-1.4s-.8-.5-1.3-.5c-.6 0-1 .2-1.3.5s-.5.9-.6 1.7l-2.7-.3c.2-1.5.7-2.5 1.5-3.2.8-.6 1.9-1 3.1-1 1.4 0 2.4.4 3.2 1.1s1.2 1.7 1.2 2.8c0 .6-.1 1.2-.3 1.8s-.6 1.2-1.1 1.8c-.3.4-.9 1-1.8 1.8-.8.8-1.4 1.3-1.6 1.5s-.4.5-.5.7h5.5z"/><path clip-path="url(#a)" d="m129.4 216.3c1.4 0 2.4.5 3.2 1.5.9 1.1 1.4 3 1.4 5.7s-.4 4.6-1.4 5.7c-.8.9-1.8 1.4-3.2 1.4s-2.4-.5-3.3-1.6c-.8-1-1.2-2.9-1.2-5.6 0-2.6.5-4.5 1.4-5.7.7-.9 1.8-1.4 3.1-1.4m0 2.3c-.3 0-.6.1-.9.3s-.5.6-.6 1.1c-.2.7-.3 1.9-.3 3.5 0 1.7.1 2.8.2 3.4.2.6.4 1 .6 1.2.3.2.5.3.9.3.3 0 .6-.1.9-.3.2-.2.4-.6.6-1.1.2-.7.3-1.8.3-3.5 0-1.6-.1-2.7-.2-3.4-.2-.6-.4-1-.6-1.2-.3-.3-.6-.3-.9-.3"/><path clip-path="url(#a)" d="m140.3 216.3c1.3 0 2.4.5 3.2 1.5.9 1.1 1.4 3 1.4 5.7s-.5 4.6-1.4 5.7c-.7.9-1.8 1.4-3.1 1.4-1.4 0-2.4-.5-3.3-1.6-.8-1-1.2-2.9-1.2-5.6 0-2.6.5-4.5 1.4-5.7.5-.9 1.6-1.4 3-1.4m0 2.3c-.3 0-.6.1-.9.3s-.5.6-.6 1.1c-.2.7-.3 1.9-.3 3.5 0 1.7.1 2.8.3 3.4s.4 1 .6 1.2c.3.2.5.3.9.3.3 0 .6-.1.9-.3s.5-.6.6-1.1c.2-.7.3-1.8.3-3.5 0-1.6-.1-2.7-.2-3.4-.2-.6-.4-1-.6-1.2-.4-.3-.7-.3-1-.3"/><path clip-path="url(#a)" d="m146.5 226.6 2.6-.3c.1.6.3 1.2.6 1.5.4.3.8.5 1.3.5.6 0 1-.2 1.4-.6s.6-1 .6-1.7-.2-1.2-.6-1.6c-.3-.4-.8-.6-1.3-.6-.3 0-.7.1-1.2.2l.3-2.2c.7 0 1.3-.1 1.6-.5.4-.3.6-.8.6-1.3s-.1-.8-.4-1.1-.6-.4-1.1-.4-.8.2-1.2.5c-.3.3-.5.8-.6 1.4l-2.5-.4c.2-.8.4-1.5.8-2s.8-.9 1.5-1.2c.6-.3 1.3-.4 2.1-.4 1.3 0 2.4.4 3.2 1.3.6.7 1 1.5 1 2.3 0 1.2-.7 2.2-2 2.9.8.2 1.4.6 1.9 1.2s.7 1.3.7 2.2c0 1.2-.4 2.3-1.3 3.1-.9.9-2 1.3-3.3 1.3s-2.3-.4-3.1-1.1c-1-.9-1.5-1.8-1.6-3"/></g></svg>