<svg enable-background="new 0 0 188 226.4" viewBox="0 0 188 226.4" xmlns="http://www.w3.org/2000/svg" xmlns:xlink="http://www.w3.org/1999/xlink"><clipPath id="a"><path d="m14 25.8h160v190.5h-160z"/></clipPath><g fill="#2d2524"><path clip-path="url(#a)" d="m31.1 155c-1.7-2.1-1.4-4.1-1.4-4.1l1.4-.1s-.1 1.8 1.1 3.3c1.6 2 4.1 2 6 .5s2.4-4.1.8-6c-1.3-1.6-3.3-1.8-3.3-1.8l.4-1.4s2.4.1 4.1 2.3c2.1 2.6 1.6 6.1-1 8.1s-6.1 1.7-8.1-.8"/><path clip-path="url(#a)" d="m25.1 146.1-3.1-5.7 1.2-.6 2.4 4.3 3.1-1.7-2-3.5 1.3-.6 1.9 3.5 3.2-1.7-2.5-4.6 1.2-.7 3.2 6z"/><path clip-path="url(#a)" d="m23.2 129c-.4-1.2-1.4-1.6-2.6-1.2-.8.3-1.2.8-1.4 1.4-.1.3 0 .7.3 1.5l.6 1.7 3.8-1.3zm-3.9 5.4-1.1-3.2c-.4-1.1-.4-1.6-.4-2.1 0-1.2.9-2.3 2.3-2.8s2.8-.1 3.5.9.1-.2.4-.5l3.4-3.6.6 1.7-3.5 3.7.8 2.3 4.2-1.4.5 1.5z"/><path clip-path="url(#a)" d="m16.5 119 .7 3.8-1.4.3-1.5-9.2 1.4-.2.6 3.8 9.7-1.6.3 1.5z"/><path clip-path="url(#a)" d="m14 106.9h11.2v1.6h-11.2z" transform="matrix(.9995 -.03026691 .03026691 .9995 -3.2501 .6439)"/><path clip-path="url(#a)" d="m14.2 99.5.6-6.1 1.4.1-.5 4.6 3.7.4.4-3.9 1.3.1-.4 3.9 4.8.6-.2 1.5z"/><path clip-path="url(#a)" d="m20.8 82.7h1.6v11.2h-1.6z" transform="matrix(.2305 -.9731 .9731 .2305 -69.314 88.9786)"/><path clip-path="url(#a)" d="m18.2 79.8 2.3-6.1 1.3.5-1.8 4.6 3.3 1.3 1.4-3.8 1.3.5-1.4 3.8 3.3 1.2 1.9-4.8 1.3.5-2.4 6.3z"/><path clip-path="url(#a)" d="m33.7 69.7c1.3-2.2.9-4.3-1.5-5.8-2.3-1.4-4.5-.8-5.8 1.4l-1 1.7 7.3 4.4zm-10.3-2 1.9-3.2c1.8-2.9 4.7-3.8 7.8-1.9 3 1.9 3.6 4.9 1.8 7.8l-1.9 3.1z"/><path clip-path="url(#a)" d="m42.4 56.4s1.7 0 2.9-1.1c.8-.7 1-1.8.2-2.5-1.7-1.7-5.2 2.4-7.6-.1-1.2-1.3-1.1-3.3.4-4.8 1.5-1.4 3.1-1.4 3.1-1.4l.4 1.4s-1.4 0-2.4 1c-.9.8-.9 2-.3 2.6 1.6 1.7 5.1-2.6 7.6.1 1.2 1.2 1.2 3.2-.4 4.7-1.7 1.7-3.7 1.5-3.7 1.5z"/><path clip-path="url(#a)" d="m45.7 41.7 1.3-.9 4.1 6c1 1.4 2.4 1.6 3.9.7 1.4-1 1.8-2.4.8-3.9l-4-6 1.3-.9 4.1 6c1.4 2.1.8 4.4-1.3 5.9-2.2 1.5-4.6 1.1-6-1z"/><path clip-path="url(#a)" d="m62.8 41.6s1.6.6 3.1 0c1-.4 1.5-1.3 1.1-2.3-1-2.2-5.8.4-7.1-2.7-.7-1.6.1-3.5 2.1-4.3 1.9-.8 3.4-.2 3.4-.2l-.1 1.5s-1.3-.5-2.7.1c-1.2.3-1.6 1.3-1.3 2.1.9 2.1 5.7-.6 7.1 2.7.7 1.6 0 3.4-2 4.3-2.2 1-4 .1-4 .1z"/><path clip-path="url(#a)" d="m73.7 29.7-3.7 1-.4-1.3 9-2.3.4 1.3-3.8 1 2.5 9.5-1.6.4z"/><path clip-path="url(#a)" d="m86.5 27.7s-.2 1-.3 1.6l-.9 3.7 3.4-.3-1.6-3.4c-.3-.7-.6-1.7-.6-1.6zm2.7 6.2-4.2.4-.8 3.3-1.6.2 3-11.5 1.6-.2 5.1 10.8-1.7.1z"/><path clip-path="url(#a)" d="m91.5 30.6h11.2v1.6h-11.2z" transform="matrix(.04036864 -.9992 .9992 .04036864 61.802 127.2111)"/><path clip-path="url(#a)" d="m105 26.4 1.5.3 3.5 8.1c.3.7.6 1.8.6 1.8s.1-1 .2-1.6l1.4-7.1 1.5.3-2.2 11-1.5-.3-3.5-8.1c-.3-.7-.6-1.8-.6-1.8s-.1 1-.2 1.6l-1.4 7.1-1.5-.3z"/><path clip-path="url(#a)" d="m123.4 33s-.6.8-1 1.3l-2.5 2.8 3.2 1.3.2-3.8c0-.5.1-1.6.1-1.6zm-.5 6.8-3.9-1.6-2.3 2.6-1.5-.6 8-8.9 1.5.6-.5 11.9-1.5-.6z"/><path clip-path="url(#a)" d="m134.4 42.2c.9.5 1.8.3 2.3-.6.5-.8.4-1.7-.5-2.3l-2-1.2-1.8 2.8zm-2.6 4.4c1 .6 2 .4 2.6-.6s.4-2-.6-2.7l-2.1-1.3-2 3.2zm1.8-10.5 3.3 2.1c1.6 1 2.2 2.6 1.2 4.1-.6.9-1.5 1.4-2.5 1.3.8.9.8 2.2.1 3.3-1.1 1.8-3.1 1.8-4.8.8l-3.4-2.1z"/><path clip-path="url(#a)" d="m145.1 44.2 1.2 1-6.6 7.3 3.8 3.4-1 1-4.9-4.4z"/><path clip-path="url(#a)" d="m153.8 52.6 4.2 5-1.1.9-3.1-3.9-2.8 2.3 2.6 3.1-1.1.8-2.5-3.1-2.8 2.3 3.3 4-1.1.9-4.3-5.2z"/><path clip-path="url(#a)" d="m161.6 75.1c.6 1.2 1.7 1.6 2.9 1.1 1.2-.6 1.6-1.6 1-2.9l-1-2.1-4 1.8zm3.6-5.9 1.7 3.7c.9 1.9.2 3.8-1.7 4.7s-3.9.1-4.7-1.7l-1.1-2.3-3.8 1.7-.7-1.4z"/><path clip-path="url(#a)" d="m169.5 84.7s-1 0-1.7 0l-3.8-.3.9 3.3 3.1-2.1c.6-.4 1.6-.9 1.5-.9zm-5.6 3.8-1.1-4.1-3.4-.2-.4-1.6 11.9.9.4 1.6-9.8 6.9-.4-1.6z"/><path clip-path="url(#a)" d="m173.2 95 .2 1.6-9.8.9.5 5-1.4.1-.7-6.5z"/><path clip-path="url(#a)" d="m174 107.2-.1 1.6-6.3 2.1c-.6.2-1.6.4-1.6.4s.9.4 1.5.7l5.9 3.1-.1 1.6h-11.3l.1-1.5h7.1c.7 0 1.7.1 1.7.1s-1-.4-1.6-.7l-4.9-2.6.1-1.4 5.2-1.8c.6-.2 1.7-.5 1.7-.5s-1-.1-1.7-.2l-7-1.1.1-1.6z"/><path clip-path="url(#a)" d="m159 131.1c-.8 2.1.3 4.5 2.6 5.5 2.3.9 4.7-.1 5.5-2.3.8-2.1-.2-4.5-2.5-5.4s-4.8.1-5.6 2.2m9.4 3.8c-1.2 3-4.4 4.4-7.5 3.2s-4.6-4.5-3.4-7.5 4.5-4.4 7.6-3.2 4.5 4.5 3.3 7.5"/><path clip-path="url(#a)" d="m163 145.5-.8 1.4-9.6-5.8.8-1.3z"/><path clip-path="url(#a)" d="m158 153.2-1 1.2-7.7-6.2-3.1 3.9-1.1-.8 4.1-5.2z"/></g><path clip-path="url(#a)" d="m69.8 174.5c1.2.4 2.1 0 2.5-1.2.4-1.1.2-1.9-1.6-2.6l-1.2-.4-1.3 3.6zm-2.9-8.6 5.2 1.8c1.5.5 2.2.9 2.8 1.4 1.5 1.2 2 3.1 1.3 5.3-.5 1.6-1.9 3.1-3.7 3.3s.1.3.3 1.1l1.1 6.2-4.1-1.4-.9-6-1.7-.6-1.7 5-3.7-1.3z" fill="#ef982b"/><path clip-path="url(#a)" d="m81.1 181.3s1.6 1.8 3.6 2.1c.8.1 1.7-.1 1.8-1.1.2-1.9-6.9-2.6-6.3-7.5.3-2.9 3-4.5 6.1-4.2 3.4.4 4.9 2.4 4.9 2.4l-2 3s-1.4-1.6-3.3-1.8c-.8-.1-1.7.2-1.8 1-.2 2 6.9 2.5 6.3 7.4-.3 2.6-2.6 4.6-6.1 4.2-3.7-.4-5.5-2.9-5.5-2.9z" fill="#ef982b"/><path clip-path="url(#a)" d="m101.3 178.6c1.3-.1 1.9-1.1 1.8-2.3-.1-1.3-.9-2.1-2.1-1.9l-2 .2.4 4.3zm-6.4-7 6.6-.6c3.1-.3 5.4 1.8 5.6 5 .3 3.2-1.6 5.7-4.7 5.9l-2.7.2.4 4.9-3.9.4z" fill="#ef982b"/><path clip-path="url(#a)" d="m119.4 179.7c2.2-.8 3.4-3.3 2.5-5.9-.8-2.4-3.3-3.7-5.5-2.9-2.3.8-3.4 3.2-2.6 5.7.9 2.6 3.4 3.9 5.6 3.1m-4.1-12.1c4.5-1.5 9 .7 10.5 5 1.5 4.4-.6 9-5.2 10.5-4.5 1.5-9-.8-10.5-5.1-1.5-4.4.6-8.9 5.2-10.4" fill="#ef982b"/><path clip-path="url(#a)" d="m52.9 166.9-4.1.6-.7-4 4.1-.7z" fill="#ef982b"/><path clip-path="url(#a)" d="m136.3 162.3h4.1v4.1h-4.1z" fill="#ef982b" transform="matrix(.1378 -.9905 .9905 .1378 -43.5368 278.8127)"/><path clip-path="url(#a)" d="m148.8 92.1c-1.5-5.6-3.8-10.1-7-13.8-.7-.8-1.2-1.7-1.9-2.4-5.7-5.5-13.2-9.5-21.3-12.1 7.2.3 13.3 1.7 17.3 5.1 1.6 1.4 2.1 3.5 3.8 4.9-.2-1.4-1-2.6-1.8-3.6-.7-1-1.7-2-2.5-2.9-5.3-5.7-12.1-9.5-22.2-10 2-.6 3.3-1.3 5.3-1.1 2.1.2 4.8 2.1 4.8 2.1.1 0 0-.5-.5-.9-.9-.8-1.5-1.1-1.5-1.1-1.8-1.2-3.4-1.9-4.6-2.4-3.4-1.4-7.3-2.1-11.2-1-.4.1-.7.2-1.1.4l.1-.2c.4-.7.9-1.4 1.5-1.9.1-.1.6-.3.4-.5-2.2-.4-6.2-1.6-8.8-1.2-1.7.3-2.3 1.5-3.3 2.4-.8-1.2-1.9-2.4-3.6-2.5-2.2-.2-5.4.5-7.4 1.1 0 0-.7.2-.9.2l-.2.1.2.1c.1 0 .5.2.7.4.6.5 1.1 1.3 1.2 1.9-7.9-1.7-12.9.6-17.1 3-.5.3-.9.5-1.7 1.4-.1.1-.2.4-.2.6 0 .1 3.3-2.1 5.5-2.1 2.6 0 5 1.3 5 1.3-7.1 0-12.9 1.8-17.3 4.9-3.6 2.5-7.3 6-9.4 9.9-.3.5-1 1.2-.5 1.9 1.6-1.8 2.3-3.9 4.1-5.5 4.2-3.7 10.8-5 18.5-4.7-14.4 4.2-26 11.8-31 25.2-1.7 4.5-3.2 9.7-2.6 15.8.5-.3.4-1 .5-1.5.3-1.8.3-3.7.6-5.4 1.2-7.3 4.5-11.5 9-15.3 5.7-4.9 13.1-8.6 21.4-11-8.3 5.7-16.1 12.5-21.9 21-5.7 8.3-10 19.3-8.5 33.6.7-.4.5-1.3.6-1.9.2-.8.3-1.5.4-2.2 1.7-10 6.4-17.9 11.8-24.2 6.3-7.4 13.8-13.7 22.2-19-6.3 8.4-12.4 18.1-16.8 28.9-3.6 8.9-6.9 22.2-5.4 34.9.2 1.6.1 3.6 1.3 4.5 1-1.1 1.3-2.8 1.6-4.1.4-1.6.6-4.2 1-5.7 4.6-18.1 13-33.3 22.3-46.7 1.5-2.2 3.1-4.4 4.9-6.4-2.6 11-5.2 23.4-6.5 36.1-1.1 10.9-1.5 25.4.6 35.3.3 1.3.3 3 1.6 3.7 1.9-2.2 2.1-5.8 2.7-8.6 4.5-21.6 7.9-44.1 13.3-64.5 4 17.5 7.1 36.7 10.1 55.4.8 4.7 1.3 9.6 2.4 14 .3 1.3.4 3 1.8 3.7 1.1-.8 1.3-2.3 1.6-3.6 1.1-4.3 1.5-9.2 1.8-14.2 1.2-21-2.6-40.4-6-57.3 10.9 15.3 21.3 32.4 25.9 53.9.5 2.4.8 5 1.4 7.2.2.6.4 1.6 1.1 1.7 1.5-2.7 1.5-6.3 1.6-9.7.5-11.2-1.9-21.1-4.9-28.9-2.1-5.4-4.5-10.6-7.3-15.5-2.8-5-5.9-9.5-8.8-13.8 8.1 5.5 15.3 11.9 21.4 19.3 3 3.7 5.9 7.7 7.9 12.5s3.1 8.9 3.8 15.1c.8-.4.6-1.6.7-2.3 1.2-13.8-3-23.3-8.3-31.1-6-8.8-14-15.9-22.3-21.6 8.3 2.4 16 5.8 21.8 10.7 2.9 2.5 5.5 5.4 7.1 9.1 1.5 3.5 1.6 7.7 2.1 12.1.1.5 0 1.3.5 1.6 1-5 .1-8.9-.9-12.6" fill="#41973e"/><path clip-path="url(#a)" d="m158.9 28h-2.6v-1.3h6.8v1.3h-2.7v6.8h-1.5z" fill="#2d2524"/><path clip-path="url(#a)" d="m164.5 26.7h1.6l1.6 4c.2.5.4 1.2.4 1.2s.2-.7.4-1.2l1.6-4h1.6l.7 8.1h-1.5l-.3-4.5c0-.5 0-1.3 0-1.3s-.2.8-.4 1.3l-1.3 3.1h-1.3l-1.3-3.1c-.2-.5-.4-1.3-.4-1.3v1.3l-.3 4.5h-1.5z" fill="#2d2524"/><path clip-path="url(#a)" d="m23.2 208.6c0 .6 0 1.2-.1 1.8s-.2 1.2-.4 1.8-.4 1.1-.7 1.6-.7.9-1.1 1.3-1 .7-1.6.9-1.3.3-2.1.3c-.3 0-.6 0-.9-.1-.3 0-.6-.1-.8-.1-.2-.1-.4-.1-.6-.2s-.3-.1-.3-.2c-.1-.1-.1-.2-.2-.3 0-.1 0-.3 0-.4 0-.2 0-.3 0-.4s0-.2 0-.2c0-.1.1-.1.1-.1h.1c.1 0 .2 0 .3.1s.3.1.5.2.5.1.8.2.6.1 1 .1c.7 0 1.3-.1 1.8-.4s.9-.6 1.2-1.1.6-1 .7-1.6c.2-.6.2-1.2.3-1.9-.4.2-.8.4-1.4.6s-1.1.3-1.8.3c-.8 0-1.4-.1-2-.3s-1-.5-1.3-.9-.6-.8-.7-1.3-.2-1.1-.2-1.7.1-1.2.3-1.8.5-1 .8-1.5c.4-.4.9-.8 1.5-1 .6-.3 1.3-.4 2.1-.4.6 0 1.1.1 1.5.2.5.1.8.4 1.2.6.3.3.6.6.8 1s.4.8.6 1.3c.1.5.2 1 .3 1.6.3.7.3 1.3.3 2m-1.9-.2c0-.9-.1-1.7-.2-2.3s-.3-1.1-.5-1.5-.5-.7-.9-.8-.7-.3-1.2-.3-.9.1-1.2.3-.6.4-.8.7-.4.6-.5 1-.2.7-.2 1.1 0 .8.1 1.2.2.7.4.9.5.4.8.6c.3.1.7.2 1.2.2s1.1-.1 1.6-.2c.6-.4 1-.7 1.4-.9"/><path clip-path="url(#a)" d="m30.4 210.7c0 .3 0 .5-.1.6s-.2.2-.3.2h-4.5c-.1 0-.2-.1-.3-.2s-.1-.3-.1-.6 0-.5.1-.6.2-.2.3-.2h4.5.2s.1.1.1.1c0 .1.1.1.1.2-.1.2 0 .3 0 .5"/><path clip-path="url(#a)" d="m41 212.1c0 .6-.1 1.2-.3 1.7s-.5 1-1 1.3c-.4.4-.9.6-1.5.8s-1.3.3-2.1.3c-.5 0-.9 0-1.3-.1s-.8-.2-1.1-.3-.6-.2-.8-.3-.3-.2-.4-.2c-.1-.1-.1-.1-.1-.2s-.1-.1-.1-.2 0-.2 0-.3 0-.2 0-.4c0-.3 0-.4.1-.5s.1-.2.2-.2.2.1.4.2l.8.4c.3.1.7.3 1.1.4s.9.2 1.4.2.9-.1 1.3-.2.7-.3.9-.5c.3-.2.4-.5.6-.8.1-.3.2-.6.2-1s-.1-.8-.2-1.1c-.2-.3-.4-.6-.7-.8s-.7-.4-1.1-.5-1-.2-1.5-.2h-1.4c-.1 0-.1 0-.2 0s-.1-.1-.1-.1c0-.1-.1-.1-.1-.2s0-.2 0-.4c0-.1 0-.3 0-.3 0-.1.1-.2.1-.2 0-.1.1-.1.1-.1h.2 1.2c.5 0 .9-.1 1.3-.2s.7-.3 1-.5.5-.5.6-.8.2-.7.2-1.1c0-.3 0-.6-.1-.8-.1-.3-.2-.5-.4-.7s-.4-.3-.7-.5c-.3-.1-.6-.2-1-.2s-.8.1-1.2.2c-.3.1-.7.3-.9.4-.3.1-.5.3-.7.4s-.3.2-.4.2-.1 0-.1 0-.1-.1-.1-.1c0-.1 0-.1-.1-.2 0-.1 0-.2 0-.4 0-.1 0-.2 0-.3s0-.2 0-.2c0-.1 0-.1.1-.2 0-.1.1-.1.1-.2.1-.1.2-.2.4-.3s.5-.3.8-.4.7-.2 1.1-.3.8-.1 1.3-.1c.6 0 1.2.1 1.7.2.5.2.9.4 1.2.7s.6.7.7 1.1c.2.4.2.9.2 1.4 0 .4-.1.8-.2 1.2s-.3.7-.5 1-.5.5-.8.7-.7.3-1.1.4c.5.1.9.2 1.3.4s.7.4 1 .7.5.6.7 1c-.1.5 0 .9 0 1.3"/><path clip-path="url(#a)" d="m52.8 209.1c0 1.1-.1 2.1-.3 2.9-.2.9-.5 1.6-.8 2.3-.4.6-.9 1.1-1.5 1.5-.6.3-1.4.5-2.3.5s-1.6-.2-2.2-.5-1.1-.8-1.5-1.4-.6-1.4-.8-2.2c-.2-.9-.2-1.9-.2-3.1 0-1.1.1-2 .3-2.9s.5-1.7.8-2.3c.4-.6.9-1.1 1.5-1.5.6-.3 1.4-.5 2.3-.5s1.6.2 2.2.5 1.1.8 1.5 1.4.6 1.4.8 2.2c.1.9.2 1.9.2 3.1m-1.9.1c0-.7 0-1.3-.1-1.9s-.1-1-.2-1.5-.2-.8-.4-1.1-.3-.6-.6-.8c-.2-.2-.5-.3-.7-.4-.3-.1-.6-.1-.9-.1-.6 0-1.1.1-1.5.4s-.7.7-.9 1.2-.4 1.1-.4 1.8c-.1.7-.1 1.4-.1 2.2 0 1 .1 1.9.2 2.7.1.7.3 1.3.5 1.8s.5.8.9 1 .8.3 1.3.3c.4 0 .8-.1 1.1-.2s.6-.3.8-.6c.2-.2.4-.5.5-.9.1-.3.3-.7.3-1.1.1-.4.1-.9.2-1.3s0-1 0-1.5"/><path clip-path="url(#a)" d="m64 209.1c0 1.1-.1 2.1-.3 2.9-.2.9-.5 1.6-.8 2.3-.4.6-.9 1.1-1.5 1.5-.6.3-1.4.5-2.3.5s-1.6-.2-2.2-.5-1.1-.8-1.5-1.4-.6-1.4-.8-2.2c-.2-.9-.2-1.9-.2-3.1 0-1.1.1-2 .3-2.9s.5-1.7.8-2.3c.4-.6.9-1.1 1.5-1.5.6-.3 1.4-.5 2.3-.5s1.6.2 2.2.5 1.1.8 1.5 1.4.6 1.4.8 2.2c.1.9.2 1.9.2 3.1m-1.9.1c0-.7 0-1.3-.1-1.9s-.1-1-.2-1.5-.2-.8-.4-1.1-.3-.6-.6-.8c-.2-.2-.5-.3-.7-.4-.3-.1-.6-.1-.9-.1-.6 0-1.1.1-1.5.4s-.7.7-.9 1.2-.4 1.1-.4 1.8c-.1.7-.1 1.4-.1 2.2 0 1 .1 1.9.2 2.7.1.7.3 1.3.5 1.8s.5.8.9 1 .8.3 1.3.3c.4 0 .8-.1 1.1-.2s.6-.3.8-.6c.2-.2.4-.5.5-.9.1-.3.3-.7.3-1.1.1-.4.1-.9.2-1.3 0-.5 0-1 0-1.5"/><path clip-path="url(#a)" d="m74.9 202.9v.4.3c0 .1 0 .2-.1.3 0 .1-.1.2-.1.3l-5 11.6c0 .1-.1.2-.1.2-.1.1-.1.1-.2.1s-.2.1-.3.1-.3 0-.5 0-.4 0-.6 0c-.1 0-.2-.1-.3-.1s-.1-.1-.1-.2 0-.1.1-.2l5.3-11.9h-6.7c-.1 0-.2-.1-.3-.2s-.1-.3-.1-.6c0-.1 0-.3 0-.4s0-.2.1-.3c0-.1.1-.1.1-.2h.2 8.1.3c.1 0 .1.1.2.1 0 .1.1.1.1.2-.1.3-.1.4-.1.5"/><path clip-path="url(#a)" d="m82 210.7c0 .3 0 .5-.1.6s-.2.2-.3.2h-4.5c-.1 0-.2-.1-.3-.2s-.1-.3-.1-.6 0-.5.1-.6.2-.2.3-.2h4.5.2s.1.1.1.1c0 .1.1.1.1.2z"/><path clip-path="url(#a)" d="m92.7 215.4v.3c0 .1-.1.2-.1.2 0 .1-.1.1-.1.1h-.1-7.3c-.1 0-.1 0-.1 0s-.1-.1-.1-.1c0-.1-.1-.1-.1-.2s0-.2 0-.3 0-.2 0-.3 0-.2.1-.2c0-.1.1-.1.1-.1h.2 2.8v-10.8l-2.7 1.6c-.1.1-.2.1-.3.1s-.1 0-.2 0-.1-.1-.1-.2 0-.2 0-.4c0-.1 0-.2 0-.3s0-.2 0-.2c0-.1.1-.1.1-.2s.1-.1.2-.1l3.2-2.1s.1 0 .1-.1h.2.2.3.4c.1 0 .2 0 .3.1.1 0 .1.1.1.1v.1 12.3h2.5.2c.1 0 .1.1.1.1s.1.1.1.2z"/><path clip-path="url(#a)" d="m104 208.6c0 .6 0 1.2-.1 1.8s-.2 1.2-.4 1.8-.4 1.1-.7 1.6-.7.9-1.1 1.3-1 .7-1.6.9-1.3.3-2.1.3c-.3 0-.6 0-.9-.1-.3 0-.6-.1-.8-.1-.2-.1-.4-.1-.6-.2s-.3-.1-.3-.2c-.1-.1-.1-.2-.2-.3 0-.1 0-.3 0-.4 0-.2 0-.3 0-.4s0-.2 0-.2c0-.1.1-.1.1-.1h.1c.1 0 .2 0 .3.1s.3.1.5.2.5.1.8.2.6.1 1 .1c.7 0 1.3-.1 1.8-.4s.9-.6 1.2-1.1.6-1 .7-1.6c.2-.6.2-1.2.3-1.9-.4.2-.8.4-1.4.6-.5.2-1.1.3-1.8.3-.8 0-1.4-.1-2-.3s-1-.5-1.3-.9-.6-.8-.7-1.3-.2-1.1-.2-1.7.1-1.2.3-1.8.5-1 .8-1.5c.4-.4.9-.8 1.5-1 .6-.3 1.3-.4 2.1-.4.6 0 1.1.1 1.5.2.5.1.8.4 1.2.6.3.3.6.6.8 1s.4.8.6 1.3c.1.5.2 1 .3 1.6.3.7.3 1.3.3 2m-1.9-.2c0-.9-.1-1.7-.2-2.3s-.3-1.1-.5-1.5-.5-.7-.9-.8c-.3-.2-.7-.3-1.2-.3s-.9.1-1.2.3-.6.4-.8.7-.4.6-.5 1-.2.7-.2 1.1 0 .8.1 1.2.2.7.4.9.5.4.8.6c.3.1.7.2 1.2.2s1.1-.1 1.6-.2c.6-.4 1.1-.7 1.4-.9"/><path clip-path="url(#a)" d="m111.2 210.7c0 .3 0 .5-.1.6s-.2.2-.3.2h-4.5c-.1 0-.2-.1-.3-.2s-.1-.3-.1-.6 0-.5.1-.6.2-.2.3-.2h4.5.2s.1.1.1.1c0 .1.1.1.1.2z"/><path clip-path="url(#a)" d="m121.9 215.4v.3c0 .1-.1.2-.1.2 0 .1-.1.1-.1.1h-.1-7.3c-.1 0-.1 0-.1 0s-.1-.1-.1-.1c0-.1-.1-.1-.1-.2s0-.2 0-.3 0-.2 0-.3 0-.2.1-.2c0-.1.1-.1.1-.1h.2 2.9v-10.8l-2.7 1.6c-.1.1-.2.1-.3.1s-.1 0-.2 0-.1-.1-.1-.2 0-.2 0-.4c0-.1 0-.2 0-.3s0-.2 0-.2c0-.1.1-.1.1-.2s.1-.1.2-.1l3.2-2.1s.1 0 .1-.1h.2.2.3.4c.1 0 .2 0 .3.1.1 0 .1.1.1.1v.1 12.3h2.5.2c.1 0 .1.1.1.1 0 .1.1.1.1.2-.1.1-.1.3-.1.4"/><path clip-path="url(#a)" d="m133.6 209.1c0 1.1-.1 2.1-.3 2.9-.2.9-.5 1.6-.8 2.3-.4.6-.9 1.1-1.5 1.5-.6.3-1.4.5-2.3.5s-1.6-.2-2.2-.5-1.1-.8-1.5-1.4-.6-1.4-.8-2.2c-.2-.9-.2-1.9-.2-3.1 0-1.1.1-2 .3-2.9s.5-1.7.8-2.3c.4-.6.9-1.1 1.5-1.5.6-.3 1.4-.5 2.3-.5s1.6.2 2.2.5 1.1.8 1.5 1.4.6 1.4.8 2.2c.1.9.2 1.9.2 3.1m-1.9.1c0-.7 0-1.3-.1-1.9s-.1-1-.2-1.5c-.1-.4-.2-.8-.4-1.1s-.3-.6-.6-.8c-.2-.2-.5-.3-.7-.4s-.6-.1-.9-.1c-.6 0-1.1.1-1.5.4s-.7.7-.9 1.2-.4 1.1-.4 1.8c-.1.7-.1 1.4-.1 2.2 0 1 .1 1.9.2 2.7s.3 1.3.5 1.8.5.8.9 1 .8.3 1.3.3c.4 0 .8-.1 1.1-.2s.6-.3.8-.6c.2-.2.4-.5.5-.9.1-.3.3-.7.3-1.1.1-.4.1-.9.2-1.3 0-.5 0-1 0-1.5"/><path clip-path="url(#a)" d="m144.8 209.1c0 1.1-.1 2.1-.3 2.9-.2.9-.5 1.6-.8 2.3-.4.6-.9 1.1-1.5 1.5-.6.3-1.4.5-2.3.5s-1.6-.2-2.2-.5-1.1-.8-1.5-1.4-.6-1.4-.8-2.2c-.2-.9-.2-1.9-.2-3.1 0-1.1.1-2 .3-2.9s.5-1.7.8-2.3c.4-.6.9-1.1 1.5-1.5.6-.3 1.4-.5 2.3-.5s1.6.2 2.2.5 1.1.8 1.5 1.4.6 1.4.8 2.2c.1.9.2 1.9.2 3.1m-1.9.1c0-.7 0-1.3-.1-1.9s-.1-1-.2-1.5-.2-.8-.4-1.1-.3-.6-.6-.8c-.2-.2-.5-.3-.7-.4-.3-.1-.6-.1-.9-.1-.6 0-1.1.1-1.5.4s-.7.7-.9 1.2-.4 1.1-.4 1.8c-.1.7-.1 1.4-.1 2.2 0 1 .1 1.9.2 2.7.1.7.3 1.3.5 1.8s.5.8.9 1 .8.3 1.3.3c.4 0 .8-.1 1.1-.2s.6-.3.8-.6c.2-.2.4-.5.5-.9.1-.3.3-.7.3-1.1.1-.4.1-.9.2-1.3 0-.5 0-1 0-1.5"/><path clip-path="url(#a)" d="m151.6 210.7c0 .3 0 .5-.1.6s-.2.2-.3.2h-4.5c-.1 0-.2-.1-.3-.2s-.1-.3-.1-.6 0-.5.1-.6.2-.2.3-.2h4.5.2s.1.1.1.1c0 .1.1.1.1.2z"/><path clip-path="url(#a)" d="m162.8 209.1c0 1.1-.1 2.1-.3 2.9-.2.9-.5 1.6-.8 2.3-.4.6-.9 1.1-1.5 1.5-.6.3-1.4.5-2.3.5s-1.6-.2-2.2-.5-1.1-.8-1.5-1.4-.6-1.4-.8-2.2c-.2-.9-.2-1.9-.2-3.1 0-1.1.1-2 .3-2.9s.5-1.7.8-2.3c.4-.6.9-1.1 1.5-1.5.6-.3 1.4-.5 2.3-.5s1.6.2 2.2.5 1.1.8 1.5 1.4.6 1.4.8 2.2c.1.9.2 1.9.2 3.1m-1.9.1c0-.7 0-1.3-.1-1.9s-.1-1-.2-1.5c-.1-.4-.2-.8-.4-1.1s-.3-.6-.6-.8c-.2-.2-.5-.3-.7-.4-.3-.1-.6-.1-.9-.1-.6 0-1.1.1-1.5.4s-.7.7-.9 1.2-.4 1.1-.4 1.8c-.1.7-.1 1.4-.1 2.2 0 1 .1 1.9.2 2.7.1.7.3 1.3.5 1.8s.5.8.9 1 .8.3 1.3.3c.4 0 .8-.1 1.1-.2s.6-.3.8-.6c.2-.2.4-.5.5-.9.1-.3.3-.7.3-1.1.1-.4.1-.9.2-1.3s0-1 0-1.5"/><path clip-path="url(#a)" d="m174 209.1c0 1.1-.1 2.1-.3 2.9-.2.9-.5 1.6-.8 2.3-.4.6-.9 1.1-1.5 1.5-.6.3-1.4.5-2.3.5s-1.6-.2-2.2-.5-1.1-.8-1.5-1.4-.6-1.4-.8-2.2c-.2-.9-.2-1.9-.2-3.1 0-1.1.1-2 .3-2.9s.5-1.7.8-2.3c.4-.6.9-1.1 1.5-1.5.6-.3 1.4-.5 2.3-.5s1.6.2 2.2.5 1.1.8 1.5 1.4.6 1.4.8 2.2c.1.9.2 1.9.2 3.1m-1.9.1c0-.7 0-1.3-.1-1.9s-.1-1-.2-1.5c-.1-.4-.2-.8-.4-1.1s-.3-.6-.6-.8c-.2-.2-.5-.3-.7-.4-.3-.1-.6-.1-.9-.1-.6 0-1.1.1-1.5.4s-.7.7-.9 1.2-.4 1.1-.4 1.8c-.1.7-.1 1.4-.1 2.2 0 1 .1 1.9.2 2.7s.3 1.3.5 1.8.5.8.9 1 .8.3 1.3.3c.4 0 .8-.1 1.1-.2s.6-.3.8-.6c.2-.2.4-.5.5-.9.1-.3.3-.7.3-1.1.1-.4.1-.9.2-1.3 0-.5 0-1 0-1.5"/></svg>