<?xml version="1.0" encoding="UTF-8"?>
<svg xmlns="http://www.w3.org/2000/svg" version="1.1" viewBox="0 0 1080 1080">
  <!-- Generator: Adobe Illustrator 29.2.1, SVG Export Plug-In . SVG Version: 2.1.0 Build 116)  -->
  <defs>
    <style>
      .st0 {
        fill: none;
        stroke: #d7a534;
        stroke-miterlimit: 10;
        stroke-width: 15.95px;
      }

      .st1 {
        fill: #e43631;
      }
    </style>
  </defs>
  <g id="Layer_5">
    <path class="st1" d="M441.78,174.56c.92-27.66,10.95-39.67,33.69-29.8,8.89,7.27,19.61,10.92,32.58,11.02,8.21.06,17.04-2.59,27.14-6.32,2.71-1,5.72-1.37,8.62-2.53,20.05-4.19,40.9,9.05,60.6,28,47.44,60.89,55.94,76.07,103.85,91.51,97.94,38.33,176.6,114.77,224.95,251.14,66.95,280.86-23.11,440.09-292.77,460.17-146.16,10.74-258.83,13.86-333.65-21.46-103.94-49.07-157.92-129.43-178.89-198.59-36.87-185.9,31.12-299,121.47-396.59,68.64-58.6,134.32-95.15,165.13-127.73,23.39-24.73,23.62-42.48,27.29-58.84Z"/>
  </g>
  <g id="Layer_4">
    <path class="st0" d="M441.78,174.56c.92-27.66,10.95-39.67,33.69-29.8,8.89,7.27,19.61,10.92,32.58,11.02,8.21.06,17.04-2.59,27.14-6.32,2.71-1,5.72-1.37,8.62-2.53,20.05-4.19,40.9,9.05,60.6,28,47.44,60.89,55.94,76.07,103.85,91.51,97.94,38.33,176.6,114.77,224.95,251.14,66.95,280.86-23.11,440.09-292.77,460.17-146.16,10.74-258.83,13.86-333.65-21.46-103.94-49.07-157.92-129.43-178.89-198.59-36.87-185.9,31.12-299,121.47-396.59,68.64-58.6,134.32-95.15,165.13-127.73,23.39-24.73,23.62-42.48,27.29-58.84Z"/>
  </g>
</svg>