<svg xmlns="http://www.w3.org/2000/svg" xmlns:xlink="http://www.w3.org/1999/xlink" viewBox="0 0 1961.3 65">
    <defs>
        <clipPath id="a"><rect y="-65" width="1961.3" height="688.35" fill="none"></rect>
        </clipPath>
    </defs>
    <g clip-path="url(#a)">
    
        <path d="M2003.5,99.7c-3-21.9-7.2-45.2-25.7-61.8-23.8-21.6-63.9-25.8-100.2-27.1-116.8-4.2-233.1,11.1-350,14.7-427.2,13-845.7-40.3-1433.3-1.6C36.8,27.7-28,27-67.4,60c-36.8,30.8-38.9,77.4-38.8,119.5.2,92.8.3,135,.5,227.7.1,64.3,4.7,136.8,66,179.7,58.1,40.6,159.3,39,237.2,37.2,372.8-8.5,720.1.5,1092.1,9,109.1,2.5,313,6.4,470.5-10.9,84.4-9.3,163,33.9,217.7.5s47.6-111.1,42.1-181.5C2009.5,308.2,2021.7,232.3,2003.5,99.7Z" fill="#ff8000"></path>
        <path d="M2003.5,99.7c-3-21.9-7.2-45.2-25.7-61.8-23.8-21.6-63.9-25.8-100.2-27.1-116.8-4.2-233.1,11.1-350,14.7-427.2,13-845.7-40.3-1433.3-1.6C36.8,27.7-28,27-67.4,60c-36.8,30.8-38.9,77.4-38.8,119.5.2,92.8.3,135,.5,227.7.1,64.3,4.7,136.8,66,179.7,58.1,40.6,159.3,39,237.2,37.2,372.8-8.5,720.1.5,1092.1,9,109.1,2.5,313,6.4,470.5-10.9,84.4-9.3,163,33.9,217.7.5s47.6-111.1,42.1-181.5C2009.5,308.2,2021.7,232.3,2003.5,99.7Z" fill="#249f95"></path>
    </g>
   
   


</svg>