<svg xmlns="http://www.w3.org/2000/svg" xmlns:xlink="http://www.w3.org/1999/xlink" width="1920" height="90.84"

 preserveAspectRatio="none"
  viewBox="0 0 1920 90.84"  >
                  <defs>
                    <clipPath id="clip-path">
                      <rect id="Rectangle_44" data-name="Rectangle 44" width="1920" height="90.84" transform="translate(0 186)" fill="none"></rect>
                    </clipPath>
                  </defs>
                  <g id="red_uneven_border" data-name="red uneven border" transform="translate(0 -186)" clip-path="url(#clip-path)">
                    <path id="Path_164" data-name="Path 164" d="M2016.943,4045.721c-2.942,25.682-7.1,52.972-25.12,72.523-23.277,25.247-62.512,30.244-98.092,31.764-114.281,4.884-228.113-13.089-342.425-17.253-418.048-15.233-827.493,47.235-1402.424,1.84-56.319-4.446-119.724-3.631-158.273-42.341-36-36.156-37.987-90.759-37.917-140.2.156-108.8.313-158.335.469-267.131.108-75.419,4.563-160.443,64.558-210.749,56.848-47.669,155.885-45.76,232.157-43.681,364.7,9.94,704.5-.562,1068.551-10.585,106.778-2.94,306.23-7.409,460.328,12.869,82.566,10.865,159.508-39.8,212.988-.6s46.6,130.279,41.223,212.944C2022.82,3801.052,2034.754,3890.186,2016.943,4045.721Z" transform="translate(-26.537 -3890.622)" fill="#249F95"></path>
                  </g>
                </svg>