<svg id="a833a697-69eb-4fee-aaa2-829812aa3436" data-name="Layer 1"
 xmlns="http://www.w3.org/2000/svg"
  xmlns:xlink="http://www.w3.org/1999/xlink"
   viewBox="0 0 1920 40"><defs><clipPath id="a35a908f-248b-4928-848e-075048a943ad"><rect width="1920" height="40" fill="none"></rect></clipPath><clipPath id="f39be0b4-2644-4ce9-838c-7e2becb490d7"><rect x="-20.22" y="-615.2" width="1961.35" height="688.35" fill="none"></rect></clipPath><clipPath id="f122f43c-2a3d-4b39-bfaa-fa8667b09f06"><rect x="-0.32" y="-81.12" width="1920" height="673.84" fill="none"></rect></clipPath></defs><g clip-path="url(#a35a908f-248b-4928-848e-075048a943ad)"><g id="ba4414a3-009b-465f-a2db-6bb36b36a315" data-name="Group 313"><g clip-path="url(#f39be0b4-2644-4ce9-838c-7e2becb490d7)"><g id="b6a7717f-b945-4680-8aea-6467eb11b90b" data-name="Group 312"><path id="fa4fe299-69aa-4e4d-a64a-d9c9dbe403f9" data-name="Path 503" d="M1983.28-450.5c-3-21.89-7.25-45.15-25.67-61.82-23.79-21.52-63.89-25.78-100.25-27.08-116.8-4.16-233.13,11.16-350,14.71-427.26,13-845.72-40.26-1433.3-1.57-57.56,3.79-122.36,3.1-161.76,36.09-36.8,30.82-38.83,77.37-38.75,119.51.16,92.74.32,135,.48,227.71.11,64.29,4.66,136.76,66,179.65,58.1,40.63,159.32,39,237.27,37.23,372.74-8.47,720,.48,1092.08,9,109.13,2.5,313,6.32,470.47-11,84.38-9.26,163,33.93,217.67.51s47.63-111,42.14-181.51C1989.29-241.94,2001.49-317.92,1983.28-450.5Z" fill="none"></path><path id="b9f56927-2c8b-4485-8bb0-c0c11c9e68df" data-name="Path 504" d="M1983.28-450.5c-3-21.89-7.25-45.15-25.67-61.82-23.79-21.52-63.89-25.78-100.25-27.08-116.8-4.16-233.13,11.16-350,14.71-427.26,13-845.72-40.26-1433.3-1.57-57.56,3.79-122.36,3.1-161.76,36.09-36.8,30.82-38.83,77.37-38.75,119.51.16,92.74.32,135,.48,227.71.11,64.29,4.66,136.76,66,179.65,58.1,40.63,159.32,39,237.27,37.23,372.74-8.47,720,.48,1092.08,9,109.13,2.5,313,6.32,470.47-11,84.38-9.26,163,33.93,217.67.51s47.63-111,42.14-181.51C1989.29-241.94,2001.49-317.92,1983.28-450.5Z" fill="none"></path></g></g></g><g id="bc587e9c-30b0-46f0-b980-93ab2bcbcfe0" data-name="Group 315"><g clip-path="url(#f122f43c-2a3d-4b39-bfaa-fa8667b09f06)"><g id="ee6e7003-4364-48f4-a1cd-d06d7b2bd370" data-name="Group 314"><path id="e74435b9-8538-4ae0-8fcc-9618a05cecee" data-name="Path 505" d="M1961,101.52c-2.94-21.43-7.1-44.2-25.13-60.52-23.29-21.07-62.54-25.24-98.14-26.5-114.34-4.08-228.22,10.92-342.59,14.4C1076.86,41.61,667.22-10.52,92,27.36c-56.34,3.71-119.78,3-158.34,35.33-36,30.17-38,75.73-37.94,117,.16,90.78.31,132.12.47,222.9.11,62.94,4.57,133.89,64.59,175.86,56.87,39.78,156,38.19,232.27,36.45,364.87-8.29,704.83.47,1069.05,8.84,106.83,2.45,306.38,6.18,460.55-10.74,82.6-9.07,159.58,33.21,213.09.5S1982.37,504.78,1977,435.8C1966.84,305.68,1978.78,231.3,1961,101.52Z" fill="#c6211d"></path></g></g></g></g></svg>