<svg xmlns="http://www.w3.org/2000/svg" width="977.57" height="1492.176" viewBox="0 0 977.57 1492.176">
  <g id="Group_10" data-name="Group 10" transform="translate(-344.6 -141.14)">
    <path id="Path_22" data-name="Path 22" d="M521.21,1099.964c11.443-12.354,22.473-24.908,31.412-38.565,9.081-13.459,16.289-27.849,19.8-42.4,7.51-29.336-2.664-57.137-19.615-82.535-8.343-12.819-18.33-25.1-28.763-37.338-10.419-12.259-21.511-24.357-32.76-36.609-22.306-24.659-45.428-49.906-66.5-77.95-21.288-27.84-40.394-58.728-55-92.771-14.222-34.092-23.493-71.519-24.912-109.393a341.081,341.081,0,0,1,14.181-110.853,460.477,460.477,0,0,1,18.513-51.463,344.623,344.623,0,0,1,26.568-49.556,390.16,390.16,0,0,1,33.373-44.413,431.483,431.483,0,0,1,38.806-38.762,476.313,476.313,0,0,1,42.657-33.5,536.867,536.867,0,0,1,45.743-28.216c62.632-34.34,130.988-55.758,200.444-65.24,69.457-9.242,140.547-6.187,207.751,11.447,67.044,17.409,130.2,50.431,178.3,97.608a464.245,464.245,0,0,0-185.17-61.652c-64.021-7.436-128.613-2.828-190.531,11.1-61.931,13.837-121.372,37.425-174.55,69.577A463.041,463.041,0,0,0,562.6,314.526a424.085,424.085,0,0,0-35.26,29.291,365.883,365.883,0,0,0-31.162,32.754c-9.7,11.388-13,23.338-20.855,35.783a271.91,271.91,0,0,0-20.382,38.753,382.721,382.721,0,0,0-15.8,42.531c-8.574,28.67-13.537,57.729-13.236,86.654.015,57.953,17.013,114.525,51.087,168.064,16.962,26.839,36.2,53.275,55.926,80.442,19.377,27.41,39.79,55.441,55.177,88.438,7.564,16.475,13.587,34.549,15.431,53.739,1.8,19.153-1.521,39.049-9.514,55.824-7.843,16.912-19.331,30.856-31.882,42.713A249.288,249.288,0,0,1,521.21,1099.964Z" transform="translate(0 5.319)" fill="rgba(255,255,255,0.5)"/>
    <path id="Path_23" data-name="Path 23" d="M916.4,1606.553c3.086-10.693,6.247-21.239,8.75-31.9,2.631-10.619,4.466-21.35,6.177-31.909a276.156,276.156,0,0,0,2.577-31.564,191.523,191.523,0,0,0-2.15-30.443,130.1,130.1,0,0,0-20.925-53.216c-10.622-15.541-24.377-29.005-40.246-40.742-15.7-11.945-33.276-22.312-51.727-32.027-18.388-9.851-37.678-18.935-57.422-28.144-19.655-9.355-39.794-18.717-60.149-28.979a602.239,602.239,0,0,1-60.947-35.328c-20.239-13.486-40.064-29.719-57.83-50.079-17.743-20.407-32.551-45.129-40.782-72.746a189.163,189.163,0,0,1-7.772-42.856,179.588,179.588,0,0,1,2.957-44.076c5.533-29.158,19.048-56.142,36.349-78.47A218.178,218.178,0,0,1,601.9,943.83c5.032-4.712,10.477-8.579,15.8-12.781,5.505-3.7,10.913-7.754,16.564-11.06a329.846,329.846,0,0,1,69.567-32.05c23.646-7.951,47.615-12.911,71.352-16.522l16.57-2.448,15.578-2.414q15.544-2.535,30.932-5.573c41.056-7.863,81.3-18.5,119.426-33.1,38.157-14.4,74.349-32.687,105.853-56.236,31.708-23.246,58.435-51.961,77.845-85.455a265.921,265.921,0,0,0,23.789-53.35c3.027-9.406,5.5-18.839,7.849-29.172q3.528-15.179,6.115-30.429a381.012,381.012,0,0,0,5.558-60.97,285.6,285.6,0,0,0-5.4-59.984,239.07,239.07,0,0,0-52.343-107.766c-26.506-31.631-60.864-57.685-98.275-79.031a629.869,629.869,0,0,0-58.255-29.141c-20.03-8.752-40.58-16.509-61.357-23.9,43.45,7.295,86.7,18.133,128.351,35.01a422.539,422.539,0,0,1,60.721,30.293,331.507,331.507,0,0,1,55.067,41.954c33.985,32.09,54.868,74.2,68.472,120.251,6.91,22.955,16.63,46.628,18.47,70.269a438.607,438.607,0,0,1-.743,70.522c-2.146,23.417-5.19,45.725-10.893,69.709a334.165,334.165,0,0,1-24.827,68.855c-21.7,44.277-54.122,83.08-91.448,114.058-37.576,30.893-79.594,54.567-122.812,73.063C946.039,924.722,901.4,938.087,856.5,948.223q-16.867,3.7-33.787,6.8L805.786,958l-8.468,1.389-7.494,1.371a385.869,385.869,0,0,0-56.557,14.554c-35.905,12.2-67.493,31.477-87.061,55.9-9.645,12.247-16.324,25.634-19.225,39.672a88.007,88.007,0,0,0-2.2,21.434,98.793,98.793,0,0,0,3.279,21.939,103.164,103.164,0,0,0,8.462,21.62,125.993,125.993,0,0,0,13.065,20.7c10.289,13.523,24.174,26.042,39.495,38.253,15.4,12.159,32.615,23.525,50.617,34.688,17.909,11.323,36.677,22.371,55.722,33.8,37.788,23.224,77.451,47.678,111.881,82.282,16.888,17.415,32.434,37.59,42.684,60.8a159.342,159.342,0,0,1,13.852,72.731c-1.026,24.241-7.037,47.115-15.491,68.258a278.371,278.371,0,0,1-14.591,30.595c-2.566,4.975-5.558,9.728-8.318,14.551C922.59,1597.307,919.387,1601.9,916.4,1606.553Z" transform="translate(70.954 26.763)" fill="rgba(255,255,255,0.5)"/>
    <path id="Path_24" data-name="Path 24" d="M704.448,1209.193c-33.926-16.241-67.944-33.468-96.105-58.4s-50.25-58.72-53.779-96.168c-4.827-51.225,26.26-100.766,68.042-130.791,54.19-38.939,122.149-50.273,186.235-62.421,46.785-8.867,94.06-17.524,138.715-34.542,97.778-37.261,202.558-110.924,248.839-207.446,38.172-79.608,34.032-173.327,14.668-259.463,10.371,22,19.714,50.08,25.152,76.68a364.758,364.758,0,0,1,7.119,85.647c-1.974,56.742-16.526,112.7-46.634,160.771-30.562,48.986-74.379,88.337-122.237,118.629-74.74,47.305-152.326,78.221-239.487,94.609-69.512,13.07-143.743,19.743-201.242,60.934-21.524,15.419-40.28,36.032-48.557,61.182-12.656,38.454,1.371,81.678,26.222,113.635S670.665,1186.888,704.448,1209.193Z" transform="translate(78.616 82.124)" fill="#fff"/>
    <path id="Path_25" data-name="Path 25" d="M415.621,666.472c10.414,16.447,21.86,31.042,35.293,43.8-14.516-11.7,1.994.912,42.927,36.816,7.289,6.483,14.613,13.534,20.689,22.2,6.117,8.519,10.628,19.137,11.261,29.984.952,10.813-1.467,21.181-5.168,30.421a112.782,112.782,0,0,1-14.884,25.35c2.559-9.41,5.329-18.509,6.74-27.657,1.6-9.072,1.762-18.094-.01-26.245-3.376-16.436-16.1-28.8-30.053-41.153-13.991-12.316-29.213-25.062-41.442-40.731C428.5,703.868,419.344,685.546,415.621,666.472Z" transform="translate(26.655 197.161)" fill="#fff"/>
    <path id="Path_26" data-name="Path 26" d="M843.935,1260.5c1.2-21.672,3.242-42.9,3.636-63.842.278-20.924-.961-41.516-5.936-61.064-5.014-19.529-14.1-37.683-26.092-54.421-12.073-16.715-26.923-31.8-42.331-47.1a173.073,173.073,0,0,1,52.871,38.473,135.864,135.864,0,0,1,32.448,58.691c5.548,22.043,5.692,44.814,2.566,66.486A259.685,259.685,0,0,1,843.935,1260.5Z" transform="translate(160.862 335.125)" fill="#fff"/>
    <path id="Path_27" data-name="Path 27" d="M1260.341,391.761c-26-45.671-60.218-85.49-100.866-116.45-40.453-31.184-86.427-54.208-134.635-69.567a536.957,536.957,0,0,0-149.2-24.688,569.657,569.657,0,0,0-75.668,3.034,552.018,552.018,0,0,0-74.517,12.9A521.912,521.912,0,0,0,653.511,219.8a483.4,483.4,0,0,0-67.722,32.9c-43.333,25.31-82.455,57.751-114.468,96.5-32.076,38.7-56.558,83.847-72.376,132.5-16.179,48.668-22.46,100.634-23.728,153.124-7.909-51.912-7.219-105.851,4.114-158.414a390.683,390.683,0,0,1,66.283-147.143c32.13-44.128,73.608-81.3,119.868-110.144a497.745,497.745,0,0,1,72.7-37.2A551.012,551.012,0,0,1,715.707,156.8a562.521,562.521,0,0,1,161.507-14.859c54.091,2.931,107.881,13.719,158.427,33.238,50.467,19.489,97.8,47.807,136.975,84.786C1211.666,296.918,1242.634,342.176,1260.341,391.761Z" transform="translate(9.513 0)" fill="#fff"/>
  </g>
</svg>
