<svg xmlns="http://www.w3.org/2000/svg" viewBox="0 0 1080 1600"><g id="af93fc3c-0bc3-4fce-9def-88e11edfc479" data-name="Layer 7"><path id="f9f2f32c-28d5-4efe-8fe0-54e5a65109f2" data-name="Path 493" d="M255.28,1031.54c11.16-12,21.91-24.28,30.62-37.6,8.86-13.12,15.88-27.14,19.3-41.32,7.33-28.6-2.59-55.7-19.12-80.45-8.13-12.5-17.86-24.47-28-36.4s-21-23.74-31.93-35.69c-21.74-24-44.28-48.64-64.82-76-20.75-27.14-39.37-57.24-53.61-90.43C93.82,600.44,84.78,564,83.4,527A332.28,332.28,0,0,1,97.22,419a450.68,450.68,0,0,1,18-50.16,335.2,335.2,0,0,1,25.9-48.31,380.5,380.5,0,0,1,32.53-43.29,421.51,421.51,0,0,1,37.83-37.78,464.23,464.23,0,0,1,41.58-32.65,520.06,520.06,0,0,1,44.58-27.5c61.06-33.48,127.68-54.35,195.39-63.6,67.7-9,137-6,202.51,11.16,65.35,17,126.91,49.16,173.79,95.14a452.5,452.5,0,0,0-180.5-60.09c-62.4-7.25-125.37-2.76-185.72,10.82A569.89,569.89,0,0,0,333,240.54q-19.31,11.75-37.38,25.38a413.13,413.13,0,0,0-34.37,28.55,356.51,356.51,0,0,0-30.38,31.93c-9.45,11.1-12.67,22.75-20.33,34.88a265.48,265.48,0,0,0-19.86,37.77,373.71,373.71,0,0,0-15.4,41.46c-8.36,27.95-13.2,56.27-12.9,84.47,0,56.49,16.58,111.63,49.79,163.82,16.54,26.16,35.29,51.93,54.52,78.41,18.89,26.72,38.78,54,53.78,86.21,7.38,16.05,13.25,33.67,15,52.38a105.46,105.46,0,0,1-9.28,54.41c-7.65,16.49-18.84,30.08-31.08,41.64A243,243,0,0,1,255.28,1031.54Z" fill="' + swooshColor1 + '"/></g><g id="eaf5e171-af4f-4904-9cfd-20f602024952" data-name="Layer 2"><path id="b9721218-4f51-4449-b3cc-3d12c0f19370" data-name="Path 498" d="M985,336c-25.35-44.52-58.7-83.33-98.33-113.51-39.43-30.4-84.24-52.84-131.23-67.81A523.52,523.52,0,0,0,610,130.63a555.51,555.51,0,0,0-73.75,3,538.16,538.16,0,0,0-72.64,12.58,509.54,509.54,0,0,0-70.13,22.23,471.84,471.84,0,0,0-66,32.07c-42.24,24.67-80.37,56.29-111.58,94.07a392.28,392.28,0,0,0-70.55,129.15c-15.77,47.44-21.89,98.09-23.13,149.26-7.71-50.61-7-103.18,4-154.42a380.87,380.87,0,0,1,64.61-143.42c31.32-43,71.75-79.26,116.84-107.37a484.67,484.67,0,0,1,70.86-36.26A536,536,0,0,1,454.15,107,548.25,548.25,0,0,1,611.57,92.5C664.3,95.36,716.73,105.88,766,124.9s95.33,46.6,133.52,82.65S967.77,287.69,985,336Z" fill="' + swooshColor2 + '"/></g><g id="be9097be-6199-4980-8fa6-f832f9a7f83d" data-name="Layer 6"><path id="fb1e5171-987c-43bf-a0ff-e1c5ad4a93bb" data-name="Path 494" d="M709.66,1546.24c3-10.42,6.09-20.7,8.53-31.09s4.35-20.81,6-31.11a266.27,266.27,0,0,0,2.51-30.76,185.37,185.37,0,0,0-2.09-29.68,126.84,126.84,0,0,0-20.4-51.87c-10.35-15.15-23.76-28.28-39.23-39.72-15.3-11.64-32.43-21.74-50.42-31.22s-36.73-18.45-56-27.43-38.78-18.24-58.62-28.25a586.11,586.11,0,0,1-59.41-34.44,280.39,280.39,0,0,1-56.38-48.81c-17.29-19.89-31.73-44-39.75-70.91a184.31,184.31,0,0,1-7.58-41.78,174.87,174.87,0,0,1,2.89-43c5.39-28.42,18.56-54.72,35.43-76.49a213.24,213.24,0,0,1,27.91-29.48c4.91-4.59,10.22-8.36,15.4-12.46,5.37-3.6,10.64-7.55,16.15-10.78a321.76,321.76,0,0,1,67.81-31.24c23.05-7.75,46.41-12.58,69.55-16.1l16.15-2.39,15.19-2.36q15.15-2.46,30.15-5.43c40-7.66,79.24-18,116.41-32.26,37.19-14,72.47-31.86,103.18-54.82C884,709.74,910,681.75,929,649.1a258.66,258.66,0,0,0,23.19-52c3-9.17,5.36-18.36,7.65-28.44q3.44-14.79,6-29.66a371.1,371.1,0,0,0,5.42-59.43,278.49,278.49,0,0,0-5.26-58.47,233.25,233.25,0,0,0-51-105c-25.83-30.83-59.32-56.22-95.79-77a616.28,616.28,0,0,0-56.79-28.41c-19.52-8.53-39.55-16.09-59.8-23.29C744.86,194.43,787,205,827.62,221.44A412.44,412.44,0,0,1,886.81,251a323.19,323.19,0,0,1,53.68,40.9c33.12,31.28,53.48,72.33,66.74,117.21,6.74,22.38,16.21,45.46,18,68.5a427.57,427.57,0,0,1-.73,68.74c-2.09,22.83-5.06,44.57-10.62,67.95a325.52,325.52,0,0,1-24.2,67.12c-21.15,43.16-52.75,81-89.14,111.18-36.63,30.11-77.58,53.19-119.71,71.22-42.29,17.82-85.79,30.85-129.57,40.73q-16.44,3.6-32.93,6.63l-16.5,2.9-8.25,1.35-7.31,1.33a376.7,376.7,0,0,0-55.13,14.19c-35,11.89-65.79,30.68-84.87,54.49-9.4,11.93-15.91,25-18.74,38.67A86.31,86.31,0,0,0,425.4,1045a96.09,96.09,0,0,0,3.2,21.39,100.29,100.29,0,0,0,8.24,21.07,122.62,122.62,0,0,0,12.74,20.17c10,13.19,23.56,25.39,38.5,37.29s31.79,22.93,49.34,33.81c17.46,11,35.75,21.81,54.31,33,36.84,22.64,75.5,46.47,109.06,80.21,16.46,17,31.62,36.64,41.61,59.26A155.2,155.2,0,0,1,755.9,1422c-1,23.63-6.86,45.93-15.1,66.54a272.41,272.41,0,0,1-14.22,29.83c-2.5,4.84-5.42,9.48-8.11,14.18S712.58,1541.71,709.66,1546.24Z" fill="' + swooshColor1 + '"/></g><g id="f9738d10-dc52-431e-a1bb-db3314782b3b" data-name="Layer 3"><path id="e5f31cb1-6c1e-4e35-a590-d5f11a50c3c0" data-name="Path 497" d="M726.67,1509.5c1.17-21.13,3.16-41.82,3.54-62.23s-.94-40.47-5.79-59.52-13.74-36.74-25.43-53-26.24-31-41.26-45.91a168.73,168.73,0,0,1,51.53,37.5,132.38,132.38,0,0,1,31.63,57.21c5.41,21.49,5.55,43.68,2.5,64.81A252.77,252.77,0,0,1,726.67,1509.5Z" fill="' + swooshColor2 + '"/></g><g id="a25b3436-932f-4fde-8d6d-aa5e5e9eaa55" data-name="Layer 4"><path id="bec5fc42-e86f-4f89-ad9c-4d9e5fb6e032" data-name="Path 496" d="M178.34,796c10.15,16,21.31,30.26,34.4,42.69-14.14-11.4,1.95.89,41.85,35.89,7.1,6.32,14.25,13.19,20.16,21.64s10.36,18.66,11,29.23c.93,10.54-1.43,20.65-5,29.65a109.45,109.45,0,0,1-14.5,24.71c2.49-9.17,5.19-18,6.56-26.95a67,67,0,0,0,0-25.59c-3.29-16-15.7-28.07-29.3-40.11s-28.47-24.43-40.4-39.7C190.89,832.44,182,814.58,178.34,796Z" fill="' + swooshColor2 + '"/></g><g id="bb702e5f-d8c2-40f8-9ea1-8266220a18c1" data-name="Layer 5"><path id="a6224cef-5ab9-4541-86c1-19458525c756" data-name="Path 495" d="M510.53,1212.87c-33.07-15.83-66.23-32.62-93.69-56.92s-49-57.24-52.42-93.75c-4.7-49.93,25.6-98.22,66.33-127.49,52.82-38,119.07-49,181.53-60.84,45.61-8.64,91.69-17.08,135.22-33.67C842.81,803.88,944.94,732.07,990.06,638c37.2-77.6,33.17-168.95,14.29-252.92,10.11,21.45,19.22,48.82,24.52,74.75a355.52,355.52,0,0,1,6.94,83.48c-1.93,55.32-16.11,109.86-45.46,156.72-29.79,47.75-72.5,86.11-119.15,115.63-72.85,46.11-148.48,76.25-233.44,92.22-67.76,12.74-140.12,19.25-196.17,59.4-21,15-39.26,35.12-47.33,59.64-12.33,37.48,1.34,79.62,25.56,110.77S477.6,1191.13,510.53,1212.87Z" fill="' + swooshColor2 + '"/></g></svg>