<svg xmlns="http://www.w3.org/2000/svg" viewBox="0 0 411.1 469.8">
   <path d="M135.8,469.8c-4.8-13.9-15.1-62.6,27.7-89.7l11-6.8a97.9,97.9,0,0,1,19.9-9.2c7.6-2.6,26.5-6.9,34.8-8.3l3.2-.6a23.5,23.5,0,0,0,6.8-2.2l3.9-1.8c4.8-.9,9.5-6.2,14.3-7.3,19-4.2,16.1-3.4,34.4-11.1s47-15.6,62.9-28.7,29.5-29.5,38.6-48.3a138.7,138.7,0,0,0,10.5-29.1,192,192,0,0,0,4.6-29.5c.9-9.8-1.9-18-2.7-28s-.7-21.1-3.6-30.8c-1-3.5-1-7.5-2.3-10.8A117.9,117.9,0,0,0,372,86.8a140.4,140.4,0,0,0-23.3-17.7A175.8,175.8,0,0,0,323,56.3c-17.6-7.2-35.9-11.7-54.3-14.8,8.8,3.1,17.5,6.4,26,10.1s16.7,7.8,24.6,12.3c15.8,9,30.4,20.1,41.6,33.4a99.8,99.8,0,0,1,14,21.6,102.9,102.9,0,0,1,8.1,24,119.5,119.5,0,0,1,2.3,25.4c-.5,47.3-25.9,98.4-69.3,120.3-45,22.7-97,24.8-142.9,44.9-35,15.3-65.6,40.2-63,81.9a78.1,78.1,0,0,0,3.3,18.1,83.8,83.8,0,0,0,17.2,30.8C132.3,466.2,134,468,135.8,469.8Z" fill="#F59A2A"></path>
   <path d="M74.7,407.8A143.7,143.7,0,0,0,88,391.5a57.7,57.7,0,0,0,8.4-18c3.1-12.4-1.2-24.1-8.3-34.9a175.9,175.9,0,0,0-12.2-15.8c-4.4-5.2-9.1-10.3-13.9-15.5-9.4-10.4-19.2-21.1-28.1-32.9a182.5,182.5,0,0,1-23.2-39.3A132,132,0,0,1,.1,188.9a147.1,147.1,0,0,1,6-46.9,201.4,201.4,0,0,1,7.8-21.8A144.9,144.9,0,0,1,25.2,99.3,153.6,153.6,0,0,1,39.3,80.5,169.2,169.2,0,0,1,55.7,64.1a219.9,219.9,0,0,1,18-14.2C80,45.6,86.5,41.6,93.1,38a245.6,245.6,0,0,1,84.8-27.6c29.3-3.9,59.4-2.6,87.8,4.8s55.1,21.4,75.4,41.3a196.8,196.8,0,0,0-78.3-26.1c-27.1-3.1-54.4-1.1-80.6,4.7-42.6,9.6-83.4,29.8-112,63.5C47.6,125.3,33.9,160.1,35.8,195c2.1,38.6,22.4,67.7,43.8,98.1,8.2,11.6,16.9,23.4,23.4,37.4a71.7,71.7,0,0,1,6.5,22.7,45.1,45.1,0,0,1-4,23.6A58.8,58.8,0,0,1,92,394.9,112.7,112.7,0,0,1,74.7,407.8Z" fill="#F59A2A"></path>
   <path d="M41.3,305.6a100.6,100.6,0,0,0,14.9,18.5c5.7,5.4,12,10.1,18.2,15.6a51.5,51.5,0,0,1,8.7,9.3,25.3,25.3,0,0,1,4.8,12.7,27.7,27.7,0,0,1-2.2,12.9,42.5,42.5,0,0,1-6.3,10.7,105.1,105.1,0,0,0,2.9-11.7,29.6,29.6,0,0,0,0-11.1c-1.5-6.9-6.8-12.2-12.7-17.4S57.2,334.5,52,327.9A53.1,53.1,0,0,1,41.3,305.6Z" fill="#FDC52F"></path>
   <path d="M391.3,106a163.4,163.4,0,0,0-42.6-49.3,187.2,187.2,0,0,0-57-29.4,225.3,225.3,0,0,0-63.1-10.4,227.8,227.8,0,0,0-32,1.3,241.1,241.1,0,0,0-31.5,5.4,210.9,210.9,0,0,0-30.4,9.7A194.6,194.6,0,0,0,106,47.2,182.2,182.2,0,0,0,57.6,88,172.6,172.6,0,0,0,27,144c-6.8,20.6-9.5,42.6-10,64.8a184.3,184.3,0,0,1,1.7-67,165,165,0,0,1,28-62.2C60.3,60.9,77.9,45.2,97.4,33a223.6,223.6,0,0,1,30.8-15.8A246,246,0,0,1,161,6.6,237.9,237.9,0,0,1,229.3.3a219.6,219.6,0,0,1,67,14.1c21.3,8.2,41.3,20.2,57.9,35.9S383.8,85,391.3,106Z" fill="#FDC52F"></path>
   <path d="M135.8,469.8a60.4,60.4,0,0,1-4.2-6.9c-1.3-2.4-2.5-4.8-3.6-7.3a104.1,104.1,0,0,1-5.4-15.4,81.3,81.3,0,0,1-2.6-16.4,68.8,68.8,0,0,1,1.2-16.9,56.5,56.5,0,0,1,5.7-16.3,63.9,63.9,0,0,1,10-14.2q3-3.1,6.3-6c2.2-1.9,4.5-3.6,6.8-5.3a108.9,108.9,0,0,1,14.8-8.5,158.1,158.1,0,0,1,31.7-10.8l8.1-1.8,7.8-1.5,15.5-3.4c2.6-.5,5.1-1.2,7.7-1.8l7.6-1.9c5.1-1.3,10.2-2.7,15.2-4.2,10-3,20-6.2,29.6-10a258.5,258.5,0,0,0,28.4-12.7,200.4,200.4,0,0,0,26.3-16c4.1-2.9,8.1-6.1,12-9.4s7.5-6.8,11-10.5a120.2,120.2,0,0,0,9.8-11.6,120.8,120.8,0,0,0,8.5-12.6,143,143,0,0,0,6.9-13.5,124.9,124.9,0,0,0,5.4-14.4,126.7,126.7,0,0,0,3.8-15,154.4,154.4,0,0,0,2.4-15.4c.5-5.2.8-10.4.9-15.7s0-10.5-.2-15.8-.7-10.6-1.3-15.9-1.3-10.6-2-15.9c1.7,5.1,3.2,10.2,4.6,15.4s2.6,10.5,3.5,15.9a175.5,175.5,0,0,1,3.1,32.5c0,5.5-.4,11-.9,16.5a130.7,130.7,0,0,1-2.8,16.4,80.4,80.4,0,0,1-2.1,8.1,82.7,82.7,0,0,1-2.6,8A123.6,123.6,0,0,1,396,255a126.8,126.8,0,0,1-8.6,14.6,131.3,131.3,0,0,1-10.3,13.3,157.5,157.5,0,0,1-24.6,23,222.6,222.6,0,0,1-28.1,17.9,261.8,261.8,0,0,1-30.1,13.6,325.2,325.2,0,0,1-31.2,10.3l-15.8,4.1-8,1.8-8,1.6c-5.3,1.1-10.6,2-16,2.9l-4,.7-4,.6-7.6,1.3a152.4,152.4,0,0,0-29.4,8.3,105.4,105.4,0,0,0-13.5,6.6,69.1,69.1,0,0,0-11.9,8.8,62.6,62.6,0,0,0-5.1,5.2c-1.5,1.9-3,3.9-4.3,5.9a54.4,54.4,0,0,0-6.2,13.4c-2.9,9.6-3.3,20-2,30.4a102.5,102.5,0,0,0,3.1,15.4A104.6,104.6,0,0,0,135.8,469.8Z" fill="#FDC52F"></path>
</svg>