<svg id="Layer_1" data-name="Layer 1" xmlns="http://www.w3.org/2000/svg" xmlns:xlink="http://www.w3.org/1999/xlink" viewBox="0 0 1952 1215"><defs><style>.cls-1,.cls-6{font-size:197.06px;font-family:HvDTrial_BrandonPrinted-One, HvDTrial Brandon Printed;}.cls-1,.cls-10,.cls-6,.cls-8{fill:#fff;}.cls-1{letter-spacing:-0.06em;}.cls-2,.cls-6{letter-spacing:-0.03em;}.cls-3{font-family:TurbinadoBold, Turbinado Bold;}.cls-3,.cls-4{letter-spacing:-0.02em;}.cls-5{letter-spacing:-0.05em;}.cls-7{letter-spacing:-0.06em;}.cls-9{fill:none;stroke:#fff;stroke-miterlimit:10;stroke-width:3px;}.cls-10{font-size:59.16px;font-family:Arial-BoldMT, Arial;font-weight:700;}</style></defs><text class="cls-1" transform="translate(15.02 181.92)">Y<tspan class="cls-2" x="117.65" y="0">OU</tspan><tspan class="cls-3" x="422.5" y="0">’</tspan><tspan class="cls-4" x="447.33" y="0">RE BETTER OF</tspan><tspan class="cls-5" x="1797.18" y="0">F</tspan></text><text class="cls-6" transform="translate(150.21 370.13)">WITH<tspan class="cls-7" x="506.64" y="0" xml:space="preserve"> A</tspan></text><image width="850" height="835" transform="translate(19.75 214.05) scale(1.21)" xlink:href="../../../Downloads/image.png"/><path class="cls-8" d="M1692.89,387.84c-4.47-30.63-26.46-55.27-54.68-61.66-24.7-5.6-50.66,3.58-67.61,23.7-16,14.16-18,32.89-11.19,40.41,6.23,6.85,19.32,3.82,21,3.41,2.15-2.37,9-9.23,18.84-9.55,13-.41,26.14,10.73,30.45,27.74a87.38,87.38,0,0,1,2.84,51,83.82,83.82,0,0,1-22.93,39.77c-8.3,1.81-25.22,4.09-43.13-3.65-37.51-16.22-44.91-60.7-45.36-63.72a125.34,125.34,0,0,1,.23-61.27A119.54,119.54,0,0,1,1537,338.74a137.28,137.28,0,0,1,28.34-24.23,134.2,134.2,0,0,1,30.85-14.64,27.51,27.51,0,0,0,6.45-28.72,26.51,26.51,0,0,0-24-17.73,125.19,125.19,0,0,0-70.09,17.7c-32.83,19.76-47.18,48.91-51.83,59.57a186.78,186.78,0,0,0-14.85,118.92,184.8,184.8,0,0,0,59.64,101.58c8.07,6,39,27.67,82.24,24,36.91-3.13,61.21-22.9,69.4-30.23a154.05,154.05,0,0,0,41-69.93A160.34,160.34,0,0,0,1692.89,387.84Z"/><path class="cls-8" d="M1737.08,746.15c-7.61-30-32-52.24-60.76-55.68-25.15-3-50,8.81-64.79,30.57-14.44,15.74-14.52,34.58-7,41.35,6.9,6.17,19.61,1.8,21.23,1.22,1.89-2.58,8-10.11,17.76-11.45,12.88-1.75,27.1,8,33.15,24.45a87.47,87.47,0,0,1,8.1,50.41,83.72,83.72,0,0,1-18.7,41.93c-8.07,2.67-24.67,6.68-43.28.83-39-12.25-50.94-55.72-51.7-58.68a125.38,125.38,0,0,1-6.11-61A119.66,119.66,0,0,1,1577,713.44a136.91,136.91,0,0,1,25.68-27,134.7,134.7,0,0,1,29.17-17.75,27.51,27.51,0,0,0,3.45-29.23,26.51,26.51,0,0,0-25.69-15.16,125.2,125.2,0,0,0-67.88,24.86c-30.61,23-41.87,53.52-45.39,64.61a186.66,186.66,0,0,0-2.47,119.82,184.74,184.74,0,0,0,69.82,94.86c8.65,5.16,41.69,23.49,84.28,15.38,36.39-6.93,58.52-29.11,65.91-37.25a154.14,154.14,0,0,0,33.51-73.79A160.33,160.33,0,0,0,1737.08,746.15Z"/><path class="cls-8" d="M1012.28,549.22c34.75,26.07,66.72,30.34,76.52,18.32s-3.54-40-5.62-44.24a225.32,225.32,0,0,1-16.42-204.67c4-9.17,12.34-15.28,21.32-15.49,11.54-.28,22.42,9.2,24.49,22.64,1.63,3.39,4.17,8.82,7,15.62,15.2,37.25,16.94,64.93,23.3,106.38,2.45,16,6.5,39.9,13,69.26,1.47,5.09,9.62,31.48,34.57,42.9,17.39,8,44.64,9.44,54.74-5.06,2.86-4.1,6.11-12,4.64-20-1.1-5.92-4.17-8.31-7.52-17.59a71.57,71.57,0,0,1-3.45-13.7,440.89,440.89,0,0,1-9.51-77.31c-1.14-34.36,2.44-51.47,5.18-61.67a168,168,0,0,1,10.38-28.16c10.56-27.1,35.3-36.3,48-29,7.79,4.46,9.36,16.65,11.66,35.3a151.73,151.73,0,0,1,.87,29.49c-2.53,30.47,2.71,64.11,7.34,93.85,3.73,23.9,11.69,58.68,30.69,100.1A154.56,154.56,0,0,0,1397.79,623a147.48,147.48,0,0,0,66.55,21c17.7,1.33,30.94-2.85,32.41-9.38,1.38-6.08-7.38-14.6-11.66-18.77a57.09,57.09,0,0,0-11.24-8.49,223.85,223.85,0,0,1-40.91-57.5c-18-36.34-21.71-69.2-27.66-125.72-2.09-19.89-4.42-48.4-4.9-83.12-1.4-8.27-9.14-48.84-45.81-75.37-4.31-3.13-49-34.31-100.83-13.7-44.52,17.7-60.2,60.13-62.52,66.73-2.37-7.18-12.62-35.61-41.92-52.29-29.47-16.77-58.09-10.2-67.81-7.81-44.46,11-65.58,49.62-69.21,56.52a207.05,207.05,0,0,0,0,234.17Z"/><path class="cls-8" d="M1051.33,970.07c37.28,22.3,69.52,23.21,78,10.23s-7.7-39.44-10.2-43.41a225.34,225.34,0,0,1-37.7-201.84c3-9.54,10.68-16.48,19.59-17.63,11.44-1.48,23.26,6.81,26.72,20,2,3.2,5.07,8.34,8.54,14.81,19,35.46,23.63,62.81,34.28,103.37,4.11,15.66,10.62,39,20.12,67.53,2,4.9,12.85,30.3,38.86,39.06,18.12,6.1,45.38,4.73,53.91-10.75,2.41-4.37,4.82-12.58,2.53-20.33-1.71-5.76-5-7.83-9.31-16.71a71.92,71.92,0,0,1-4.87-13.26,440.31,440.31,0,0,1-17.52-75.9c-4.72-34.05-3-51.44-1.28-61.87a168,168,0,0,1,7.37-29.08c7.68-28.06,31.32-39.79,44.68-33.9,8.22,3.63,11,15.58,15.29,33.89a151.74,151.74,0,0,1,3.94,29.25c.66,30.56,9.38,63.47,17.1,92.56,6.2,23.38,17.75,57.14,41,96.35a154.56,154.56,0,0,0,60.08,50.76,147.55,147.55,0,0,0,68.38,13.94c17.73-.52,30.47-6.07,31.25-12.71.73-6.19-8.87-13.75-13.56-17.45a57,57,0,0,0-12.06-7.27,224.07,224.07,0,0,1-46.69-52.92c-21.66-34.26-28.82-66.56-40.63-122.14-4.15-19.57-9.45-47.67-13.54-82.16-2.26-8.08-14.19-47.62-53.43-70.18-4.62-2.65-52.36-29-101.71-3.1-42.43,22.25-53.6,66.09-55.22,72.89-3.1-6.89-16.27-34.09-47.14-47.62-31.06-13.61-58.84-4.09-68.25-.7-43.08,15.55-60.06,56.19-62.94,63.44a207.06,207.06,0,0,0,24.44,232.89Z"/><ellipse class="cls-9" cx="1677.09" cy="235.67" rx="36.64" ry="37.88"/><text class="cls-10" transform="translate(1657.2 256.6) scale(0.97 1)">R</text></svg>