 <svg id="e2c6cecf-c8e8-4270-a413-e7e19853b951" data-name="Layer 1" xmlns="http://www.w3.org/2000/svg" viewBox="0 0 83 101">
                                <path id="b767fe66-9063-4d36-8c0b-40dcc2720a7a" data-name="Path 86" d="M83,91.27c0,5.11-15.54,9.4-33.12,9.4S20.61,95,20.61,89.89,33.59,82,51.17,82,83,86.16,83,91.27Z" fill="#0d351d" fill-rule="evenodd"></path>
                                <path id="f57e912a-0280-403b-a134-91d1fc4c6db5" data-name="Path 87" d="M2.49,36.48l5.75,51.7S9.19,99.6,36.17,99.4c12.74-.72,21.75-6,22.2-12.61s5.4-48.6,5.4-48.6S52.08,50,31.15,47.63,5.12,42.4,2.49,36.48Z" fill="#fff"></path>
                                <ellipse id="b9f9c677-9eff-495c-93f0-29e5d90a93ae" data-name="Ellipse 1" cx="33.38" cy="31.81" rx="32.91" ry="15.86" fill="#04572a"></ellipse><path id="b0d7e1d0-9503-4c48-854e-935f219861e9" data-name="Path 88" d="M62.63,31.34c0,7.12-13.08,12.89-29.21,12.89S4.21,38.46,4.21,31.34,17.29,18.45,33.42,18.45,62.63,24.22,62.63,31.34Z" fill="#fff"></path>
                                <path d="M33.42,45c-16.83,0-30-6-30-13.69s13.18-13.69,30-13.69,30,6,30,13.69S50.25,45,33.42,45Zm0-25.78C18,19.25,5,24.79,5,31.34S18,43.43,33.42,43.43s28.41-5.54,28.41-12.09S48.82,19.25,33.42,19.25Z" fill="#fff"></path>
                                <path d="M32.76,52A63.68,63.68,0,0,1,17.27,50a.8.8,0,0,1,.39-1.55,60.79,60.79,0,0,0,15.42,1.87,59.93,59.93,0,0,0,18-2.62.78.78,0,0,1,1,.51.8.8,0,0,1-.51,1A61.52,61.52,0,0,1,33.09,52Z" fill="#04572a"></path>
                                <g id="a4910be0-a087-4cec-9781-facf5ccf669b" data-name="Group 77">
                                    <path id="abd27626-d9f1-4eea-a379-3737777bfc0f" data-name="Path 90" d="M57.8,54.48A9.71,9.71,0,0,1,63,52.71c2.3-.23,4.44,0,5.94,2a9.47,9.47,0,0,1,1.79,4.65,32.61,32.61,0,0,1-.5,9.09,10.41,10.41,0,0,1-10.86,9.37,10.75,10.75,0,0,1-1.6-.19v4.61c1.56-.43,3.07-.82,4.55-1.26,5-1.46,8.65-4.49,10.4-9.43a30.87,30.87,0,0,0,1.19-6.24,23.29,23.29,0,0,0-.21-7.9C72.55,52,68.58,49,63,49.39c-1.73.13-3.45.76-5.23.12Z" fill="#fff"></path>
                                    <path d="M54.54,86.44V73.7l3.85.78a6.28,6.28,0,0,0,1,.13l.61,0a6.32,6.32,0,0,0,1.38-.11c3.35-1.18,5.16-3.27,5.7-6.55a29.74,29.74,0,0,0,.48-8.2,6.32,6.32,0,0,0-1.2-3.13c-.37-.5-.87-.92-3-.7A6.78,6.78,0,0,0,59.74,57L54.59,61V45l4.29,1.54a5.13,5.13,0,0,0,2.21-.08c.51-.08,1.09-.17,1.7-.22,7.18-.55,12.56,3.5,14,10.57a26.76,26.76,0,0,1,.24,9l-.07.6a29.53,29.53,0,0,1-1.27,6.25c-2,5.67-6.33,9.63-12.51,11.44-1.06.31-2.12.6-3.21.89Z" fill="#fff"></path>
                                    <path id="b56d4524-39ed-44cd-ac8f-843069cc42ff" data-name="Path 91" d="M57.8,54.48v-5c1.78.63,3.5,0,5.23-.12,5.55-.43,9.52,2.58,10.65,8a23.55,23.55,0,0,1,.21,7.9,31,31,0,0,1-1.19,6.24c-1.75,4.94-5.41,8-10.4,9.43-1.48.44-3,.83-4.55,1.26V77.63a10.75,10.75,0,0,0,1.6.19,10.41,10.41,0,0,0,10.86-9.37,32.61,32.61,0,0,0,.5-9.09,9.47,9.47,0,0,0-1.79-4.65c-1.5-2-3.64-2.23-5.94-2A9.71,9.71,0,0,0,57.8,54.48Z" fill="#fff"></path>
                                    <path d="M54.54,86.44V73.7l3.85.78a6.28,6.28,0,0,0,1,.13l.6,0a6.36,6.36,0,0,0,1.39-.11c3.35-1.18,5.16-3.27,5.7-6.55a29.74,29.74,0,0,0,.48-8.2,6.32,6.32,0,0,0-1.2-3.13c-.37-.5-.87-.92-3-.7A6.74,6.74,0,0,0,59.74,57L54.59,61V45l4.28,1.53a5.18,5.18,0,0,0,2.22-.08c.51-.08,1.09-.17,1.7-.22,7.18-.54,12.56,3.5,14,10.57a26.75,26.75,0,0,1,.24,9l-.08.61a28.8,28.8,0,0,1-1.26,6.24c-2,5.67-6.33,9.62-12.51,11.44-1,.3-2.07.58-3.12.86Z" fill="#fff"></path>
                                </g>
                                <path id="bd6ca5c0-46a3-485d-b998-947f99e33f88" data-name="Path 92" d="M21,43.69c.57-.47.29-.15.55-.78a4.38,4.38,0,0,0,.1-2.56c-.17-.83-.36-1.67-.54-2.5a11,11,0,0,0-.81-1.7,5.94,5.94,0,0,1,2.84.1,6.33,6.33,0,0,0,.95.25,1.2,1.2,0,0,0,.93-.25,1.08,1.08,0,0,0,.09-1.31A2.6,2.6,0,0,0,24,34.05a10.65,10.65,0,0,0-3.43-1.13,9,9,0,0,0-1.94-.12,5.93,5.93,0,0,0-1.58.07c-.5.19-.72.77-.88,1.29a3.16,3.16,0,0,0-.21,1.1c.05.88.89,1.35,1.39,2a10.27,10.27,0,0,1,1.33,2.62c.54,1.42.87,2.32-.43,3.12" fill="#ffd388"></path>
                                <path d="M21,44.76a1.07,1.07,0,0,1-.68-1.9l.14-.11c0-.07.05-.15.09-.25a3.32,3.32,0,0,0,.07-1.88c-.13-.6-.25-1.16-.38-1.71L20,38.08a3.19,3.19,0,0,0-.35-.74,7.2,7.2,0,0,1-.4-.78,1.1,1.1,0,0,1,0-.92,1.06,1.06,0,0,1,.73-.54,7,7,0,0,1,3.35.12c.25.08.47.14.68.19a1.55,1.55,0,0,0-.52-.39,9.81,9.81,0,0,0-3.15-1,7.77,7.77,0,0,0-1.73-.1c-.19,0-.42,0-.65,0a2.41,2.41,0,0,0-.61,0,3.21,3.21,0,0,0-.23.59,2.19,2.19,0,0,0-.15.79c0,.13.22.35.56.68a6.88,6.88,0,0,1,.59.62,11,11,0,0,1,1.49,2.9c.54,1.4,1.21,3.14-.87,4.42a1.07,1.07,0,1,1-1.12-1.83c.5-.31.55-.34,0-1.82a9.87,9.87,0,0,0-1.16-2.32,4,4,0,0,0-.4-.42,3.23,3.23,0,0,1-1.23-2.17,4.22,4.22,0,0,1,.27-1.54,2.73,2.73,0,0,1,1.52-1.91,3.38,3.38,0,0,1,1.45-.14h.43a10.52,10.52,0,0,1,2.18.13A11.48,11.48,0,0,1,24.5,33.1,3.57,3.57,0,0,1,26,34.33,2.16,2.16,0,0,1,25.8,37a.74.74,0,0,1-.13.12,2.22,2.22,0,0,1-1.79.47,7.08,7.08,0,0,1-1.12-.29,4.08,4.08,0,0,0-.79-.14,2.64,2.64,0,0,1,.15.5l.19.83c.12.56.25,1.12.36,1.68a5.36,5.36,0,0,1-.14,3.14c-.08.18-.09.25-.11.29a1.36,1.36,0,0,1-.56.79l-.21.17A1.09,1.09,0,0,1,21,44.76Z" fill="#04572a"></path>
                                <path id="acc1b67a-9740-4632-a00c-662f19bd178c" data-name="Path 93" d="M22.76,5.39c.69.26,1.36.56,2,.89a5.24,5.24,0,0,1,1.65,1.14,4.38,4.38,0,0,1,.91,2.4c.1.86.08,1.74.19,2.6a5.39,5.39,0,0,0,.74,2.17A3.18,3.18,0,0,0,30.07,16a4.56,4.56,0,0,0,2.37-.13c.57-.14,1.25-.28,1.65.14a1.55,1.55,0,0,1,.31,1.06,1.14,1.14,0,0,1,0,.45,1.18,1.18,0,0,1-.75.61A6.45,6.45,0,0,1,28,17.93a7.24,7.24,0,0,1-1.4-1.18,5.8,5.8,0,0,1-2-4.1c0-.48.15-.94.18-1.42a3.41,3.41,0,0,0-2.55-3.37" fill="#ffd388"></path><path d="M30.81,19.74a6.41,6.41,0,0,1-3.39-.9,8.6,8.6,0,0,1-1.63-1.36c-1.63-1.67-2.4-3.27-2.32-4.88,0-.28.06-.55.1-.82s.06-.4.07-.6A2.3,2.3,0,0,0,21.9,8.9a1.07,1.07,0,1,1,.54-2.08,4.47,4.47,0,0,1,3.35,4.43c0,.31-.06.58-.1.86a4,4,0,0,0-.07.59c-.05,1,.51,2.06,1.72,3.3a6.94,6.94,0,0,0,1.22,1,5.39,5.39,0,0,0,4.67.08l.1,0V17a.41.41,0,0,0,0-.19,2.93,2.93,0,0,0-.6.11,5.75,5.75,0,0,1-2.93.13,4.31,4.31,0,0,1-2.41-1.87,6.24,6.24,0,0,1-.89-2.61,13.53,13.53,0,0,1-.11-1.45c0-.38,0-.76-.08-1.14a3.4,3.4,0,0,0-.66-1.82,4.1,4.1,0,0,0-1.27-.87c-.68-.33-1.33-.62-2-.87a1.07,1.07,0,1,1,.77-2c.72.27,1.43.58,2.12.92a6.17,6.17,0,0,1,1.95,1.37l.08.09a5.39,5.39,0,0,1,1.13,3c0,.38.07.81.09,1.24s0,.86.1,1.29A4.32,4.32,0,0,0,29.2,14a2.12,2.12,0,0,0,1.18.92,3.77,3.77,0,0,0,1.8-.15,2.68,2.68,0,0,1,2.68.43l.09.1A2.69,2.69,0,0,1,35.48,17a2.14,2.14,0,0,1-.08.76.68.68,0,0,1-.07.2A2.27,2.27,0,0,1,34,19.13,8.93,8.93,0,0,1,30.81,19.74Z" fill="#04572a"></path>
                                <path id="b0d6060b-18a8-4fcb-b5b1-db2db906d600" data-name="Path 94" d="M28.71,24.3S28.44,31.38,33.4,34s4.81,5.53,4.81,5.53,5.21.69.4-5.06-8.48-5.41-7.89-9.6S28.71,24.3,28.71,24.3Z" fill="#ffd388"></path><path d="M38.68,40.67a4.44,4.44,0,0,1-.61,0,1.07,1.07,0,0,1-.93-1.12h0S37.08,37.23,32.9,35c-5.5-3-5.28-10.41-5.26-10.73a1.13,1.13,0,0,1,.2-.59C29,22.14,30,21.54,30.89,21.91c1.27.51,1,2.3.89,3.15-.25,1.8.34,2.34,2.43,3.92a29.47,29.47,0,0,1,5.22,4.84c1.32,1.57,3,3.85,2,5.55A3.05,3.05,0,0,1,38.68,40.67ZM30.36,28.33a7.74,7.74,0,0,0,3.55,4.77c3.68,2,4.85,4.11,5.21,5.39a.84.84,0,0,0,.45-.15s.2-.77-1.78-3.14a27.45,27.45,0,0,0-4.87-4.51A11.1,11.1,0,0,1,30.36,28.33Z" fill="#04572a"></path>
                                <path id="f3338344-03a8-4956-b3d9-415feb97a97b" data-name="Path 95" d="M17.61,16.15a4,4,0,0,1-2-4.58c.16-.55.43-1.05.59-1.59C16.73,8.19,16,6.29,15,4.69a8.83,8.83,0,0,0-1.3-1.75A7.62,7.62,0,0,0,7.26,1.17a1.41,1.41,0,0,0-1,.49,1.38,1.38,0,0,0-.17.52,1.9,1.9,0,0,0,.07,1.31c.34.59,1.17.62,1.86.61a5.34,5.34,0,0,1,2.77.51A3.77,3.77,0,0,1,12.43,6.7a6.22,6.22,0,0,1,.25,2.71c-.1,1-.38,2-.5,3a5.18,5.18,0,0,0,.39,3,5.88,5.88,0,0,0,1.59,1.78,24.88,24.88,0,0,0,2.09,1.58c1.08.75,4.64,2.72,6.71,4s4.28-.22,1.55-2.05Z" fill="#ffd388"></path>
                                <path d="M24.53,24.42a4,4,0,0,1-2.14-.66c-1-.64-2.42-1.46-3.66-2.18s-2.51-1.46-3.09-1.86c-.74-.51-1.48-1.07-2.17-1.65A6.87,6.87,0,0,1,11.64,16a6.1,6.1,0,0,1-.52-3.69c.06-.5.15-1,.25-1.51s.19-1,.25-1.51A5.4,5.4,0,0,0,11.41,7a2.7,2.7,0,0,0-1.2-1.5A4.59,4.59,0,0,0,8,5.17,3,3,0,0,1,5.2,4,2.88,2.88,0,0,1,5,2a2.47,2.47,0,0,1,.28-.83,2.46,2.46,0,0,1,1.83-1,8.67,8.67,0,0,1,7.35,2.08,9.91,9.91,0,0,1,1.47,2c1.39,2.33,1.82,4.34,1.3,6.12-.09.31-.21.6-.33.9a5.17,5.17,0,0,0-.26.69,3,3,0,0,0,1.48,3.34l.09,0,6.9,4.66c2.48,1.67,1.64,3.24,1.45,3.53A2.35,2.35,0,0,1,24.53,24.42ZM8.22,3a6.16,6.16,0,0,1,3.06.65,4.83,4.83,0,0,1,2.17,2.7,7.42,7.42,0,0,1,.3,3.17c-.06.56-.17,1.13-.27,1.68s-.18.9-.23,1.36a4,4,0,0,0,.27,2.4,5,5,0,0,0,1.28,1.41c.69.57,1.36,1.09,2.05,1.56.52.35,1.71,1,3,1.78s2.68,1.56,3.73,2.22a1.86,1.86,0,0,0,1.05.33,2.75,2.75,0,0,0-.68-.58l-6.86-4.63a5.11,5.11,0,0,1-2.48-5.78,8.52,8.52,0,0,1,.35-.93c.09-.23.18-.45.25-.68.35-1.18,0-2.63-1.09-4.44a8.17,8.17,0,0,0-1.15-1.56A6.57,6.57,0,0,0,7.41,2.23a1.38,1.38,0,0,0-.28.06v0A2.24,2.24,0,0,0,7.06,3,3.78,3.78,0,0,0,8,3Z" fill="#04572a"></path>
                                <path id="ebd9b0cc-0249-4ad6-84a7-76d637f9cc28" data-name="Path 96" d="M31,44.6h0a30,30,0,0,0,2.1-6.68c.78-3,5.1-9.23,7.88-10s1.32,1.48-.51,3.4S35,40.13,35.26,42.2c0,0-1.41,3.71-2.13,3.14Z" fill="#ffd388"></path>
                                <path d="M33.29,46.47a1.25,1.25,0,0,1-.62-.16l-2-.69A1.1,1.1,0,0,1,30,45a1.08,1.08,0,0,1,0-.88,22,22,0,0,0,1.66-5c.11-.46.23-.94.37-1.47.76-3,5.24-9.83,8.63-10.75.5-.14,2-.55,2.69.56.4.68.52,1.82-2.15,4.61-1.9,2-5.13,8.53-4.93,10a1.15,1.15,0,0,1-.06.52c-1.32,3.48-2.28,3.75-2.6,3.84A1.5,1.5,0,0,1,33.29,46.47ZM32.48,44l.62.21A12.33,12.33,0,0,0,34.17,42c0-2.79,3.7-9.53,5.53-11.44A16.54,16.54,0,0,0,41,29.07c-2.26,1-6.12,6.33-6.84,9.11l-.36,1.45A29.82,29.82,0,0,1,32.48,44Z" fill="#04572a"></path><path id="a70540e7-a2d2-4dbd-8a9e-bae8711704d8" data-name="Path 97" d="M19,28.43c0,1.1-.89-.36-2-.36a2,2,0,0,1,0-4C18.08,24.1,19,27.34,19,28.43Z" fill="#ffd388"></path><path d="M18.8,29.92a2,2,0,0,1-1.11-.44,2,2,0,0,0-.7-.34A3.06,3.06,0,0,1,17,23c2.27,0,3.06,4.45,3.06,5.4a1.39,1.39,0,0,1-.67,1.34A1.28,1.28,0,0,1,18.8,29.92Zm-1.95-4.73a.91.91,0,0,0-.75.88A.92.92,0,0,0,17,27a2.29,2.29,0,0,1,.66.09A5.57,5.57,0,0,0,16.85,25.19Z" fill="#04572a"></path>
                            </svg>