  <svg id="a180194d-89f2-4d88-bc35-ceb0cb0ed79d" data-name="Layer 1" xmlns="http://www.w3.org/2000/svg" viewBox="0 0 99 101">
                                <path id="e1d94b15-7e2b-4abc-9ab8-41ca7eb2914f" data-name="Path 63" d="M46.13,95.54c0,3-9,5.46-19.22,5.46s-16.9-3.29-17-6.26c-.11-4,7.53-4.56,17.74-4.56S46.13,92.58,46.13,95.54Z" fill="#0d351d" fill-rule="evenodd"></path>
                                <g id="a00d736d-bad3-43a1-b594-3f0fb912bf4d" data-name="Group 72">
                                    <path id="a8f4f540-255f-4892-b9e4-9ab6f20cf0a7" data-name="Path 64" d="M2,64.74,5.28,94s.54,6.46,15.81,6.35c7.22-.4,12.32-3.39,12.57-7.13S36.71,65.7,36.71,65.7s-6.61,6.7-18.46,5.35S3.52,68.09,2,64.74Z" fill="#fff"></path>
                                    <path id="a0c6716a-67cd-40fe-a99f-8021e7318ca8" data-name="Path 65" d="M38.14,62.1c0,4.95-8.34,9-18.63,9s-18.62-4-18.62-9,8.34-9,18.62-9S38.14,57.14,38.14,62.1Z" fill="#04572a"></path>
                                    <path id="a8b3a869-a22b-451f-af25-e3c121aaa2ea" data-name="Path 66" d="M36.07,61.83c0,4-7.4,7.3-16.53,7.3S3,65.86,3,61.83s7.41-7.29,16.54-7.29S36.07,57.8,36.07,61.83Z" fill="#fff"></path>
                                    <path d="M19.54,69.62c-9.55,0-17-3.42-17-7.79S10,54,19.54,54s17,3.42,17,7.79S29.08,69.62,19.54,69.62Zm0-14.59c-8.7,0-16,3.11-16,6.8s7.34,6.8,16,6.8,16-3.11,16-6.8S28.23,55,19.54,55Z" fill="#fff"></path>
                                    <path id="bb5d07cc-fca3-44bb-bd9c-0887c329a72a" data-name="Path 67" d="M4.54,64.91s3.58-5.24,14.33-5.24,15.48,5.4,15.48,5.4S21.48,74.42,4.54,64.91Z" fill="#b4c8cb"></path>
                                    <path d="M19.65,73.54h-.49a36,36,0,0,1-8.77-1.09.49.49,0,0,1,.24-1,35.52,35.52,0,0,0,8.72,1.06,33.62,33.62,0,0,0,10.19-1.49.5.5,0,0,1,.62.33.49.49,0,0,1-.33.61A34.47,34.47,0,0,1,19.65,73.54Z" fill="#04572a"></path>
                                    <g id="b608f267-8b00-4bc5-8d7e-a78edf16870c" data-name="Group 71">
                                        <path id="a1cff72d-6333-4671-9cc7-b5d34f0c5d8b" data-name="Path 69" d="M33.38,74.28a5.56,5.56,0,0,1,3-1,3.4,3.4,0,0,1,3.42,1.15,5.47,5.47,0,0,1,1,2.66,18.63,18.63,0,0,1-.28,5.22,6,6,0,0,1-6.24,5.38,5.77,5.77,0,0,1-.92-.11V90.2c.9-.24,1.76-.46,2.62-.71a8.45,8.45,0,0,0,6-5.42,17.71,17.71,0,0,0,.69-3.58A13.77,13.77,0,0,0,42.5,76a5.43,5.43,0,0,0-6.11-4.61,6.79,6.79,0,0,1-3,.07Z" fill="#fff"></path>
                                        <path d="M31.35,92.84V85.11l2.4.48a3.21,3.21,0,0,0,.53.07h.35a3.61,3.61,0,0,0,.73-.05A4.34,4.34,0,0,0,38.53,82a16.89,16.89,0,0,0,.27-4.66,3.44,3.44,0,0,0-.65-1.72c-.15-.2-.35-.46-1.59-.34a3.7,3.7,0,0,0-2,.62l-3.23,2.46V68.58l2.67,1a2.8,2.8,0,0,0,1.2,0c.32,0,.65-.1,1-.13a7.46,7.46,0,0,1,8.23,6.2,15.32,15.32,0,0,1,.14,5.23l0,.35a16.92,16.92,0,0,1-.74,3.61,10.5,10.5,0,0,1-7.29,6.67l-1.77.49Z" fill="#fff"></path>
                                        <path id="aef440ae-93f7-4569-930f-280defe90b0a" data-name="Path 70" d="M33.38,74.28V71.42a6.79,6.79,0,0,0,3-.07A5.43,5.43,0,0,1,42.5,76a13.77,13.77,0,0,1,.12,4.53,17.71,17.71,0,0,1-.69,3.58,8.43,8.43,0,0,1-6,5.42c-.86.25-1.72.47-2.62.72V87.56a5.77,5.77,0,0,0,.92.11A6,6,0,0,0,36,87.49a6.33,6.33,0,0,0,4.48-5.2,18.58,18.58,0,0,0,.28-5.21,5.47,5.47,0,0,0-1-2.67,3.43,3.43,0,0,0-3.42-1.15A5.56,5.56,0,0,0,33.38,74.28Z" fill="#fff"></path>
                                        <path d="M31.35,92.83V85.11l2.4.49a4.78,4.78,0,0,0,.53.06h.34a4.62,4.62,0,0,0,.75-.06A4.36,4.36,0,0,0,38.53,82a16.89,16.89,0,0,0,.27-4.66,3.57,3.57,0,0,0-.65-1.72c-.15-.2-.35-.46-1.59-.33a3.53,3.53,0,0,0-2,.61l-3.23,2.46V68.58l2.68,1a2.8,2.8,0,0,0,1.2,0c.33,0,.65-.1,1-.13a7.47,7.47,0,0,1,8.23,6.2,15.32,15.32,0,0,1,.14,5.23l0,.34a17.13,17.13,0,0,1-.74,3.62,10.48,10.48,0,0,1-7.29,6.67c-.6.18-1.21.34-1.83.51Z" fill="#fff"></path>
                                    </g>
                                </g>
                                <path d="M23.2,51c-.16-.25-3.81-6.1-.14-15a13.7,13.7,0,0,0-.87-12.79l2.6-1.87A16.91,16.91,0,0,1,26,37.24c-3,7.24-.25,11.82-.13,12Z" fill="#fd0" className="color-secondaire"></path>
                                <path id="b9ee7179-48ab-407e-be06-295c5e367426" data-name="Path 72" d="M63.18,63.83s1.43,3.89,5.34,4.67,12-.78,18.61-9.61,5.55-13,4.93-15.24-5-5.34-5-5.34Z" fill="#fff"></path>
                                <path d="M70.35,69.63a10.66,10.66,0,0,1-2-.18,8.72,8.72,0,0,1-6.06-5.28l-.21-.56L86.89,37l.69.49c.49.34,4.73,3.38,5.42,5.87.6,2.19,1.86,6.74-5.09,16.08C81.88,67.56,74.65,69.63,70.35,69.63Zm-6-5.62a6.68,6.68,0,0,0,4.38,3.54c3.24.65,11.1-.45,17.64-9.24,6.39-8.57,5.3-12.51,4.78-14.4-.33-1.2-2.4-3.1-4-4.31Z" fill="#04572a"></path>
                                <path id="e5a982b0-cf1f-4c5d-8fb5-99afa636d74d" data-name="Path 73" d="M63.07,14.48,87,38.31s5,7.88-5.76,18.95c-9.69,10-15.73,7.29-18.2,6.47L35.73,36l24-23.28Z" fill="#fff"></path>
                                <path d="M67.75,65.66a13.62,13.62,0,0,1-4.63-.89l-.57-.2-.17-.16L34.35,36,59.5,11.56l4.26,2.24,24.09,24c.22.35,5.23,8.66-5.88,20.15C75.93,64.18,71.15,65.66,67.75,65.66ZM63.6,62.88l.15,0c2.6.9,8,2.77,16.82-6.34,9.51-9.82,6.13-16.86,5.68-17.68L62.5,15.28l-2.64-1.36L37.1,36Z" fill="#04572a"></path>
                                <path id="aa4e1473-c53b-4e34-bd5e-f2ba49d6b0b7" data-name="Path 74" d="M35.73,36.07S30.59,40,30.07,39.88s.52-5.66,2.16-7.71C32.23,32.17,33,35.76,35.73,36.07Z" fill="#fff"></path>
                                <path d="M30.1,40.85l-.22,0a1.09,1.09,0,0,1-.8-.72c-.44-1.2.77-6.52,2.39-8.55l.76.61,1-.19s.62,2.9,2.65,3.13l2.41.27-1.93,1.47C31.63,40.41,30.58,40.85,30.1,40.85Zm2-6.4A20.34,20.34,0,0,0,31,38.27c.74-.49,1.73-1.19,2.72-1.93A5.61,5.61,0,0,1,32.08,34.45Z" fill="#04572a"></path>
                                <path id="f6f9a76a-bee1-4acc-8858-2370558e3620" data-name="Path 75" d="M30.48,39.77l10.08.83L35.73,36Z" fill="#fff"></path>
                                <path d="M43.23,41.79,27.77,40.53l8-5.76ZM33.2,39l4.69.39-2.25-2.13Z" fill="#04572a"></path>
                                <path id="afa77d81-4ba7-4ebd-9572-07c1c3bda6e0" data-name="Path 76" d="M56.52,9.24c4.3,3.85,2.74,12.58-3.46,19.51s-14.72,9.41-19,5.56-2.74-12.58,3.47-19.5S52.23,5.39,56.52,9.24Z" fill="#fff"></path>
                                <path d="M39.21,37.1A8.51,8.51,0,0,1,33.4,35c-4.69-4.2-3.17-13.57,3.38-20.88A23.94,23.94,0,0,1,47.46,7.05c3.92-1.15,7.37-.63,9.71,1.47h0c4.68,4.2,3.16,13.56-3.39,20.87A23.77,23.77,0,0,1,43.11,36.5,14,14,0,0,1,39.21,37.1ZM51.34,8.39A12.27,12.27,0,0,0,48,8.91a21.91,21.91,0,0,0-9.77,6.54C32.39,22,30.8,30.11,34.69,33.59c1.82,1.63,4.61,2,7.87,1a21.91,21.91,0,0,0,9.78-6.54c5.84-6.52,7.42-14.65,3.54-18.14h0A6.63,6.63,0,0,0,51.34,8.39Z" fill="#04572a"></path>
                                <path id="a6bc76bd-d287-4eeb-bb53-90627d57b44a" data-name="Path 77" d="M54,10c3.72,3.34,2.38,10.9-3,16.9S38.23,35,34.51,31.71s-2.38-10.9,3-16.9S50.26,6.65,54,10Z" fill="#fff"></path>
                                <path d="M39,34.25a7.49,7.49,0,0,1-5.12-1.82c-4.11-3.69-2.8-11.88,2.93-18.27A20.69,20.69,0,0,1,46.09,8c3.45-1,6.48-.54,8.54,1.3h0c2.06,1.85,2.84,4.81,2.22,8.34a20.8,20.8,0,0,1-5.15,9.93,20.88,20.88,0,0,1-9.31,6.2A12.14,12.14,0,0,1,39,34.25ZM49.49,9.38a10.42,10.42,0,0,0-2.85.44,18.91,18.91,0,0,0-8.41,5.63C33.22,21,31.84,28,35.15,31c1.54,1.39,3.92,1.7,6.7.88a18.88,18.88,0,0,0,8.41-5.62,18.92,18.92,0,0,0,4.68-9c.5-2.84-.07-5.17-1.61-6.55h0A5.63,5.63,0,0,0,49.49,9.38Z" fill="#04572a"></path>
                                <path id="feabc87b-235f-4ab2-85f4-5998dbef3e02" data-name="Path 78" d="M48.69,11.53c2.53,2.27,1.62,7.4-2,11.48S38,28.55,35.47,26.28s-1.62-7.4,2-11.47S46.17,9.27,48.69,11.53Z" fill="#fff"></path><path d="M38.51,28.32A5.35,5.35,0,0,1,34.82,27c-1.48-1.32-2-3.44-1.6-5.95a14.33,14.33,0,0,1,3.57-6.89,14.45,14.45,0,0,1,6.46-4.3c2.45-.71,4.61-.38,6.09,1h0c1.48,1.33,2,3.44,1.61,6a14.51,14.51,0,0,1-3.57,6.89A14.4,14.4,0,0,1,40.91,28,8.45,8.45,0,0,1,38.51,28.32Zm7.14-16.89a6.81,6.81,0,0,0-1.86.29,12.56,12.56,0,0,0-5.56,3.73,12.44,12.44,0,0,0-3.1,5.94c-.33,1.83,0,3.31,1,4.17s2.47,1.05,4.25.53a12.43,12.43,0,0,0,5.56-3.73A12.55,12.55,0,0,0,49,16.42c.32-1.82,0-3.3-1-4.17h0A3.48,3.48,0,0,0,45.65,11.43Z" fill="#04572a"></path>
                                <path id="b384029e-bb73-4969-b93a-3713df974c51" data-name="Path 79" d="M55.67,8.59s7.09-7.47,10-7.47,20,17.27,20,17.27S90,22.81,94.12,23L97,26.41s-7.2-.51-9.56-1.64S72,9.89,71,8.59s-2.67.34-3.39,1S62,15.08,62,15.08l-2.27-2.55Z" fill="#fff"></path><path d="M99.23,27.54l-2.3-.16c-.75-.06-7.45-.56-9.91-1.74S71.13,10.33,70.23,9.19c-.09-.11-.14-.12-.16-.12-.43-.05-1.3.74-1.64,1l-.2.18c-.57.48-4.23,4.12-5.6,5.48l-.73.72L59,13.18,54.31,8.61,55,7.92C56.2,6.62,62.51.15,65.64.15S82.28,13.59,86.38,17.71c0,.05,4.11,4.16,7.79,4.34l.42,0ZM70.05,7.13h.2a2.13,2.13,0,0,1,1.5.85c1,1.3,14,14.89,16.11,15.9,1.29.62,4.45,1.08,6.86,1.34L93.64,24c-4.29-.47-8.46-4.7-8.64-4.88-8.16-8.21-17.64-16.8-19.37-17-1.56,0-5.74,3.59-8.59,6.48l3.32,3.27L62,13.67c1.43-1.42,4.4-4.36,5-4.86l.18-.16A5,5,0,0,1,70.05,7.13Z" fill="#04572a"></path>
                                <path id="a0cac6a4-4a50-4a72-b88e-eb4b378ca55a" data-name="Path 80" d="M59.58,12.22a41.47,41.47,0,0,1,5-5.14c1.95-1.44,4.49-3.19,7.13-1.8" fill="#fff"></path>
                                <path d="M60.32,12.84,58.83,11.6A42.77,42.77,0,0,1,64,6.3C65.87,5,68.94,2.7,72.2,4.42l-.91,1.72c-2-1.07-4,.2-6.1,1.72A41.18,41.18,0,0,0,60.32,12.84Z" fill="#04572a"></path>
                                <path id="e8acf919-c8d8-4317-be37-9abed98dffcf" data-name="Path 81" d="M96.79,26.41S91.46,25,85.13,17.83" fill="#fff"></path>
                                <path d="M96.54,27.35c-.23-.06-5.68-1.59-12.13-8.87l1.45-1.29c6,6.81,11.14,8.27,11.19,8.28Z" fill="#04572a"></path>
                                <path id="b7e9ea39-74e3-43e7-a736-b51f9cdf9200" data-name="Path 82" d="M23.57,52.47a22.39,22.39,0,0,1-4.9-.49c-.9,2.88-1.62,6.21-1.73,13.23h5.95S22.36,57.76,23.57,52.47Z" fill="#b4c8cb" opacity="0.66" className="isolation:isolate"></path><path d="M9.16,51C9,50.72,5.35,44.87,9,36a13.7,13.7,0,0,0-.87-12.79l2.6-1.87A16.91,16.91,0,0,1,12,37.24c-3,7.24-.25,11.82-.13,12Z" className="color-secondaire" fill="#fd0"></path><path d="M16.48,51c-.17-.19-4-4.78-.16-11.69a7.82,7.82,0,0,0-.85-9.13l2-1.92a10.62,10.62,0,0,1,1.27,12.4c-2.85,5.16-.26,8.41-.15,8.55Z" className="color-secondaire" fill="#fd0"></path>
                                <path id="a0ec5670-b111-4fa6-a6f9-c4eea7931e0e" data-name="Path 85" d="M31.56,35.46s-9.1,3.18-13.2,17.6h4.69a2.58,2.58,0,0,1,.39,0c1.11-5.33,3.68-11.79,9.6-15.81Z" fill="#b4c8cb"></path>
                            </svg>