    <svg xmlns="http://www.w3.org/2000/svg" width="191.34" height="263.011" viewBox="0 0 191.34 263.011"><g transform="translate(3.352 1.038)">
                                <path d="M7846.688,1493.2c0,11.061-33.639,20.349-71.7,20.349s-63.355-12.28-63.355-23.34,28.089-17.036,66.144-17.036S7846.688,1482.136,7846.688,1493.2Z" transform="translate(-7674.332 -1251.572)" fill="#0d351d" fill-rule="evenodd"></path><g transform="translate(-0.001)">
                                    <g transform="translate(15.033 77.404)">
                                        <path d="M7698.931,1402.388l12.445,111.912s2.057,24.725,60.459,24.295c27.591-1.552,47.088-12.967,48.066-27.286s11.675-105.214,11.675-105.214-25.3,25.6-70.594,20.444S7704.629,1415.215,7698.931,1402.388Z" transform="translate(-7694.568 -1357.975)" fill="#fff"></path><ellipse cx="71.232" cy="34.321" rx="71.232" ry="34.321" fill="#04572a"></ellipse><ellipse cx="63.229" cy="27.897" rx="63.229" ry="27.897" transform="translate(8.088 5.401)" fill="#fff" stroke="#fff" stroke-linecap="round" stroke-linejoin="round" stroke-width="1.597"></ellipse>
                                        <path d="M7795.287,1420.83a130.716,130.716,0,0,1-39.538,5.768,135.4,135.4,0,0,1-33.82-4.108" transform="translate(-7685.146 -1350.419)" fill="none" stroke="#04572a" stroke-linecap="round" stroke-linejoin="round" stroke-width="1.597"></path>
                                        <g transform="translate(12.683 7.914)">
                                            <g transform="translate(81.474 22.325)">
                                                <path d="M7762.629,1422.324c28.437-4.452,35.676-14.263,35.676-14.263-9.839-13.177-11.684,9.944-25.3-15.727Z" transform="translate(-7762.629 -1392.334)" fill="#e4d2aa"></path>
                                            </g>
                                            <path d="M7740.137,1386.428c-22.595-4.346-28.442,4.751-34.228,12.707-4.857,6.681,8.515,5.2,5.005,12.679-3.2,6.831,42.672,20.014,77.643,13.175l11.192-32.361C7794.639,1383.619,7768.446,1409.207,7740.137,1386.428Z" transform="translate(-7704.833 -1372.889)" fill="#e4d2aa"></path>
                                            <path d="M7770.309,1387.159s.737-10.367,7.989-9.607-4.845,8.724-4,11.654S7770.663,1391.753,7770.309,1387.159Z" transform="translate(-7678.01 -1376.081)" fill="#e4d2aa"></path>
                                            <path d="M7781.838,1385.719s9.466-14.275,19.252-7.3-14.023,8.591-15.179,13.481S7778.622,1392.6,7781.838,1385.719Z" transform="translate(-7673.665 -1376.497)" fill="#e4d2aa"></path>
                                        </g>
                                        <path d="M7763.022,1398.017a22.988,22.988,0,0,0-3.187-5.74,3.145,3.145,0,0,0-1-.949c-1.186-.6-2.552.334-3.877.446a8.436,8.436,0,0,1-3.285-.782,12.113,12.113,0,0,0-5.608-.489c-.869.13-1.895.539-1.994,1.411a2.217,2.217,0,0,0,.3,1.145l1.768,3.812a1.721,1.721,0,0,0,.786.966,1.559,1.559,0,0,0,.925,0c2.1-.475,4.032-1.8,6.179-1.7a4.93,4.93,0,0,1,4.245,2.969" transform="translate(-7676.079 -1362.898)" fill="#ffd388" stroke="#04572a" stroke-linecap="round" stroke-linejoin="round" stroke-width="1.638"></path>
                                        <path d="M7734.9,1399.593q-1.514-1.032-3.116-1.919a8.487,8.487,0,0,0-3.118-1.166,7.231,7.231,0,0,0-4.117,1.024c-1.239.664-2.484,1.36-3.71,2.034a18.85,18.85,0,0,0-2.32,2.072,9.9,9.9,0,0,1-1.166-4.546,10.828,10.828,0,0,0-.052-1.633,1.909,1.909,0,0,0-.821-1.355,1.787,1.787,0,0,0-2.121.471,4.373,4.373,0,0,0-.916,2.131,17.708,17.708,0,0,0-.187,5.969,15.33,15.33,0,0,0,.729,3.128,9.979,9.979,0,0,0,.839,2.467,3,3,0,0,0,2.453.8,5.183,5.183,0,0,0,1.842-.193c1.373-.489,1.724-2.03,2.477-3.123a16.859,16.859,0,0,1,3.532-3.318,5.632,5.632,0,0,1,6.972.279" transform="translate(-7688.771 -1361.443)" fill="#ffd388" stroke="#04572a" stroke-linecap="round" stroke-linejoin="round" stroke-width="1.638"></path>
                                        <path d="M7731.606,1410.634a13.154,13.154,0,0,1,2.248-2.009,4.441,4.441,0,0,1,2.854-.8,5.3,5.3,0,0,1,1.128.278,13.727,13.727,0,0,1,2.477,1.13c1.75,1.019,3.293,2.439,5.216,3.079a12.23,12.23,0,0,0,3.769.485,10.339,10.339,0,0,0,4.825-.827,4.178,4.178,0,0,0,2.443-3.95,2.061,2.061,0,0,0-.406-1.062,1.968,1.968,0,0,0-2.7-.1,6.781,6.781,0,0,1-6.084,1.69,13.962,13.962,0,0,1-5.84-2.894,13.864,13.864,0,0,0-1.668-1.18,9.615,9.615,0,0,0-6.192-.595,6.193,6.193,0,0,0-2.288.716,6.859,6.859,0,0,0-1.672,1.661l-1.16,1.456" transform="translate(-7682.432 -1357.458)" fill="#ffd388" stroke="#04572a" stroke-linecap="round" stroke-linejoin="round" stroke-width="1.638"></path>
                                        <path d="M7752.349,1405.093q1.508-1.034,3.115-1.92a8.487,8.487,0,0,1,3.118-1.166,7.264,7.264,0,0,1,4.117,1.024c1.264.678,2.427,1.538,3.706,2.192a8.816,8.816,0,0,0,3.646,1.047,5.307,5.307,0,0,0,3.57-1.116,7.639,7.639,0,0,0,2.065-3.349c.334-.9.787-1.957,1.733-2.11a2.64,2.64,0,0,1,1.733.574,2.019,2.019,0,0,1,.587.476,1.934,1.934,0,0,1,.115,1.59c-.74,3.138-2.61,6.192-5.562,7.488a12.358,12.358,0,0,1-2.926.8c-2.56.436-5.425.479-7.479-1.108-.627-.482-1.143-1.092-1.769-1.572a5.638,5.638,0,0,0-6.973.279" transform="translate(-7672.686 -1359.086)" fill="#ffd388" stroke="#04572a" stroke-linecap="round" stroke-linejoin="round" stroke-width="1.638"></path>
                                        <path d="M7761.142,1399.984a3.862,3.862,0,0,0,1.005-4.1,7.129,7.129,0,0,1-.357-1.256,1.276,1.276,0,0,1,.412-1.178,1.777,1.777,0,0,1,.76-.262,7.989,7.989,0,0,1,1.941-.192,2.692,2.692,0,0,1,1.767.728,3.744,3.744,0,0,1,.779,2.573,7.768,7.768,0,0,1-.927,4.481" transform="translate(-7669.083 -1361.826)" fill="#ffd388" stroke="#04572a" stroke-linecap="round" stroke-linejoin="round" stroke-width="1.638"></path>
                                        <path d="M7721.456,1409.638c-.684-1.1-.407-2.518-.713-3.772a9.665,9.665,0,0,1-.266-1.062,1.275,1.275,0,0,1,.256-1.029,27.284,27.284,0,0,1,3.7-.285.377.377,0,0,1,.2.034.39.39,0,0,1,.142.282,6.232,6.232,0,0,1,.15,1.809c-.028.257-.088.508-.109.766-.091,1.188.687,2.308.632,3.5" transform="translate(-7685.749 -1357.524)" fill="#ffd388" stroke="#04572a" stroke-linecap="round" stroke-linejoin="round" stroke-width="1.638"></path>
                                    </g>
                                    <g transform="translate(29.196)">
                                        <path d="M7732.955,1438.415c-.111-1.112-.267-2.192-.32-3.277-.227-4.562-.1-9.1,1.409-13.47a35.3,35.3,0,0,1,2.115-4.477,1.271,1.271,0,0,0,.137-1.087q-9.577-29.487-19.126-58.982c-3.662-11.3-7.292-22.617-11.012-33.9a5.55,5.55,0,0,1,3.562-7.009,5.436,5.436,0,0,1,6.724,3.691q6.3,19.477,12.6,38.957,8.651,26.76,17.32,53.516a1.059,1.059,0,0,0,.507.65,20.476,20.476,0,0,1,9.008,6.11,45.157,45.157,0,0,1,9.482,16.667c.444,1.321.756,2.684,1.121,4.03a6.63,6.63,0,0,1,.116.684" transform="translate(-7705.884 -1315.974)" fill="#fff" stroke="#04572a" stroke-miterlimit="10" stroke-width="2.043"></path>
                                    </g>
                                    <path d="M7709.956,1358.428s-54.943-15.122-1.216-29.274" transform="translate(-7685.172 -1310.575)" fill="none" className="color-secondaire-stroke" stroke="#fd0" stroke-miterlimit="10" stroke-width="6.414"></path><path d="M7721.278,1324.767s99.376-16.185,132.449,20.789c7.516,9.166-17.986,21.371-57.849,22.034" transform="translate(-7670.379 -1313.817)" fill="none" className="color-secondaire-stroke" stroke="#fd0" stroke-miterlimit="10" stroke-width="6.414"></path>
                                    <path d="M7783.379,1346.59l-21.742,15.117,26.434,5.509" transform="translate(-7653.844 -1303.432)" fill="none" className="color-secondaire-stroke" stroke="#fd0" stroke-linecap="round" stroke-linejoin="round" stroke-width="3.207"></path>
                                    <g transform="translate(140.883 146.871)">
                                        <path d="M7785.215,1431.271c3.423-2.618,7.234-3.418,11.219-3.829,4.984-.513,9.618-.055,12.866,4.319a20.637,20.637,0,0,1,3.874,10.067c.774,6.623-.019,13.168-1.08,19.67-1.62,9.914-7.57,16.322-16.869,19.614-2.038.722-4.41.578-6.637.671a21.181,21.181,0,0,1-3.477-.411v9.978c3.39-.929,6.641-1.769,9.86-2.715,10.793-3.171,18.712-9.72,22.5-20.421,1.512-4.273,1.993-8.956,2.581-13.5a51.061,51.061,0,0,0-.445-17.107c-2.45-11.764-11.052-18.284-23.055-17.362-3.752.289-7.464,1.635-11.336.252Z" transform="translate(-7785.111 -1420.161)" fill="#fff" stroke="#fff" stroke-miterlimit="10" stroke-width="6.414"></path>
                                        <path d="M7785.215,1431.271V1420.5c3.872,1.383,7.584.037,11.336-.252,12-.922,20.6,5.6,23.055,17.362a51.061,51.061,0,0,1,.445,17.107c-.588,4.542-1.069,9.225-2.581,13.5-3.786,10.7-11.705,17.25-22.5,20.421-3.22.946-6.471,1.786-9.86,2.715v-9.978a21.181,21.181,0,0,0,3.477.411c2.227-.093,4.6.051,6.637-.671,9.3-3.293,15.249-9.7,16.869-19.614,1.062-6.5,1.854-13.047,1.08-19.67a20.637,20.637,0,0,0-3.874-10.067c-3.248-4.375-7.882-4.832-12.866-4.319C7792.449,1427.852,7788.638,1428.653,7785.215,1431.271Z" transform="translate(-7785.111 -1420.161)" fill="#fff" stroke="#fff" stroke-miterlimit="10" stroke-width="6.414"></path>
                                    </g>
                                </g>
                            </g>
                            </svg>